<?xml version="1.0" encoding="UTF-8"?>
<svg xmlns="http://www.w3.org/2000/svg" xmlns:xlink="http://www.w3.org/1999/xlink" width="224.22508pt" height="312.80777pt" viewBox="0 0 224.22508 312.80777" version="1.1">
<g id="surface1">
<path style="fill-rule:nonzero;fill:rgb(100%,100%,100%);fill-opacity:1;stroke-width:0.996733;stroke-linecap:butt;stroke-linejoin:miter;stroke:rgb(0%,0%,0%);stroke-opacity:1;stroke-miterlimit:4;" d="M 6715.016286 -2434.99837 L 6916.985036 -2434.99837 C 6922.85613 -2434.99837 6927.613943 -2430.240557 6927.613943 -2424.369464 L 6927.613943 -2133.818682 C 6927.613943 -2127.947589 6922.85613 -2123.189776 6916.985036 -2123.189776 L 6715.016286 -2123.189776 C 6709.145193 -2123.189776 6704.38738 -2127.947589 6704.38738 -2133.818682 L 6704.38738 -2424.369464 C 6704.38738 -2430.240557 6709.145193 -2434.99837 6715.016286 -2434.99837 Z M 6715.016286 -2434.99837 " transform="matrix(1,0,0,1,-6703.88738,2435.49837)"/>
<path style=" stroke:none;fill-rule:nonzero;fill:rgb(83.137255%,0%,0%);fill-opacity:1;" d="M 8.125 45.84375 L 8.125 14.335938 L 11.238281 14.335938 L 11.238281 45.84375 Z M 8.125 45.84375 "/>
<path style=" stroke:none;fill-rule:nonzero;fill:rgb(83.137255%,0%,0%);fill-opacity:1;" d="M 20.457031 14.335938 C 17.460938 14.335938 15.054688 17.023438 15.054688 20.359375 L 15.054688 39.820312 C 15.054688 43.15625 17.460938 45.84375 20.457031 45.84375 L 22.203125 45.84375 C 25.195312 45.84375 27.605469 43.15625 27.605469 39.820312 L 27.605469 20.359375 C 27.605469 17.023438 25.195312 14.335938 22.203125 14.335938 Z M 21.355469 17.3125 C 23.125 17.3125 24.546875 18.652344 24.546875 20.316406 L 24.546875 40.039062 C 24.546875 41.703125 23.125 43.042969 21.355469 43.042969 C 19.589844 43.042969 18.164062 41.703125 18.164062 40.039062 L 18.164062 20.316406 C 18.164062 18.652344 19.589844 17.3125 21.355469 17.3125 Z M 21.355469 17.3125 "/>
<path style=" stroke:none;fill-rule:nonzero;fill:rgb(83.137255%,0%,0%);fill-opacity:1;" d="M 216.097656 266.964844 L 216.097656 298.472656 L 212.988281 298.472656 L 212.988281 266.964844 Z M 216.097656 266.964844 "/>
<path style=" stroke:none;fill-rule:nonzero;fill:rgb(83.137255%,0%,0%);fill-opacity:1;" d="M 203.769531 298.472656 C 206.761719 298.472656 209.171875 295.785156 209.171875 292.449219 L 209.171875 272.988281 C 209.171875 269.652344 206.761719 266.964844 203.769531 266.964844 L 202.023438 266.964844 C 199.03125 266.964844 196.617188 269.652344 196.617188 272.988281 L 196.617188 292.449219 C 196.617188 295.785156 199.03125 298.472656 202.023438 298.472656 Z M 202.867188 295.492188 C 201.097656 295.492188 199.675781 294.15625 199.675781 292.492188 L 199.675781 272.769531 C 199.675781 271.105469 201.097656 269.761719 202.867188 269.761719 C 204.636719 269.761719 206.058594 271.105469 206.058594 272.769531 L 206.058594 292.492188 C 206.058594 294.15625 204.636719 295.492188 202.867188 295.492188 Z M 202.867188 295.492188 "/>
<path style=" stroke:none;fill-rule:nonzero;fill:rgb(83.137255%,0%,0%);fill-opacity:1;" d="M 9.023438 60.636719 C 7.441406 57.164062 7.265625 51.234375 11.992188 50.429688 C 15.554688 49.972656 17.003906 51.628906 17.292969 54.171875 C 17.4375 54.914062 17.855469 54.960938 17.988281 54.113281 C 18.191406 51.503906 20.777344 49.980469 22.792969 50.363281 C 28.320312 51.308594 28 57.390625 26.191406 61.519531 C 23.460938 67 20.59375 70.457031 17.949219 75.972656 C 14.910156 70.230469 11.441406 65.566406 9.023438 60.636719 Z M 9.023438 60.636719 "/>
<path style=" stroke:none;fill-rule:nonzero;fill:rgb(83.137255%,0%,0%);fill-opacity:1;" d="M 43.523438 28.820312 C 50.667969 28.347656 54.394531 34.449219 55.121094 39.257812 C 55.554688 40.023438 55.789062 39.808594 55.957031 39.214844 C 56.304688 33.042969 61.832031 27.996094 66.949219 28.683594 C 75.277344 28.792969 80.339844 38.0625 78.917969 45.902344 C 77.175781 55.484375 72.015625 61.253906 68.109375 67.199219 C 63.6875 73.351562 57.734375 82.238281 55.816406 86.515625 C 55.816406 86.515625 49.769531 77.308594 41.902344 66.484375 C 36.640625 59.246094 32.429688 51.402344 32.035156 44.648438 C 31.589844 36.933594 34.753906 30.015625 43.523438 28.820312 Z M 43.523438 28.820312 "/>
<path style=" stroke:none;fill-rule:nonzero;fill:rgb(83.137255%,0%,0%);fill-opacity:1;" d="M 99.707031 61.488281 C 106.851562 61.011719 110.578125 67.113281 111.304688 71.921875 C 111.738281 72.6875 111.972656 72.472656 112.140625 71.882812 C 112.488281 65.707031 118.015625 60.660156 123.132812 61.351562 C 131.460938 61.460938 136.523438 70.726562 135.097656 78.570312 C 133.359375 88.152344 128.199219 93.921875 124.292969 99.863281 C 119.871094 106.015625 113.917969 114.902344 112 119.179688 C 112 119.179688 105.953125 109.976562 98.085938 99.148438 C 92.824219 91.910156 88.609375 84.066406 88.21875 77.316406 C 87.769531 69.597656 90.9375 62.683594 99.707031 61.488281 Z M 99.707031 61.488281 "/>
<path style=" stroke:none;fill-rule:nonzero;fill:rgb(83.137255%,0%,0%);fill-opacity:1;" d="M 155.058594 28.820312 C 162.203125 28.347656 165.925781 34.449219 166.652344 39.257812 C 167.085938 40.023438 167.324219 39.808594 167.488281 39.214844 C 167.839844 33.042969 173.363281 27.996094 178.484375 28.683594 C 186.808594 28.792969 191.871094 38.0625 190.449219 45.902344 C 188.710938 55.484375 183.550781 61.253906 179.640625 67.199219 C 175.21875 73.351562 169.269531 82.238281 167.351562 86.515625 C 167.351562 86.515625 161.300781 77.308594 153.433594 66.484375 C 148.171875 59.246094 143.960938 51.402344 143.570312 44.648438 C 143.121094 36.933594 146.289062 30.015625 155.058594 28.820312 Z M 155.058594 28.820312 "/>
<path style=" stroke:none;fill-rule:nonzero;fill:rgb(83.137255%,0%,0%);fill-opacity:1;" d="M 155.058594 94.152344 C 162.203125 93.679688 165.925781 99.78125 166.652344 104.589844 C 167.085938 105.351562 167.324219 105.136719 167.488281 104.546875 C 167.839844 98.371094 173.363281 93.324219 178.484375 94.015625 C 186.808594 94.125 191.871094 103.390625 190.449219 111.234375 C 188.710938 120.816406 183.550781 126.585938 179.640625 132.527344 C 175.21875 138.679688 169.269531 147.566406 167.351562 151.84375 C 167.351562 151.84375 161.300781 142.640625 153.433594 131.816406 C 148.171875 124.578125 143.960938 116.734375 143.570312 109.980469 C 143.121094 102.265625 146.289062 95.347656 155.058594 94.152344 Z M 155.058594 94.152344 "/>
<path style=" stroke:none;fill-rule:nonzero;fill:rgb(83.137255%,0%,0%);fill-opacity:1;" d="M 43.523438 94.152344 C 50.667969 93.679688 54.394531 99.78125 55.121094 104.589844 C 55.554688 105.351562 55.789062 105.136719 55.957031 104.546875 C 56.304688 98.371094 61.832031 93.324219 66.949219 94.015625 C 75.277344 94.125 80.339844 103.390625 78.917969 111.234375 C 77.175781 120.816406 72.015625 126.585938 68.109375 132.527344 C 63.6875 138.679688 57.734375 147.566406 55.816406 151.84375 C 55.816406 151.84375 49.769531 142.640625 41.902344 131.816406 C 36.640625 124.578125 32.429688 116.734375 32.035156 109.980469 C 31.589844 102.265625 34.753906 95.347656 43.523438 94.152344 Z M 43.523438 94.152344 "/>
<path style=" stroke:none;fill-rule:nonzero;fill:rgb(83.137255%,0%,0%);fill-opacity:1;" d="M 155.058594 218.542969 C 162.203125 219.015625 165.925781 212.914062 166.652344 208.105469 C 167.085938 207.34375 167.324219 207.558594 167.488281 208.148438 C 167.839844 214.324219 173.363281 219.367188 178.484375 218.679688 C 186.808594 218.570312 191.871094 209.304688 190.449219 201.460938 C 188.710938 191.878906 183.550781 186.109375 179.640625 180.167969 C 175.21875 174.015625 169.269531 165.128906 167.351562 160.851562 C 167.351562 160.851562 161.300781 170.054688 153.433594 180.878906 C 148.171875 188.117188 143.960938 195.960938 143.570312 202.714844 C 143.121094 210.429688 146.289062 217.347656 155.058594 218.542969 Z M 155.058594 218.542969 "/>
<path style=" stroke:none;fill-rule:nonzero;fill:rgb(83.137255%,0%,0%);fill-opacity:1;" d="M 155.058594 283.648438 C 162.203125 284.121094 165.925781 278.019531 166.652344 273.210938 C 167.085938 272.449219 167.324219 272.664062 167.488281 273.253906 C 167.839844 279.429688 173.363281 284.472656 178.484375 283.785156 C 186.808594 283.675781 191.871094 274.410156 190.449219 266.566406 C 188.710938 256.984375 183.550781 251.214844 179.640625 245.273438 C 175.21875 239.121094 169.269531 230.234375 167.351562 225.957031 C 167.351562 225.957031 161.300781 235.160156 153.433594 245.984375 C 148.171875 253.222656 143.960938 261.066406 143.570312 267.820312 C 143.121094 275.535156 146.289062 282.453125 155.058594 283.648438 Z M 155.058594 283.648438 "/>
<path style=" stroke:none;fill-rule:nonzero;fill:rgb(83.137255%,0%,0%);fill-opacity:1;" d="M 99.242188 251.09375 C 106.382812 251.570312 110.109375 245.46875 110.835938 240.660156 C 111.269531 239.894531 111.507812 240.109375 111.671875 240.699219 C 112.023438 246.875 117.546875 251.921875 122.664062 251.230469 C 130.992188 251.121094 136.054688 241.855469 134.632812 234.011719 C 132.894531 224.429688 127.730469 218.660156 123.824219 212.71875 C 119.402344 206.566406 113.453125 197.679688 111.535156 193.402344 C 111.535156 193.402344 105.484375 202.605469 97.617188 213.433594 C 92.355469 220.671875 88.144531 228.515625 87.75 235.265625 C 87.304688 242.984375 90.472656 249.898438 99.242188 251.09375 Z M 99.242188 251.09375 "/>
<path style=" stroke:none;fill-rule:nonzero;fill:rgb(83.137255%,0%,0%);fill-opacity:1;" d="M 43.523438 218.542969 C 50.667969 219.015625 54.394531 212.914062 55.121094 208.105469 C 55.554688 207.34375 55.789062 207.558594 55.957031 208.148438 C 56.304688 214.324219 61.832031 219.367188 66.949219 218.679688 C 75.277344 218.570312 80.339844 209.304688 78.917969 201.460938 C 77.175781 191.878906 72.015625 186.109375 68.109375 180.167969 C 63.6875 174.015625 57.734375 165.128906 55.816406 160.851562 C 55.816406 160.851562 49.769531 170.054688 41.902344 180.878906 C 36.640625 188.117188 32.429688 195.960938 32.035156 202.714844 C 31.589844 210.429688 34.753906 217.347656 43.523438 218.542969 Z M 43.523438 218.542969 "/>
<path style=" stroke:none;fill-rule:nonzero;fill:rgb(83.137255%,0%,0%);fill-opacity:1;" d="M 43.523438 283.648438 C 50.667969 284.121094 54.394531 278.019531 55.121094 273.210938 C 55.554688 272.449219 55.789062 272.664062 55.957031 273.253906 C 56.304688 279.429688 61.832031 284.472656 66.949219 283.785156 C 75.277344 283.675781 80.339844 274.410156 78.917969 266.566406 C 77.175781 256.984375 72.015625 251.214844 68.109375 245.273438 C 63.6875 239.121094 57.734375 230.234375 55.816406 225.957031 C 55.816406 225.957031 49.769531 235.160156 41.902344 245.984375 C 36.640625 253.222656 32.429688 261.066406 32.035156 267.820312 C 31.589844 275.535156 34.753906 282.453125 43.523438 283.648438 Z M 43.523438 283.648438 "/>
<path style=" stroke:none;fill-rule:nonzero;fill:rgb(83.137255%,0%,0%);fill-opacity:1;" d="M 197.835938 251.496094 C 196.253906 254.96875 196.082031 260.902344 200.808594 261.703125 C 204.371094 262.160156 205.820312 260.503906 206.109375 257.960938 C 206.25 257.21875 206.671875 257.171875 206.804688 258.019531 C 207.007812 260.628906 209.589844 262.152344 211.609375 261.769531 C 217.136719 260.824219 216.8125 254.742188 215.007812 250.613281 C 212.277344 245.136719 209.40625 241.675781 206.761719 236.164062 C 203.726562 241.902344 200.257812 246.566406 197.835938 251.496094 Z M 197.835938 251.496094 "/>
</g>
</svg>
