<?xml version="1.0" encoding="UTF-8"?>
<svg xmlns="http://www.w3.org/2000/svg" xmlns:xlink="http://www.w3.org/1999/xlink" width="224.22508pt" height="312.80777pt" viewBox="0 0 224.22508 312.80777" version="1.1">
<g id="surface1">
<path style="fill-rule:nonzero;fill:rgb(100%,100%,100%);fill-opacity:1;stroke-width:0.996733;stroke-linecap:butt;stroke-linejoin:miter;stroke:rgb(0%,0%,0%);stroke-opacity:1;stroke-miterlimit:4;" d="M 6268.559736 -2746.8094 L 6470.528486 -2746.8094 C 6476.39958 -2746.8094 6481.157392 -2742.051588 6481.157392 -2736.180494 L 6481.157392 -2445.629713 C 6481.157392 -2439.758619 6476.39958 -2435.000806 6470.528486 -2435.000806 L 6268.559736 -2435.000806 C 6262.688642 -2435.000806 6257.93083 -2439.758619 6257.93083 -2445.629713 L 6257.93083 -2736.180494 C 6257.93083 -2742.051588 6262.688642 -2746.8094 6268.559736 -2746.8094 Z M 6268.559736 -2746.8094 " transform="matrix(1,0,0,1,-6257.43083,2747.3094)"/>
<path style=" stroke:none;fill-rule:nonzero;fill:rgb(83.137255%,0%,0%);fill-opacity:1;" d="M 9.578125 60.730469 C 7.996094 57.257812 7.820312 51.324219 12.550781 50.523438 C 16.113281 50.0625 17.5625 51.71875 17.847656 54.265625 C 17.992188 55.007812 18.410156 55.050781 18.542969 54.207031 C 18.75 51.597656 21.332031 50.074219 23.351562 50.457031 C 28.875 51.402344 28.554688 57.484375 26.75 61.609375 C 24.019531 67.089844 21.148438 70.546875 18.503906 76.0625 C 15.464844 70.320312 11.996094 65.65625 9.578125 60.730469 Z M 9.578125 60.730469 "/>
<path style=" stroke:none;fill-rule:nonzero;fill:rgb(83.137255%,0%,0%);fill-opacity:1;" d="M 197.300781 252 C 195.71875 255.472656 195.546875 261.40625 200.273438 262.210938 C 203.835938 262.667969 205.285156 261.011719 205.574219 258.46875 C 205.714844 257.726562 206.132812 257.679688 206.269531 258.527344 C 206.472656 261.136719 209.054688 262.660156 211.074219 262.277344 C 216.601562 261.332031 216.277344 255.246094 214.472656 251.121094 C 211.742188 245.640625 208.871094 242.183594 206.226562 236.667969 C 203.1875 242.410156 199.71875 247.074219 197.300781 252 Z M 197.300781 252 "/>
<path style=" stroke:none;fill-rule:nonzero;fill:rgb(83.137255%,0%,0%);fill-opacity:1;" d="M 8.671875 47.136719 L 8.835938 45.117188 C 9.347656 38.878906 10.710938 36.769531 18.457031 30.261719 C 22.21875 27.101562 23.453125 25.542969 23.625 23.734375 C 24.117188 19.476562 20.277344 18.144531 17.773438 18.121094 C 14.53125 18.089844 10.863281 20.03125 12.609375 24.535156 L 8.972656 25.601562 C 8.238281 21.402344 8.992188 17.460938 12.398438 15.710938 C 16.945312 13.429688 22.78125 14.324219 25.722656 17.917969 C 27.699219 20.332031 28.152344 23.664062 27.089844 26.273438 C 23.988281 32.945312 13.46875 35.878906 12.601562 43.59375 L 24.230469 43.59375 L 24.230469 39.296875 L 27.65625 39.296875 L 27.65625 47.203125 Z M 8.671875 47.136719 "/>
<path style=" stroke:none;fill-rule:nonzero;fill:rgb(83.137255%,0%,0%);fill-opacity:1;" d="M 215.28125 265.671875 L 215.117188 267.691406 C 214.605469 273.929688 213.242188 276.039062 205.492188 282.546875 C 201.734375 285.707031 200.5 287.265625 200.324219 289.074219 C 199.835938 293.332031 203.675781 294.664062 206.179688 294.6875 C 209.421875 294.714844 213.089844 292.773438 211.34375 288.273438 L 214.976562 287.203125 C 215.710938 291.40625 214.960938 295.347656 211.554688 297.097656 C 207.007812 299.375 201.171875 298.480469 198.230469 294.890625 C 196.25 292.476562 195.800781 289.144531 196.863281 286.535156 C 199.960938 279.863281 210.484375 276.929688 211.351562 269.214844 L 199.722656 269.214844 L 199.722656 273.511719 L 196.296875 273.511719 L 196.296875 265.601562 Z M 215.28125 265.671875 "/>
<path style=" stroke:none;fill-rule:nonzero;fill:rgb(83.137255%,0%,0%);fill-opacity:1;" d="M 100.027344 28.464844 C 107.171875 27.988281 110.894531 34.089844 111.621094 38.902344 C 112.054688 39.664062 112.292969 39.449219 112.460938 38.859375 C 112.808594 32.683594 118.335938 27.636719 123.453125 28.328125 C 131.78125 28.4375 136.839844 37.703125 135.417969 45.546875 C 133.679688 55.128906 128.519531 60.898438 124.609375 66.839844 C 120.191406 72.992188 114.238281 81.878906 112.320312 86.15625 C 112.320312 86.15625 106.273438 76.953125 98.402344 66.128906 C 93.140625 58.886719 88.929688 51.042969 88.539062 44.292969 C 88.089844 36.578125 91.257812 29.660156 100.027344 28.464844 Z M 100.027344 28.464844 "/>
<path style=" stroke:none;fill-rule:nonzero;fill:rgb(83.137255%,0%,0%);fill-opacity:1;" d="M 100.027344 284.765625 C 107.171875 285.238281 110.894531 279.136719 111.621094 274.328125 C 112.054688 273.566406 112.292969 273.78125 112.460938 274.371094 C 112.808594 280.546875 118.335938 285.589844 123.453125 284.902344 C 131.78125 284.792969 136.839844 275.527344 135.417969 267.683594 C 133.679688 258.101562 128.519531 252.332031 124.609375 246.390625 C 120.191406 240.238281 114.238281 231.351562 112.320312 227.074219 C 112.320312 227.074219 106.273438 236.277344 98.402344 247.101562 C 93.140625 254.339844 88.929688 262.183594 88.539062 268.9375 C 88.089844 276.652344 91.257812 283.570312 100.027344 284.765625 Z M 100.027344 284.765625 "/>
</g>
</svg>
