<?xml version="1.0" encoding="UTF-8"?>
<svg xmlns="http://www.w3.org/2000/svg" xmlns:xlink="http://www.w3.org/1999/xlink" width="224.22508pt" height="312.80777pt" viewBox="0 0 224.22508 312.80777" version="1.1">
<g id="surface1">
<path style="fill-rule:nonzero;fill:rgb(100%,100%,100%);fill-opacity:1;stroke-width:0.996733;stroke-linecap:butt;stroke-linejoin:miter;stroke:rgb(0%,0%,0%);stroke-opacity:1;stroke-miterlimit:4;" d="M 6491.788256 -2746.8094 L 6693.757006 -2746.8094 C 6699.6281 -2746.8094 6704.385912 -2742.051588 6704.385912 -2736.180494 L 6704.385912 -2445.629713 C 6704.385912 -2439.758619 6699.6281 -2435.000806 6693.757006 -2435.000806 L 6491.788256 -2435.000806 C 6485.917162 -2435.000806 6481.15935 -2439.758619 6481.15935 -2445.629713 L 6481.15935 -2736.180494 C 6481.15935 -2742.051588 6485.917162 -2746.8094 6491.788256 -2746.8094 Z M 6491.788256 -2746.8094 " transform="matrix(1,0,0,1,-6480.65935,2747.3094)"/>
<path style=" stroke:none;fill-rule:nonzero;fill:rgb(83.137255%,0%,0%);fill-opacity:1;" d="M 8.949219 39.710938 L 11.496094 37.871094 C 13.707031 41.40625 16.179688 43.734375 19.960938 43.335938 C 25.632812 42.953125 27.984375 37.113281 26.796875 32.710938 C 25.648438 28.765625 20.949219 26.84375 17.21875 28.949219 C 16.335938 29.445312 15.320312 30.058594 15.320312 30.058594 L 13.988281 27.894531 L 22.753906 17.699219 L 13.242188 17.699219 L 13.242188 21.917969 L 9.59375 21.917969 L 9.59375 14.351562 L 28.183594 14.351562 L 28.183594 16.921875 C 28.183594 16.921875 23.203125 21.988281 21.554688 24.769531 C 25.609375 24.914062 28.878906 27.4375 30.046875 31.425781 C 30.734375 33.523438 30.425781 38.328125 29.53125 40.394531 C 28.039062 43.84375 23.949219 46.644531 20.210938 46.804688 C 13.9375 47.21875 10.609375 42.902344 8.949219 39.710938 Z M 8.949219 39.710938 "/>
<path style=" stroke:none;fill-rule:nonzero;fill:rgb(83.137255%,0%,0%);fill-opacity:1;" d="M 215.277344 273.097656 L 212.730469 274.9375 C 210.515625 271.402344 208.046875 269.074219 204.265625 269.472656 C 198.589844 269.855469 196.242188 275.695312 197.429688 280.097656 C 198.578125 284.042969 203.277344 285.964844 207.007812 283.859375 C 207.886719 283.363281 208.90625 282.84375 208.90625 282.84375 L 210.480469 284.878906 L 201.472656 295.109375 L 210.980469 295.109375 L 210.980469 290.890625 L 214.632812 290.890625 L 214.632812 298.453125 L 196.042969 298.453125 L 196.042969 295.886719 C 196.042969 295.886719 201.019531 290.820312 202.667969 288.039062 C 198.613281 287.890625 195.347656 285.371094 194.175781 281.382812 C 193.492188 279.285156 193.800781 274.480469 194.695312 272.414062 C 196.1875 268.960938 200.277344 266.164062 204.015625 266.003906 C 210.285156 265.589844 213.617188 269.902344 215.277344 273.097656 Z M 215.277344 273.097656 "/>
<path style=" stroke:none;fill-rule:nonzero;fill:rgb(83.137255%,0%,0%);fill-opacity:1;" d="M 10.242188 61.164062 C 8.65625 57.691406 8.484375 51.757812 13.210938 50.953125 C 16.773438 50.496094 18.222656 52.152344 18.511719 54.695312 C 18.65625 55.441406 19.074219 55.484375 19.207031 54.636719 C 19.410156 52.027344 21.996094 50.503906 24.011719 50.886719 C 29.539062 51.832031 29.21875 57.917969 27.410156 62.042969 C 24.679688 67.523438 21.8125 70.980469 19.167969 76.496094 C 16.128906 70.753906 12.660156 66.089844 10.242188 61.164062 Z M 10.242188 61.164062 "/>
<path style=" stroke:none;fill-rule:nonzero;fill:rgb(83.137255%,0%,0%);fill-opacity:1;" d="M 100 29.234375 C 107.144531 28.761719 110.867188 34.863281 111.59375 39.671875 C 112.027344 40.4375 112.265625 40.21875 112.429688 39.628906 C 112.78125 33.457031 118.304688 28.410156 123.425781 29.097656 C 131.753906 29.207031 136.8125 38.476562 135.390625 46.316406 C 133.652344 55.898438 128.492188 61.667969 124.582031 67.609375 C 120.160156 73.761719 114.210938 82.652344 112.292969 86.929688 C 112.292969 86.929688 106.246094 77.722656 98.375 66.898438 C 93.113281 59.660156 88.902344 51.816406 88.511719 45.0625 C 88.0625 37.347656 91.230469 30.429688 100 29.234375 Z M 100 29.234375 "/>
<path style=" stroke:none;fill-rule:nonzero;fill:rgb(83.137255%,0%,0%);fill-opacity:1;" d="M 100.0625 127.65625 C 107.207031 127.183594 110.929688 133.285156 111.65625 138.09375 C 112.089844 138.859375 112.328125 138.640625 112.496094 138.050781 C 112.84375 131.878906 118.371094 126.832031 123.488281 127.519531 C 131.816406 127.628906 136.875 136.898438 135.453125 144.738281 C 133.714844 154.320312 128.554688 160.089844 124.644531 166.03125 C 120.226562 172.183594 114.273438 181.074219 112.355469 185.351562 C 112.355469 185.351562 106.308594 176.144531 98.4375 165.320312 C 93.175781 158.082031 88.964844 150.238281 88.574219 143.484375 C 88.125 135.769531 91.292969 128.851562 100.0625 127.65625 Z M 100.0625 127.65625 "/>
<path style=" stroke:none;fill-rule:nonzero;fill:rgb(83.137255%,0%,0%);fill-opacity:1;" d="M 197.226562 252.375 C 195.644531 255.847656 195.472656 261.78125 200.199219 262.582031 C 203.761719 263.042969 205.210938 261.382812 205.5 258.839844 C 205.640625 258.097656 206.0625 258.050781 206.195312 258.898438 C 206.398438 261.507812 208.980469 263.03125 211 262.648438 C 216.527344 261.703125 216.203125 255.621094 214.398438 251.492188 C 211.667969 246.015625 208.796875 242.554688 206.152344 237.042969 C 203.117188 242.78125 199.644531 247.445312 197.226562 252.375 Z M 197.226562 252.375 "/>
<path style=" stroke:none;fill-rule:nonzero;fill:rgb(83.137255%,0%,0%);fill-opacity:1;" d="M 100 283.832031 C 107.144531 284.304688 110.867188 278.203125 111.59375 273.394531 C 112.027344 272.632812 112.265625 272.847656 112.429688 273.4375 C 112.78125 279.613281 118.304688 284.65625 123.425781 283.96875 C 131.753906 283.859375 136.8125 274.59375 135.390625 266.75 C 133.652344 257.167969 128.492188 251.398438 124.582031 245.457031 C 120.160156 239.304688 114.210938 230.417969 112.292969 226.140625 C 112.292969 226.140625 106.246094 235.34375 98.375 246.167969 C 93.113281 253.40625 88.902344 261.25 88.511719 268.003906 C 88.0625 275.71875 91.230469 282.636719 100 283.832031 Z M 100 283.832031 "/>
</g>
</svg>
