<?xml version="1.0" encoding="UTF-8"?>
<svg xmlns="http://www.w3.org/2000/svg" xmlns:xlink="http://www.w3.org/1999/xlink" width="224.22508pt" height="312.80777pt" viewBox="0 0 224.22508 312.80777" version="1.1">
<g id="surface1">
<path style="fill-rule:nonzero;fill:rgb(100%,100%,100%);fill-opacity:1;stroke-width:0.996733;stroke-linecap:butt;stroke-linejoin:miter;stroke:rgb(0%,0%,0%);stroke-opacity:1;stroke-miterlimit:4;" d="M 6715.016286 -2746.8094 L 6916.985036 -2746.8094 C 6922.85613 -2746.8094 6927.613943 -2742.051588 6927.613943 -2736.180494 L 6927.613943 -2445.629713 C 6927.613943 -2439.758619 6922.85613 -2435.000806 6916.985036 -2435.000806 L 6715.016286 -2435.000806 C 6709.145193 -2435.000806 6704.38738 -2439.758619 6704.38738 -2445.629713 L 6704.38738 -2736.180494 C 6704.38738 -2742.051588 6709.145193 -2746.8094 6715.016286 -2746.8094 Z M 6715.016286 -2746.8094 " transform="matrix(1,0,0,1,-6703.88738,2747.3094)"/>
<path style=" stroke:none;fill-rule:nonzero;fill:rgb(83.137255%,0%,0%);fill-opacity:1;" d="M 18.332031 46.871094 L 18.332031 44.058594 L 20.917969 44.058594 L 20.917969 39.421875 L 7.992188 39.421875 L 7.992188 36.152344 L 21.980469 15.054688 L 24.265625 15.0625 L 24.265625 36.152344 L 28.21875 36.152344 L 28.21875 39.421875 L 24.265625 39.421875 L 24.1875 44.058594 L 26.355469 44.058594 L 26.355469 46.871094 Z M 20.917969 22.773438 L 12.039062 36.152344 L 20.917969 36.152344 Z M 20.917969 22.773438 "/>
<path style=" stroke:none;fill-rule:nonzero;fill:rgb(83.137255%,0%,0%);fill-opacity:1;" d="M 205.890625 265.9375 L 205.890625 268.75 L 203.304688 268.75 L 203.304688 273.386719 L 216.230469 273.386719 L 216.230469 276.65625 L 202.246094 297.753906 L 199.960938 297.746094 L 199.960938 276.65625 L 196.007812 276.65625 L 196.007812 273.386719 L 199.960938 273.386719 L 200.035156 268.75 L 197.871094 268.75 L 197.871094 265.9375 Z M 203.304688 290.03125 L 212.183594 276.65625 L 203.304688 276.65625 Z M 203.304688 290.03125 "/>
<path style=" stroke:none;fill-rule:nonzero;fill:rgb(83.137255%,0%,0%);fill-opacity:1;" d="M 9.253906 61.492188 C 7.671875 58.019531 7.496094 52.085938 12.226562 51.285156 C 15.789062 50.828125 17.238281 52.484375 17.527344 55.027344 C 17.667969 55.769531 18.085938 55.816406 18.21875 54.96875 C 18.425781 52.359375 21.007812 50.835938 23.027344 51.21875 C 28.554688 52.164062 28.230469 58.246094 26.425781 62.375 C 23.695312 67.855469 20.824219 71.3125 18.179688 76.824219 C 15.140625 71.085938 11.671875 66.421875 9.253906 61.492188 Z M 9.253906 61.492188 "/>
<path style=" stroke:none;fill-rule:nonzero;fill:rgb(83.137255%,0%,0%);fill-opacity:1;" d="M 45.496094 26.5625 C 52.640625 26.089844 56.363281 32.191406 57.089844 37 C 57.523438 37.761719 57.761719 37.546875 57.925781 36.957031 C 58.277344 30.78125 63.800781 25.738281 68.921875 26.425781 C 77.25 26.535156 82.308594 35.800781 80.886719 43.644531 C 79.148438 53.226562 73.988281 58.996094 70.078125 64.9375 C 65.65625 71.089844 59.707031 79.976562 57.789062 84.253906 C 57.789062 84.253906 51.742188 75.050781 43.871094 64.226562 C 38.609375 56.988281 34.398438 49.144531 34.007812 42.390625 C 33.558594 34.675781 36.726562 27.757812 45.496094 26.5625 Z M 45.496094 26.5625 "/>
<path style=" stroke:none;fill-rule:nonzero;fill:rgb(83.137255%,0%,0%);fill-opacity:1;" d="M 155.027344 26.5625 C 162.171875 26.089844 165.898438 32.191406 166.625 37 C 167.058594 37.761719 167.292969 37.546875 167.460938 36.957031 C 167.808594 30.78125 173.335938 25.738281 178.453125 26.425781 C 186.78125 26.535156 191.84375 35.800781 190.417969 43.644531 C 188.679688 53.226562 183.519531 58.996094 179.613281 64.9375 C 175.191406 71.089844 169.238281 79.976562 167.320312 84.253906 C 167.320312 84.253906 161.273438 75.050781 153.40625 64.226562 C 148.144531 56.988281 143.929688 49.144531 143.539062 42.390625 C 143.089844 34.675781 146.257812 27.757812 155.027344 26.5625 Z M 155.027344 26.5625 "/>
<path style=" stroke:none;fill-rule:nonzero;fill:rgb(83.137255%,0%,0%);fill-opacity:1;" d="M 45.496094 282.902344 C 52.640625 283.378906 56.363281 277.277344 57.089844 272.464844 C 57.523438 271.703125 57.761719 271.917969 57.925781 272.507812 C 58.277344 278.683594 63.800781 283.730469 68.921875 283.039062 C 77.25 282.929688 82.308594 273.664062 80.886719 265.820312 C 79.148438 256.238281 73.988281 250.46875 70.078125 244.527344 C 65.65625 238.375 59.707031 229.488281 57.789062 225.210938 C 57.789062 225.210938 51.742188 234.414062 43.871094 245.238281 C 38.609375 252.476562 34.398438 260.324219 34.007812 267.074219 C 33.558594 274.789062 36.726562 281.707031 45.496094 282.902344 Z M 45.496094 282.902344 "/>
<path style=" stroke:none;fill-rule:nonzero;fill:rgb(83.137255%,0%,0%);fill-opacity:1;" d="M 155.027344 282.902344 C 162.171875 283.378906 165.898438 277.277344 166.625 272.464844 C 167.058594 271.703125 167.292969 271.917969 167.460938 272.507812 C 167.808594 278.683594 173.335938 283.730469 178.453125 283.039062 C 186.78125 282.929688 191.84375 273.664062 190.417969 265.820312 C 188.679688 256.238281 183.519531 250.46875 179.613281 244.527344 C 175.191406 238.375 169.238281 229.488281 167.320312 225.210938 C 167.320312 225.210938 161.273438 234.414062 153.40625 245.238281 C 148.144531 252.476562 143.929688 260.324219 143.539062 267.074219 C 143.089844 274.789062 146.257812 281.707031 155.027344 282.902344 Z M 155.027344 282.902344 "/>
<path style=" stroke:none;fill-rule:nonzero;fill:rgb(83.137255%,0%,0%);fill-opacity:1;" d="M 196.472656 251.605469 C 194.890625 255.078125 194.714844 261.011719 199.445312 261.8125 C 203.007812 262.273438 204.457031 260.617188 204.742188 258.070312 C 204.886719 257.328125 205.304688 257.285156 205.4375 258.128906 C 205.644531 260.738281 208.226562 262.261719 210.246094 261.878906 C 215.773438 260.933594 215.449219 254.851562 213.644531 250.726562 C 210.914062 245.246094 208.042969 241.785156 205.398438 236.273438 C 202.359375 242.015625 198.890625 246.679688 196.472656 251.605469 Z M 196.472656 251.605469 "/>
</g>
</svg>
