<?xml version="1.0" encoding="UTF-8"?>
<svg xmlns="http://www.w3.org/2000/svg" xmlns:xlink="http://www.w3.org/1999/xlink" width="224.22508pt" height="312.80777pt" viewBox="0 0 224.22508 312.80777" version="1.1">
<g id="surface1">
<path style="fill-rule:nonzero;fill:rgb(100%,100%,100%);fill-opacity:1;stroke-width:0.996733;stroke-linecap:butt;stroke-linejoin:miter;stroke:rgb(0%,0%,0%);stroke-opacity:1;stroke-miterlimit:4;" d="M 6938.244796 -2746.8094 L 7140.213546 -2746.8094 C 7146.08464 -2746.8094 7150.842453 -2742.051588 7150.842453 -2736.180494 L 7150.842453 -2445.629713 C 7150.842453 -2439.758619 7146.08464 -2435.000806 7140.213546 -2435.000806 L 6938.244796 -2435.000806 C 6932.373703 -2435.000806 6927.61589 -2439.758619 6927.61589 -2445.629713 L 6927.61589 -2736.180494 C 6927.61589 -2742.051588 6932.373703 -2746.8094 6938.244796 -2746.8094 Z M 6938.244796 -2746.8094 " transform="matrix(1,0,0,1,-6927.11589,2747.3094)"/>
<path style=" stroke:none;fill-rule:nonzero;fill:rgb(83.137255%,0%,0%);fill-opacity:1;" d="M 8.675781 38.035156 L 11.898438 38.007812 C 12.511719 39.953125 13.871094 41.933594 15.714844 42.480469 C 20.925781 43.707031 24.28125 40.792969 25.386719 37.433594 C 26.726562 33.359375 25.355469 27.640625 21.769531 25.605469 C 18.792969 23.921875 14.375 25.34375 12.347656 28.945312 L 10.089844 27.566406 L 11.300781 14.144531 L 26.03125 14.144531 L 26.03125 17.316406 L 14.09375 17.316406 L 13.90625 22.90625 C 16.472656 21.105469 20.425781 21.121094 22.992188 22.386719 C 27.855469 24.707031 30.117188 29.980469 29.167969 36.199219 C 27.859375 42.382812 24.972656 45.882812 18.453125 46.386719 C 11.207031 46.449219 8.648438 41.46875 8.675781 38.035156 Z M 8.675781 38.035156 "/>
<path style=" stroke:none;fill-rule:nonzero;fill:rgb(83.137255%,0%,0%);fill-opacity:1;" d="M 215.546875 274.773438 L 212.328125 274.800781 C 211.714844 272.855469 210.355469 270.875 208.511719 270.328125 C 203.296875 269.101562 199.941406 272.015625 198.839844 275.375 C 197.496094 279.445312 198.867188 285.167969 202.457031 287.199219 C 205.429688 288.886719 209.851562 287.464844 211.878906 283.863281 L 214.132812 285.242188 L 212.921875 298.664062 L 198.191406 298.664062 L 198.191406 295.492188 L 210.128906 295.492188 L 210.316406 289.902344 C 207.753906 291.703125 203.800781 291.683594 201.234375 290.421875 C 196.367188 288.101562 194.109375 282.828125 195.054688 276.609375 C 196.367188 270.425781 199.253906 266.921875 205.773438 266.421875 C 213.015625 266.359375 215.578125 271.339844 215.546875 274.773438 Z M 215.546875 274.773438 "/>
<path style=" stroke:none;fill-rule:nonzero;fill:rgb(83.137255%,0%,0%);fill-opacity:1;" d="M 10.011719 61.09375 C 8.425781 57.625 8.253906 51.691406 12.980469 50.886719 C 16.542969 50.429688 17.992188 52.085938 18.28125 54.628906 C 18.421875 55.371094 18.84375 55.417969 18.976562 54.570312 C 19.179688 51.960938 21.761719 50.4375 23.78125 50.820312 C 29.308594 51.765625 28.984375 57.847656 27.179688 61.976562 C 24.449219 67.457031 21.582031 70.914062 18.9375 76.429688 C 15.898438 70.6875 12.429688 66.023438 10.011719 61.09375 Z M 10.011719 61.09375 "/>
<path style=" stroke:none;fill-rule:nonzero;fill:rgb(83.137255%,0%,0%);fill-opacity:1;" d="M 44.554688 28.421875 C 51.699219 27.945312 55.421875 34.046875 56.148438 38.855469 C 56.582031 39.621094 56.820312 39.40625 56.984375 38.816406 C 57.335938 32.640625 62.859375 27.59375 67.976562 28.285156 C 76.304688 28.394531 81.367188 37.660156 79.945312 45.503906 C 78.207031 55.085938 73.046875 60.855469 69.136719 66.796875 C 64.714844 72.949219 58.765625 81.835938 56.847656 86.113281 C 56.847656 86.113281 50.796875 76.910156 42.929688 66.082031 C 37.667969 58.84375 33.457031 51 33.066406 44.25 C 32.617188 36.53125 35.785156 29.617188 44.554688 28.421875 Z M 44.554688 28.421875 "/>
<path style=" stroke:none;fill-rule:nonzero;fill:rgb(83.137255%,0%,0%);fill-opacity:1;" d="M 155.234375 28.421875 C 162.378906 27.945312 166.101562 34.046875 166.832031 38.855469 C 167.261719 39.621094 167.5 39.40625 167.667969 38.816406 C 168.015625 32.640625 173.542969 27.59375 178.660156 28.285156 C 186.988281 28.394531 192.050781 37.660156 190.625 45.503906 C 188.886719 55.085938 183.726562 60.855469 179.816406 66.796875 C 175.398438 72.949219 169.445312 81.835938 167.527344 86.113281 C 167.527344 86.113281 161.480469 76.910156 153.609375 66.082031 C 148.347656 58.84375 144.136719 51 143.746094 44.25 C 143.296875 36.53125 146.464844 29.617188 155.234375 28.421875 Z M 155.234375 28.421875 "/>
<path style=" stroke:none;fill-rule:nonzero;fill:rgb(83.137255%,0%,0%);fill-opacity:1;" d="M 100.0625 127.65625 C 107.207031 127.183594 110.929688 133.285156 111.65625 138.09375 C 112.089844 138.859375 112.328125 138.640625 112.496094 138.050781 C 112.84375 131.878906 118.371094 126.832031 123.488281 127.519531 C 131.816406 127.628906 136.878906 136.898438 135.453125 144.738281 C 133.714844 154.320312 128.554688 160.089844 124.644531 166.03125 C 120.226562 172.183594 114.273438 181.074219 112.355469 185.351562 C 112.355469 185.351562 106.308594 176.144531 98.4375 165.320312 C 93.175781 158.082031 88.964844 150.238281 88.574219 143.484375 C 88.125 135.769531 91.292969 128.851562 100.0625 127.65625 Z M 100.0625 127.65625 "/>
<path style=" stroke:none;fill-rule:nonzero;fill:rgb(83.137255%,0%,0%);fill-opacity:1;" d="M 44.554688 282.566406 C 51.699219 283.039062 55.421875 276.9375 56.148438 272.128906 C 56.582031 271.363281 56.820312 271.582031 56.984375 272.171875 C 57.335938 278.34375 62.859375 283.390625 67.976562 282.703125 C 76.304688 282.59375 81.367188 273.324219 79.945312 265.484375 C 78.207031 255.902344 73.046875 250.132812 69.136719 244.1875 C 64.714844 238.035156 58.765625 229.148438 56.847656 224.871094 C 56.847656 224.871094 50.796875 234.078125 42.929688 244.902344 C 37.667969 252.140625 33.457031 259.984375 33.066406 266.738281 C 32.617188 274.453125 35.785156 281.371094 44.554688 282.566406 Z M 44.554688 282.566406 "/>
<path style=" stroke:none;fill-rule:nonzero;fill:rgb(83.137255%,0%,0%);fill-opacity:1;" d="M 155.234375 282.566406 C 162.378906 283.039062 166.101562 276.9375 166.832031 272.128906 C 167.261719 271.363281 167.5 271.582031 167.667969 272.171875 C 168.015625 278.34375 173.542969 283.390625 178.660156 282.703125 C 186.988281 282.59375 192.050781 273.324219 190.625 265.484375 C 188.886719 255.902344 183.726562 250.132812 179.816406 244.1875 C 175.398438 238.035156 169.445312 229.148438 167.527344 224.871094 C 167.527344 224.871094 161.480469 234.078125 153.609375 244.902344 C 148.347656 252.140625 144.136719 259.984375 143.746094 266.738281 C 143.296875 274.453125 146.464844 281.371094 155.234375 282.566406 Z M 155.234375 282.566406 "/>
<path style=" stroke:none;fill-rule:nonzero;fill:rgb(83.137255%,0%,0%);fill-opacity:1;" d="M 196.71875 251.953125 C 195.132812 255.425781 194.960938 261.359375 199.6875 262.160156 C 203.25 262.621094 204.699219 260.964844 204.988281 258.417969 C 205.132812 257.675781 205.550781 257.632812 205.683594 258.476562 C 205.886719 261.085938 208.472656 262.609375 210.488281 262.226562 C 216.015625 261.28125 215.695312 255.199219 213.886719 251.070312 C 211.15625 245.59375 208.289062 242.132812 205.644531 236.621094 C 202.605469 242.359375 199.136719 247.023438 196.71875 251.953125 Z M 196.71875 251.953125 "/>
</g>
</svg>
