<?xml version="1.0" encoding="UTF-8"?>
<svg xmlns="http://www.w3.org/2000/svg" xmlns:xlink="http://www.w3.org/1999/xlink" width="224.22508pt" height="312.80777pt" viewBox="0 0 224.22508 312.80777" version="1.1">
<g id="surface1">
<path style="fill-rule:nonzero;fill:rgb(100%,100%,100%);fill-opacity:1;stroke-width:0.996733;stroke-linecap:butt;stroke-linejoin:miter;stroke:rgb(0%,0%,0%);stroke-opacity:1;stroke-miterlimit:4;" d="M 7161.473316 -2746.8094 L 7363.442066 -2746.8094 C 7369.31316 -2746.8094 7374.070972 -2742.051588 7374.070972 -2736.180494 L 7374.070972 -2445.629713 C 7374.070972 -2439.758619 7369.31316 -2435.000806 7363.442066 -2435.000806 L 7161.473316 -2435.000806 C 7155.602222 -2435.000806 7150.84441 -2439.758619 7150.84441 -2445.629713 L 7150.84441 -2736.180494 C 7150.84441 -2742.051588 7155.602222 -2746.8094 7161.473316 -2746.8094 Z M 7161.473316 -2746.8094 " transform="matrix(1,0,0,1,-7150.34441,2747.3094)"/>
<path style=" stroke:none;fill-rule:nonzero;fill:rgb(83.137255%,0%,0%);fill-opacity:1;" d="M 8.738281 36.5 C 8.328125 33.75 8.335938 26.652344 8.671875 24.554688 C 9.703125 18.128906 12.203125 15.1875 16.394531 14.222656 C 20.464844 13.289062 26.183594 14.328125 27.4375 19.707031 L 24.03125 19.769531 C 22.191406 16.136719 17.535156 17.105469 14.917969 18.6875 C 12.824219 19.949219 11.878906 25.207031 12.28125 25.53125 C 12.28125 25.53125 16.238281 22.652344 19.359375 22.863281 C 26.027344 23.546875 28.777344 29.222656 28.542969 34.582031 C 28.332031 41.035156 26.25 46.1875 19.183594 46.53125 C 12.464844 46.277344 9.382812 42.679688 8.738281 36.5 Z M 25.308594 34.792969 C 25.347656 30.320312 23.273438 26.972656 19.359375 26.601562 C 15.441406 26.230469 11.496094 29.984375 11.769531 34.542969 C 12.042969 39.121094 13.847656 42.976562 18.59375 42.953125 C 23.703125 42.929688 25.28125 37.976562 25.308594 34.792969 Z M 25.308594 34.792969 "/>
<path style=" stroke:none;fill-rule:nonzero;fill:rgb(83.137255%,0%,0%);fill-opacity:1;" d="M 215.488281 276.308594 C 215.894531 279.054688 215.886719 286.152344 215.554688 288.25 C 214.523438 294.679688 212.019531 297.621094 207.832031 298.582031 C 203.761719 299.519531 198.042969 298.476562 196.785156 293.101562 L 200.191406 293.039062 C 202.03125 296.671875 206.6875 295.703125 209.308594 294.121094 C 211.402344 292.859375 212.347656 287.601562 211.941406 287.277344 C 211.945312 287.277344 207.984375 290.15625 204.867188 289.941406 C 198.199219 289.261719 195.449219 283.585938 195.679688 278.222656 C 195.890625 271.773438 197.976562 266.621094 205.042969 266.277344 C 211.761719 266.53125 214.84375 270.128906 215.488281 276.308594 Z M 198.917969 278.015625 C 198.878906 282.488281 200.949219 285.835938 204.867188 286.207031 C 208.78125 286.574219 212.730469 282.824219 212.457031 278.265625 C 212.183594 273.6875 210.378906 269.832031 205.628906 269.851562 C 200.523438 269.875 198.941406 274.828125 198.917969 278.015625 Z M 198.917969 278.015625 "/>
<path style=" stroke:none;fill-rule:nonzero;fill:rgb(83.137255%,0%,0%);fill-opacity:1;" d="M 9.148438 59.871094 C 7.566406 56.398438 7.390625 50.46875 12.121094 49.664062 C 15.683594 49.207031 17.132812 50.863281 17.417969 53.40625 C 17.5625 54.148438 17.980469 54.195312 18.113281 53.347656 C 18.320312 50.738281 20.902344 49.214844 22.921875 49.597656 C 28.449219 50.542969 28.125 56.625 26.320312 60.753906 C 23.589844 66.234375 20.71875 69.691406 18.074219 75.207031 C 15.035156 69.464844 11.566406 64.800781 9.148438 59.871094 Z M 9.148438 59.871094 "/>
<path style=" stroke:none;fill-rule:nonzero;fill:rgb(83.137255%,0%,0%);fill-opacity:1;" d="M 44.4375 28.859375 C 51.582031 28.386719 55.304688 34.488281 56.03125 39.296875 C 56.464844 40.0625 56.703125 39.847656 56.867188 39.253906 C 57.21875 33.082031 62.742188 28.035156 67.863281 28.726562 C 76.1875 28.832031 81.25 38.101562 79.828125 45.945312 C 78.089844 55.527344 72.929688 61.296875 69.019531 67.238281 C 64.597656 73.390625 58.648438 82.277344 56.730469 86.554688 C 56.730469 86.554688 50.679688 77.347656 42.8125 66.523438 C 37.550781 59.285156 33.339844 51.441406 32.949219 44.6875 C 32.5 36.972656 35.667969 30.058594 44.4375 28.859375 Z M 44.4375 28.859375 "/>
<path style=" stroke:none;fill-rule:nonzero;fill:rgb(83.137255%,0%,0%);fill-opacity:1;" d="M 155.96875 28.859375 C 163.113281 28.386719 166.835938 34.488281 167.566406 39.296875 C 168 40.0625 168.234375 39.847656 168.402344 39.253906 C 168.75 33.082031 174.277344 28.035156 179.394531 28.726562 C 187.722656 28.832031 192.785156 38.101562 191.359375 45.945312 C 189.621094 55.527344 184.460938 61.296875 180.554688 67.238281 C 176.132812 73.390625 170.179688 82.277344 168.261719 86.554688 C 168.261719 86.554688 162.214844 77.347656 154.34375 66.523438 C 149.082031 59.285156 144.871094 51.441406 144.480469 44.6875 C 144.03125 36.972656 147.199219 30.058594 155.96875 28.859375 Z M 155.96875 28.859375 "/>
<path style=" stroke:none;fill-rule:nonzero;fill:rgb(83.137255%,0%,0%);fill-opacity:1;" d="M 155.96875 127.753906 C 163.113281 127.28125 166.835938 133.382812 167.566406 138.191406 C 168 138.957031 168.234375 138.738281 168.402344 138.148438 C 168.75 131.976562 174.277344 126.929688 179.394531 127.617188 C 187.722656 127.726562 192.785156 136.996094 191.359375 144.835938 C 189.621094 154.417969 184.460938 160.1875 180.554688 166.128906 C 176.132812 172.28125 170.179688 181.171875 168.261719 185.449219 C 168.261719 185.449219 162.214844 176.242188 154.34375 165.417969 C 149.082031 158.179688 144.871094 150.335938 144.480469 143.582031 C 144.03125 135.867188 147.199219 128.949219 155.96875 127.753906 Z M 155.96875 127.753906 "/>
<path style=" stroke:none;fill-rule:nonzero;fill:rgb(83.137255%,0%,0%);fill-opacity:1;" d="M 44.4375 127.753906 C 51.582031 127.28125 55.304688 133.382812 56.03125 138.191406 C 56.464844 138.957031 56.703125 138.738281 56.867188 138.148438 C 57.21875 131.976562 62.742188 126.929688 67.863281 127.617188 C 76.1875 127.726562 81.25 136.996094 79.828125 144.835938 C 78.089844 154.417969 72.929688 160.1875 69.019531 166.128906 C 64.597656 172.28125 58.648438 181.171875 56.730469 185.449219 C 56.730469 185.449219 50.679688 176.242188 42.8125 165.417969 C 37.550781 158.179688 33.339844 150.335938 32.949219 143.582031 C 32.5 135.867188 35.667969 128.949219 44.4375 127.753906 Z M 44.4375 127.753906 "/>
<path style=" stroke:none;fill-rule:nonzero;fill:rgb(83.137255%,0%,0%);fill-opacity:1;" d="M 44.4375 283.847656 C 51.582031 284.320312 55.304688 278.21875 56.03125 273.410156 C 56.464844 272.648438 56.703125 272.863281 56.867188 273.453125 C 57.21875 279.625 62.742188 284.671875 67.863281 283.984375 C 76.1875 283.875 81.25 274.609375 79.828125 266.765625 C 78.089844 257.183594 72.929688 251.414062 69.019531 245.472656 C 64.597656 239.320312 58.648438 230.429688 56.730469 226.152344 C 56.730469 226.152344 50.679688 235.359375 42.8125 246.183594 C 37.550781 253.421875 33.339844 261.265625 32.949219 268.019531 C 32.5 275.734375 35.667969 282.652344 44.4375 283.847656 Z M 44.4375 283.847656 "/>
<path style=" stroke:none;fill-rule:nonzero;fill:rgb(83.137255%,0%,0%);fill-opacity:1;" d="M 155.96875 283.847656 C 163.113281 284.320312 166.835938 278.21875 167.566406 273.410156 C 168 272.648438 168.234375 272.863281 168.402344 273.453125 C 168.75 279.625 174.277344 284.671875 179.394531 283.984375 C 187.722656 283.875 192.785156 274.609375 191.359375 266.765625 C 189.621094 257.183594 184.460938 251.414062 180.554688 245.472656 C 176.132812 239.320312 170.179688 230.429688 168.261719 226.152344 C 168.261719 226.152344 162.214844 235.359375 154.34375 246.183594 C 149.082031 253.421875 144.871094 261.265625 144.480469 268.019531 C 144.03125 275.734375 147.199219 282.652344 155.96875 283.847656 Z M 155.96875 283.847656 "/>
<path style=" stroke:none;fill-rule:nonzero;fill:rgb(83.137255%,0%,0%);fill-opacity:1;" d="M 197.964844 250.730469 C 196.382812 254.203125 196.207031 260.136719 200.933594 260.9375 C 204.496094 261.394531 205.945312 259.738281 206.234375 257.195312 C 206.378906 256.453125 206.796875 256.40625 206.929688 257.253906 C 207.132812 259.863281 209.71875 261.386719 211.734375 261.003906 C 217.261719 260.058594 216.941406 253.976562 215.132812 249.847656 C 212.402344 244.371094 209.535156 240.910156 206.890625 235.398438 C 203.851562 241.136719 200.382812 245.800781 197.964844 250.730469 Z M 197.964844 250.730469 "/>
</g>
</svg>
