<?xml version="1.0" encoding="UTF-8"?>
<svg xmlns="http://www.w3.org/2000/svg" xmlns:xlink="http://www.w3.org/1999/xlink" width="224.21835pt" height="312.80104pt" viewBox="0 0 224.21835 312.80104" version="1.1">
<g id="surface1">
<path style="fill-rule:nonzero;fill:rgb(100%,100%,100%);fill-opacity:1;stroke-width:0.99;stroke-linecap:butt;stroke-linejoin:miter;stroke:rgb(0%,0%,0%);stroke-opacity:1;stroke-miterlimit:3.8;" d="M 6045.33068 -2434.998906 L 6247.29943 -2434.998906 C 6253.170524 -2434.998906 6257.928336 -2430.241094 6257.928336 -2424.37 L 6257.928336 -2133.819219 C 6257.928336 -2127.948125 6253.170524 -2123.190312 6247.29943 -2123.190312 L 6045.33068 -2123.190312 C 6039.459586 -2123.190312 6034.701774 -2127.948125 6034.701774 -2133.819219 L 6034.701774 -2424.37 C 6034.701774 -2430.241094 6039.459586 -2434.998906 6045.33068 -2434.998906 Z M 6045.33068 -2434.998906 " transform="matrix(1,0,0,1,-6034.20568,2435.495)"/>
<path style=" stroke:none;fill-rule:nonzero;fill:rgb(83.137255%,0%,0%);fill-opacity:1;" d="M 12.835938 47.003906 C 14.96875 35.914062 17.246094 27.59375 23.21875 18.558594 L 11.082031 18.558594 L 11.082031 22.449219 L 7.855469 22.449219 L 7.855469 15.117188 L 25.609375 15.117188 L 27.800781 18.558594 C 21.457031 25.355469 15.652344 47.324219 16.679688 47.003906 Z M 12.835938 47.003906 "/>
<path style=" stroke:none;fill-rule:nonzero;fill:rgb(83.137255%,0%,0%);fill-opacity:1;" d="M 211.382812 265.796875 C 209.25 276.886719 206.972656 285.207031 201 294.242188 L 213.136719 294.242188 L 213.136719 290.351562 L 216.359375 290.351562 L 216.359375 297.683594 L 198.605469 297.683594 L 196.417969 294.242188 C 202.761719 287.445312 208.566406 265.476562 207.539062 265.796875 Z M 211.382812 265.796875 "/>
<path style=" stroke:none;fill-rule:nonzero;fill:rgb(83.137255%,0%,0%);fill-opacity:1;" d="M 9.324219 62.457031 C 7.738281 58.984375 7.566406 53.050781 12.292969 52.246094 C 15.855469 51.789062 17.304688 53.445312 17.59375 55.988281 C 17.734375 56.730469 18.15625 56.777344 18.289062 55.929688 C 18.492188 53.320312 21.074219 51.796875 23.09375 52.179688 C 28.621094 53.125 28.300781 59.210938 26.492188 63.335938 C 23.761719 68.816406 20.894531 72.273438 18.25 77.789062 C 15.210938 72.046875 11.742188 67.382812 9.324219 62.457031 Z M 9.324219 62.457031 "/>
<path style=" stroke:none;fill-rule:nonzero;fill:rgb(83.137255%,0%,0%);fill-opacity:1;" d="M 43.683594 30.300781 C 50.824219 29.828125 54.550781 35.929688 55.277344 40.738281 C 55.710938 41.503906 55.949219 41.289062 56.113281 40.695312 C 56.464844 34.523438 61.988281 29.476562 67.105469 30.167969 C 75.433594 30.273438 80.496094 39.542969 79.074219 47.386719 C 77.335938 56.964844 72.171875 62.734375 68.265625 68.679688 C 63.84375 74.832031 57.894531 83.71875 55.976562 87.996094 C 55.976562 87.996094 49.925781 78.789062 42.058594 67.964844 C 36.796875 60.726562 32.585938 52.882812 32.191406 46.128906 C 31.746094 38.414062 34.914062 31.5 43.683594 30.300781 Z M 43.683594 30.300781 "/>
<path style=" stroke:none;fill-rule:nonzero;fill:rgb(83.137255%,0%,0%);fill-opacity:1;" d="M 155.214844 30.300781 C 162.359375 29.828125 166.082031 35.929688 166.808594 40.738281 C 167.242188 41.503906 167.480469 41.289062 167.648438 40.695312 C 167.996094 34.523438 173.523438 29.476562 178.640625 30.167969 C 186.96875 30.273438 192.027344 39.542969 190.605469 47.386719 C 188.867188 56.964844 183.707031 62.734375 179.796875 68.679688 C 175.375 74.832031 169.425781 83.71875 167.507812 87.996094 C 167.507812 87.996094 161.460938 78.789062 153.589844 67.964844 C 148.328125 60.726562 144.117188 52.882812 143.726562 46.128906 C 143.277344 38.414062 146.445312 31.5 155.214844 30.300781 Z M 155.214844 30.300781 "/>
<path style=" stroke:none;fill-rule:nonzero;fill:rgb(83.137255%,0%,0%);fill-opacity:1;" d="M 100.117188 80.425781 C 107.261719 79.953125 110.984375 86.054688 111.710938 90.863281 C 112.144531 91.625 112.382812 91.410156 112.546875 90.820312 C 112.898438 84.648438 118.421875 79.601562 123.539062 80.289062 C 131.867188 80.398438 136.929688 89.664062 135.507812 97.507812 C 133.769531 107.089844 128.605469 112.859375 124.699219 118.800781 C 120.277344 124.953125 114.328125 133.84375 112.410156 138.121094 C 112.410156 138.121094 106.359375 128.914062 98.492188 118.089844 C 93.230469 110.851562 89.019531 103.007812 88.625 96.253906 C 88.179688 88.539062 91.347656 81.621094 100.117188 80.425781 Z M 100.117188 80.425781 "/>
<path style=" stroke:none;fill-rule:nonzero;fill:rgb(83.137255%,0%,0%);fill-opacity:1;" d="M 43.683594 130.550781 C 50.824219 130.078125 54.550781 136.179688 55.277344 140.988281 C 55.710938 141.75 55.949219 141.535156 56.113281 140.945312 C 56.464844 134.769531 61.988281 129.726562 67.105469 130.414062 C 75.433594 130.523438 80.496094 139.789062 79.074219 147.632812 C 77.335938 157.214844 72.171875 162.984375 68.265625 168.925781 C 63.84375 175.078125 57.894531 183.964844 55.976562 188.242188 C 55.976562 188.242188 49.925781 179.039062 42.058594 168.214844 C 36.796875 160.976562 32.585938 153.132812 32.191406 146.378906 C 31.746094 138.664062 34.914062 131.746094 43.683594 130.550781 Z M 43.683594 130.550781 "/>
<path style=" stroke:none;fill-rule:nonzero;fill:rgb(83.137255%,0%,0%);fill-opacity:1;" d="M 155.214844 130.550781 C 162.359375 130.078125 166.082031 136.179688 166.808594 140.988281 C 167.242188 141.75 167.480469 141.535156 167.648438 140.945312 C 167.996094 134.769531 173.523438 129.726562 178.640625 130.414062 C 186.96875 130.523438 192.027344 139.789062 190.605469 147.632812 C 188.867188 157.214844 183.707031 162.984375 179.796875 168.925781 C 175.375 175.078125 169.425781 183.964844 167.507812 188.242188 C 167.507812 188.242188 161.460938 179.039062 153.589844 168.214844 C 148.328125 160.976562 144.117188 153.132812 143.726562 146.378906 C 143.277344 138.664062 146.445312 131.746094 155.214844 130.550781 Z M 155.214844 130.550781 "/>
<path style=" stroke:none;fill-rule:nonzero;fill:rgb(83.137255%,0%,0%);fill-opacity:1;" d="M 198.136719 253.3125 C 196.554688 256.785156 196.382812 262.71875 201.109375 263.519531 C 204.671875 263.980469 206.121094 262.324219 206.410156 259.777344 C 206.550781 259.035156 206.972656 258.992188 207.105469 259.835938 C 207.308594 262.445312 209.890625 263.96875 211.910156 263.585938 C 217.4375 262.640625 217.113281 256.558594 215.308594 252.433594 C 212.578125 246.953125 209.707031 243.492188 207.0625 237.980469 C 204.027344 243.722656 200.554688 248.386719 198.136719 253.3125 Z M 198.136719 253.3125 "/>
<path style=" stroke:none;fill-rule:nonzero;fill:rgb(83.137255%,0%,0%);fill-opacity:1;" d="M 155.214844 286.644531 C 162.359375 287.117188 166.082031 281.015625 166.808594 276.207031 C 167.242188 275.441406 167.480469 275.65625 167.648438 276.25 C 167.996094 282.421875 173.523438 287.46875 178.640625 286.777344 C 186.96875 286.671875 192.027344 277.402344 190.605469 269.558594 C 188.867188 259.976562 183.707031 254.207031 179.796875 248.265625 C 175.375 242.113281 169.425781 233.226562 167.507812 228.949219 C 167.507812 228.949219 161.460938 238.15625 153.589844 248.980469 C 148.328125 256.21875 144.117188 264.0625 143.726562 270.816406 C 143.277344 278.53125 146.445312 285.445312 155.214844 286.644531 Z M 155.214844 286.644531 "/>
<path style=" stroke:none;fill-rule:nonzero;fill:rgb(83.137255%,0%,0%);fill-opacity:1;" d="M 43.683594 286.644531 C 50.824219 287.117188 54.550781 281.015625 55.277344 276.207031 C 55.710938 275.441406 55.949219 275.65625 56.113281 276.25 C 56.464844 282.421875 61.988281 287.46875 67.105469 286.777344 C 75.433594 286.671875 80.496094 277.402344 79.074219 269.558594 C 77.335938 259.976562 72.171875 254.207031 68.265625 248.265625 C 63.84375 242.113281 57.894531 233.226562 55.976562 228.949219 C 55.976562 228.949219 49.925781 238.15625 42.058594 248.980469 C 36.796875 256.21875 32.585938 264.0625 32.191406 270.816406 C 31.746094 278.53125 34.914062 285.445312 43.683594 286.644531 Z M 43.683594 286.644531 "/>
</g>
</svg>
