<?xml version="1.0" encoding="UTF-8"?>
<svg xmlns="http://www.w3.org/2000/svg" xmlns:xlink="http://www.w3.org/1999/xlink" width="224.22508pt" height="312.80777pt" viewBox="0 0 224.22508 312.80777" version="1.1">
<g id="surface1">
<path style="fill-rule:nonzero;fill:rgb(100%,100%,100%);fill-opacity:1;stroke-width:0.996733;stroke-linecap:butt;stroke-linejoin:miter;stroke:rgb(0%,0%,0%);stroke-opacity:1;stroke-miterlimit:4;" d="M 6268.559736 -2434.99837 L 6470.528486 -2434.99837 C 6476.39958 -2434.99837 6481.157392 -2430.240557 6481.157392 -2424.369464 L 6481.157392 -2133.818682 C 6481.157392 -2127.947589 6476.39958 -2123.189776 6470.528486 -2123.189776 L 6268.559736 -2123.189776 C 6262.688642 -2123.189776 6257.93083 -2127.947589 6257.93083 -2133.818682 L 6257.93083 -2424.369464 C 6257.93083 -2430.240557 6262.688642 -2434.99837 6268.559736 -2434.99837 Z M 6268.559736 -2434.99837 " transform="matrix(1,0,0,1,-6257.43083,2435.49837)"/>
<path style=" stroke:none;fill-rule:nonzero;fill:rgb(83.137255%,0%,0%);fill-opacity:1;" d="M 7.34375 38.046875 C 7.503906 33.671875 9.113281 32.03125 12.285156 29.738281 C 9.753906 27.945312 8.6875 25.304688 8.902344 23.050781 C 9.425781 17.605469 13.714844 14.878906 18.386719 15 C 23.0625 15.117188 27.09375 18.761719 27.40625 22.71875 C 27.679688 26.164062 26.636719 27.824219 24.148438 29.636719 C 27.101562 32.078125 28.992188 33.6875 28.917969 37.996094 C 28.847656 42.304688 25.113281 47.4375 18.605469 47.59375 C 12.09375 47.75 7.183594 42.425781 7.34375 38.046875 Z M 25.515625 38.0625 C 25.792969 34.101562 22.226562 31.429688 18.203125 31.386719 C 14.277344 31.347656 10.769531 34.632812 10.769531 38.191406 C 10.769531 42.011719 15.332031 44.085938 18.28125 44.097656 C 21.863281 44.109375 25.273438 41.476562 25.515625 38.0625 Z M 24.226562 23.890625 C 24.304688 20.550781 21.167969 18.160156 17.9375 18.257812 C 15.0625 18.34375 12.015625 20.496094 12.015625 23.289062 C 12.011719 26.777344 15.476562 28.519531 18.433594 28.585938 C 21.113281 28.644531 24.167969 26.410156 24.226562 23.890625 Z M 24.226562 23.890625 "/>
<path style=" stroke:none;fill-rule:nonzero;fill:rgb(83.137255%,0%,0%);fill-opacity:1;" d="M 216.882812 274.757812 C 216.722656 279.132812 215.113281 280.777344 211.9375 283.070312 C 214.46875 284.863281 215.535156 287.503906 215.320312 289.753906 C 214.800781 295.203125 210.511719 297.929688 205.835938 297.808594 C 201.160156 297.691406 197.132812 294.046875 196.816406 290.085938 C 196.542969 286.644531 197.589844 284.984375 200.074219 283.171875 C 197.121094 280.730469 195.234375 279.121094 195.304688 274.8125 C 195.378906 270.5 199.113281 265.371094 205.621094 265.214844 C 212.128906 265.058594 217.042969 270.382812 216.882812 274.757812 Z M 198.710938 274.746094 C 198.429688 278.707031 202 281.378906 206.023438 281.421875 C 209.945312 281.460938 213.453125 278.175781 213.457031 274.617188 C 213.457031 270.796875 208.890625 268.722656 205.945312 268.710938 C 202.363281 268.695312 198.949219 271.332031 198.710938 274.746094 Z M 200 288.917969 C 199.921875 292.253906 203.054688 294.648438 206.285156 294.550781 C 209.164062 294.464844 212.207031 292.3125 212.210938 289.519531 C 212.210938 286.03125 208.746094 284.289062 205.792969 284.222656 C 203.113281 284.164062 200.058594 286.398438 200 288.917969 Z M 200 288.917969 "/>
<path style=" stroke:none;fill-rule:nonzero;fill:rgb(83.137255%,0%,0%);fill-opacity:1;" d="M 10.082031 63.410156 C 8.496094 59.9375 8.324219 54.003906 13.050781 53.199219 C 16.613281 52.742188 18.0625 54.398438 18.351562 56.941406 C 18.492188 57.683594 18.914062 57.730469 19.046875 56.882812 C 19.25 54.273438 21.832031 52.75 23.851562 53.132812 C 29.378906 54.078125 29.054688 60.164062 27.25 64.289062 C 24.519531 69.769531 21.648438 73.226562 19.007812 78.742188 C 15.96875 73 12.5 68.335938 10.082031 63.410156 Z M 10.082031 63.410156 "/>
<path style=" stroke:none;fill-rule:nonzero;fill:rgb(83.137255%,0%,0%);fill-opacity:1;" d="M 45.058594 28.136719 C 52.203125 27.660156 55.925781 33.761719 56.652344 38.570312 C 57.085938 39.335938 57.324219 39.121094 57.492188 38.53125 C 57.839844 32.355469 63.367188 27.308594 68.484375 28 C 76.8125 28.109375 81.871094 37.375 80.449219 45.21875 C 78.710938 54.800781 73.550781 60.570312 69.640625 66.511719 C 65.21875 72.664062 59.269531 81.550781 57.351562 85.828125 C 57.351562 85.828125 51.304688 76.625 43.433594 65.796875 C 38.171875 58.558594 33.960938 50.714844 33.570312 43.964844 C 33.121094 36.246094 36.289062 29.332031 45.058594 28.136719 Z M 45.058594 28.136719 "/>
<path style=" stroke:none;fill-rule:nonzero;fill:rgb(83.137255%,0%,0%);fill-opacity:1;" d="M 154.589844 28.136719 C 161.734375 27.660156 165.460938 33.761719 166.1875 38.570312 C 166.621094 39.335938 166.855469 39.121094 167.023438 38.53125 C 167.371094 32.355469 172.898438 27.308594 178.015625 28 C 186.34375 28.109375 191.40625 37.375 189.984375 45.21875 C 188.242188 54.800781 183.082031 60.570312 179.175781 66.511719 C 174.753906 72.664062 168.800781 81.550781 166.882812 85.828125 C 166.882812 85.828125 160.835938 76.625 152.96875 65.796875 C 147.707031 58.558594 143.496094 50.714844 143.101562 43.964844 C 142.65625 36.246094 145.820312 29.332031 154.589844 28.136719 Z M 154.589844 28.136719 "/>
<path style=" stroke:none;fill-rule:nonzero;fill:rgb(83.137255%,0%,0%);fill-opacity:1;" d="M 99.242188 78.257812 C 106.386719 77.785156 110.109375 83.886719 110.835938 88.695312 C 111.269531 89.460938 111.507812 89.246094 111.675781 88.652344 C 112.023438 82.480469 117.550781 77.433594 122.667969 78.125 C 130.996094 78.230469 136.054688 87.5 134.632812 95.34375 C 132.894531 104.925781 127.734375 110.695312 123.824219 116.636719 C 119.402344 122.789062 113.453125 131.675781 111.535156 135.953125 C 111.535156 135.953125 105.488281 126.746094 97.617188 115.921875 C 92.355469 108.683594 88.144531 100.839844 87.753906 94.085938 C 87.304688 86.371094 90.472656 79.457031 99.242188 78.257812 Z M 99.242188 78.257812 "/>
<path style=" stroke:none;fill-rule:nonzero;fill:rgb(83.137255%,0%,0%);fill-opacity:1;" d="M 45.058594 128.382812 C 52.203125 127.910156 55.925781 134.011719 56.652344 138.820312 C 57.085938 139.585938 57.324219 139.367188 57.492188 138.777344 C 57.839844 132.605469 63.367188 127.558594 68.484375 128.246094 C 76.8125 128.355469 81.871094 137.625 80.449219 145.464844 C 78.710938 155.046875 73.550781 160.816406 69.640625 166.757812 C 65.21875 172.910156 59.269531 181.800781 57.351562 186.078125 C 57.351562 186.078125 51.304688 176.871094 43.433594 166.046875 C 38.171875 158.808594 33.960938 150.964844 33.570312 144.210938 C 33.121094 136.496094 36.289062 129.578125 45.058594 128.382812 Z M 45.058594 128.382812 "/>
<path style=" stroke:none;fill-rule:nonzero;fill:rgb(83.137255%,0%,0%);fill-opacity:1;" d="M 154.589844 128.382812 C 161.734375 127.910156 165.460938 134.011719 166.1875 138.820312 C 166.621094 139.585938 166.855469 139.367188 167.023438 138.777344 C 167.371094 132.605469 172.898438 127.558594 178.015625 128.246094 C 186.34375 128.355469 191.40625 137.625 189.984375 145.464844 C 188.242188 155.046875 183.082031 160.816406 179.175781 166.757812 C 174.753906 172.910156 168.800781 181.800781 166.882812 186.078125 C 166.882812 186.078125 160.835938 176.871094 152.96875 166.046875 C 147.707031 158.808594 143.496094 150.964844 143.101562 144.210938 C 142.65625 136.496094 145.820312 129.578125 154.589844 128.382812 Z M 154.589844 128.382812 "/>
<path style=" stroke:none;fill-rule:nonzero;fill:rgb(83.137255%,0%,0%);fill-opacity:1;" d="M 154.589844 284.476562 C 161.734375 284.949219 165.460938 278.847656 166.1875 274.039062 C 166.621094 273.273438 166.855469 273.492188 167.023438 274.082031 C 167.371094 280.253906 172.898438 285.300781 178.015625 284.613281 C 186.34375 284.503906 191.40625 275.238281 189.984375 267.394531 C 188.242188 257.8125 183.082031 252.042969 179.175781 246.101562 C 174.753906 239.949219 168.800781 231.058594 166.882812 226.78125 C 166.882812 226.78125 160.835938 235.988281 152.96875 246.8125 C 147.707031 254.050781 143.496094 261.894531 143.101562 268.648438 C 142.65625 276.363281 145.820312 283.28125 154.589844 284.476562 Z M 154.589844 284.476562 "/>
<path style=" stroke:none;fill-rule:nonzero;fill:rgb(83.137255%,0%,0%);fill-opacity:1;" d="M 99.242188 235.175781 C 106.386719 235.652344 110.109375 229.550781 110.835938 224.738281 C 111.269531 223.976562 111.507812 224.191406 111.675781 224.78125 C 112.023438 230.957031 117.550781 236.003906 122.667969 235.3125 C 130.996094 235.203125 136.054688 225.9375 134.632812 218.09375 C 132.894531 208.511719 127.734375 202.742188 123.824219 196.800781 C 119.402344 190.648438 113.453125 181.761719 111.535156 177.484375 C 111.535156 177.484375 105.488281 186.6875 97.617188 197.511719 C 92.355469 204.75 88.144531 212.59375 87.753906 219.347656 C 87.304688 227.0625 90.472656 233.980469 99.242188 235.175781 Z M 99.242188 235.175781 "/>
<path style=" stroke:none;fill-rule:nonzero;fill:rgb(83.137255%,0%,0%);fill-opacity:1;" d="M 45.058594 284.476562 C 52.203125 284.949219 55.925781 278.847656 56.652344 274.039062 C 57.085938 273.273438 57.324219 273.492188 57.492188 274.082031 C 57.839844 280.253906 63.367188 285.300781 68.484375 284.613281 C 76.8125 284.503906 81.871094 275.238281 80.449219 267.394531 C 78.710938 257.8125 73.550781 252.042969 69.640625 246.101562 C 65.21875 239.949219 59.269531 231.058594 57.351562 226.78125 C 57.351562 226.78125 51.304688 235.988281 43.433594 246.8125 C 38.171875 254.050781 33.960938 261.894531 33.570312 268.648438 C 33.121094 276.363281 36.289062 283.28125 45.058594 284.476562 Z M 45.058594 284.476562 "/>
<path style=" stroke:none;fill-rule:nonzero;fill:rgb(83.137255%,0%,0%);fill-opacity:1;" d="M 198.894531 254.265625 C 197.3125 257.738281 197.140625 263.671875 201.867188 264.472656 C 205.429688 264.933594 206.878906 263.277344 207.167969 260.730469 C 207.308594 259.988281 207.726562 259.945312 207.859375 260.789062 C 208.066406 263.398438 210.648438 264.921875 212.667969 264.539062 C 218.195312 263.59375 217.871094 257.511719 216.066406 253.386719 C 213.335938 247.90625 210.464844 244.449219 207.820312 238.933594 C 204.78125 244.675781 201.3125 249.339844 198.894531 254.265625 Z M 198.894531 254.265625 "/>
</g>
</svg>
