<?xml version="1.0" encoding="UTF-8"?>
<svg xmlns="http://www.w3.org/2000/svg" xmlns:xlink="http://www.w3.org/1999/xlink" width="224.22508pt" height="312.80777pt" viewBox="0 0 224.22508 312.80777" version="1.1">
<g id="surface1">
<path style="fill-rule:nonzero;fill:rgb(100%,100%,100%);fill-opacity:1;stroke-width:0.996733;stroke-linecap:butt;stroke-linejoin:miter;stroke:rgb(0%,0%,0%);stroke-opacity:1;stroke-miterlimit:4;" d="M 6491.788256 -2434.99837 L 6693.757006 -2434.99837 C 6699.6281 -2434.99837 6704.385912 -2430.240557 6704.385912 -2424.369464 L 6704.385912 -2133.818682 C 6704.385912 -2127.947589 6699.6281 -2123.189776 6693.757006 -2123.189776 L 6491.788256 -2123.189776 C 6485.917162 -2123.189776 6481.15935 -2127.947589 6481.15935 -2133.818682 L 6481.15935 -2424.369464 C 6481.15935 -2430.240557 6485.917162 -2434.99837 6491.788256 -2434.99837 Z M 6491.788256 -2434.99837 " transform="matrix(1,0,0,1,-6480.65935,2435.49837)"/>
<path style=" stroke:none;fill-rule:nonzero;fill:rgb(83.137255%,0%,0%);fill-opacity:1;" d="M 8.773438 39.847656 L 11.800781 38.90625 C 12.941406 41.902344 15.25 42.785156 17.691406 42.597656 C 22.074219 42.253906 23.527344 37.449219 23.859375 33.195312 C 22.148438 34.96875 19.582031 35.871094 17.398438 35.785156 C 10.414062 35.414062 8.628906 29.929688 8.5625 24.183594 C 8.371094 19.335938 10.410156 15.828125 13.910156 14.21875 C 15.765625 13.402344 20.007812 13.402344 21.871094 14.367188 C 26.152344 16.585938 27.738281 20.417969 27.449219 29.558594 C 27.453125 37.082031 25.824219 45.847656 17.613281 46.035156 C 12.867188 46.679688 9.261719 43.054688 8.773438 39.847656 Z M 20.660156 31.605469 C 22.085938 30.71875 22.890625 29.890625 23.527344 28.644531 C 24.054688 27.621094 24.230469 27.089844 24.082031 24.972656 C 23.695312 19.515625 20.78125 16.425781 16.558594 17.039062 C 14.199219 17.382812 12.914062 18.679688 12.175781 21.085938 C 10.808594 25.535156 12.539062 30.746094 15.78125 31.945312 C 17.246094 32.484375 19.496094 32.328125 20.660156 31.605469 Z M 20.660156 31.605469 "/>
<path style=" stroke:none;fill-rule:nonzero;fill:rgb(83.137255%,0%,0%);fill-opacity:1;" d="M 214.808594 272.957031 L 211.785156 273.902344 C 210.640625 270.90625 208.332031 270.023438 205.890625 270.210938 C 201.507812 270.550781 200.054688 275.359375 199.726562 279.609375 C 201.433594 277.835938 204 276.9375 206.1875 277.023438 C 213.167969 277.394531 214.957031 282.878906 215.019531 288.625 C 215.214844 293.472656 213.171875 296.980469 209.671875 298.589844 C 207.820312 299.40625 203.578125 299.40625 201.714844 298.441406 C 197.429688 296.222656 195.847656 292.390625 196.132812 283.25 C 196.128906 275.726562 197.757812 266.960938 205.972656 266.773438 C 210.71875 266.128906 214.324219 269.753906 214.808594 272.957031 Z M 202.921875 281.203125 C 201.496094 282.089844 200.695312 282.917969 200.054688 284.164062 C 199.53125 285.1875 199.351562 285.71875 199.503906 287.835938 C 199.886719 293.289062 202.800781 296.382812 207.027344 295.769531 C 209.382812 295.425781 210.671875 294.128906 211.410156 291.71875 C 212.777344 287.269531 211.042969 282.0625 207.800781 280.863281 C 206.339844 280.324219 204.085938 280.480469 202.921875 281.203125 Z M 202.921875 281.203125 "/>
<path style=" stroke:none;fill-rule:nonzero;fill:rgb(83.137255%,0%,0%);fill-opacity:1;" d="M 9.082031 58.824219 C 7.5 55.351562 7.324219 49.417969 12.054688 48.617188 C 15.613281 48.15625 17.066406 49.8125 17.351562 52.355469 C 17.496094 53.101562 17.914062 53.144531 18.046875 52.300781 C 18.25 49.691406 20.835938 48.167969 22.855469 48.550781 C 28.378906 49.496094 28.058594 55.578125 26.253906 59.703125 C 23.523438 65.183594 20.652344 68.640625 18.007812 74.15625 C 14.96875 68.414062 11.5 63.75 9.082031 58.824219 Z M 9.082031 58.824219 "/>
<path style=" stroke:none;fill-rule:nonzero;fill:rgb(83.137255%,0%,0%);fill-opacity:1;" d="M 45.351562 29.171875 C 52.496094 28.699219 56.21875 34.800781 56.945312 39.609375 C 57.378906 40.375 57.617188 40.160156 57.78125 39.566406 C 58.132812 33.394531 63.65625 28.347656 68.773438 29.039062 C 77.101562 29.144531 82.164062 38.414062 80.742188 46.257812 C 79.003906 55.839844 73.839844 61.609375 69.933594 67.550781 C 65.511719 73.703125 59.5625 82.589844 57.644531 86.867188 C 57.644531 86.867188 51.59375 77.660156 43.726562 66.835938 C 38.464844 59.597656 34.253906 51.753906 33.859375 45 C 33.414062 37.285156 36.582031 30.371094 45.351562 29.175781 Z M 45.351562 29.171875 "/>
<path style=" stroke:none;fill-rule:nonzero;fill:rgb(83.137255%,0%,0%);fill-opacity:1;" d="M 154.882812 29.171875 C 162.027344 28.699219 165.75 34.800781 166.476562 39.609375 C 166.910156 40.375 167.148438 40.160156 167.316406 39.566406 C 167.664062 33.394531 173.191406 28.347656 178.308594 29.039062 C 186.636719 29.144531 191.695312 38.414062 190.273438 46.257812 C 188.535156 55.839844 183.375 61.609375 179.464844 67.550781 C 175.042969 73.703125 169.09375 82.589844 167.175781 86.867188 C 167.175781 86.867188 161.128906 77.660156 153.257812 66.835938 C 147.996094 59.597656 143.785156 51.753906 143.394531 45 C 142.945312 37.285156 146.113281 30.371094 154.882812 29.175781 Z M 154.882812 29.171875 "/>
<path style=" stroke:none;fill-rule:nonzero;fill:rgb(83.137255%,0%,0%);fill-opacity:1;" d="M 154.882812 94.503906 C 162.027344 94.03125 165.75 100.132812 166.476562 104.941406 C 166.910156 105.703125 167.148438 105.488281 167.316406 104.898438 C 167.664062 98.722656 173.191406 93.679688 178.308594 94.367188 C 186.636719 94.476562 191.695312 103.742188 190.273438 111.585938 C 188.535156 121.167969 183.375 126.9375 179.464844 132.878906 C 175.042969 139.03125 169.09375 147.917969 167.175781 152.195312 C 167.175781 152.195312 161.128906 142.992188 153.257812 132.167969 C 147.996094 124.929688 143.785156 117.085938 143.394531 110.332031 C 142.945312 102.617188 146.113281 95.699219 154.882812 94.503906 Z M 154.882812 94.503906 "/>
<path style=" stroke:none;fill-rule:nonzero;fill:rgb(83.137255%,0%,0%);fill-opacity:1;" d="M 100.0625 127.65625 C 107.207031 127.183594 110.929688 133.285156 111.65625 138.09375 C 112.089844 138.859375 112.328125 138.640625 112.496094 138.050781 C 112.84375 131.878906 118.371094 126.832031 123.488281 127.519531 C 131.816406 127.628906 136.878906 136.898438 135.453125 144.738281 C 133.714844 154.320312 128.554688 160.089844 124.644531 166.03125 C 120.226562 172.183594 114.273438 181.074219 112.355469 185.351562 C 112.355469 185.351562 106.308594 176.144531 98.4375 165.320312 C 93.175781 158.082031 88.964844 150.238281 88.574219 143.484375 C 88.125 135.769531 91.292969 128.851562 100.0625 127.65625 Z M 100.0625 127.65625 "/>
<path style=" stroke:none;fill-rule:nonzero;fill:rgb(83.137255%,0%,0%);fill-opacity:1;" d="M 45.351562 94.503906 C 52.496094 94.03125 56.21875 100.132812 56.945312 104.941406 C 57.378906 105.703125 57.617188 105.488281 57.78125 104.898438 C 58.132812 98.722656 63.65625 93.679688 68.773438 94.367188 C 77.101562 94.476562 82.164062 103.742188 80.742188 111.585938 C 79.003906 121.167969 73.839844 126.9375 69.933594 132.878906 C 65.511719 139.03125 59.5625 147.917969 57.644531 152.195312 C 57.644531 152.195312 51.59375 142.992188 43.726562 132.167969 C 38.464844 124.929688 34.253906 117.085938 33.859375 110.332031 C 33.414062 102.617188 36.582031 95.699219 45.351562 94.503906 Z M 45.351562 94.503906 "/>
<path style=" stroke:none;fill-rule:nonzero;fill:rgb(83.137255%,0%,0%);fill-opacity:1;" d="M 154.882812 218.894531 C 162.027344 219.367188 165.75 213.265625 166.476562 208.457031 C 166.910156 207.695312 167.148438 207.910156 167.316406 208.5 C 167.664062 214.675781 173.191406 219.71875 178.308594 219.03125 C 186.636719 218.921875 191.695312 209.65625 190.273438 201.8125 C 188.535156 192.230469 183.375 186.460938 179.464844 180.519531 C 175.042969 174.367188 169.09375 165.480469 167.175781 161.203125 C 167.175781 161.203125 161.128906 170.40625 153.257812 181.230469 C 147.996094 188.46875 143.785156 196.3125 143.394531 203.066406 C 142.945312 210.78125 146.113281 217.699219 154.882812 218.894531 Z M 154.882812 218.894531 "/>
<path style=" stroke:none;fill-rule:nonzero;fill:rgb(83.137255%,0%,0%);fill-opacity:1;" d="M 154.882812 284 C 162.027344 284.472656 165.75 278.371094 166.476562 273.5625 C 166.910156 272.800781 167.148438 273.015625 167.316406 273.605469 C 167.664062 279.78125 173.191406 284.824219 178.308594 284.136719 C 186.636719 284.027344 191.695312 274.761719 190.273438 266.917969 C 188.535156 257.335938 183.375 251.566406 179.464844 245.625 C 175.042969 239.472656 169.09375 230.585938 167.175781 226.308594 C 167.175781 226.308594 161.128906 235.511719 153.257812 246.335938 C 147.996094 253.574219 143.785156 261.417969 143.394531 268.171875 C 142.945312 275.886719 146.113281 282.804688 154.882812 284 Z M 154.882812 284 "/>
<path style=" stroke:none;fill-rule:nonzero;fill:rgb(83.137255%,0%,0%);fill-opacity:1;" d="M 45.351562 284 C 52.496094 284.472656 56.21875 278.371094 56.945312 273.5625 C 57.378906 272.800781 57.617188 273.015625 57.78125 273.605469 C 58.132812 279.78125 63.65625 284.824219 68.773438 284.136719 C 77.101562 284.027344 82.164062 274.761719 80.742188 266.917969 C 79.003906 257.335938 73.839844 251.566406 69.933594 245.625 C 65.511719 239.472656 59.5625 230.585938 57.644531 226.308594 C 57.644531 226.308594 51.59375 235.511719 43.726562 246.335938 C 38.464844 253.574219 34.253906 261.417969 33.859375 268.171875 C 33.414062 275.886719 36.582031 282.804688 45.351562 284 Z M 45.351562 284 "/>
<path style=" stroke:none;fill-rule:nonzero;fill:rgb(83.137255%,0%,0%);fill-opacity:1;" d="M 45.351562 218.894531 C 52.496094 219.367188 56.21875 213.265625 56.945312 208.457031 C 57.378906 207.695312 57.617188 207.910156 57.78125 208.5 C 58.132812 214.675781 63.65625 219.71875 68.773438 219.03125 C 77.101562 218.921875 82.164062 209.65625 80.742188 201.8125 C 79.003906 192.230469 73.839844 186.460938 69.933594 180.519531 C 65.511719 174.367188 59.5625 165.480469 57.644531 161.203125 C 57.644531 161.203125 51.59375 170.40625 43.726562 181.230469 C 38.464844 188.46875 34.253906 196.3125 33.859375 203.066406 C 33.414062 210.78125 36.582031 217.699219 45.351562 218.894531 Z M 45.351562 218.894531 "/>
<path style=" stroke:none;fill-rule:nonzero;fill:rgb(83.137255%,0%,0%);fill-opacity:1;" d="M 197.898438 249.679688 C 196.3125 253.152344 196.140625 259.085938 200.867188 259.890625 C 204.429688 260.347656 205.878906 258.691406 206.167969 256.148438 C 206.308594 255.402344 206.730469 255.359375 206.863281 256.207031 C 207.066406 258.816406 209.648438 260.339844 211.667969 259.957031 C 217.195312 259.011719 216.875 252.925781 215.066406 248.800781 C 212.335938 243.320312 209.46875 239.863281 206.824219 234.347656 C 203.785156 240.089844 200.316406 244.753906 197.898438 249.679688 Z M 197.898438 249.679688 "/>
</g>
</svg>
