<?xml version="1.0" encoding="UTF-8"?>
<svg xmlns="http://www.w3.org/2000/svg" xmlns:xlink="http://www.w3.org/1999/xlink" width="224.22508pt" height="312.80777pt" viewBox="0 0 224.22508 312.80777" version="1.1">
<g id="surface1">
<path style="fill-rule:nonzero;fill:rgb(100%,100%,100%);fill-opacity:1;stroke-width:0.996733;stroke-linecap:butt;stroke-linejoin:miter;stroke:rgb(0%,0%,0%);stroke-opacity:1;stroke-miterlimit:4;" d="M 6045.331226 -2746.8094 L 6247.299976 -2746.8094 C 6253.17107 -2746.8094 6257.928882 -2742.051588 6257.928882 -2736.180494 L 6257.928882 -2445.629713 C 6257.928882 -2439.758619 6253.17107 -2435.000806 6247.299976 -2435.000806 L 6045.331226 -2435.000806 C 6039.460132 -2435.000806 6034.70232 -2439.758619 6034.70232 -2445.629713 L 6034.70232 -2736.180494 C 6034.70232 -2742.051588 6039.460132 -2746.8094 6045.331226 -2746.8094 Z M 6045.331226 -2746.8094 " transform="matrix(1,0,0,1,-6034.20232,2747.3094)"/>
<path style=" stroke:none;fill-rule:nonzero;fill:rgb(83.137255%,0%,0%);fill-opacity:1;" d="M 7.734375 46.5625 L 7.734375 43.828125 L 10.394531 43.828125 L 16.058594 14.554688 L 19.28125 14.554688 L 25.523438 43.828125 L 27.671875 43.828125 L 27.671875 46.5625 L 20.355469 46.5625 L 20.355469 43.828125 L 22.332031 43.828125 L 21.542969 39.339844 L 14.15625 39.339844 L 13.585938 43.828125 L 15.566406 43.828125 L 15.566406 46.5625 Z M 20.910156 36.148438 L 17.703125 20.476562 L 14.695312 36.148438 Z M 20.910156 36.148438 "/>
<path style=" stroke:none;fill-rule:nonzero;fill:rgb(83.137255%,0%,0%);fill-opacity:1;" d="M 216.492188 266.242188 L 216.492188 268.980469 L 213.832031 268.980469 L 208.167969 298.253906 L 204.941406 298.253906 L 198.699219 268.980469 L 196.550781 268.980469 L 196.550781 266.242188 L 203.871094 266.242188 L 203.871094 268.980469 L 201.894531 268.980469 L 202.679688 273.464844 L 210.066406 273.464844 L 210.636719 268.980469 L 208.660156 268.980469 L 208.660156 266.242188 Z M 203.3125 276.660156 L 206.523438 292.328125 L 209.527344 276.660156 Z M 203.3125 276.660156 "/>
<path style=" stroke:none;fill-rule:nonzero;fill:rgb(83.137255%,0%,0%);fill-opacity:1;" d="M 8.78125 61.253906 C 7.195312 57.78125 7.023438 51.847656 11.75 51.042969 C 15.3125 50.585938 16.761719 52.242188 17.050781 54.785156 C 17.191406 55.53125 17.613281 55.574219 17.746094 54.726562 C 17.949219 52.117188 20.53125 50.59375 22.550781 50.976562 C 28.078125 51.921875 27.753906 58.007812 25.949219 62.132812 C 23.21875 67.613281 20.351562 71.070312 17.707031 76.585938 C 14.667969 70.84375 11.199219 66.179688 8.78125 61.253906 Z M 8.78125 61.253906 "/>
<path style=" stroke:none;fill-rule:nonzero;fill:rgb(83.137255%,0%,0%);fill-opacity:1;" d="M 100.0625 127.65625 C 107.207031 127.183594 110.929688 133.285156 111.65625 138.09375 C 112.089844 138.859375 112.328125 138.640625 112.496094 138.050781 C 112.84375 131.878906 118.371094 126.832031 123.488281 127.519531 C 131.816406 127.628906 136.878906 136.898438 135.453125 144.738281 C 133.714844 154.320312 128.554688 160.089844 124.644531 166.03125 C 120.226562 172.183594 114.273438 181.074219 112.355469 185.351562 C 112.355469 185.351562 106.308594 176.144531 98.4375 165.320312 C 93.175781 158.082031 88.964844 150.238281 88.574219 143.484375 C 88.125 135.769531 91.292969 128.851562 100.0625 127.65625 Z M 100.0625 127.65625 "/>
<path style=" stroke:none;fill-rule:nonzero;fill:rgb(83.137255%,0%,0%);fill-opacity:1;" d="M 197.160156 251.941406 C 195.578125 255.410156 195.402344 261.34375 200.128906 262.148438 C 203.691406 262.605469 205.140625 260.949219 205.429688 258.40625 C 205.574219 257.664062 205.992188 257.617188 206.125 258.464844 C 206.328125 261.074219 208.914062 262.597656 210.933594 262.214844 C 216.457031 261.269531 216.136719 255.1875 214.332031 251.058594 C 211.597656 245.578125 208.730469 242.121094 206.085938 236.605469 C 203.046875 242.347656 199.578125 247.011719 197.160156 251.941406 Z M 197.160156 251.941406 "/>
</g>
</svg>
