<?xml version="1.0" encoding="UTF-8"?>
<svg xmlns="http://www.w3.org/2000/svg" xmlns:xlink="http://www.w3.org/1999/xlink" width="280.27911pt" height="391.00665pt" viewBox="0 0 280.27911 391.00665" version="1.1">
<g id="surface1">
<path style="fill-rule:nonzero;fill:rgb(100%,100%,100%);fill-opacity:1;stroke-width:0.996733;stroke-linecap:butt;stroke-linejoin:miter;stroke:rgb(0%,0%,0%);stroke-opacity:1;stroke-miterlimit:4;" d="M 6715.017138 -2434.99986 L 6916.985888 -2434.99986 C 6922.854638 -2434.99986 6927.614013 -2430.240485 6927.614013 -2424.36861 L 6927.614013 -2133.81861 C 6927.614013 -2127.946735 6922.854638 -2123.190485 6916.985888 -2123.190485 L 6715.017138 -2123.190485 C 6709.145263 -2123.190485 6704.385888 -2127.946735 6704.385888 -2133.81861 L 6704.385888 -2424.36861 C 6704.385888 -2430.240485 6709.145263 -2434.99986 6715.017138 -2434.99986 Z M 6715.017138 -2434.99986 " transform="matrix(1.25,0,0,1.25,-8379.861267,3044.370919)"/>
<path style=" stroke:none;fill-rule:nonzero;fill:rgb(83.137255%,0%,0%);fill-opacity:1;" d="M 41.683594 72.253906 C 54.085938 60.148438 62.230469 46.957031 70.015625 34.265625 C 76.847656 48.230469 86.648438 60.441406 97.25 72.253906 C 85.90625 83.960938 77.117188 96.488281 70.050781 109.652344 C 62.214844 96.15625 53.96875 83.933594 41.683594 72.253906 Z M 41.683594 72.253906 "/>
<path style=" stroke:none;fill-rule:nonzero;fill:rgb(83.137255%,0%,0%);fill-opacity:1;" d="M 41.683594 153.914062 C 54.085938 141.8125 62.230469 128.621094 70.015625 115.929688 C 76.847656 129.890625 86.648438 142.105469 97.25 153.914062 C 85.90625 165.628906 77.117188 178.148438 70.050781 191.3125 C 62.214844 177.820312 53.96875 165.597656 41.683594 153.914062 Z M 41.683594 153.914062 "/>
<path style=" stroke:none;fill-rule:nonzero;fill:rgb(83.137255%,0%,0%);fill-opacity:1;" d="M 41.683594 237.535156 C 54.085938 225.4375 62.230469 212.238281 70.015625 199.546875 C 76.847656 213.511719 86.648438 225.730469 97.25 237.535156 C 85.90625 249.246094 77.117188 261.769531 70.050781 274.933594 C 62.214844 261.4375 53.96875 249.222656 41.683594 237.535156 Z M 41.683594 237.535156 "/>
<path style=" stroke:none;fill-rule:nonzero;fill:rgb(83.137255%,0%,0%);fill-opacity:1;" d="M 41.683594 318.917969 C 54.085938 306.820312 62.230469 293.621094 70.015625 280.929688 C 76.847656 294.894531 86.648438 307.113281 97.25 318.917969 C 85.90625 330.628906 77.117188 343.152344 70.050781 356.316406 C 62.214844 342.820312 53.96875 330.601562 41.683594 318.917969 Z M 41.683594 318.917969 "/>
<path style=" stroke:none;fill-rule:nonzero;fill:rgb(83.137255%,0%,0%);fill-opacity:1;" d="M 111.910156 115.207031 C 124.3125 103.101562 132.457031 89.910156 140.246094 77.21875 C 147.078125 91.183594 156.878906 103.402344 167.476562 115.207031 C 156.136719 126.917969 147.347656 139.441406 140.28125 152.605469 C 132.445312 139.109375 124.195312 126.886719 111.910156 115.207031 Z M 111.910156 115.207031 "/>
<path style=" stroke:none;fill-rule:nonzero;fill:rgb(83.137255%,0%,0%);fill-opacity:1;" d="M 111.324219 275.632812 C 123.726562 263.53125 131.871094 250.339844 139.660156 237.648438 C 146.492188 251.609375 156.292969 263.824219 166.890625 275.632812 C 155.554688 287.347656 146.761719 299.867188 139.695312 313.03125 C 131.863281 299.539062 123.609375 287.316406 111.324219 275.632812 Z M 111.324219 275.632812 "/>
<path style=" stroke:none;fill-rule:nonzero;fill:rgb(83.137255%,0%,0%);fill-opacity:1;" d="M 181.101562 72.253906 C 193.5 60.148438 201.644531 46.957031 209.429688 34.265625 C 216.261719 48.230469 226.066406 60.441406 236.667969 72.253906 C 225.324219 83.960938 216.535156 96.488281 209.464844 109.652344 C 201.632812 96.15625 193.386719 83.933594 181.101562 72.253906 Z M 181.101562 72.253906 "/>
<path style=" stroke:none;fill-rule:nonzero;fill:rgb(83.137255%,0%,0%);fill-opacity:1;" d="M 181.101562 153.914062 C 193.5 141.8125 201.644531 128.621094 209.429688 115.929688 C 216.261719 129.890625 226.066406 142.105469 236.667969 153.914062 C 225.324219 165.628906 216.535156 178.148438 209.464844 191.3125 C 201.632812 177.820312 193.386719 165.597656 181.101562 153.914062 Z M 181.101562 153.914062 "/>
<path style=" stroke:none;fill-rule:nonzero;fill:rgb(83.137255%,0%,0%);fill-opacity:1;" d="M 181.101562 237.535156 C 193.5 225.4375 201.644531 212.238281 209.429688 199.546875 C 216.261719 213.511719 226.066406 225.730469 236.667969 237.535156 C 225.324219 249.246094 216.535156 261.769531 209.464844 274.933594 C 201.632812 261.4375 193.386719 249.222656 181.101562 237.535156 Z M 181.101562 237.535156 "/>
<path style=" stroke:none;fill-rule:nonzero;fill:rgb(83.137255%,0%,0%);fill-opacity:1;" d="M 181.101562 318.917969 C 193.5 306.820312 201.644531 293.621094 209.429688 280.929688 C 216.261719 294.894531 226.066406 307.113281 236.667969 318.917969 C 225.324219 330.628906 216.535156 343.152344 209.464844 356.316406 C 201.632812 342.820312 193.386719 330.601562 181.101562 318.917969 Z M 181.101562 318.917969 "/>
<path style=" stroke:none;fill-rule:nonzero;fill:rgb(83.137255%,0%,0%);fill-opacity:1;" d="M 246.753906 311.363281 C 251.832031 306.402344 255.167969 301 258.363281 295.804688 C 261.160156 301.519531 265.171875 306.527344 269.515625 311.363281 C 264.871094 316.160156 261.273438 321.292969 258.375 326.683594 C 255.164062 321.15625 251.785156 316.148438 246.753906 311.363281 Z M 246.753906 311.363281 "/>
<path style=" stroke:none;fill-rule:nonzero;fill:rgb(83.137255%,0%,0%);fill-opacity:1;" d="M 10.734375 79.039062 C 15.8125 74.085938 19.152344 68.679688 22.339844 63.480469 C 25.140625 69.203125 29.152344 74.203125 33.5 79.039062 C 28.851562 83.835938 25.25 88.96875 22.355469 94.359375 C 19.148438 88.832031 15.769531 83.824219 10.734375 79.039062 Z M 10.734375 79.039062 "/>
<path style=" stroke:none;fill-rule:nonzero;fill:rgb(83.137255%,0%,0%);fill-opacity:1;" d="M 10.152344 57.300781 L 10.152344 17.917969 L 14.046875 17.917969 L 14.046875 57.300781 Z M 10.152344 57.300781 "/>
<path style=" stroke:none;fill-rule:nonzero;fill:rgb(83.137255%,0%,0%);fill-opacity:1;" d="M 25.570312 17.917969 C 21.824219 17.917969 18.816406 21.277344 18.816406 25.445312 L 18.816406 49.773438 C 18.816406 53.941406 21.824219 57.300781 25.570312 57.300781 L 27.75 57.300781 C 31.492188 57.300781 34.503906 53.941406 34.503906 49.773438 L 34.503906 25.445312 C 34.503906 21.277344 31.492188 17.917969 27.75 17.917969 Z M 26.691406 21.636719 C 28.902344 21.636719 30.679688 23.3125 30.679688 25.394531 L 30.679688 50.046875 C 30.679688 52.125 28.902344 53.800781 26.691406 53.800781 C 24.484375 53.800781 22.703125 52.125 22.703125 50.046875 L 22.703125 25.394531 C 22.703125 23.3125 24.484375 21.636719 26.691406 21.636719 Z M 26.691406 21.636719 "/>
<path style=" stroke:none;fill-rule:nonzero;fill:rgb(83.137255%,0%,0%);fill-opacity:1;" d="M 270.121094 333.703125 L 270.121094 373.089844 L 266.234375 373.089844 L 266.234375 333.703125 Z M 270.121094 333.703125 "/>
<path style=" stroke:none;fill-rule:nonzero;fill:rgb(83.137255%,0%,0%);fill-opacity:1;" d="M 254.710938 373.089844 C 258.449219 373.089844 261.460938 369.730469 261.460938 365.558594 L 261.460938 341.234375 C 261.460938 337.0625 258.449219 333.703125 254.710938 333.703125 L 252.527344 333.703125 C 248.785156 333.703125 245.769531 337.0625 245.769531 341.234375 L 245.769531 365.558594 C 245.769531 369.730469 248.785156 373.089844 252.527344 373.089844 Z M 253.582031 369.363281 C 251.371094 369.363281 249.59375 367.691406 249.59375 365.613281 L 249.59375 340.960938 C 249.59375 338.878906 251.371094 337.199219 253.582031 337.199219 C 255.792969 337.199219 257.570312 338.878906 257.570312 340.960938 L 257.570312 365.613281 C 257.570312 367.691406 255.792969 369.363281 253.582031 369.363281 Z M 253.582031 369.363281 "/>
</g>
</svg>
