<?xml version="1.0" encoding="UTF-8"?>
<svg xmlns="http://www.w3.org/2000/svg" xmlns:xlink="http://www.w3.org/1999/xlink" width="280.27911pt" height="391.00665pt" viewBox="0 0 280.27911 391.00665" version="1.1">
<g id="surface1">
<path style="fill-rule:nonzero;fill:rgb(100%,100%,100%);fill-opacity:1;stroke-width:0.996733;stroke-linecap:butt;stroke-linejoin:miter;stroke:rgb(0%,0%,0%);stroke-opacity:1;stroke-miterlimit:4;" d="M 6268.560588 -2746.81089 L 6470.529338 -2746.81089 C 6476.398088 -2746.81089 6481.157463 -2742.051515 6481.157463 -2736.17964 L 6481.157463 -2445.62964 C 6481.157463 -2439.757765 6476.398088 -2435.001515 6470.529338 -2435.001515 L 6268.560588 -2435.001515 C 6262.688713 -2435.001515 6257.929338 -2439.757765 6257.929338 -2445.62964 L 6257.929338 -2736.17964 C 6257.929338 -2742.051515 6262.688713 -2746.81089 6268.560588 -2746.81089 Z M 6268.560588 -2746.81089 " transform="matrix(1.25,0,0,1.25,-7821.790579,3434.134706)"/>
<path style=" stroke:none;fill-rule:nonzero;fill:rgb(83.137255%,0%,0%);fill-opacity:1;" d="M 112.484375 71.804688 C 124.878906 59.703125 133.023438 46.507812 140.8125 33.820312 C 147.644531 47.78125 157.449219 59.996094 168.050781 71.804688 C 156.707031 83.519531 147.917969 96.039062 140.847656 109.203125 C 133.015625 95.710938 124.769531 83.488281 112.484375 71.804688 Z M 112.484375 71.804688 "/>
<path style=" stroke:none;fill-rule:nonzero;fill:rgb(83.137255%,0%,0%);fill-opacity:1;" d="M 112.484375 320.316406 C 124.878906 308.214844 133.023438 295.015625 140.8125 282.332031 C 147.644531 296.292969 157.449219 308.507812 168.050781 320.316406 C 156.707031 332.023438 147.917969 344.546875 140.847656 357.710938 C 133.015625 344.214844 124.769531 332 112.484375 320.316406 Z M 112.484375 320.316406 "/>
<path style=" stroke:none;fill-rule:nonzero;fill:rgb(83.137255%,0%,0%);fill-opacity:1;" d="M 246.253906 311.996094 C 251.335938 307.039062 254.671875 301.632812 257.863281 296.433594 C 260.660156 302.15625 264.675781 307.15625 269.015625 311.996094 C 264.371094 316.792969 260.769531 321.921875 257.875 327.316406 C 254.664062 321.785156 251.285156 316.78125 246.253906 311.996094 Z M 246.253906 311.996094 "/>
<path style=" stroke:none;fill-rule:nonzero;fill:rgb(83.137255%,0%,0%);fill-opacity:1;" d="M 11.597656 79.15625 C 16.683594 74.195312 20.015625 68.792969 23.207031 63.597656 C 26.003906 69.3125 30.023438 74.320312 34.363281 79.15625 C 29.714844 83.953125 26.117188 89.085938 23.21875 94.476562 C 20.011719 88.949219 16.632812 83.941406 11.597656 79.15625 Z M 11.597656 79.15625 "/>
<path style=" stroke:none;fill-rule:nonzero;fill:rgb(83.137255%,0%,0%);fill-opacity:1;" d="M 11.007812 58.917969 L 11.214844 56.394531 C 11.851562 48.597656 13.558594 45.960938 23.238281 37.824219 C 27.941406 33.875 29.484375 31.925781 29.699219 29.664062 C 30.316406 24.34375 25.511719 22.679688 22.378906 22.648438 C 18.328125 22.609375 13.746094 25.035156 15.929688 30.667969 L 11.382812 32 C 10.464844 26.75 11.410156 21.824219 15.667969 19.636719 C 21.351562 16.785156 28.640625 17.902344 32.320312 22.394531 C 34.792969 25.414062 35.355469 29.578125 34.03125 32.839844 C 30.152344 41.179688 17.003906 44.847656 15.914062 54.488281 L 30.457031 54.488281 L 30.457031 49.117188 L 34.738281 49.117188 L 34.738281 59 Z M 11.007812 58.917969 "/>
<path style=" stroke:none;fill-rule:nonzero;fill:rgb(83.137255%,0%,0%);fill-opacity:1;" d="M 269.269531 332.085938 L 269.058594 334.613281 C 268.425781 342.410156 266.722656 345.046875 257.035156 353.179688 C 252.335938 357.125 250.792969 359.078125 250.574219 361.339844 C 249.964844 366.664062 254.761719 368.328125 257.894531 368.355469 C 261.945312 368.390625 266.53125 365.964844 264.34375 360.339844 L 268.890625 359 C 269.808594 364.253906 268.871094 369.183594 264.605469 371.371094 C 258.929688 374.214844 251.632812 373.097656 247.957031 368.609375 C 245.480469 365.59375 244.917969 361.429688 246.246094 358.167969 C 250.121094 349.828125 263.273438 346.160156 264.359375 336.515625 L 249.820312 336.515625 L 249.820312 341.886719 L 245.539062 341.886719 L 245.539062 332 Z M 269.269531 332.085938 "/>
</g>
</svg>
