<?xml version="1.0" encoding="UTF-8"?>
<svg xmlns="http://www.w3.org/2000/svg" xmlns:xlink="http://www.w3.org/1999/xlink" width="280.27911pt" height="391.00665pt" viewBox="0 0 280.27911 391.00665" version="1.1">
<g id="surface1">
<path style="fill-rule:nonzero;fill:rgb(100%,100%,100%);fill-opacity:1;stroke-width:0.996733;stroke-linecap:butt;stroke-linejoin:miter;stroke:rgb(0%,0%,0%);stroke-opacity:1;stroke-miterlimit:4;" d="M 6491.789108 -2746.81089 L 6693.757858 -2746.81089 C 6699.626608 -2746.81089 6704.385983 -2742.051515 6704.385983 -2736.17964 L 6704.385983 -2445.62964 C 6704.385983 -2439.757765 6699.626608 -2435.001515 6693.757858 -2435.001515 L 6491.789108 -2435.001515 C 6485.917233 -2435.001515 6481.157858 -2439.757765 6481.157858 -2445.62964 L 6481.157858 -2736.17964 C 6481.157858 -2742.051515 6485.917233 -2746.81089 6491.789108 -2746.81089 Z M 6491.789108 -2746.81089 " transform="matrix(1.25,0,0,1.25,-8100.826229,3434.134706)"/>
<path style=" stroke:none;fill-rule:nonzero;fill:rgb(83.137255%,0%,0%);fill-opacity:1;" d="M 112.277344 72.769531 C 124.675781 60.667969 132.820312 47.472656 140.609375 34.78125 C 147.4375 48.746094 157.242188 60.960938 167.84375 72.769531 C 156.5 84.480469 147.710938 97.003906 140.640625 110.167969 C 132.808594 96.671875 124.5625 84.449219 112.277344 72.769531 Z M 112.277344 72.769531 "/>
<path style=" stroke:none;fill-rule:nonzero;fill:rgb(83.137255%,0%,0%);fill-opacity:1;" d="M 112.277344 319.148438 C 124.675781 307.046875 132.820312 293.851562 140.609375 281.164062 C 147.4375 295.125 157.242188 307.339844 167.84375 319.148438 C 156.5 330.855469 147.710938 343.382812 140.640625 356.546875 C 132.808594 343.050781 124.5625 330.832031 112.277344 319.148438 Z M 112.277344 319.148438 "/>
<path style=" stroke:none;fill-rule:nonzero;fill:rgb(83.137255%,0%,0%);fill-opacity:1;" d="M 112.277344 195.851562 C 124.675781 183.753906 132.820312 170.558594 140.609375 157.867188 C 147.4375 171.828125 157.242188 184.046875 167.84375 195.851562 C 156.5 207.566406 147.710938 220.085938 140.640625 233.25 C 132.808594 219.757812 124.5625 207.535156 112.277344 195.851562 Z M 112.277344 195.851562 "/>
<path style=" stroke:none;fill-rule:nonzero;fill:rgb(83.137255%,0%,0%);fill-opacity:1;" d="M 245.992188 312.464844 C 251.070312 307.503906 254.40625 302.097656 257.601562 296.902344 C 260.398438 302.621094 264.410156 307.625 268.753906 312.464844 C 264.109375 317.257812 260.503906 322.390625 257.613281 327.78125 C 254.402344 322.253906 251.023438 317.25 245.992188 312.464844 Z M 245.992188 312.464844 "/>
<path style=" stroke:none;fill-rule:nonzero;fill:rgb(83.137255%,0%,0%);fill-opacity:1;" d="M 12.257812 79.695312 C 17.335938 74.738281 20.675781 69.332031 23.863281 64.136719 C 26.664062 69.855469 30.675781 74.859375 35.023438 79.695312 C 30.375 84.496094 26.773438 89.621094 23.878906 95.015625 C 20.671875 89.488281 17.292969 84.484375 12.257812 79.695312 Z M 12.257812 79.695312 "/>
<path style=" stroke:none;fill-rule:nonzero;fill:rgb(83.137255%,0%,0%);fill-opacity:1;" d="M 11.183594 49.636719 L 14.367188 47.335938 C 17.132812 51.753906 20.222656 54.664062 24.949219 54.167969 C 32.039062 53.6875 34.976562 46.390625 33.492188 40.886719 C 32.058594 35.953125 26.183594 33.550781 21.519531 36.183594 C 20.417969 36.804688 19.148438 37.570312 19.148438 37.570312 L 17.484375 34.867188 L 28.441406 22.121094 L 16.550781 22.121094 L 16.550781 27.394531 L 11.988281 27.394531 L 11.988281 17.9375 L 35.226562 17.9375 L 35.226562 21.148438 C 35.226562 21.148438 29 27.484375 26.941406 30.960938 C 32.007812 31.140625 36.097656 34.292969 37.554688 39.28125 C 38.414062 41.902344 38.03125 47.90625 36.910156 50.492188 C 35.046875 54.800781 29.933594 58.304688 25.261719 58.503906 C 17.417969 59.019531 13.257812 53.625 11.183594 49.636719 Z M 11.183594 49.636719 "/>
<path style=" stroke:none;fill-rule:nonzero;fill:rgb(83.137255%,0%,0%);fill-opacity:1;" d="M 269.09375 341.371094 L 265.910156 343.667969 C 263.140625 339.25 260.054688 336.339844 255.328125 336.839844 C 248.234375 337.316406 245.300781 344.617188 246.785156 350.121094 C 248.21875 355.050781 254.09375 357.453125 258.757812 354.820312 C 259.855469 354.203125 261.128906 353.550781 261.128906 353.550781 L 263.097656 356.097656 L 251.839844 368.882812 L 263.722656 368.882812 L 263.722656 363.609375 L 268.289062 363.609375 L 268.289062 373.0625 L 245.050781 373.0625 L 245.050781 369.855469 C 245.050781 369.855469 251.273438 363.523438 253.332031 360.046875 C 248.265625 359.859375 244.183594 356.710938 242.71875 351.726562 C 241.863281 349.105469 242.25 343.097656 243.367188 340.515625 C 245.230469 336.199219 250.34375 332.703125 255.015625 332.503906 C 262.855469 331.984375 267.019531 337.375 269.09375 341.371094 Z M 269.09375 341.371094 "/>
</g>
</svg>
