<?xml version="1.0" encoding="UTF-8"?>
<svg xmlns="http://www.w3.org/2000/svg" xmlns:xlink="http://www.w3.org/1999/xlink" width="280.27911pt" height="391.00665pt" viewBox="0 0 280.27911 391.00665" version="1.1">
<g id="surface1">
<path style="fill-rule:nonzero;fill:rgb(100%,100%,100%);fill-opacity:1;stroke-width:0.996733;stroke-linecap:butt;stroke-linejoin:miter;stroke:rgb(0%,0%,0%);stroke-opacity:1;stroke-miterlimit:4;" d="M 6715.017138 -2746.81089 L 6916.985888 -2746.81089 C 6922.854638 -2746.81089 6927.614013 -2742.051515 6927.614013 -2736.17964 L 6927.614013 -2445.62964 C 6927.614013 -2439.757765 6922.854638 -2435.001515 6916.985888 -2435.001515 L 6715.017138 -2435.001515 C 6709.145263 -2435.001515 6704.385888 -2439.757765 6704.385888 -2445.62964 L 6704.385888 -2736.17964 C 6704.385888 -2742.051515 6709.145263 -2746.81089 6715.017138 -2746.81089 Z M 6715.017138 -2746.81089 " transform="matrix(1.25,0,0,1.25,-8379.861267,3434.134706)"/>
<path style=" stroke:none;fill-rule:nonzero;fill:rgb(83.137255%,0%,0%);fill-opacity:1;" d="M 44.148438 69.425781 C 56.546875 57.328125 64.691406 44.132812 72.476562 31.441406 C 79.308594 45.402344 89.113281 57.621094 99.714844 69.425781 C 88.371094 81.140625 79.582031 93.660156 72.511719 106.824219 C 64.679688 93.332031 56.433594 81.109375 44.148438 69.425781 Z M 44.148438 69.425781 "/>
<path style=" stroke:none;fill-rule:nonzero;fill:rgb(83.137255%,0%,0%);fill-opacity:1;" d="M 44.148438 317.984375 C 56.546875 305.886719 64.691406 292.691406 72.476562 280.003906 C 79.308594 293.960938 89.113281 306.179688 99.714844 317.984375 C 88.371094 329.699219 79.582031 342.21875 72.511719 355.382812 C 64.679688 341.890625 56.433594 329.671875 44.148438 317.984375 Z M 44.148438 317.984375 "/>
<path style=" stroke:none;fill-rule:nonzero;fill:rgb(83.137255%,0%,0%);fill-opacity:1;" d="M 183.5625 69.425781 C 195.964844 57.328125 204.109375 44.132812 211.898438 31.441406 C 218.726562 45.402344 228.527344 57.621094 239.128906 69.425781 C 227.785156 81.140625 218.996094 93.660156 211.929688 106.824219 C 204.09375 93.332031 195.847656 81.109375 183.5625 69.425781 Z M 183.5625 69.425781 "/>
<path style=" stroke:none;fill-rule:nonzero;fill:rgb(83.137255%,0%,0%);fill-opacity:1;" d="M 183.5625 317.984375 C 195.964844 305.886719 204.109375 292.691406 211.898438 280.003906 C 218.726562 293.960938 228.527344 306.179688 239.128906 317.984375 C 227.785156 329.699219 218.996094 342.21875 211.929688 355.382812 C 204.09375 341.890625 195.847656 329.671875 183.5625 317.984375 Z M 183.5625 317.984375 "/>
<path style=" stroke:none;fill-rule:nonzero;fill:rgb(83.137255%,0%,0%);fill-opacity:1;" d="M 245.046875 311.5 C 250.128906 306.539062 253.464844 301.140625 256.652344 295.941406 C 259.449219 301.65625 263.46875 306.664062 267.808594 311.5 C 263.167969 316.296875 259.5625 321.429688 256.667969 326.820312 C 253.460938 321.292969 250.082031 316.285156 245.046875 311.5 Z M 245.046875 311.5 "/>
<path style=" stroke:none;fill-rule:nonzero;fill:rgb(83.137255%,0%,0%);fill-opacity:1;" d="M 11.023438 80.109375 C 16.105469 75.152344 19.441406 69.75 22.628906 64.546875 C 25.433594 70.269531 29.445312 75.269531 33.785156 80.109375 C 29.144531 84.90625 25.539062 90.035156 22.644531 95.425781 C 19.4375 89.898438 16.058594 84.894531 11.023438 80.109375 Z M 11.023438 80.109375 "/>
<path style=" stroke:none;fill-rule:nonzero;fill:rgb(83.137255%,0%,0%);fill-opacity:1;" d="M 22.914062 58.585938 L 22.914062 55.070312 L 26.144531 55.070312 L 26.144531 49.273438 L 9.988281 49.273438 L 9.988281 45.1875 L 27.472656 18.816406 L 30.328125 18.824219 L 30.328125 45.1875 L 35.269531 45.1875 L 35.269531 49.273438 L 30.328125 49.273438 L 30.230469 55.070312 L 32.941406 55.070312 L 32.941406 58.585938 Z M 26.144531 28.464844 L 15.046875 45.1875 L 26.144531 45.1875 Z M 26.144531 28.464844 "/>
<path style=" stroke:none;fill-rule:nonzero;fill:rgb(83.137255%,0%,0%);fill-opacity:1;" d="M 257.359375 332.417969 L 257.359375 335.933594 L 254.128906 335.933594 L 254.128906 341.730469 L 270.285156 341.730469 L 270.285156 345.816406 L 252.804688 372.191406 L 249.949219 372.179688 L 249.949219 345.816406 L 245.007812 345.816406 L 245.007812 341.730469 L 249.949219 341.730469 L 250.042969 335.933594 L 247.335938 335.933594 L 247.335938 332.417969 Z M 254.128906 362.535156 L 265.226562 345.816406 L 254.128906 345.816406 Z M 254.128906 362.535156 "/>
</g>
</svg>
