<?xml version="1.0" encoding="UTF-8"?>
<svg xmlns="http://www.w3.org/2000/svg" xmlns:xlink="http://www.w3.org/1999/xlink" width="224.22508pt" height="312.80777pt" viewBox="0 0 224.22508 312.80777" version="1.1">
<g id="surface1">
<path style="fill-rule:nonzero;fill:rgb(100%,100%,100%);fill-opacity:1;stroke-width:0.996733;stroke-linecap:butt;stroke-linejoin:miter;stroke:rgb(0%,0%,0%);stroke-opacity:1;stroke-miterlimit:4;" d="M 6938.244796 -2746.8094 L 7140.213546 -2746.8094 C 7146.08464 -2746.8094 7150.842453 -2742.051588 7150.842453 -2736.180494 L 7150.842453 -2445.629713 C 7150.842453 -2439.758619 7146.08464 -2435.000806 7140.213546 -2435.000806 L 6938.244796 -2435.000806 C 6932.373703 -2435.000806 6927.61589 -2439.758619 6927.61589 -2445.629713 L 6927.61589 -2736.180494 C 6927.61589 -2742.051588 6932.373703 -2746.8094 6938.244796 -2746.8094 Z M 6938.244796 -2746.8094 " transform="matrix(1,0,0,1,-6927.11589,2747.3094)"/>
<path style=" stroke:none;fill-rule:nonzero;fill:rgb(83.137255%,0%,0%);fill-opacity:1;" d="M 34.375 57.402344 C 44.296875 47.722656 50.8125 37.164062 57.042969 27.015625 C 62.507812 38.183594 70.351562 47.957031 78.832031 57.402344 C 69.757812 66.769531 62.726562 76.789062 57.070312 87.320312 C 50.804688 76.523438 44.203125 66.75 34.375 57.402344 Z M 34.375 57.402344 "/>
<path style=" stroke:none;fill-rule:nonzero;fill:rgb(83.137255%,0%,0%);fill-opacity:1;" d="M 34.375 254.054688 C 44.296875 244.371094 50.8125 233.816406 57.042969 223.664062 C 62.507812 234.835938 70.351562 244.609375 78.832031 254.054688 C 69.757812 263.421875 62.726562 273.441406 57.070312 283.972656 C 50.804688 273.175781 44.203125 263.398438 34.375 254.054688 Z M 34.375 254.054688 "/>
<path style=" stroke:none;fill-rule:nonzero;fill:rgb(83.137255%,0%,0%);fill-opacity:1;" d="M 145.058594 57.402344 C 154.980469 47.722656 161.496094 37.164062 167.726562 27.015625 C 173.191406 38.183594 181.03125 47.957031 189.511719 57.402344 C 180.4375 66.769531 173.40625 76.789062 167.753906 87.320312 C 161.484375 76.523438 154.886719 66.75 145.058594 57.402344 Z M 145.058594 57.402344 "/>
<path style=" stroke:none;fill-rule:nonzero;fill:rgb(83.137255%,0%,0%);fill-opacity:1;" d="M 89.816406 156.664062 C 99.734375 146.984375 106.25 136.425781 112.480469 126.277344 C 117.945312 137.445312 125.789062 147.21875 134.269531 156.664062 C 125.195312 166.035156 118.164062 176.050781 112.507812 186.582031 C 106.242188 175.785156 99.644531 166.011719 89.816406 156.664062 Z M 89.816406 156.664062 "/>
<path style=" stroke:none;fill-rule:nonzero;fill:rgb(83.137255%,0%,0%);fill-opacity:1;" d="M 145.058594 254.054688 C 154.980469 244.371094 161.496094 233.816406 167.726562 223.664062 C 173.191406 234.835938 181.03125 244.609375 189.511719 254.054688 C 180.4375 263.421875 173.40625 273.441406 167.753906 283.972656 C 161.484375 273.175781 154.886719 263.398438 145.058594 254.054688 Z M 145.058594 254.054688 "/>
<path style=" stroke:none;fill-rule:nonzero;fill:rgb(83.137255%,0%,0%);fill-opacity:1;" d="M 196.285156 249.550781 C 200.347656 245.582031 203.019531 241.257812 205.570312 237.101562 C 207.808594 241.675781 211.019531 245.679688 214.496094 249.550781 C 210.777344 253.386719 207.898438 257.492188 205.582031 261.804688 C 203.015625 257.382812 200.3125 253.378906 196.285156 249.550781 Z M 196.285156 249.550781 "/>
<path style=" stroke:none;fill-rule:nonzero;fill:rgb(83.137255%,0%,0%);fill-opacity:1;" d="M 9.578125 63.691406 C 13.640625 59.726562 16.308594 55.402344 18.863281 51.242188 C 21.101562 55.820312 24.3125 59.824219 27.789062 63.691406 C 24.070312 67.53125 21.191406 71.632812 18.875 75.949219 C 16.304688 71.523438 13.605469 67.519531 9.578125 63.691406 Z M 9.578125 63.691406 "/>
<path style=" stroke:none;fill-rule:nonzero;fill:rgb(83.137255%,0%,0%);fill-opacity:1;" d="M 8.675781 38.035156 L 11.898438 38.007812 C 12.511719 39.953125 13.871094 41.933594 15.714844 42.480469 C 20.925781 43.707031 24.28125 40.792969 25.386719 37.433594 C 26.726562 33.359375 25.355469 27.640625 21.769531 25.605469 C 18.792969 23.921875 14.375 25.34375 12.347656 28.945312 L 10.089844 27.566406 L 11.300781 14.144531 L 26.03125 14.144531 L 26.03125 17.316406 L 14.09375 17.316406 L 13.90625 22.90625 C 16.472656 21.105469 20.425781 21.121094 22.992188 22.386719 C 27.855469 24.707031 30.117188 29.980469 29.167969 36.199219 C 27.859375 42.382812 24.972656 45.882812 18.453125 46.386719 C 11.207031 46.449219 8.648438 41.46875 8.675781 38.035156 Z M 8.675781 38.035156 "/>
<path style=" stroke:none;fill-rule:nonzero;fill:rgb(83.137255%,0%,0%);fill-opacity:1;" d="M 215.546875 274.773438 L 212.328125 274.800781 C 211.714844 272.855469 210.355469 270.875 208.511719 270.328125 C 203.296875 269.101562 199.941406 272.015625 198.839844 275.375 C 197.496094 279.445312 198.867188 285.167969 202.457031 287.199219 C 205.429688 288.886719 209.851562 287.464844 211.878906 283.863281 L 214.132812 285.242188 L 212.921875 298.664062 L 198.191406 298.664062 L 198.191406 295.492188 L 210.128906 295.492188 L 210.316406 289.902344 C 207.753906 291.703125 203.800781 291.683594 201.234375 290.421875 C 196.367188 288.101562 194.109375 282.828125 195.054688 276.609375 C 196.367188 270.425781 199.253906 266.921875 205.773438 266.421875 C 213.015625 266.359375 215.578125 271.339844 215.546875 274.773438 Z M 215.546875 274.773438 "/>
</g>
</svg>
