<?xml version="1.0" encoding="UTF-8"?>
<svg xmlns="http://www.w3.org/2000/svg" xmlns:xlink="http://www.w3.org/1999/xlink" width="280.27911pt" height="391.00665pt" viewBox="0 0 280.27911 391.00665" version="1.1">
<g id="surface1">
<path style="fill-rule:nonzero;fill:rgb(100%,100%,100%);fill-opacity:1;stroke-width:0.996733;stroke-linecap:butt;stroke-linejoin:miter;stroke:rgb(0%,0%,0%);stroke-opacity:1;stroke-miterlimit:4;" d="M 7161.474168 -2746.81089 L 7363.442918 -2746.81089 C 7369.311668 -2746.81089 7374.071043 -2742.051515 7374.071043 -2736.17964 L 7374.071043 -2445.62964 C 7374.071043 -2439.757765 7369.311668 -2435.001515 7363.442918 -2435.001515 L 7161.474168 -2435.001515 C 7155.602293 -2435.001515 7150.842918 -2439.757765 7150.842918 -2445.62964 L 7150.842918 -2736.17964 C 7150.842918 -2742.051515 7155.602293 -2746.81089 7161.474168 -2746.81089 Z M 7161.474168 -2746.81089 " transform="matrix(1.25,0,0,1.25,-8937.932554,3434.134706)"/>
<path style=" stroke:none;fill-rule:nonzero;fill:rgb(83.137255%,0%,0%);fill-opacity:1;" d="M 42.824219 72.300781 C 55.222656 60.199219 63.367188 47.003906 71.15625 34.3125 C 77.984375 48.277344 87.789062 60.496094 98.390625 72.300781 C 87.046875 84.011719 78.257812 96.535156 71.1875 109.699219 C 63.355469 96.203125 55.109375 83.988281 42.824219 72.300781 Z M 42.824219 72.300781 "/>
<path style=" stroke:none;fill-rule:nonzero;fill:rgb(83.137255%,0%,0%);fill-opacity:1;" d="M 42.824219 195.921875 C 55.222656 183.816406 63.367188 170.621094 71.15625 157.933594 C 77.984375 171.898438 87.789062 184.109375 98.390625 195.921875 C 87.046875 207.628906 78.257812 220.152344 71.1875 233.316406 C 63.355469 219.820312 55.109375 207.601562 42.824219 195.921875 Z M 42.824219 195.921875 "/>
<path style=" stroke:none;fill-rule:nonzero;fill:rgb(83.137255%,0%,0%);fill-opacity:1;" d="M 42.824219 319.167969 C 55.222656 307.066406 63.367188 293.871094 71.15625 281.179688 C 77.984375 295.144531 87.789062 307.359375 98.390625 319.167969 C 87.046875 330.875 78.257812 343.402344 71.1875 356.566406 C 63.355469 343.070312 55.109375 330.851562 42.824219 319.167969 Z M 42.824219 319.167969 "/>
<path style=" stroke:none;fill-rule:nonzero;fill:rgb(83.137255%,0%,0%);fill-opacity:1;" d="M 182.238281 72.300781 C 194.640625 60.199219 202.785156 47.003906 210.574219 34.3125 C 217.40625 48.277344 227.203125 60.496094 237.804688 72.300781 C 226.460938 84.011719 217.671875 96.535156 210.609375 109.699219 C 202.769531 96.203125 194.523438 83.988281 182.238281 72.300781 Z M 182.238281 72.300781 "/>
<path style=" stroke:none;fill-rule:nonzero;fill:rgb(83.137255%,0%,0%);fill-opacity:1;" d="M 182.238281 195.921875 C 194.640625 183.816406 202.785156 170.621094 210.574219 157.933594 C 217.40625 171.898438 227.203125 184.109375 237.804688 195.921875 C 226.460938 207.628906 217.671875 220.152344 210.609375 233.316406 C 202.769531 219.820312 194.523438 207.601562 182.238281 195.921875 Z M 182.238281 195.921875 "/>
<path style=" stroke:none;fill-rule:nonzero;fill:rgb(83.137255%,0%,0%);fill-opacity:1;" d="M 182.238281 319.167969 C 194.640625 307.066406 202.785156 293.871094 210.574219 281.179688 C 217.40625 295.144531 227.203125 307.359375 237.804688 319.167969 C 226.460938 330.875 217.671875 343.402344 210.609375 356.566406 C 202.769531 343.070312 194.523438 330.851562 182.238281 319.167969 Z M 182.238281 319.167969 "/>
<path style=" stroke:none;fill-rule:nonzero;fill:rgb(83.137255%,0%,0%);fill-opacity:1;" d="M 246.910156 310.40625 C 251.988281 305.445312 255.328125 300.042969 258.519531 294.847656 C 261.316406 300.5625 265.328125 305.570312 269.675781 310.40625 C 265.027344 315.203125 261.429688 320.335938 258.53125 325.726562 C 255.324219 320.199219 251.945312 315.191406 246.910156 310.40625 Z M 246.910156 310.40625 "/>
<path style=" stroke:none;fill-rule:nonzero;fill:rgb(83.137255%,0%,0%);fill-opacity:1;" d="M 10.890625 78.082031 C 15.972656 73.128906 19.308594 67.722656 22.496094 62.523438 C 25.296875 68.246094 29.3125 73.246094 33.65625 78.082031 C 29.011719 82.878906 25.40625 88.011719 22.511719 93.402344 C 19.304688 87.875 15.925781 82.867188 10.890625 78.082031 Z M 10.890625 78.082031 "/>
<path style=" stroke:none;fill-rule:nonzero;fill:rgb(83.137255%,0%,0%);fill-opacity:1;" d="M 10.921875 45.621094 C 10.40625 42.183594 10.417969 33.3125 10.835938 30.691406 C 12.125 22.660156 15.25 18.980469 20.492188 17.777344 C 25.578125 16.609375 32.726562 17.90625 34.292969 24.632812 L 30.035156 24.710938 C 27.738281 20.167969 21.917969 21.378906 18.644531 23.355469 C 16.027344 24.933594 14.847656 31.507812 15.347656 31.910156 C 15.347656 31.910156 20.296875 28.3125 24.195312 28.578125 C 32.53125 29.429688 35.96875 36.527344 35.675781 43.226562 C 35.414062 51.292969 32.808594 57.730469 23.976562 58.160156 C 15.578125 57.84375 11.726562 53.347656 10.921875 45.621094 Z M 31.632812 43.488281 C 31.683594 37.898438 29.089844 33.714844 24.195312 33.25 C 19.300781 32.785156 14.367188 37.476562 14.710938 43.175781 C 15.050781 48.898438 17.308594 53.71875 23.238281 53.6875 C 29.625 53.660156 31.597656 47.46875 31.632812 43.488281 Z M 31.632812 43.488281 "/>
<path style=" stroke:none;fill-rule:nonzero;fill:rgb(83.137255%,0%,0%);fill-opacity:1;" d="M 269.359375 345.382812 C 269.867188 348.816406 269.855469 357.6875 269.441406 360.308594 C 268.152344 368.347656 265.023438 372.023438 259.789062 373.226562 C 254.699219 374.398438 247.550781 373.09375 245.980469 366.375 L 250.238281 366.296875 C 252.535156 370.835938 258.355469 369.625 261.632812 367.648438 C 264.25 366.070312 265.433594 359.5 264.925781 359.09375 C 264.929688 359.09375 259.976562 362.691406 256.082031 362.425781 C 247.746094 361.574219 244.308594 354.480469 244.597656 347.777344 C 244.859375 339.714844 247.46875 333.273438 256.300781 332.84375 C 264.699219 333.160156 268.550781 337.660156 269.359375 345.382812 Z M 248.644531 347.515625 C 248.597656 353.109375 251.183594 357.292969 256.082031 357.757812 C 260.972656 358.214844 265.910156 353.527344 265.570312 347.828125 C 265.226562 342.105469 262.972656 337.289062 257.035156 337.3125 C 250.652344 337.339844 248.675781 343.53125 248.644531 347.515625 Z M 248.644531 347.515625 "/>
</g>
</svg>
