<?xml version="1.0" encoding="UTF-8"?>
<svg xmlns="http://www.w3.org/2000/svg" xmlns:xlink="http://www.w3.org/1999/xlink" width="280.27069pt" height="390.99822pt" viewBox="0 0 280.27069 390.99822" version="1.1">
<g id="surface1">
<path style="fill-rule:nonzero;fill:rgb(100%,100%,100%);fill-opacity:1;stroke-width:0.99;stroke-linecap:butt;stroke-linejoin:miter;stroke:rgb(0%,0%,0%);stroke-opacity:1;stroke-miterlimit:3.8;" d="M 6045.331784 -2435.000156 L 6247.300534 -2435.000156 C 6253.169284 -2435.000156 6257.928659 -2430.240781 6257.928659 -2424.368906 L 6257.928659 -2133.818906 C 6257.928659 -2127.947031 6253.169284 -2123.190781 6247.300534 -2123.190781 L 6045.331784 -2123.190781 C 6039.459909 -2123.190781 6034.700534 -2127.947031 6034.700534 -2133.818906 L 6034.700534 -2424.368906 C 6034.700534 -2430.240781 6039.459909 -2435.000156 6045.331784 -2435.000156 Z M 6045.331784 -2435.000156 " transform="matrix(1.25,0,0,1.25,-7542.75848,3044.367383)"/>
<path style=" stroke:none;fill-rule:nonzero;fill:rgb(83.137255%,0%,0%);fill-opacity:1;" d="M 41.878906 74.105469 C 54.28125 62 62.425781 48.808594 70.214844 36.117188 C 77.042969 50.082031 86.84375 62.296875 97.445312 74.105469 C 86.105469 85.8125 77.3125 98.339844 70.246094 111.503906 C 62.414062 98.007812 54.164062 85.785156 41.878906 74.105469 Z M 41.878906 74.105469 "/>
<path style=" stroke:none;fill-rule:nonzero;fill:rgb(83.137255%,0%,0%);fill-opacity:1;" d="M 41.878906 199.414062 C 54.28125 187.3125 62.425781 174.121094 70.214844 161.429688 C 77.042969 175.390625 86.84375 187.605469 97.445312 199.414062 C 86.105469 211.125 77.3125 223.644531 70.246094 236.808594 C 62.414062 223.320312 54.164062 211.097656 41.878906 199.414062 Z M 41.878906 199.414062 "/>
<path style=" stroke:none;fill-rule:nonzero;fill:rgb(83.137255%,0%,0%);fill-opacity:1;" d="M 41.878906 322.664062 C 54.28125 310.558594 62.425781 297.367188 70.214844 284.675781 C 77.042969 298.640625 86.84375 310.851562 97.445312 322.664062 C 86.105469 334.375 77.3125 346.898438 70.246094 360.0625 C 62.414062 346.566406 54.164062 334.34375 41.878906 322.664062 Z M 41.878906 322.664062 "/>
<path style=" stroke:none;fill-rule:nonzero;fill:rgb(83.137255%,0%,0%);fill-opacity:1;" d="M 112.421875 136.761719 C 124.824219 124.65625 132.96875 111.464844 140.753906 98.773438 C 147.585938 112.738281 157.386719 124.949219 167.988281 136.761719 C 156.648438 148.46875 147.859375 160.996094 140.789062 174.160156 C 132.957031 160.664062 124.707031 148.441406 112.421875 136.761719 Z M 112.421875 136.761719 "/>
<path style=" stroke:none;fill-rule:nonzero;fill:rgb(83.137255%,0%,0%);fill-opacity:1;" d="M 181.296875 74.105469 C 193.695312 62 201.839844 48.808594 209.628906 36.117188 C 216.457031 50.082031 226.261719 62.296875 236.863281 74.105469 C 225.519531 85.8125 216.730469 98.339844 209.660156 111.503906 C 201.828125 98.007812 193.582031 85.785156 181.296875 74.105469 Z M 181.296875 74.105469 "/>
<path style=" stroke:none;fill-rule:nonzero;fill:rgb(83.137255%,0%,0%);fill-opacity:1;" d="M 181.296875 199.414062 C 193.695312 187.3125 201.839844 174.121094 209.628906 161.429688 C 216.457031 175.390625 226.261719 187.605469 236.863281 199.414062 C 225.519531 211.125 216.730469 223.644531 209.660156 236.808594 C 201.828125 223.320312 193.582031 211.097656 181.296875 199.414062 Z M 181.296875 199.414062 "/>
<path style=" stroke:none;fill-rule:nonzero;fill:rgb(83.137255%,0%,0%);fill-opacity:1;" d="M 181.296875 322.664062 C 193.695312 310.558594 201.839844 297.367188 209.628906 284.675781 C 216.457031 298.640625 226.261719 310.851562 236.863281 322.664062 C 225.519531 334.375 216.730469 346.898438 209.660156 360.0625 C 201.828125 346.566406 193.582031 334.34375 181.296875 322.664062 Z M 181.296875 322.664062 "/>
<path style=" stroke:none;fill-rule:nonzero;fill:rgb(83.137255%,0%,0%);fill-opacity:1;" d="M 247.132812 313.636719 C 252.210938 308.679688 255.546875 303.273438 258.738281 298.074219 C 261.535156 303.792969 265.550781 308.796875 269.890625 313.636719 C 265.246094 318.429688 261.644531 323.5625 258.753906 328.953125 C 255.539062 323.425781 252.160156 318.421875 247.132812 313.636719 Z M 247.132812 313.636719 "/>
<path style=" stroke:none;fill-rule:nonzero;fill:rgb(83.137255%,0%,0%);fill-opacity:1;" d="M 11.113281 81.3125 C 16.191406 76.355469 19.53125 70.949219 22.71875 65.75 C 25.515625 71.472656 29.53125 76.476562 33.875 81.3125 C 29.226562 86.113281 25.628906 91.238281 22.734375 96.632812 C 19.523438 91.105469 16.144531 86.097656 11.113281 81.3125 Z M 11.113281 81.3125 "/>
<path style=" stroke:none;fill-rule:nonzero;fill:rgb(83.137255%,0%,0%);fill-opacity:1;" d="M 16.042969 58.753906 C 18.710938 44.890625 21.554688 34.492188 29.023438 23.195312 L 13.851562 23.195312 L 13.851562 28.058594 L 9.816406 28.058594 L 9.816406 18.894531 L 32.011719 18.894531 L 34.75 23.195312 C 26.820312 31.691406 19.5625 59.152344 20.847656 58.753906 Z M 16.042969 58.753906 "/>
<path style=" stroke:none;fill-rule:nonzero;fill:rgb(83.137255%,0%,0%);fill-opacity:1;" d="M 264.226562 332.246094 C 261.5625 346.105469 258.714844 356.507812 251.25 367.800781 L 266.417969 367.800781 L 266.417969 362.9375 L 270.449219 362.9375 L 270.449219 372.101562 L 248.253906 372.101562 L 245.519531 367.800781 C 253.449219 359.304688 260.707031 331.84375 259.421875 332.246094 Z M 264.226562 332.246094 "/>
</g>
</svg>
