<?xml version="1.0" encoding="UTF-8"?>
<svg xmlns="http://www.w3.org/2000/svg" xmlns:xlink="http://www.w3.org/1999/xlink" width="280.27911pt" height="391.00665pt" viewBox="0 0 280.27911 391.00665" version="1.1">
<g id="surface1">
<path style="fill-rule:nonzero;fill:rgb(100%,100%,100%);fill-opacity:1;stroke-width:0.996733;stroke-linecap:butt;stroke-linejoin:miter;stroke:rgb(0%,0%,0%);stroke-opacity:1;stroke-miterlimit:4;" d="M 6268.560588 -2434.99986 L 6470.529338 -2434.99986 C 6476.398088 -2434.99986 6481.157463 -2430.240485 6481.157463 -2424.36861 L 6481.157463 -2133.81861 C 6481.157463 -2127.946735 6476.398088 -2123.190485 6470.529338 -2123.190485 L 6268.560588 -2123.190485 C 6262.688713 -2123.190485 6257.929338 -2127.946735 6257.929338 -2133.81861 L 6257.929338 -2424.36861 C 6257.929338 -2430.240485 6262.688713 -2434.99986 6268.560588 -2434.99986 Z M 6268.560588 -2434.99986 " transform="matrix(1.25,0,0,1.25,-7821.790579,3044.370919)"/>
<path style=" stroke:none;fill-rule:nonzero;fill:rgb(83.137255%,0%,0%);fill-opacity:1;" d="M 41.101562 71.394531 C 53.5 59.292969 61.644531 46.097656 69.4375 33.410156 C 76.261719 47.371094 86.066406 59.585938 96.667969 71.394531 C 85.324219 83.101562 76.535156 95.628906 69.464844 108.792969 C 61.632812 95.296875 53.386719 83.078125 41.101562 71.394531 Z M 41.101562 71.394531 "/>
<path style=" stroke:none;fill-rule:nonzero;fill:rgb(83.137255%,0%,0%);fill-opacity:1;" d="M 41.101562 196.707031 C 53.5 184.601562 61.644531 171.410156 69.4375 158.71875 C 76.261719 172.683594 86.066406 184.894531 96.667969 196.707031 C 85.324219 208.414062 76.535156 220.941406 69.464844 234.105469 C 61.632812 220.609375 53.386719 208.386719 41.101562 196.707031 Z M 41.101562 196.707031 "/>
<path style=" stroke:none;fill-rule:nonzero;fill:rgb(83.137255%,0%,0%);fill-opacity:1;" d="M 41.101562 319.953125 C 53.5 307.847656 61.644531 294.65625 69.4375 281.964844 C 76.261719 295.929688 86.066406 308.148438 96.667969 319.953125 C 85.324219 331.664062 76.535156 344.1875 69.464844 357.351562 C 61.632812 343.855469 53.386719 331.636719 41.101562 319.953125 Z M 41.101562 319.953125 "/>
<path style=" stroke:none;fill-rule:nonzero;fill:rgb(83.137255%,0%,0%);fill-opacity:1;" d="M 111.332031 134.050781 C 123.726562 121.945312 131.871094 108.753906 139.660156 96.0625 C 146.492188 110.027344 156.296875 122.242188 166.898438 134.050781 C 155.554688 145.757812 146.765625 158.285156 139.695312 171.449219 C 131.863281 157.953125 123.617188 145.734375 111.332031 134.050781 Z M 111.332031 134.050781 "/>
<path style=" stroke:none;fill-rule:nonzero;fill:rgb(83.137255%,0%,0%);fill-opacity:1;" d="M 180.515625 71.394531 C 192.917969 59.292969 201.0625 46.097656 208.851562 33.410156 C 215.679688 47.371094 225.480469 59.585938 236.082031 71.394531 C 224.738281 83.101562 215.949219 95.628906 208.882812 108.792969 C 201.046875 95.296875 192.800781 83.078125 180.515625 71.394531 Z M 180.515625 71.394531 "/>
<path style=" stroke:none;fill-rule:nonzero;fill:rgb(83.137255%,0%,0%);fill-opacity:1;" d="M 180.515625 196.707031 C 192.917969 184.601562 201.0625 171.410156 208.851562 158.71875 C 215.679688 172.683594 225.480469 184.894531 236.082031 196.707031 C 224.738281 208.414062 215.949219 220.941406 208.882812 234.105469 C 201.046875 220.609375 192.800781 208.386719 180.515625 196.707031 Z M 180.515625 196.707031 "/>
<path style=" stroke:none;fill-rule:nonzero;fill:rgb(83.137255%,0%,0%);fill-opacity:1;" d="M 180.515625 319.953125 C 192.917969 307.847656 201.0625 294.65625 208.851562 281.964844 C 215.679688 295.929688 225.480469 308.148438 236.082031 319.953125 C 224.738281 331.664062 215.949219 344.1875 208.882812 357.351562 C 201.046875 343.855469 192.800781 331.636719 180.515625 319.953125 Z M 180.515625 319.953125 "/>
<path style=" stroke:none;fill-rule:nonzero;fill:rgb(83.137255%,0%,0%);fill-opacity:1;" d="M 111.332031 258.328125 C 123.726562 246.226562 131.871094 233.035156 139.660156 220.34375 C 146.492188 234.304688 156.296875 246.519531 166.898438 258.328125 C 155.554688 270.042969 146.765625 282.5625 139.695312 295.726562 C 131.863281 282.234375 123.617188 270.011719 111.332031 258.328125 Z M 111.332031 258.328125 "/>
<path style=" stroke:none;fill-rule:nonzero;fill:rgb(83.137255%,0%,0%);fill-opacity:1;" d="M 248.078125 314.828125 C 253.15625 309.871094 256.492188 304.464844 259.683594 299.265625 C 262.484375 304.984375 266.496094 309.988281 270.835938 314.828125 C 266.195312 319.621094 262.589844 324.753906 259.695312 330.144531 C 256.488281 324.617188 253.109375 319.613281 248.078125 314.828125 Z M 248.078125 314.828125 "/>
<path style=" stroke:none;fill-rule:nonzero;fill:rgb(83.137255%,0%,0%);fill-opacity:1;" d="M 12.058594 82.503906 C 17.136719 77.546875 20.472656 72.140625 23.664062 66.941406 C 26.460938 72.664062 30.476562 77.667969 34.820312 82.503906 C 30.171875 87.300781 26.574219 92.429688 23.679688 97.824219 C 20.464844 92.296875 17.085938 87.289062 12.058594 82.503906 Z M 12.058594 82.503906 "/>
<path style=" stroke:none;fill-rule:nonzero;fill:rgb(83.137255%,0%,0%);fill-opacity:1;" d="M 9.175781 47.554688 C 9.378906 42.085938 11.390625 40.035156 15.355469 37.171875 C 12.191406 34.929688 10.855469 31.628906 11.125 28.8125 C 11.78125 22.003906 17.140625 18.597656 22.980469 18.746094 C 28.824219 18.894531 33.863281 23.449219 34.253906 28.394531 C 34.597656 32.703125 33.292969 34.777344 30.183594 37.042969 C 33.875 40.09375 36.238281 42.105469 36.144531 47.492188 C 36.058594 52.878906 31.390625 59.292969 23.253906 59.488281 C 15.113281 59.683594 8.976562 53.03125 9.175781 47.554688 Z M 31.890625 47.574219 C 32.238281 42.625 27.78125 39.285156 22.75 39.230469 C 17.84375 39.183594 13.460938 43.289062 13.460938 47.738281 C 13.460938 52.511719 19.164062 55.105469 22.847656 55.121094 C 27.328125 55.132812 31.589844 51.84375 31.890625 47.574219 Z M 30.28125 29.859375 C 30.378906 25.6875 26.457031 22.699219 22.417969 22.820312 C 18.824219 22.925781 15.015625 25.617188 15.015625 29.109375 C 15.011719 33.46875 19.34375 35.648438 23.039062 35.730469 C 26.390625 35.804688 30.207031 33.011719 30.28125 29.859375 Z M 30.28125 29.859375 "/>
<path style=" stroke:none;fill-rule:nonzero;fill:rgb(83.137255%,0%,0%);fill-opacity:1;" d="M 271.101562 343.445312 C 270.902344 348.914062 268.890625 350.96875 264.917969 353.835938 C 268.082031 356.078125 269.417969 359.378906 269.148438 362.191406 C 268.5 369 263.136719 372.410156 257.292969 372.257812 C 251.449219 372.113281 246.414062 367.554688 246.019531 362.605469 C 245.675781 358.304688 246.984375 356.226562 250.089844 353.960938 C 246.398438 350.910156 244.039062 348.898438 244.128906 343.511719 C 244.222656 338.121094 248.890625 331.710938 257.023438 331.515625 C 265.160156 331.320312 271.300781 337.976562 271.101562 343.445312 Z M 248.386719 343.429688 C 248.035156 348.382812 252.496094 351.722656 257.527344 351.773438 C 262.429688 351.824219 266.8125 347.71875 266.820312 343.269531 C 266.820312 338.492188 261.109375 335.902344 257.429688 335.886719 C 252.953125 335.867188 248.683594 339.164062 248.386719 343.429688 Z M 249.996094 361.144531 C 249.898438 365.316406 253.816406 368.308594 257.855469 368.1875 C 261.453125 368.078125 265.257812 365.386719 265.261719 361.898438 C 265.261719 357.535156 260.929688 355.359375 257.238281 355.277344 C 253.890625 355.203125 250.070312 357.996094 249.996094 361.144531 Z M 249.996094 361.144531 "/>
</g>
</svg>
