<?xml version="1.0" encoding="UTF-8"?>
<svg xmlns="http://www.w3.org/2000/svg" xmlns:xlink="http://www.w3.org/1999/xlink" width="280.27911pt" height="391.00665pt" viewBox="0 0 280.27911 391.00665" version="1.1">
<g id="surface1">
<path style="fill-rule:nonzero;fill:rgb(100%,100%,100%);fill-opacity:1;stroke-width:0.996733;stroke-linecap:butt;stroke-linejoin:miter;stroke:rgb(0%,0%,0%);stroke-opacity:1;stroke-miterlimit:4;" d="M 6491.789108 -2434.99986 L 6693.757858 -2434.99986 C 6699.626608 -2434.99986 6704.385983 -2430.240485 6704.385983 -2424.36861 L 6704.385983 -2133.81861 C 6704.385983 -2127.946735 6699.626608 -2123.190485 6693.757858 -2123.190485 L 6491.789108 -2123.190485 C 6485.917233 -2123.190485 6481.157858 -2127.946735 6481.157858 -2133.81861 L 6481.157858 -2424.36861 C 6481.157858 -2430.240485 6485.917233 -2434.99986 6491.789108 -2434.99986 Z M 6491.789108 -2434.99986 " transform="matrix(1.25,0,0,1.25,-8100.826229,3044.370919)"/>
<path style=" stroke:none;fill-rule:nonzero;fill:rgb(83.137255%,0%,0%);fill-opacity:1;" d="M 41.460938 72.691406 C 53.863281 60.59375 62.007812 47.394531 69.796875 34.703125 C 76.628906 48.667969 86.429688 60.886719 97.027344 72.691406 C 85.691406 84.402344 76.898438 96.925781 69.832031 110.089844 C 62 96.59375 53.746094 84.378906 41.460938 72.691406 Z M 41.460938 72.691406 "/>
<path style=" stroke:none;fill-rule:nonzero;fill:rgb(83.137255%,0%,0%);fill-opacity:1;" d="M 41.460938 154.359375 C 53.863281 142.253906 62.007812 129.058594 69.796875 116.371094 C 76.628906 130.335938 86.429688 142.546875 97.027344 154.359375 C 85.691406 166.066406 76.898438 178.585938 69.832031 191.753906 C 62 178.257812 53.746094 166.039062 41.460938 154.359375 Z M 41.460938 154.359375 "/>
<path style=" stroke:none;fill-rule:nonzero;fill:rgb(83.137255%,0%,0%);fill-opacity:1;" d="M 41.460938 237.976562 C 53.863281 225.875 62.007812 212.679688 69.796875 199.992188 C 76.628906 213.953125 86.429688 226.167969 97.027344 237.976562 C 85.691406 249.691406 76.898438 262.210938 69.832031 275.375 C 62 261.878906 53.746094 249.660156 41.460938 237.976562 Z M 41.460938 237.976562 "/>
<path style=" stroke:none;fill-rule:nonzero;fill:rgb(83.137255%,0%,0%);fill-opacity:1;" d="M 41.460938 319.359375 C 53.863281 307.257812 62.007812 294.058594 69.796875 281.375 C 76.628906 295.335938 86.429688 307.550781 97.027344 319.359375 C 85.691406 331.070312 76.898438 343.589844 69.832031 356.753906 C 62 343.257812 53.746094 331.042969 41.460938 319.359375 Z M 41.460938 319.359375 "/>
<path style=" stroke:none;fill-rule:nonzero;fill:rgb(83.137255%,0%,0%);fill-opacity:1;" d="M 112.019531 195.777344 C 124.421875 183.675781 132.566406 170.480469 140.355469 157.789062 C 147.183594 171.753906 156.984375 183.96875 167.585938 195.777344 C 156.242188 207.488281 147.453125 220.011719 140.386719 233.175781 C 132.550781 219.679688 124.304688 207.457031 112.019531 195.777344 Z M 112.019531 195.777344 "/>
<path style=" stroke:none;fill-rule:nonzero;fill:rgb(83.137255%,0%,0%);fill-opacity:1;" d="M 180.882812 72.691406 C 193.277344 60.59375 201.421875 47.394531 209.214844 34.703125 C 216.042969 48.667969 225.847656 60.886719 236.449219 72.691406 C 225.105469 84.402344 216.316406 96.925781 209.246094 110.089844 C 201.414062 96.59375 193.167969 84.378906 180.882812 72.691406 Z M 180.882812 72.691406 "/>
<path style=" stroke:none;fill-rule:nonzero;fill:rgb(83.137255%,0%,0%);fill-opacity:1;" d="M 180.882812 154.359375 C 193.277344 142.253906 201.421875 129.058594 209.214844 116.371094 C 216.042969 130.335938 225.847656 142.546875 236.449219 154.359375 C 225.105469 166.066406 216.316406 178.585938 209.246094 191.753906 C 201.414062 178.257812 193.167969 166.039062 180.882812 154.359375 Z M 180.882812 154.359375 "/>
<path style=" stroke:none;fill-rule:nonzero;fill:rgb(83.137255%,0%,0%);fill-opacity:1;" d="M 180.882812 237.976562 C 193.277344 225.875 201.421875 212.679688 209.214844 199.992188 C 216.042969 213.953125 225.847656 226.167969 236.449219 237.976562 C 225.105469 249.691406 216.316406 262.210938 209.246094 275.375 C 201.414062 261.878906 193.167969 249.660156 180.882812 237.976562 Z M 180.882812 237.976562 "/>
<path style=" stroke:none;fill-rule:nonzero;fill:rgb(83.137255%,0%,0%);fill-opacity:1;" d="M 180.882812 319.359375 C 193.277344 307.257812 201.421875 294.058594 209.214844 281.375 C 216.042969 295.335938 225.847656 307.550781 236.449219 319.359375 C 225.105469 331.070312 216.316406 343.589844 209.246094 356.753906 C 201.414062 343.257812 193.167969 331.042969 180.882812 319.359375 Z M 180.882812 319.359375 "/>
<path style=" stroke:none;fill-rule:nonzero;fill:rgb(83.137255%,0%,0%);fill-opacity:1;" d="M 246.828125 309.09375 C 251.90625 304.136719 255.246094 298.734375 258.433594 293.53125 C 261.234375 299.253906 265.246094 304.253906 269.59375 309.09375 C 264.945312 313.894531 261.34375 319.019531 258.449219 324.410156 C 255.242188 318.882812 251.863281 313.878906 246.828125 309.09375 Z M 246.828125 309.09375 "/>
<path style=" stroke:none;fill-rule:nonzero;fill:rgb(83.137255%,0%,0%);fill-opacity:1;" d="M 10.808594 76.773438 C 15.890625 71.8125 19.226562 66.410156 22.414062 61.214844 C 25.210938 66.929688 29.230469 71.9375 33.570312 76.773438 C 28.921875 81.570312 25.324219 86.703125 22.429688 92.09375 C 19.222656 86.566406 15.84375 81.558594 10.808594 76.773438 Z M 10.808594 76.773438 "/>
<path style=" stroke:none;fill-rule:nonzero;fill:rgb(83.137255%,0%,0%);fill-opacity:1;" d="M 10.964844 49.808594 L 14.75 48.628906 C 16.175781 52.375 19.058594 53.480469 22.113281 53.246094 C 27.589844 52.816406 29.40625 46.808594 29.820312 41.492188 C 27.683594 43.707031 24.476562 44.835938 21.746094 44.730469 C 13.015625 44.265625 10.785156 37.410156 10.699219 30.226562 C 10.460938 24.167969 13.011719 19.78125 17.386719 17.769531 C 19.703125 16.75 25.007812 16.75 27.335938 17.957031 C 32.6875 20.730469 34.671875 25.519531 34.308594 36.945312 C 34.3125 46.351562 32.277344 57.308594 22.015625 57.542969 C 16.082031 58.347656 11.574219 53.816406 10.964844 49.808594 Z M 25.824219 39.503906 C 27.605469 38.394531 28.609375 37.359375 29.40625 35.804688 C 30.066406 34.523438 30.285156 33.859375 30.101562 31.214844 C 29.617188 24.390625 25.972656 20.53125 20.695312 21.296875 C 17.746094 21.726562 16.140625 23.347656 15.21875 26.355469 C 13.507812 31.917969 15.671875 38.429688 19.722656 39.929688 C 21.554688 40.601562 24.367188 40.40625 25.824219 39.503906 Z M 25.824219 39.503906 "/>
<path style=" stroke:none;fill-rule:nonzero;fill:rgb(83.137255%,0%,0%);fill-opacity:1;" d="M 268.507812 341.195312 L 264.730469 342.375 C 263.296875 338.628906 260.414062 337.527344 257.359375 337.761719 C 251.882812 338.1875 250.066406 344.195312 249.65625 349.507812 C 251.789062 347.292969 254.996094 346.167969 257.730469 346.277344 C 266.457031 346.742188 268.695312 353.597656 268.773438 360.777344 C 269.015625 366.839844 266.460938 371.222656 262.085938 373.234375 C 259.773438 374.253906 254.46875 374.253906 252.140625 373.050781 C 246.785156 370.277344 244.808594 365.484375 245.164062 354.058594 C 245.160156 344.65625 247.195312 333.699219 257.464844 333.464844 C 263.394531 332.660156 267.902344 337.191406 268.507812 341.195312 Z M 253.648438 351.5 C 251.867188 352.609375 250.867188 353.644531 250.066406 355.203125 C 249.410156 356.480469 249.1875 357.144531 249.378906 359.792969 C 249.855469 366.609375 253.5 370.476562 258.78125 369.710938 C 261.726562 369.28125 263.335938 367.660156 264.261719 364.644531 C 265.96875 359.085938 263.800781 352.574219 259.75 351.078125 C 257.921875 350.402344 255.105469 350.597656 253.648438 351.5 Z M 253.648438 351.5 "/>
</g>
</svg>
