<?xml version="1.0" encoding="UTF-8"?>
<svg xmlns="http://www.w3.org/2000/svg" xmlns:xlink="http://www.w3.org/1999/xlink" width="224.22508pt" height="312.80777pt" viewBox="0 0 224.22508 312.80777" version="1.1">
<g id="surface1">
<path style="fill-rule:nonzero;fill:rgb(100%,100%,100%);fill-opacity:1;stroke-width:0.996733;stroke-linecap:butt;stroke-linejoin:miter;stroke:rgb(0%,0%,0%);stroke-opacity:1;stroke-miterlimit:4;" d="M 6045.331226 -2746.8094 L 6247.299976 -2746.8094 C 6253.17107 -2746.8094 6257.928883 -2742.051588 6257.928883 -2736.180494 L 6257.928883 -2445.629713 C 6257.928883 -2439.758619 6253.17107 -2435.000806 6247.299976 -2435.000806 L 6045.331226 -2435.000806 C 6039.460133 -2435.000806 6034.70232 -2439.758619 6034.70232 -2445.629713 L 6034.70232 -2736.180494 C 6034.70232 -2742.051588 6039.460133 -2746.8094 6045.331226 -2746.8094 Z M 6045.331226 -2746.8094 " transform="matrix(1,0,0,1,-6034.20232,2747.3094)"/>
<path style=" stroke:none;fill-rule:nonzero;fill:rgb(83.137255%,0%,0%);fill-opacity:1;" d="M 89.742188 156.535156 C 99.660156 146.855469 106.175781 136.296875 112.410156 126.144531 C 117.871094 137.316406 125.714844 147.089844 134.195312 156.535156 C 125.121094 165.902344 118.089844 175.921875 112.433594 186.453125 C 106.167969 175.65625 99.570312 165.882812 89.742188 156.535156 Z M 89.742188 156.535156 "/>
<path style=" stroke:none;fill-rule:nonzero;fill:rgb(83.137255%,0%,0%);fill-opacity:1;" d="M 196.726562 249.535156 C 200.789062 245.570312 203.460938 241.246094 206.011719 237.085938 C 208.25 241.664062 211.464844 245.667969 214.9375 249.535156 C 211.21875 253.375 208.339844 257.476562 206.023438 261.792969 C 203.457031 257.371094 200.753906 253.363281 196.726562 249.535156 Z M 196.726562 249.535156 "/>
<path style=" stroke:none;fill-rule:nonzero;fill:rgb(83.137255%,0%,0%);fill-opacity:1;" d="M 8.347656 63.847656 C 12.410156 59.882812 15.078125 55.558594 17.632812 51.402344 C 19.871094 55.976562 23.082031 59.980469 26.558594 63.847656 C 22.839844 67.6875 19.960938 71.789062 17.644531 76.105469 C 15.074219 71.683594 12.375 67.679688 8.347656 63.847656 Z M 8.347656 63.847656 "/>
<path style=" stroke:none;fill-rule:nonzero;fill:rgb(83.137255%,0%,0%);fill-opacity:1;" d="M 7.734375 46.5625 L 7.734375 43.828125 L 10.394531 43.828125 L 16.058594 14.554688 L 19.28125 14.554688 L 25.523438 43.828125 L 27.671875 43.828125 L 27.671875 46.5625 L 20.355469 46.5625 L 20.355469 43.828125 L 22.332031 43.828125 L 21.542969 39.339844 L 14.15625 39.339844 L 13.585938 43.828125 L 15.566406 43.828125 L 15.566406 46.5625 Z M 20.910156 36.148438 L 17.703125 20.476562 L 14.695312 36.148438 Z M 20.910156 36.148438 "/>
<path style=" stroke:none;fill-rule:nonzero;fill:rgb(83.137255%,0%,0%);fill-opacity:1;" d="M 216.492188 266.242188 L 216.492188 268.980469 L 213.832031 268.980469 L 208.167969 298.253906 L 204.941406 298.253906 L 198.699219 268.980469 L 196.550781 268.980469 L 196.550781 266.242188 L 203.871094 266.242188 L 203.871094 268.980469 L 201.894531 268.980469 L 202.679688 273.464844 L 210.066406 273.464844 L 210.636719 268.980469 L 208.660156 268.980469 L 208.660156 266.242188 Z M 203.3125 276.660156 L 206.523438 292.328125 L 209.527344 276.660156 Z M 203.3125 276.660156 "/>
</g>
</svg>
