<?xml version="1.0" encoding="UTF-8"?>
<svg xmlns="http://www.w3.org/2000/svg" xmlns:xlink="http://www.w3.org/1999/xlink" width="224.22508pt" height="312.80777pt" viewBox="0 0 224.22508 312.80777" version="1.1">
<g id="surface1">
<path style="fill-rule:nonzero;fill:rgb(100%,100%,100%);fill-opacity:1;stroke-width:0.996733;stroke-linecap:butt;stroke-linejoin:miter;stroke:rgb(0%,0%,0%);stroke-opacity:1;stroke-miterlimit:4;" d="M 6715.014804 -2434.999194 L 6916.983554 -2434.999194 C 6922.854648 -2434.999194 6927.61246 -2430.241381 6927.61246 -2424.370287 L 6927.61246 -2133.819506 C 6927.61246 -2127.948412 6922.854648 -2123.1906 6916.983554 -2123.1906 L 6715.014804 -2123.1906 C 6709.14371 -2123.1906 6704.385898 -2127.948412 6704.385898 -2133.819506 L 6704.385898 -2424.370287 C 6704.385898 -2430.241381 6709.14371 -2434.999194 6715.014804 -2434.999194 Z M 6715.014804 -2434.999194 " transform="matrix(-1,0,0,-1,6928.11246,-2122.6906)"/>
<path style=" stroke:none;fill-rule:nonzero;fill:rgb(0%,0%,0%);fill-opacity:1;" d="M 216.097656 266.964844 L 216.097656 298.472656 L 212.988281 298.472656 L 212.988281 266.964844 Z M 216.097656 266.964844 "/>
<path style=" stroke:none;fill-rule:nonzero;fill:rgb(0%,0%,0%);fill-opacity:1;" d="M 203.769531 298.472656 C 206.761719 298.472656 209.171875 295.785156 209.171875 292.449219 L 209.171875 272.988281 C 209.171875 269.652344 206.761719 266.964844 203.769531 266.964844 L 202.023438 266.964844 C 199.03125 266.964844 196.617188 269.652344 196.617188 272.988281 L 196.617188 292.449219 C 196.617188 295.785156 199.03125 298.472656 202.023438 298.472656 Z M 202.867188 295.492188 C 201.097656 295.492188 199.675781 294.15625 199.675781 292.492188 L 199.675781 272.769531 C 199.675781 271.105469 201.097656 269.761719 202.867188 269.761719 C 204.636719 269.761719 206.058594 271.105469 206.058594 272.769531 L 206.058594 292.492188 C 206.058594 294.15625 204.636719 295.492188 202.867188 295.492188 Z M 202.867188 295.492188 "/>
<path style=" stroke:none;fill-rule:nonzero;fill:rgb(0%,0%,0%);fill-opacity:1;" d="M 8.125 45.84375 L 8.125 14.335938 L 11.238281 14.335938 L 11.238281 45.84375 Z M 8.125 45.84375 "/>
<path style=" stroke:none;fill-rule:nonzero;fill:rgb(0%,0%,0%);fill-opacity:1;" d="M 20.457031 14.335938 C 17.460938 14.335938 15.054688 17.023438 15.054688 20.359375 L 15.054688 39.820312 C 15.054688 43.15625 17.460938 45.84375 20.457031 45.84375 L 22.203125 45.84375 C 25.195312 45.84375 27.605469 43.15625 27.605469 39.820312 L 27.605469 20.359375 C 27.605469 17.023438 25.195312 14.335938 22.203125 14.335938 Z M 21.355469 17.3125 C 23.125 17.3125 24.546875 18.652344 24.546875 20.316406 L 24.546875 40.039062 C 24.546875 41.703125 23.125 43.042969 21.355469 43.042969 C 19.589844 43.042969 18.164062 41.703125 18.164062 40.039062 L 18.164062 20.316406 C 18.164062 18.652344 19.589844 17.3125 21.355469 17.3125 Z M 21.355469 17.3125 "/>
<path style=" stroke:none;fill-rule:nonzero;fill:rgb(0%,0%,0%);fill-opacity:1;" d="M 53.433594 69.019531 C 53.449219 66.992188 51.847656 66.953125 51.867188 68.433594 C 51.730469 75.863281 45.449219 79.519531 40.886719 78.652344 C 33.847656 77.3125 31.601562 70.328125 31.671875 66.214844 C 31.878906 53.519531 44.65625 44.15625 56.191406 27.882812 C 64.640625 42.574219 78.585938 54.109375 79.414062 65.46875 C 80.511719 80.566406 61.40625 86.195312 58.675781 68.601562 C 58.5 67.355469 57.035156 66.800781 57.152344 68.535156 C 57.566406 73.359375 56.976562 75.367188 62.417969 87.253906 L 48.195312 87.253906 C 51.34375 81.699219 53.21875 74.878906 53.433594 69.019531 Z M 53.433594 69.019531 "/>
<path style=" stroke:none;fill-rule:nonzero;fill:rgb(0%,0%,0%);fill-opacity:1;" d="M 109.148438 101.683594 C 109.164062 99.660156 107.5625 99.621094 107.582031 101.097656 C 107.445312 108.527344 101.164062 112.183594 96.601562 111.316406 C 89.566406 109.980469 87.320312 102.996094 87.386719 98.882812 C 87.59375 86.183594 100.375 76.824219 111.90625 60.546875 C 120.355469 75.238281 134.304688 86.777344 135.128906 98.132812 C 136.226562 113.230469 117.121094 118.863281 114.390625 101.265625 C 114.214844 100.023438 112.753906 99.464844 112.867188 101.199219 C 113.28125 106.023438 112.691406 108.03125 118.132812 119.917969 L 103.910156 119.917969 C 107.058594 114.363281 108.933594 107.546875 109.148438 101.683594 Z M 109.148438 101.683594 "/>
<path style=" stroke:none;fill-rule:nonzero;fill:rgb(0%,0%,0%);fill-opacity:1;" d="M 164.96875 69.019531 C 164.980469 66.992188 163.378906 66.953125 163.398438 68.433594 C 163.265625 75.863281 156.980469 79.519531 152.417969 78.652344 C 145.382812 77.3125 143.136719 70.328125 143.203125 66.214844 C 143.410156 53.519531 156.191406 44.15625 167.722656 27.882812 C 176.171875 42.574219 190.121094 54.109375 190.945312 65.46875 C 192.042969 80.566406 172.9375 86.195312 170.210938 68.601562 C 170.035156 67.355469 168.570312 66.800781 168.683594 68.535156 C 169.097656 73.359375 168.507812 75.367188 173.949219 87.253906 L 159.726562 87.253906 C 162.878906 81.699219 164.753906 74.878906 164.96875 69.019531 Z M 164.96875 69.019531 "/>
<path style=" stroke:none;fill-rule:nonzero;fill:rgb(0%,0%,0%);fill-opacity:1;" d="M 164.96875 134.347656 C 164.980469 132.324219 163.378906 132.285156 163.398438 133.761719 C 163.265625 141.191406 156.980469 144.851562 152.417969 143.980469 C 145.382812 142.644531 143.136719 135.660156 143.203125 131.546875 C 143.410156 118.851562 156.191406 109.488281 167.722656 93.210938 C 176.171875 107.902344 190.121094 119.441406 190.945312 130.796875 C 192.042969 145.894531 172.9375 151.527344 170.210938 133.929688 C 170.035156 132.6875 168.570312 132.128906 168.683594 133.867188 C 169.097656 138.6875 168.507812 140.695312 173.949219 152.585938 L 159.726562 152.585938 C 162.878906 147.03125 164.753906 140.210938 164.96875 134.347656 Z M 164.96875 134.347656 "/>
<path style=" stroke:none;fill-rule:nonzero;fill:rgb(0%,0%,0%);fill-opacity:1;" d="M 53.433594 134.347656 C 53.449219 132.324219 51.847656 132.285156 51.867188 133.761719 C 51.730469 141.191406 45.449219 144.851562 40.886719 143.980469 C 33.847656 142.644531 31.601562 135.660156 31.671875 131.546875 C 31.878906 118.851562 44.65625 109.488281 56.191406 93.210938 C 64.640625 107.902344 78.585938 119.441406 79.414062 130.796875 C 80.511719 145.894531 61.40625 151.527344 58.675781 133.929688 C 58.5 132.6875 57.035156 132.128906 57.152344 133.867188 C 57.566406 138.6875 56.976562 140.695312 62.417969 152.585938 L 48.195312 152.585938 C 51.34375 147.03125 53.21875 140.210938 53.433594 134.347656 Z M 53.433594 134.347656 "/>
<path style=" stroke:none;fill-rule:nonzero;fill:rgb(0%,0%,0%);fill-opacity:1;" d="M 164.976562 178.484375 C 164.992188 180.507812 163.390625 180.546875 163.410156 179.070312 C 163.273438 171.640625 156.992188 167.984375 152.429688 168.851562 C 145.390625 170.1875 143.148438 177.171875 143.214844 181.285156 C 143.421875 193.984375 156.203125 203.34375 167.734375 219.621094 C 176.183594 204.929688 190.132812 193.390625 190.957031 182.035156 C 192.054688 166.9375 172.949219 161.304688 170.21875 178.902344 C 170.042969 180.144531 168.582031 180.703125 168.695312 178.96875 C 169.109375 174.144531 168.519531 172.136719 173.960938 160.246094 L 159.738281 160.246094 C 162.886719 165.800781 164.761719 172.621094 164.976562 178.484375 Z M 164.976562 178.484375 "/>
<path style=" stroke:none;fill-rule:nonzero;fill:rgb(0%,0%,0%);fill-opacity:1;" d="M 164.976562 243.8125 C 164.992188 245.839844 163.390625 245.878906 163.410156 244.398438 C 163.273438 236.972656 156.992188 233.3125 152.429688 234.179688 C 145.390625 235.519531 143.148438 242.503906 143.214844 246.617188 C 143.421875 259.3125 156.203125 268.675781 167.734375 284.953125 C 176.183594 270.261719 190.132812 258.722656 190.957031 247.367188 C 192.054688 232.265625 172.949219 226.636719 170.21875 244.234375 C 170.042969 245.476562 168.582031 246.035156 168.695312 244.296875 C 169.109375 239.476562 168.519531 237.464844 173.960938 225.578125 L 159.738281 225.578125 C 162.886719 231.132812 164.761719 237.953125 164.976562 243.8125 Z M 164.976562 243.8125 "/>
<path style=" stroke:none;fill-rule:nonzero;fill:rgb(0%,0%,0%);fill-opacity:1;" d="M 109.628906 211.148438 C 109.644531 213.175781 108.042969 213.214844 108.058594 211.734375 C 107.925781 204.304688 101.644531 200.648438 97.078125 201.515625 C 90.042969 202.855469 87.796875 209.839844 87.863281 213.953125 C 88.070312 226.648438 100.851562 236.011719 112.382812 252.285156 C 120.835938 237.59375 134.78125 226.054688 135.609375 214.699219 C 136.707031 199.601562 117.597656 193.96875 114.871094 211.566406 C 114.695312 212.8125 113.230469 213.367188 113.34375 211.632812 C 113.757812 206.808594 113.167969 204.800781 118.609375 192.914062 L 104.386719 192.914062 C 107.539062 198.46875 109.414062 205.289062 109.628906 211.148438 Z M 109.628906 211.148438 "/>
<path style=" stroke:none;fill-rule:nonzero;fill:rgb(0%,0%,0%);fill-opacity:1;" d="M 53.445312 178.484375 C 53.460938 180.507812 51.859375 180.546875 51.875 179.070312 C 51.742188 171.640625 45.460938 167.984375 40.894531 168.851562 C 33.859375 170.1875 31.613281 177.171875 31.679688 181.285156 C 31.886719 193.984375 44.667969 203.34375 56.203125 219.621094 C 64.652344 204.929688 78.597656 193.390625 79.425781 182.035156 C 80.523438 166.9375 61.414062 161.304688 58.6875 178.902344 C 58.511719 180.144531 57.046875 180.703125 57.160156 178.96875 C 57.574219 174.144531 56.988281 172.136719 62.425781 160.246094 L 48.207031 160.246094 C 51.355469 165.800781 53.230469 172.621094 53.445312 178.484375 Z M 53.445312 178.484375 "/>
<path style=" stroke:none;fill-rule:nonzero;fill:rgb(0%,0%,0%);fill-opacity:1;" d="M 53.445312 243.8125 C 53.460938 245.839844 51.859375 245.878906 51.875 244.398438 C 51.742188 236.972656 45.460938 233.3125 40.894531 234.179688 C 33.859375 235.519531 31.613281 242.503906 31.679688 246.617188 C 31.886719 259.3125 44.667969 268.675781 56.203125 284.953125 C 64.652344 270.261719 78.597656 258.722656 79.425781 247.367188 C 80.523438 232.265625 61.414062 226.636719 58.6875 244.234375 C 58.511719 245.476562 57.046875 246.035156 57.160156 244.296875 C 57.574219 239.476562 56.988281 237.464844 62.425781 225.578125 L 48.207031 225.578125 C 51.355469 231.132812 53.230469 237.953125 53.445312 243.8125 Z M 53.445312 243.8125 "/>
<path style=" stroke:none;fill-rule:nonzero;fill:rgb(0%,0%,0%);fill-opacity:1;" d="M 17.289062 70.367188 C 17.296875 69.496094 16.390625 69.902344 16.269531 70.179688 C 15.105469 72.164062 13.40625 72.625 11.722656 71.910156 C 10.054688 71.199219 9.117188 69.628906 9.269531 67.386719 C 9.578125 63.949219 12.304688 60.1875 13.625 58.0625 C 14.875 56.132812 16.25 53.839844 17.699219 50.90625 C 19.398438 54.269531 20.257812 55.226562 22.105469 58.296875 C 23.730469 61.003906 25.996094 63.652344 26.171875 66.921875 C 26.171875 69.40625 25.125 71.753906 22.773438 72.179688 C 21.441406 72.421875 20.195312 71.738281 19.269531 70.144531 C 18.988281 69.738281 18.421875 69.949219 18.429688 70.503906 C 18.59375 72.597656 19.386719 74.488281 21.257812 76.71875 L 14.371094 76.71875 C 15.78125 75.140625 17.222656 73.011719 17.289062 70.367188 Z M 17.289062 70.367188 "/>
<path style=" stroke:none;fill-rule:nonzero;fill:rgb(0%,0%,0%);fill-opacity:1;" d="M 206.101562 243.113281 C 206.113281 243.984375 205.207031 243.578125 205.085938 243.304688 C 203.921875 241.320312 202.21875 240.855469 200.539062 241.574219 C 198.871094 242.28125 197.933594 243.851562 198.082031 246.09375 C 198.394531 249.53125 201.117188 253.292969 202.4375 255.421875 C 203.691406 257.351562 205.066406 259.644531 206.515625 262.574219 C 208.210938 259.210938 209.074219 258.253906 210.921875 255.183594 C 212.546875 252.480469 214.8125 249.832031 214.988281 246.5625 C 214.988281 244.074219 213.941406 241.730469 211.589844 241.300781 C 210.257812 241.058594 209.007812 241.742188 208.085938 243.339844 C 207.800781 243.746094 207.234375 243.53125 207.246094 242.976562 C 207.410156 240.882812 208.199219 238.992188 210.074219 236.765625 L 203.1875 236.765625 C 204.597656 238.339844 206.035156 240.46875 206.101562 243.113281 Z M 206.101562 243.113281 "/>
</g>
</svg>
