<?xml version="1.0" encoding="UTF-8"?>
<svg xmlns="http://www.w3.org/2000/svg" xmlns:xlink="http://www.w3.org/1999/xlink" width="224.22508pt" height="312.80777pt" viewBox="0 0 224.22508 312.80777" version="1.1">
<g id="surface1">
<path style="fill-rule:nonzero;fill:rgb(100%,100%,100%);fill-opacity:1;stroke-width:0.996733;stroke-linecap:butt;stroke-linejoin:miter;stroke:rgb(0%,0%,0%);stroke-opacity:1;stroke-miterlimit:4;" d="M 6268.559736 -2746.809399 L 6470.528486 -2746.809399 C 6476.39958 -2746.809399 6481.157392 -2742.051587 6481.157392 -2736.180493 L 6481.157392 -2445.629712 C 6481.157392 -2439.758618 6476.39958 -2435.000805 6470.528486 -2435.000805 L 6268.559736 -2435.000805 C 6262.688642 -2435.000805 6257.93083 -2439.758618 6257.93083 -2445.629712 L 6257.93083 -2736.180493 C 6257.93083 -2742.051587 6262.688642 -2746.809399 6268.559736 -2746.809399 Z M 6268.559736 -2746.809399 " transform="matrix(1,0,0,1,-6257.43083,2747.309399)"/>
<path style=" stroke:none;fill-rule:nonzero;fill:rgb(0%,0%,0%);fill-opacity:1;" d="M 8.808594 47.136719 L 8.972656 45.117188 C 9.484375 38.878906 10.847656 36.769531 18.59375 30.261719 C 22.355469 27.101562 23.589844 25.542969 23.761719 23.734375 C 24.253906 19.476562 20.410156 18.144531 17.90625 18.121094 C 14.664062 18.089844 11 20.03125 12.746094 24.535156 L 9.109375 25.601562 C 8.375 21.402344 9.128906 17.460938 12.535156 15.710938 C 17.082031 13.429688 22.914062 14.324219 25.859375 17.917969 C 27.835938 20.332031 28.285156 23.664062 27.226562 26.273438 C 24.125 32.945312 13.605469 35.878906 12.734375 43.59375 L 24.367188 43.59375 L 24.367188 39.296875 L 27.792969 39.296875 L 27.792969 47.203125 Z M 8.808594 47.136719 "/>
<path style=" stroke:none;fill-rule:nonzero;fill:rgb(0%,0%,0%);fill-opacity:1;" d="M 215.417969 265.671875 L 215.25 267.691406 C 214.742188 273.929688 213.378906 276.039062 205.628906 282.546875 C 201.871094 285.703125 200.636719 287.265625 200.460938 289.074219 C 199.972656 293.332031 203.8125 294.664062 206.316406 294.6875 C 209.558594 294.714844 213.226562 292.773438 211.476562 288.273438 L 215.113281 287.203125 C 215.847656 291.40625 215.097656 295.347656 211.6875 297.097656 C 207.144531 299.375 201.308594 298.480469 198.367188 294.890625 C 196.386719 292.476562 195.9375 289.144531 197 286.535156 C 200.097656 279.863281 210.621094 276.929688 211.488281 269.214844 L 199.859375 269.214844 L 199.859375 273.511719 L 196.433594 273.511719 L 196.433594 265.601562 Z M 215.417969 265.671875 "/>
<path style=" stroke:none;fill-rule:nonzero;fill:rgb(0%,0%,0%);fill-opacity:1;" d="M 111.070312 68.660156 C 111.085938 66.636719 109.484375 66.597656 109.5 68.074219 C 109.367188 75.503906 103.085938 79.160156 98.519531 78.292969 C 91.484375 76.957031 89.238281 69.972656 89.304688 65.859375 C 89.511719 53.164062 102.292969 43.800781 113.824219 27.523438 C 122.277344 42.214844 136.222656 53.753906 137.046875 65.109375 C 138.144531 80.207031 119.039062 85.839844 116.3125 68.242188 C 116.136719 67 114.671875 66.441406 114.785156 68.175781 C 115.199219 73 114.609375 75.007812 120.050781 86.898438 L 105.828125 86.898438 C 108.980469 81.34375 110.855469 74.523438 111.070312 68.660156 Z M 111.070312 68.660156 "/>
<path style=" stroke:none;fill-rule:nonzero;fill:rgb(0%,0%,0%);fill-opacity:1;" d="M 111.082031 244.59375 C 111.09375 246.621094 109.492188 246.65625 109.511719 245.179688 C 109.378906 237.75 103.09375 234.09375 98.53125 234.960938 C 91.496094 236.296875 89.25 243.28125 89.316406 247.394531 C 89.523438 260.09375 102.304688 269.453125 113.835938 285.730469 C 122.285156 271.039062 136.234375 259.5 137.058594 248.144531 C 138.15625 233.046875 119.050781 227.414062 116.324219 245.011719 C 116.148438 246.253906 114.683594 246.8125 114.796875 245.078125 C 115.210938 240.253906 114.621094 238.246094 120.0625 226.359375 L 105.839844 226.359375 C 108.992188 231.914062 110.867188 238.730469 111.082031 244.59375 Z M 111.082031 244.59375 "/>
<path style=" stroke:none;fill-rule:nonzero;fill:rgb(0%,0%,0%);fill-opacity:1;" d="M 18.957031 69.785156 C 18.964844 68.914062 18.0625 69.320312 17.9375 69.59375 C 16.773438 71.582031 15.074219 72.042969 13.390625 71.328125 C 11.722656 70.617188 10.785156 69.046875 10.9375 66.804688 C 11.246094 63.367188 13.972656 59.605469 15.292969 57.480469 C 16.542969 55.550781 17.917969 53.257812 19.367188 50.324219 C 21.066406 53.6875 21.925781 54.644531 23.773438 57.714844 C 25.398438 60.421875 27.664062 63.070312 27.839844 66.339844 C 27.839844 68.824219 26.796875 71.171875 24.441406 71.597656 C 23.109375 71.839844 21.863281 71.15625 20.9375 69.5625 C 20.65625 69.15625 20.089844 69.367188 20.097656 69.921875 C 20.261719 72.015625 21.054688 73.90625 22.929688 76.136719 L 16.039062 76.136719 C 17.449219 74.558594 18.890625 72.429688 18.957031 69.785156 Z M 18.957031 69.785156 "/>
<path style=" stroke:none;fill-rule:nonzero;fill:rgb(0%,0%,0%);fill-opacity:1;" d="M 206.679688 242.945312 C 206.691406 243.816406 205.785156 243.410156 205.664062 243.136719 C 204.5 241.148438 202.796875 240.6875 201.113281 241.402344 C 199.445312 242.113281 198.511719 243.683594 198.660156 245.925781 C 198.972656 249.363281 201.695312 253.125 203.015625 255.253906 C 204.265625 257.183594 205.644531 259.472656 207.09375 262.40625 C 208.789062 259.042969 209.652344 258.085938 211.496094 255.015625 C 213.125 252.3125 215.390625 249.660156 215.566406 246.394531 C 215.566406 243.90625 214.519531 241.5625 212.164062 241.132812 C 210.835938 240.890625 209.585938 241.574219 208.660156 243.171875 C 208.378906 243.578125 207.8125 243.363281 207.824219 242.808594 C 207.988281 240.714844 208.777344 238.824219 210.652344 236.597656 L 203.765625 236.597656 C 205.175781 238.171875 206.613281 240.300781 206.679688 242.945312 Z M 206.679688 242.945312 "/>
</g>
</svg>
