<?xml version="1.0" encoding="UTF-8"?>
<svg xmlns="http://www.w3.org/2000/svg" xmlns:xlink="http://www.w3.org/1999/xlink" width="224.22508pt" height="312.80777pt" viewBox="0 0 224.22508 312.80777" version="1.1">
<g id="surface1">
<path style="fill-rule:nonzero;fill:rgb(100%,100%,100%);fill-opacity:1;stroke-width:0.996733;stroke-linecap:butt;stroke-linejoin:miter;stroke:rgb(0%,0%,0%);stroke-opacity:1;stroke-miterlimit:4;" d="M 6491.788256 -2746.809399 L 6693.757006 -2746.809399 C 6699.6281 -2746.809399 6704.385912 -2742.051587 6704.385912 -2736.180493 L 6704.385912 -2445.629712 C 6704.385912 -2439.758618 6699.6281 -2435.000805 6693.757006 -2435.000805 L 6491.788256 -2435.000805 C 6485.917162 -2435.000805 6481.15935 -2439.758618 6481.15935 -2445.629712 L 6481.15935 -2736.180493 C 6481.15935 -2742.051587 6485.917162 -2746.809399 6491.788256 -2746.809399 Z M 6491.788256 -2746.809399 " transform="matrix(1,0,0,1,-6480.65935,2747.309399)"/>
<path style=" stroke:none;fill-rule:nonzero;fill:rgb(0%,0%,0%);fill-opacity:1;" d="M 8.949219 39.710938 L 11.496094 37.871094 C 13.707031 41.40625 16.179688 43.734375 19.960938 43.335938 C 25.632812 42.953125 27.984375 37.113281 26.796875 32.710938 C 25.648438 28.765625 20.949219 26.84375 17.21875 28.949219 C 16.335938 29.445312 15.320312 30.058594 15.320312 30.058594 L 13.988281 27.894531 L 22.753906 17.699219 L 13.242188 17.699219 L 13.242188 21.917969 L 9.59375 21.917969 L 9.59375 14.351562 L 28.183594 14.351562 L 28.183594 16.921875 C 28.183594 16.921875 23.203125 21.988281 21.554688 24.769531 C 25.609375 24.914062 28.878906 27.4375 30.046875 31.425781 C 30.734375 33.523438 30.425781 38.328125 29.53125 40.394531 C 28.039062 43.84375 23.949219 46.644531 20.210938 46.804688 C 13.9375 47.21875 10.609375 42.902344 8.949219 39.710938 Z M 8.949219 39.710938 "/>
<path style=" stroke:none;fill-rule:nonzero;fill:rgb(0%,0%,0%);fill-opacity:1;" d="M 215.277344 273.097656 L 212.730469 274.9375 C 210.515625 271.402344 208.046875 269.074219 204.265625 269.472656 C 198.589844 269.855469 196.242188 275.695312 197.429688 280.097656 C 198.578125 284.042969 203.277344 285.964844 207.007812 283.859375 C 207.886719 283.363281 208.90625 282.84375 208.90625 282.84375 L 210.480469 284.878906 L 201.472656 295.109375 L 210.980469 295.109375 L 210.980469 290.890625 L 214.632812 290.890625 L 214.632812 298.453125 L 196.042969 298.453125 L 196.042969 295.886719 C 196.042969 295.886719 201.019531 290.820312 202.667969 288.039062 C 198.613281 287.890625 195.347656 285.371094 194.175781 281.382812 C 193.492188 279.285156 193.800781 274.480469 194.695312 272.414062 C 196.1875 268.960938 200.277344 266.164062 204.015625 266.003906 C 210.285156 265.589844 213.617188 269.902344 215.277344 273.097656 Z M 215.277344 273.097656 "/>
<path style=" stroke:none;fill-rule:nonzero;fill:rgb(0%,0%,0%);fill-opacity:1;" d="M 109.910156 69.433594 C 109.921875 67.40625 108.320312 67.367188 108.339844 68.847656 C 108.207031 76.277344 101.921875 79.933594 97.359375 79.066406 C 90.324219 77.726562 88.078125 70.742188 88.144531 66.628906 C 88.351562 53.933594 101.132812 44.570312 112.664062 28.296875 C 121.113281 42.988281 135.0625 54.523438 135.886719 65.882812 C 136.984375 80.980469 117.878906 86.609375 115.152344 69.015625 C 114.976562 67.769531 113.511719 67.214844 113.625 68.949219 C 114.039062 73.773438 113.449219 75.78125 118.890625 87.667969 L 104.667969 87.667969 C 107.820312 82.113281 109.695312 75.292969 109.910156 69.433594 Z M 109.910156 69.433594 "/>
<path style=" stroke:none;fill-rule:nonzero;fill:rgb(0%,0%,0%);fill-opacity:1;" d="M 109.984375 144.980469 C 109.996094 147.003906 108.394531 147.042969 108.414062 145.566406 C 108.28125 138.136719 101.996094 134.476562 97.433594 135.347656 C 90.398438 136.683594 88.152344 143.667969 88.21875 147.78125 C 88.425781 160.476562 101.207031 169.839844 112.738281 186.117188 C 121.1875 171.425781 135.136719 159.886719 135.960938 148.53125 C 137.058594 133.433594 117.953125 127.800781 115.226562 145.398438 C 115.050781 146.640625 113.585938 147.199219 113.699219 145.460938 C 114.113281 140.640625 113.523438 138.632812 118.964844 126.742188 L 104.742188 126.742188 C 107.894531 132.296875 109.769531 139.117188 109.984375 144.980469 Z M 109.984375 144.980469 "/>
<path style=" stroke:none;fill-rule:nonzero;fill:rgb(0%,0%,0%);fill-opacity:1;" d="M 109.917969 243.660156 C 109.933594 245.6875 108.332031 245.722656 108.351562 244.246094 C 108.214844 236.816406 101.933594 233.160156 97.371094 234.027344 C 90.335938 235.363281 88.089844 242.347656 88.15625 246.460938 C 88.363281 259.160156 101.144531 268.519531 112.675781 284.796875 C 121.125 270.105469 135.074219 258.566406 135.898438 247.210938 C 136.996094 232.113281 117.890625 226.480469 115.160156 244.078125 C 114.984375 245.320312 113.523438 245.878906 113.636719 244.144531 C 114.050781 239.320312 113.460938 237.3125 118.902344 225.425781 L 104.679688 225.425781 C 107.828125 230.980469 109.703125 237.796875 109.917969 243.660156 Z M 109.917969 243.660156 "/>
<path style=" stroke:none;fill-rule:nonzero;fill:rgb(0%,0%,0%);fill-opacity:1;" d="M 18.492188 70.21875 C 18.5 69.347656 17.597656 69.753906 17.472656 70.027344 C 16.308594 72.015625 14.609375 72.476562 12.925781 71.761719 C 11.257812 71.050781 10.320312 69.480469 10.472656 67.238281 C 10.78125 63.800781 13.507812 60.039062 14.828125 57.910156 C 16.078125 55.980469 17.453125 53.691406 18.902344 50.757812 C 20.601562 54.121094 21.460938 55.078125 23.308594 58.148438 C 24.933594 60.855469 27.199219 63.503906 27.375 66.773438 C 27.375 69.257812 26.332031 71.605469 23.976562 72.03125 C 22.644531 72.273438 21.398438 71.589844 20.472656 69.996094 C 20.191406 69.585938 19.625 69.800781 19.632812 70.355469 C 19.800781 72.449219 20.589844 74.339844 22.464844 76.566406 L 15.574219 76.566406 C 16.984375 74.992188 18.425781 72.863281 18.492188 70.21875 Z M 18.492188 70.21875 "/>
<path style=" stroke:none;fill-rule:nonzero;fill:rgb(0%,0%,0%);fill-opacity:1;" d="M 205.472656 243.320312 C 205.484375 244.191406 204.578125 243.785156 204.457031 243.507812 C 203.292969 241.523438 201.589844 241.0625 199.90625 241.777344 C 198.242188 242.484375 197.304688 244.058594 197.453125 246.300781 C 197.765625 249.738281 200.488281 253.5 201.808594 255.625 C 203.0625 257.554688 204.4375 259.847656 205.886719 262.78125 C 207.582031 259.417969 208.445312 258.460938 210.289062 255.386719 C 211.917969 252.683594 214.183594 250.035156 214.359375 246.765625 C 214.359375 244.28125 213.3125 241.933594 210.957031 241.507812 C 209.628906 241.265625 208.378906 241.949219 207.453125 243.542969 C 207.171875 243.949219 206.605469 243.738281 206.617188 243.179688 C 206.78125 241.089844 207.570312 239.199219 209.445312 236.96875 L 202.558594 236.96875 C 203.96875 238.546875 205.40625 240.671875 205.472656 243.320312 Z M 205.472656 243.320312 "/>
</g>
</svg>
