<?xml version="1.0" encoding="UTF-8"?>
<svg xmlns="http://www.w3.org/2000/svg" xmlns:xlink="http://www.w3.org/1999/xlink" width="224.22508pt" height="312.80777pt" viewBox="0 0 224.22508 312.80777" version="1.1">
<g id="surface1">
<path style="fill-rule:nonzero;fill:rgb(100%,100%,100%);fill-opacity:1;stroke-width:0.996733;stroke-linecap:butt;stroke-linejoin:miter;stroke:rgb(0%,0%,0%);stroke-opacity:1;stroke-miterlimit:4;" d="M 6715.016282 -2746.809399 L 6916.985032 -2746.809399 C 6922.856126 -2746.809399 6927.613938 -2742.051587 6927.613938 -2736.180493 L 6927.613938 -2445.629712 C 6927.613938 -2439.758618 6922.856126 -2435.000805 6916.985032 -2435.000805 L 6715.016282 -2435.000805 C 6709.145188 -2435.000805 6704.387376 -2439.758618 6704.387376 -2445.629712 L 6704.387376 -2736.180493 C 6704.387376 -2742.051587 6709.145188 -2746.809399 6715.016282 -2746.809399 Z M 6715.016282 -2746.809399 " transform="matrix(1,0,0,1,-6703.887376,2747.309399)"/>
<path style=" stroke:none;fill-rule:nonzero;fill:rgb(0%,0%,0%);fill-opacity:1;" d="M 18.332031 46.871094 L 18.332031 44.058594 L 20.917969 44.058594 L 20.917969 39.421875 L 7.992188 39.421875 L 7.992188 36.152344 L 21.980469 15.054688 L 24.265625 15.0625 L 24.265625 36.152344 L 28.21875 36.152344 L 28.21875 39.421875 L 24.265625 39.421875 L 24.1875 44.058594 L 26.355469 44.058594 L 26.355469 46.871094 Z M 20.917969 22.773438 L 12.039062 36.152344 L 20.917969 36.152344 Z M 20.917969 22.773438 "/>
<path style=" stroke:none;fill-rule:nonzero;fill:rgb(0%,0%,0%);fill-opacity:1;" d="M 205.890625 265.9375 L 205.890625 268.75 L 203.304688 268.75 L 203.304688 273.386719 L 216.230469 273.386719 L 216.230469 276.65625 L 202.246094 297.753906 L 199.960938 297.746094 L 199.960938 276.65625 L 196.007812 276.65625 L 196.007812 273.386719 L 199.960938 273.386719 L 200.035156 268.75 L 197.871094 268.75 L 197.871094 265.9375 Z M 203.304688 290.03125 L 212.183594 276.65625 L 203.304688 276.65625 Z M 203.304688 290.03125 "/>
<path style=" stroke:none;fill-rule:nonzero;fill:rgb(0%,0%,0%);fill-opacity:1;" d="M 55.40625 66.761719 C 55.417969 64.734375 53.816406 64.695312 53.835938 66.175781 C 53.703125 73.601562 47.417969 77.261719 42.855469 76.394531 C 35.820312 75.054688 33.574219 68.070312 33.640625 63.957031 C 33.847656 51.261719 46.628906 41.898438 58.160156 25.621094 C 66.609375 40.3125 80.558594 51.851562 81.382812 63.207031 C 82.480469 78.308594 63.375 83.9375 60.648438 66.339844 C 60.472656 65.097656 59.007812 64.539062 59.121094 66.277344 C 59.535156 71.097656 58.945312 73.109375 64.386719 84.996094 L 50.164062 84.996094 C 53.316406 79.441406 55.191406 72.621094 55.40625 66.761719 Z M 55.40625 66.761719 "/>
<path style=" stroke:none;fill-rule:nonzero;fill:rgb(0%,0%,0%);fill-opacity:1;" d="M 166.9375 66.761719 C 166.953125 64.734375 165.351562 64.695312 165.367188 66.175781 C 165.234375 73.601562 158.953125 77.261719 154.386719 76.394531 C 147.351562 75.054688 145.105469 68.070312 145.171875 63.957031 C 145.382812 51.261719 158.160156 41.898438 169.695312 25.621094 C 178.144531 40.3125 192.089844 51.851562 192.917969 63.207031 C 194.015625 78.308594 174.90625 83.9375 172.179688 66.339844 C 172.003906 65.097656 170.539062 64.539062 170.652344 66.277344 C 171.070312 71.097656 170.480469 73.109375 175.917969 84.996094 L 161.699219 84.996094 C 164.847656 79.441406 166.722656 72.621094 166.9375 66.761719 Z M 166.9375 66.761719 "/>
<path style=" stroke:none;fill-rule:nonzero;fill:rgb(0%,0%,0%);fill-opacity:1;" d="M 55.414062 242.730469 C 55.429688 244.757812 53.828125 244.796875 53.847656 243.316406 C 53.710938 235.886719 47.429688 232.230469 42.867188 233.097656 C 35.832031 234.4375 33.585938 241.421875 33.652344 245.535156 C 33.859375 258.230469 46.640625 267.59375 58.171875 283.867188 C 66.621094 269.175781 80.570312 257.636719 81.394531 246.28125 C 82.492188 231.183594 63.386719 225.554688 60.65625 243.148438 C 60.480469 244.394531 59.019531 244.949219 59.132812 243.214844 C 59.546875 238.390625 58.957031 236.382812 64.398438 224.496094 L 50.175781 224.496094 C 53.324219 230.050781 55.203125 236.871094 55.414062 242.730469 Z M 55.414062 242.730469 "/>
<path style=" stroke:none;fill-rule:nonzero;fill:rgb(0%,0%,0%);fill-opacity:1;" d="M 166.949219 242.730469 C 166.964844 244.757812 165.363281 244.796875 165.378906 243.316406 C 165.246094 235.886719 158.964844 232.230469 154.398438 233.097656 C 147.363281 234.4375 145.117188 241.421875 145.183594 245.535156 C 145.390625 258.230469 158.171875 267.59375 169.703125 283.867188 C 178.15625 269.175781 192.101562 257.636719 192.925781 246.28125 C 194.023438 231.183594 174.917969 225.554688 172.191406 243.148438 C 172.015625 244.394531 170.550781 244.949219 170.664062 243.214844 C 171.078125 238.390625 170.488281 236.382812 175.929688 224.496094 L 161.707031 224.496094 C 164.859375 230.050781 166.734375 236.871094 166.949219 242.730469 Z M 166.949219 242.730469 "/>
<path style=" stroke:none;fill-rule:nonzero;fill:rgb(0%,0%,0%);fill-opacity:1;" d="M 17.5 70.550781 C 17.507812 69.675781 16.605469 70.085938 16.480469 70.359375 C 15.320312 72.34375 13.617188 72.804688 11.933594 72.089844 C 10.265625 71.382812 9.328125 69.808594 9.480469 67.570312 C 9.789062 64.128906 12.515625 60.367188 13.835938 58.242188 C 15.085938 56.3125 16.464844 54.019531 17.910156 51.089844 C 19.609375 54.453125 20.46875 55.410156 22.316406 58.480469 C 23.941406 61.183594 26.210938 63.832031 26.382812 67.101562 C 26.382812 69.585938 25.339844 71.933594 22.984375 72.363281 C 21.652344 72.601562 20.40625 71.921875 19.480469 70.324219 C 19.199219 69.917969 18.632812 70.128906 18.640625 70.6875 C 18.808594 72.78125 19.597656 74.667969 21.472656 76.898438 L 14.585938 76.898438 C 15.996094 75.320312 17.433594 73.195312 17.5 70.550781 Z M 17.5 70.550781 "/>
<path style=" stroke:none;fill-rule:nonzero;fill:rgb(0%,0%,0%);fill-opacity:1;" d="M 204.71875 242.550781 C 204.726562 243.421875 203.824219 243.015625 203.699219 242.738281 C 202.539062 240.753906 200.835938 240.292969 199.152344 241.007812 C 197.484375 241.71875 196.546875 243.289062 196.699219 245.53125 C 197.007812 248.96875 199.734375 252.730469 201.054688 254.855469 C 202.304688 256.785156 203.683594 259.078125 205.128906 262.011719 C 206.828125 258.648438 207.6875 257.691406 209.535156 254.621094 C 211.160156 251.914062 213.429688 249.265625 213.601562 245.996094 C 213.601562 243.511719 212.558594 241.164062 210.203125 240.738281 C 208.871094 240.496094 207.625 241.179688 206.699219 242.773438 C 206.417969 243.179688 205.851562 242.96875 205.859375 242.414062 C 206.027344 240.320312 206.816406 238.429688 208.691406 236.199219 L 201.804688 236.199219 C 203.214844 237.777344 204.652344 239.90625 204.71875 242.550781 Z M 204.71875 242.550781 "/>
</g>
</svg>
