<?xml version="1.0" encoding="UTF-8"?>
<svg xmlns="http://www.w3.org/2000/svg" xmlns:xlink="http://www.w3.org/1999/xlink" width="224.22508pt" height="312.80777pt" viewBox="0 0 224.22508 312.80777" version="1.1">
<g id="surface1">
<path style="fill-rule:nonzero;fill:rgb(100%,100%,100%);fill-opacity:1;stroke-width:0.996733;stroke-linecap:butt;stroke-linejoin:miter;stroke:rgb(0%,0%,0%);stroke-opacity:1;stroke-miterlimit:4;" d="M 6938.244796 -2746.809399 L 7140.213546 -2746.809399 C 7146.08464 -2746.809399 7150.842453 -2742.051587 7150.842453 -2736.180493 L 7150.842453 -2445.629712 C 7150.842453 -2439.758618 7146.08464 -2435.000805 7140.213546 -2435.000805 L 6938.244796 -2435.000805 C 6932.373703 -2435.000805 6927.61589 -2439.758618 6927.61589 -2445.629712 L 6927.61589 -2736.180493 C 6927.61589 -2742.051587 6932.373703 -2746.809399 6938.244796 -2746.809399 Z M 6938.244796 -2746.809399 " transform="matrix(1,0,0,1,-6927.11589,2747.309399)"/>
<path style=" stroke:none;fill-rule:nonzero;fill:rgb(0%,0%,0%);fill-opacity:1;" d="M 8.675781 38.035156 L 11.898438 38.007812 C 12.511719 39.953125 13.871094 41.933594 15.714844 42.480469 C 20.925781 43.707031 24.28125 40.792969 25.386719 37.433594 C 26.726562 33.359375 25.355469 27.640625 21.769531 25.605469 C 18.792969 23.921875 14.375 25.34375 12.347656 28.945312 L 10.089844 27.566406 L 11.300781 14.144531 L 26.03125 14.144531 L 26.03125 17.316406 L 14.09375 17.316406 L 13.90625 22.90625 C 16.472656 21.105469 20.425781 21.121094 22.992188 22.386719 C 27.855469 24.707031 30.117188 29.980469 29.167969 36.199219 C 27.859375 42.382812 24.972656 45.882812 18.453125 46.386719 C 11.207031 46.449219 8.648438 41.46875 8.675781 38.035156 Z M 8.675781 38.035156 "/>
<path style=" stroke:none;fill-rule:nonzero;fill:rgb(0%,0%,0%);fill-opacity:1;" d="M 215.546875 274.773438 L 212.328125 274.800781 C 211.714844 272.855469 210.355469 270.875 208.511719 270.328125 C 203.296875 269.101562 199.941406 272.015625 198.839844 275.375 C 197.496094 279.445312 198.867188 285.167969 202.457031 287.199219 C 205.429688 288.886719 209.851562 287.464844 211.878906 283.863281 L 214.132812 285.242188 L 212.921875 298.664062 L 198.191406 298.664062 L 198.191406 295.492188 L 210.128906 295.492188 L 210.316406 289.902344 C 207.753906 291.703125 203.800781 291.683594 201.234375 290.421875 C 196.367188 288.101562 194.109375 282.828125 195.054688 276.609375 C 196.367188 270.425781 199.253906 266.921875 205.773438 266.421875 C 213.015625 266.359375 215.578125 271.339844 215.546875 274.773438 Z M 215.546875 274.773438 "/>
<path style=" stroke:none;fill-rule:nonzero;fill:rgb(0%,0%,0%);fill-opacity:1;" d="M 54.464844 68.617188 C 54.476562 66.59375 52.875 66.554688 52.894531 68.03125 C 52.761719 75.460938 46.476562 79.117188 41.914062 78.25 C 34.878906 76.914062 32.632812 69.929688 32.699219 65.816406 C 32.90625 53.117188 45.6875 43.757812 57.21875 27.480469 C 65.667969 42.171875 79.617188 53.710938 80.441406 65.066406 C 81.539062 80.164062 62.433594 85.796875 59.707031 68.199219 C 59.527344 66.957031 58.066406 66.398438 58.179688 68.132812 C 58.59375 72.957031 58.003906 74.964844 63.445312 86.855469 L 49.222656 86.855469 C 52.371094 81.296875 54.25 74.480469 54.464844 68.617188 Z M 54.464844 68.617188 "/>
<path style=" stroke:none;fill-rule:nonzero;fill:rgb(0%,0%,0%);fill-opacity:1;" d="M 165.144531 68.617188 C 165.160156 66.59375 163.558594 66.554688 163.574219 68.03125 C 163.441406 75.460938 157.160156 79.117188 152.59375 78.25 C 145.558594 76.914062 143.3125 69.929688 143.378906 65.816406 C 143.585938 53.117188 156.367188 43.757812 167.902344 27.480469 C 176.351562 42.171875 190.296875 53.710938 191.125 65.066406 C 192.222656 80.164062 173.113281 85.796875 170.386719 68.199219 C 170.210938 66.957031 168.746094 66.398438 168.859375 68.132812 C 169.273438 72.957031 168.683594 74.964844 174.125 86.855469 L 159.90625 86.855469 C 163.054688 81.296875 164.929688 74.480469 165.144531 68.617188 Z M 165.144531 68.617188 "/>
<path style=" stroke:none;fill-rule:nonzero;fill:rgb(0%,0%,0%);fill-opacity:1;" d="M 109.902344 167.878906 C 109.917969 165.855469 108.316406 165.816406 108.332031 167.292969 C 108.199219 174.722656 101.917969 178.378906 97.351562 177.511719 C 90.316406 176.175781 88.070312 169.191406 88.136719 165.078125 C 88.34375 152.382812 101.125 143.019531 112.65625 126.742188 C 121.109375 141.433594 135.054688 152.972656 135.878906 164.328125 C 136.976562 179.425781 117.871094 185.058594 115.144531 167.460938 C 114.96875 166.21875 113.503906 165.660156 113.617188 167.394531 C 114.03125 172.21875 113.441406 174.226562 118.882812 186.117188 L 104.660156 186.117188 C 107.8125 180.5625 109.6875 173.742188 109.902344 167.878906 Z M 109.902344 167.878906 "/>
<path style=" stroke:none;fill-rule:nonzero;fill:rgb(0%,0%,0%);fill-opacity:1;" d="M 54.472656 242.394531 C 54.488281 244.417969 52.886719 244.457031 52.90625 242.980469 C 52.769531 235.550781 46.488281 231.894531 41.925781 232.761719 C 34.886719 234.097656 32.644531 241.082031 32.710938 245.195312 C 32.917969 257.890625 45.699219 267.253906 57.230469 283.53125 C 65.679688 268.839844 79.628906 257.300781 80.453125 245.945312 C 81.550781 230.847656 62.445312 225.214844 59.714844 242.8125 C 59.539062 244.054688 58.078125 244.613281 58.191406 242.878906 C 58.605469 238.054688 58.015625 236.046875 63.457031 224.15625 L 49.234375 224.15625 C 52.382812 229.710938 54.257812 236.53125 54.472656 242.394531 Z M 54.472656 242.394531 "/>
<path style=" stroke:none;fill-rule:nonzero;fill:rgb(0%,0%,0%);fill-opacity:1;" d="M 165.15625 242.394531 C 165.171875 244.417969 163.566406 244.457031 163.585938 242.980469 C 163.453125 235.550781 157.167969 231.894531 152.605469 232.761719 C 145.570312 234.097656 143.324219 241.082031 143.390625 245.195312 C 143.597656 257.890625 156.378906 267.253906 167.910156 283.53125 C 176.363281 268.839844 190.308594 257.300781 191.132812 245.945312 C 192.230469 230.847656 173.125 225.214844 170.398438 242.8125 C 170.222656 244.054688 168.757812 244.613281 168.871094 242.878906 C 169.285156 238.054688 168.695312 236.046875 174.136719 224.15625 L 159.914062 224.15625 C 163.066406 229.710938 164.941406 236.53125 165.15625 242.394531 Z M 165.15625 242.394531 "/>
<path style=" stroke:none;fill-rule:nonzero;fill:rgb(0%,0%,0%);fill-opacity:1;" d="M 18.253906 70.152344 C 18.265625 69.28125 17.359375 69.6875 17.238281 69.960938 C 16.074219 71.945312 14.371094 72.410156 12.691406 71.691406 C 11.023438 70.984375 10.085938 69.414062 10.234375 67.171875 C 10.546875 63.734375 13.269531 59.972656 14.589844 57.84375 C 15.84375 55.914062 17.21875 53.621094 18.667969 50.691406 C 20.363281 54.054688 21.226562 55.011719 23.074219 58.082031 C 24.699219 60.785156 26.964844 63.433594 27.140625 66.703125 C 27.140625 69.1875 26.09375 71.535156 23.742188 71.964844 C 22.410156 72.207031 21.160156 71.523438 20.238281 69.925781 C 19.953125 69.519531 19.386719 69.730469 19.398438 70.289062 C 19.5625 72.382812 20.351562 74.273438 22.226562 76.5 L 15.339844 76.5 C 16.75 74.925781 18.1875 72.796875 18.253906 70.152344 Z M 18.253906 70.152344 "/>
<path style=" stroke:none;fill-rule:nonzero;fill:rgb(0%,0%,0%);fill-opacity:1;" d="M 204.964844 242.898438 C 204.972656 243.769531 204.066406 243.363281 203.945312 243.085938 C 202.78125 241.101562 201.082031 240.640625 199.398438 241.355469 C 197.730469 242.066406 196.792969 243.636719 196.945312 245.878906 C 197.253906 249.316406 199.980469 253.078125 201.296875 255.203125 C 202.550781 257.132812 203.925781 259.425781 205.375 262.359375 C 207.074219 258.996094 207.933594 258.039062 209.78125 254.964844 C 211.40625 252.261719 213.671875 249.613281 213.847656 246.34375 C 213.847656 243.859375 212.800781 241.511719 210.449219 241.085938 C 209.117188 240.84375 207.871094 241.527344 206.945312 243.121094 C 206.664062 243.527344 206.097656 243.316406 206.105469 242.761719 C 206.269531 240.667969 207.0625 238.777344 208.933594 236.546875 L 202.046875 236.546875 C 203.457031 238.125 204.898438 240.25 204.964844 242.898438 Z M 204.964844 242.898438 "/>
</g>
</svg>
