<?xml version="1.0" encoding="UTF-8"?>
<svg xmlns="http://www.w3.org/2000/svg" xmlns:xlink="http://www.w3.org/1999/xlink" width="224.22508pt" height="312.80777pt" viewBox="0 0 224.22508 312.80777" version="1.1">
<g id="surface1">
<path style="fill-rule:nonzero;fill:rgb(100%,100%,100%);fill-opacity:1;stroke-width:0.996733;stroke-linecap:butt;stroke-linejoin:miter;stroke:rgb(0%,0%,0%);stroke-opacity:1;stroke-miterlimit:4;" d="M 7161.473316 -2746.809399 L 7363.442066 -2746.809399 C 7369.31316 -2746.809399 7374.070973 -2742.051587 7374.070973 -2736.180493 L 7374.070973 -2445.629712 C 7374.070973 -2439.758618 7369.31316 -2435.000805 7363.442066 -2435.000805 L 7161.473316 -2435.000805 C 7155.602223 -2435.000805 7150.84441 -2439.758618 7150.84441 -2445.629712 L 7150.84441 -2736.180493 C 7150.84441 -2742.051587 7155.602223 -2746.809399 7161.473316 -2746.809399 Z M 7161.473316 -2746.809399 " transform="matrix(1,0,0,1,-7150.34441,2747.309399)"/>
<path style=" stroke:none;fill-rule:nonzero;fill:rgb(0%,0%,0%);fill-opacity:1;" d="M 8.738281 36.5 C 8.328125 33.75 8.335938 26.652344 8.671875 24.554688 C 9.703125 18.128906 12.203125 15.1875 16.394531 14.222656 C 20.464844 13.289062 26.183594 14.328125 27.4375 19.707031 L 24.03125 19.769531 C 22.191406 16.136719 17.535156 17.105469 14.917969 18.6875 C 12.824219 19.949219 11.878906 25.207031 12.28125 25.53125 C 12.28125 25.53125 16.238281 22.652344 19.359375 22.863281 C 26.027344 23.546875 28.777344 29.222656 28.542969 34.582031 C 28.332031 41.035156 26.25 46.1875 19.183594 46.53125 C 12.464844 46.277344 9.382812 42.679688 8.738281 36.5 Z M 25.308594 34.792969 C 25.347656 30.320312 23.273438 26.972656 19.359375 26.601562 C 15.441406 26.230469 11.496094 29.984375 11.769531 34.542969 C 12.042969 39.121094 13.847656 42.976562 18.59375 42.953125 C 23.703125 42.929688 25.28125 37.976562 25.308594 34.792969 Z M 25.308594 34.792969 "/>
<path style=" stroke:none;fill-rule:nonzero;fill:rgb(0%,0%,0%);fill-opacity:1;" d="M 215.488281 276.308594 C 215.894531 279.054688 215.886719 286.152344 215.554688 288.25 C 214.523438 294.679688 212.019531 297.621094 207.832031 298.582031 C 203.761719 299.519531 198.042969 298.476562 196.785156 293.101562 L 200.191406 293.039062 C 202.03125 296.671875 206.6875 295.703125 209.308594 294.121094 C 211.402344 292.859375 212.347656 287.601562 211.941406 287.277344 C 211.945312 287.277344 207.984375 290.15625 204.867188 289.941406 C 198.199219 289.261719 195.449219 283.585938 195.679688 278.222656 C 195.890625 271.773438 197.976562 266.621094 205.042969 266.277344 C 211.761719 266.53125 214.84375 270.128906 215.488281 276.308594 Z M 198.917969 278.015625 C 198.878906 282.488281 200.949219 285.835938 204.867188 286.207031 C 208.78125 286.574219 212.730469 282.824219 212.457031 278.265625 C 212.183594 273.6875 210.378906 269.832031 205.628906 269.851562 C 200.523438 269.875 198.941406 274.828125 198.917969 278.015625 Z M 198.917969 278.015625 "/>
<path style=" stroke:none;fill-rule:nonzero;fill:rgb(0%,0%,0%);fill-opacity:1;" d="M 54.347656 69.058594 C 54.359375 67.03125 52.757812 66.996094 52.777344 68.472656 C 52.644531 75.902344 46.359375 79.558594 41.796875 78.691406 C 34.761719 77.355469 32.515625 70.371094 32.582031 66.257812 C 32.789062 53.558594 45.570312 44.199219 57.101562 27.921875 C 65.550781 42.613281 79.5 54.152344 80.324219 65.507812 C 81.421875 80.605469 62.316406 86.238281 59.589844 68.640625 C 59.414062 67.398438 57.949219 66.839844 58.0625 68.574219 C 58.476562 73.398438 57.886719 75.40625 63.328125 87.292969 L 49.105469 87.292969 C 52.253906 81.738281 54.132812 74.917969 54.347656 69.058594 Z M 54.347656 69.058594 "/>
<path style=" stroke:none;fill-rule:nonzero;fill:rgb(0%,0%,0%);fill-opacity:1;" d="M 165.878906 69.058594 C 165.894531 67.03125 164.292969 66.996094 164.308594 68.472656 C 164.175781 75.902344 157.894531 79.558594 153.328125 78.691406 C 146.292969 77.355469 144.046875 70.371094 144.113281 66.257812 C 144.320312 53.558594 157.101562 44.199219 168.636719 27.921875 C 177.085938 42.613281 191.03125 54.152344 191.859375 65.507812 C 192.957031 80.605469 173.847656 86.238281 171.121094 68.640625 C 170.945312 67.398438 169.480469 66.839844 169.59375 68.574219 C 170.007812 73.398438 169.421875 75.40625 174.859375 87.292969 L 160.640625 87.292969 C 163.789062 81.738281 165.664062 74.917969 165.878906 69.058594 Z M 165.878906 69.058594 "/>
<path style=" stroke:none;fill-rule:nonzero;fill:rgb(0%,0%,0%);fill-opacity:1;" d="M 54.355469 145.078125 C 54.371094 147.101562 52.769531 147.140625 52.789062 145.664062 C 52.652344 138.234375 46.371094 134.574219 41.808594 135.445312 C 34.769531 136.78125 32.527344 143.765625 32.59375 147.878906 C 32.800781 160.574219 45.582031 169.9375 57.113281 186.214844 C 65.5625 171.523438 79.511719 159.984375 80.335938 148.628906 C 81.433594 133.53125 62.328125 127.898438 59.597656 145.496094 C 59.421875 146.738281 57.960938 147.296875 58.074219 145.558594 C 58.488281 140.738281 57.898438 138.730469 63.339844 126.839844 L 49.117188 126.839844 C 52.265625 132.394531 54.140625 139.214844 54.355469 145.078125 Z M 54.355469 145.078125 "/>
<path style=" stroke:none;fill-rule:nonzero;fill:rgb(0%,0%,0%);fill-opacity:1;" d="M 165.890625 145.078125 C 165.90625 147.101562 164.300781 147.140625 164.320312 145.664062 C 164.1875 138.234375 157.90625 134.574219 153.339844 135.445312 C 146.304688 136.78125 144.058594 143.765625 144.125 147.878906 C 144.332031 160.574219 157.113281 169.9375 168.644531 186.214844 C 177.097656 171.523438 191.042969 159.984375 191.867188 148.628906 C 192.964844 133.53125 173.859375 127.898438 171.132812 145.496094 C 170.957031 146.738281 169.492188 147.296875 169.605469 145.558594 C 170.019531 140.738281 169.429688 138.730469 174.871094 126.839844 L 160.648438 126.839844 C 163.800781 132.394531 165.675781 139.214844 165.890625 145.078125 Z M 165.890625 145.078125 "/>
<path style=" stroke:none;fill-rule:nonzero;fill:rgb(0%,0%,0%);fill-opacity:1;" d="M 165.890625 243.675781 C 165.90625 245.699219 164.300781 245.738281 164.320312 244.261719 C 164.1875 236.832031 157.90625 233.175781 153.339844 234.042969 C 146.304688 235.378906 144.058594 242.363281 144.125 246.476562 C 144.332031 259.171875 157.113281 268.535156 168.644531 284.8125 C 177.097656 270.121094 191.042969 258.582031 191.867188 247.226562 C 192.964844 232.128906 173.859375 226.496094 171.132812 244.09375 C 170.957031 245.335938 169.492188 245.894531 169.605469 244.160156 C 170.019531 239.335938 169.429688 237.328125 174.871094 225.4375 L 160.648438 225.4375 C 163.800781 230.992188 165.675781 237.8125 165.890625 243.675781 Z M 165.890625 243.675781 "/>
<path style=" stroke:none;fill-rule:nonzero;fill:rgb(0%,0%,0%);fill-opacity:1;" d="M 54.355469 243.675781 C 54.371094 245.699219 52.769531 245.738281 52.789062 244.261719 C 52.652344 236.832031 46.371094 233.175781 41.808594 234.042969 C 34.769531 235.378906 32.527344 242.363281 32.59375 246.476562 C 32.800781 259.171875 45.582031 268.535156 57.113281 284.8125 C 65.5625 270.121094 79.511719 258.582031 80.335938 247.226562 C 81.433594 232.128906 62.328125 226.496094 59.597656 244.09375 C 59.421875 245.335938 57.960938 245.894531 58.074219 244.160156 C 58.488281 239.335938 57.898438 237.328125 63.339844 225.4375 L 49.117188 225.4375 C 52.265625 230.992188 54.140625 237.8125 54.355469 243.675781 Z M 54.355469 243.675781 "/>
<path style=" stroke:none;fill-rule:nonzero;fill:rgb(0%,0%,0%);fill-opacity:1;" d="M 17.394531 68.929688 C 17.402344 68.058594 16.5 68.464844 16.375 68.738281 C 15.210938 70.722656 13.511719 71.1875 11.828125 70.46875 C 10.160156 69.761719 9.222656 68.191406 9.375 65.949219 C 9.683594 62.511719 12.410156 58.75 13.730469 56.621094 C 14.980469 54.691406 16.355469 52.398438 17.804688 49.46875 C 19.503906 52.832031 20.363281 53.789062 22.210938 56.859375 C 23.835938 59.5625 26.105469 62.210938 26.277344 65.480469 C 26.277344 67.964844 25.234375 70.3125 22.878906 70.742188 C 21.546875 70.984375 20.300781 70.300781 19.375 68.703125 C 19.09375 68.296875 18.527344 68.507812 18.535156 69.066406 C 18.703125 71.160156 19.492188 73.050781 21.367188 75.277344 L 14.480469 75.277344 C 15.890625 73.703125 17.328125 71.574219 17.394531 68.929688 Z M 17.394531 68.929688 "/>
<path style=" stroke:none;fill-rule:nonzero;fill:rgb(0%,0%,0%);fill-opacity:1;" d="M 206.210938 241.675781 C 206.21875 242.546875 205.3125 242.136719 205.191406 241.863281 C 204.027344 239.878906 202.328125 239.417969 200.644531 240.132812 C 198.976562 240.839844 198.039062 242.414062 198.191406 244.65625 C 198.5 248.09375 201.226562 251.855469 202.542969 253.980469 C 203.796875 255.910156 205.171875 258.203125 206.621094 261.136719 C 208.320312 257.773438 209.179688 256.8125 211.027344 253.742188 C 212.652344 251.039062 214.917969 248.390625 215.09375 245.121094 C 215.09375 242.636719 214.046875 240.289062 211.695312 239.863281 C 210.363281 239.621094 209.117188 240.304688 208.191406 241.898438 C 207.910156 242.304688 207.34375 242.09375 207.351562 241.535156 C 207.515625 239.441406 208.308594 237.554688 210.179688 235.324219 L 203.292969 235.324219 C 204.703125 236.902344 206.144531 239.027344 206.210938 241.675781 Z M 206.210938 241.675781 "/>
</g>
</svg>
