<?xml version="1.0" encoding="UTF-8"?>
<svg xmlns="http://www.w3.org/2000/svg" xmlns:xlink="http://www.w3.org/1999/xlink" width="224.21835pt" height="312.80104pt" viewBox="0 0 224.21835 312.80104" version="1.1">
<g id="surface1">
<path style="fill-rule:nonzero;fill:rgb(100%,100%,100%);fill-opacity:1;stroke-width:0.99;stroke-linecap:butt;stroke-linejoin:miter;stroke:rgb(0%,0%,0%);stroke-opacity:1;stroke-miterlimit:3.8;" d="M 6045.33068 -2434.998906 L 6247.29943 -2434.998906 C 6253.170524 -2434.998906 6257.928336 -2430.241094 6257.928336 -2424.37 L 6257.928336 -2133.819219 C 6257.928336 -2127.948125 6253.170524 -2123.190312 6247.29943 -2123.190312 L 6045.33068 -2123.190312 C 6039.459586 -2123.190312 6034.701774 -2127.948125 6034.701774 -2133.819219 L 6034.701774 -2424.37 C 6034.701774 -2430.241094 6039.459586 -2434.998906 6045.33068 -2434.998906 Z M 6045.33068 -2434.998906 " transform="matrix(1,0,0,1,-6034.20568,2435.495)"/>
<path style=" stroke:none;fill-rule:nonzero;fill:rgb(0%,0%,0%);fill-opacity:1;" d="M 12.835938 47.003906 C 14.96875 35.914062 17.246094 27.59375 23.21875 18.558594 L 11.082031 18.558594 L 11.082031 22.449219 L 7.855469 22.449219 L 7.855469 15.117188 L 25.609375 15.117188 L 27.800781 18.558594 C 21.457031 25.355469 15.652344 47.324219 16.679688 47.003906 Z M 12.835938 47.003906 "/>
<path style=" stroke:none;fill-rule:nonzero;fill:rgb(0%,0%,0%);fill-opacity:1;" d="M 211.382812 265.796875 C 209.25 276.886719 206.972656 285.207031 201 294.242188 L 213.136719 294.242188 L 213.136719 290.351562 L 216.359375 290.351562 L 216.359375 297.683594 L 198.605469 297.683594 L 196.417969 294.242188 C 202.761719 287.445312 208.566406 265.476562 207.539062 265.796875 Z M 211.382812 265.796875 "/>
<path style=" stroke:none;fill-rule:nonzero;fill:rgb(0%,0%,0%);fill-opacity:1;" d="M 53.589844 70.5 C 53.605469 68.472656 52.003906 68.433594 52.023438 69.914062 C 51.886719 77.34375 45.605469 81 41.042969 80.132812 C 34.007812 78.792969 31.761719 71.808594 31.828125 67.695312 C 32.035156 55 44.816406 45.640625 56.347656 29.363281 C 64.796875 44.054688 78.746094 55.59375 79.570312 66.949219 C 80.667969 82.046875 61.5625 87.679688 58.832031 70.082031 C 58.65625 68.839844 57.195312 68.28125 57.308594 70.015625 C 57.722656 74.839844 57.132812 76.847656 62.574219 88.734375 L 48.351562 88.734375 C 51.5 83.179688 53.375 76.359375 53.589844 70.5 Z M 53.589844 70.5 "/>
<path style=" stroke:none;fill-rule:nonzero;fill:rgb(0%,0%,0%);fill-opacity:1;" d="M 165.125 70.5 C 165.140625 68.472656 163.539062 68.433594 163.554688 69.914062 C 163.421875 77.34375 157.140625 81 152.574219 80.132812 C 145.539062 78.792969 143.292969 71.808594 143.359375 67.695312 C 143.566406 55 156.347656 45.640625 167.878906 29.363281 C 176.332031 44.054688 190.277344 55.59375 191.101562 66.949219 C 192.199219 82.046875 173.09375 87.679688 170.367188 70.082031 C 170.191406 68.839844 168.726562 68.28125 168.839844 70.015625 C 169.253906 74.839844 168.664062 76.847656 174.105469 88.734375 L 159.882812 88.734375 C 163.035156 83.179688 164.910156 76.359375 165.125 70.5 Z M 165.125 70.5 "/>
<path style=" stroke:none;fill-rule:nonzero;fill:rgb(0%,0%,0%);fill-opacity:1;" d="M 110.023438 120.625 C 110.039062 118.597656 108.4375 118.558594 108.457031 120.039062 C 108.320312 127.464844 102.039062 131.125 97.476562 130.257812 C 90.441406 128.917969 88.195312 121.933594 88.261719 117.820312 C 88.46875 105.125 101.25 95.761719 112.78125 79.488281 C 121.230469 94.175781 135.179688 105.714844 136.003906 117.074219 C 137.101562 132.171875 117.996094 137.800781 115.265625 120.207031 C 115.089844 118.960938 113.628906 118.402344 113.742188 120.140625 C 114.15625 124.960938 113.566406 126.972656 119.007812 138.859375 L 104.785156 138.859375 C 107.933594 133.304688 109.8125 126.484375 110.023438 120.625 Z M 110.023438 120.625 "/>
<path style=" stroke:none;fill-rule:nonzero;fill:rgb(0%,0%,0%);fill-opacity:1;" d="M 165.125 170.746094 C 165.140625 168.722656 163.539062 168.683594 163.554688 170.164062 C 163.421875 177.589844 157.140625 181.25 152.574219 180.382812 C 145.539062 179.042969 143.292969 172.058594 143.359375 167.945312 C 143.566406 155.25 156.347656 145.886719 167.878906 129.609375 C 176.332031 144.300781 190.277344 155.839844 191.101562 167.195312 C 192.199219 182.292969 173.09375 187.925781 170.367188 170.328125 C 170.191406 169.085938 168.726562 168.527344 168.839844 170.265625 C 169.253906 175.085938 168.664062 177.097656 174.105469 188.984375 L 159.882812 188.984375 C 163.035156 183.429688 164.910156 176.609375 165.125 170.746094 Z M 165.125 170.746094 "/>
<path style=" stroke:none;fill-rule:nonzero;fill:rgb(0%,0%,0%);fill-opacity:1;" d="M 53.589844 170.746094 C 53.605469 168.722656 52.003906 168.683594 52.023438 170.164062 C 51.886719 177.589844 45.605469 181.25 41.042969 180.382812 C 34.007812 179.042969 31.761719 172.058594 31.828125 167.945312 C 32.035156 155.25 44.816406 145.886719 56.347656 129.609375 C 64.796875 144.300781 78.746094 155.839844 79.570312 167.195312 C 80.667969 182.292969 61.5625 187.925781 58.832031 170.328125 C 58.65625 169.085938 57.195312 168.527344 57.308594 170.265625 C 57.722656 175.085938 57.132812 177.097656 62.574219 188.984375 L 48.351562 188.984375 C 51.5 183.429688 53.375 176.609375 53.589844 170.746094 Z M 53.589844 170.746094 "/>
<path style=" stroke:none;fill-rule:nonzero;fill:rgb(0%,0%,0%);fill-opacity:1;" d="M 165.136719 246.472656 C 165.148438 248.496094 163.546875 248.535156 163.566406 247.054688 C 163.433594 239.628906 157.148438 235.96875 152.585938 236.839844 C 145.550781 238.175781 143.304688 245.160156 143.371094 249.273438 C 143.578125 261.96875 156.359375 271.332031 167.890625 287.609375 C 176.339844 272.917969 190.289062 261.378906 191.113281 250.023438 C 192.210938 234.925781 173.105469 229.292969 170.378906 246.890625 C 170.199219 248.132812 168.738281 248.691406 168.851562 246.953125 C 169.265625 242.132812 168.675781 240.125 174.117188 228.234375 L 159.894531 228.234375 C 163.042969 233.789062 164.921875 240.609375 165.136719 246.472656 Z M 165.136719 246.472656 "/>
<path style=" stroke:none;fill-rule:nonzero;fill:rgb(0%,0%,0%);fill-opacity:1;" d="M 53.601562 246.472656 C 53.617188 248.496094 52.015625 248.535156 52.035156 247.054688 C 51.898438 239.628906 45.617188 235.96875 41.054688 236.839844 C 34.015625 238.175781 31.769531 245.160156 31.839844 249.273438 C 32.046875 261.96875 44.824219 271.332031 56.359375 287.609375 C 64.808594 272.917969 78.753906 261.378906 79.582031 250.023438 C 80.679688 234.925781 61.574219 229.292969 58.84375 246.890625 C 58.667969 248.132812 57.203125 248.691406 57.316406 246.953125 C 57.734375 242.132812 57.144531 240.125 62.582031 228.234375 L 48.363281 228.234375 C 51.511719 233.789062 53.386719 240.609375 53.601562 246.472656 Z M 53.601562 246.472656 "/>
<path style=" stroke:none;fill-rule:nonzero;fill:rgb(0%,0%,0%);fill-opacity:1;" d="M 17.566406 71.511719 C 17.578125 70.640625 16.671875 71.046875 16.550781 71.320312 C 15.386719 73.304688 13.6875 73.769531 12.003906 73.054688 C 10.335938 72.34375 9.398438 70.773438 9.546875 68.53125 C 9.859375 65.09375 12.585938 61.332031 13.902344 59.203125 C 15.15625 57.273438 16.53125 54.980469 17.980469 52.050781 C 19.675781 55.414062 20.539062 56.371094 22.386719 59.441406 C 24.011719 62.144531 26.277344 64.792969 26.453125 68.0625 C 26.453125 70.550781 25.40625 72.894531 23.054688 73.324219 C 21.722656 73.566406 20.476562 72.882812 19.550781 71.285156 C 19.269531 70.878906 18.699219 71.09375 18.710938 71.648438 C 18.875 73.742188 19.664062 75.632812 21.539062 77.859375 L 14.652344 77.859375 C 16.0625 76.285156 17.5 74.15625 17.566406 71.511719 Z M 17.566406 71.511719 "/>
<path style=" stroke:none;fill-rule:nonzero;fill:rgb(0%,0%,0%);fill-opacity:1;" d="M 206.382812 244.257812 C 206.394531 245.128906 205.488281 244.722656 205.367188 244.445312 C 204.203125 242.460938 202.5 242 200.816406 242.714844 C 199.152344 243.425781 198.214844 244.996094 198.363281 247.238281 C 198.675781 250.675781 201.398438 254.4375 202.71875 256.5625 C 203.972656 258.492188 205.347656 260.785156 206.796875 263.71875 C 208.492188 260.355469 209.355469 259.398438 211.199219 256.328125 C 212.828125 253.621094 215.09375 250.972656 215.269531 247.703125 C 215.269531 245.21875 214.222656 242.871094 211.867188 242.445312 C 210.539062 242.203125 209.289062 242.886719 208.363281 244.480469 C 208.082031 244.886719 207.515625 244.675781 207.527344 244.121094 C 207.691406 242.027344 208.480469 240.136719 210.355469 237.90625 L 203.46875 237.90625 C 204.878906 239.484375 206.316406 241.613281 206.382812 244.257812 Z M 206.382812 244.257812 "/>
</g>
</svg>
