<?xml version="1.0" encoding="UTF-8"?>
<svg xmlns="http://www.w3.org/2000/svg" xmlns:xlink="http://www.w3.org/1999/xlink" width="224.22508pt" height="312.80777pt" viewBox="0 0 224.22508 312.80777" version="1.1">
<g id="surface1">
<path style="fill-rule:nonzero;fill:rgb(100%,100%,100%);fill-opacity:1;stroke-width:0.996733;stroke-linecap:butt;stroke-linejoin:miter;stroke:rgb(0%,0%,0%);stroke-opacity:1;stroke-miterlimit:4;" d="M 6268.559736 -2434.99837 L 6470.528486 -2434.99837 C 6476.39958 -2434.99837 6481.157393 -2430.240558 6481.157393 -2424.369464 L 6481.157393 -2133.818683 C 6481.157393 -2127.947589 6476.39958 -2123.189776 6470.528486 -2123.189776 L 6268.559736 -2123.189776 C 6262.688643 -2123.189776 6257.93083 -2127.947589 6257.93083 -2133.818683 L 6257.93083 -2424.369464 C 6257.93083 -2430.240558 6262.688643 -2434.99837 6268.559736 -2434.99837 Z M 6268.559736 -2434.99837 " transform="matrix(1,0,0,1,-6257.43083,2435.49837)"/>
<path style=" stroke:none;fill-rule:nonzero;fill:rgb(0%,0%,0%);fill-opacity:1;" d="M 7.34375 38.046875 C 7.503906 33.671875 9.113281 32.03125 12.285156 29.738281 C 9.753906 27.945312 8.6875 25.304688 8.902344 23.050781 C 9.425781 17.605469 13.714844 14.878906 18.386719 15 C 23.0625 15.117188 27.09375 18.761719 27.40625 22.71875 C 27.679688 26.164062 26.636719 27.824219 24.148438 29.636719 C 27.101562 32.078125 28.992188 33.6875 28.917969 37.996094 C 28.847656 42.304688 25.113281 47.4375 18.605469 47.59375 C 12.09375 47.75 7.183594 42.425781 7.34375 38.046875 Z M 25.515625 38.0625 C 25.792969 34.101562 22.226562 31.429688 18.203125 31.386719 C 14.277344 31.347656 10.769531 34.632812 10.769531 38.191406 C 10.769531 42.011719 15.332031 44.085938 18.28125 44.097656 C 21.863281 44.109375 25.273438 41.476562 25.515625 38.0625 Z M 24.226562 23.890625 C 24.304688 20.550781 21.167969 18.160156 17.9375 18.257812 C 15.0625 18.34375 12.015625 20.496094 12.015625 23.289062 C 12.011719 26.777344 15.476562 28.519531 18.433594 28.585938 C 21.113281 28.644531 24.167969 26.410156 24.226562 23.890625 Z M 24.226562 23.890625 "/>
<path style=" stroke:none;fill-rule:nonzero;fill:rgb(0%,0%,0%);fill-opacity:1;" d="M 216.882812 274.757812 C 216.722656 279.132812 215.113281 280.777344 211.9375 283.070312 C 214.46875 284.863281 215.535156 287.503906 215.320312 289.753906 C 214.800781 295.203125 210.511719 297.929688 205.835938 297.808594 C 201.160156 297.691406 197.132812 294.046875 196.816406 290.085938 C 196.542969 286.644531 197.589844 284.984375 200.074219 283.171875 C 197.121094 280.730469 195.234375 279.121094 195.304688 274.8125 C 195.378906 270.5 199.113281 265.371094 205.621094 265.214844 C 212.128906 265.058594 217.042969 270.382812 216.882812 274.757812 Z M 198.710938 274.746094 C 198.429688 278.707031 202 281.378906 206.023438 281.421875 C 209.945312 281.460938 213.453125 278.175781 213.457031 274.617188 C 213.457031 270.796875 208.890625 268.722656 205.945312 268.710938 C 202.363281 268.695312 198.949219 271.332031 198.710938 274.746094 Z M 200 288.917969 C 199.921875 292.253906 203.054688 294.648438 206.285156 294.550781 C 209.164062 294.464844 212.207031 292.3125 212.210938 289.519531 C 212.210938 286.03125 208.746094 284.289062 205.792969 284.222656 C 203.113281 284.164062 200.058594 286.398438 200 288.917969 Z M 200 288.917969 "/>
<path style=" stroke:none;fill-rule:nonzero;fill:rgb(0%,0%,0%);fill-opacity:1;" d="M 52.96875 68.332031 C 52.984375 66.308594 51.382812 66.269531 51.398438 67.746094 C 51.265625 75.175781 44.984375 78.832031 40.417969 77.964844 C 33.382812 76.628906 31.136719 69.644531 31.203125 65.53125 C 31.410156 52.832031 44.191406 43.472656 55.722656 27.195312 C 64.175781 41.886719 78.121094 53.425781 78.945312 64.78125 C 80.042969 79.878906 60.9375 85.511719 58.210938 67.914062 C 58.035156 66.671875 56.570312 66.113281 56.683594 67.847656 C 57.097656 72.671875 56.507812 74.679688 61.949219 86.570312 L 47.726562 86.570312 C 50.878906 81.011719 52.753906 74.195312 52.96875 68.332031 Z M 52.96875 68.332031 "/>
<path style=" stroke:none;fill-rule:nonzero;fill:rgb(0%,0%,0%);fill-opacity:1;" d="M 164.5 68.332031 C 164.515625 66.308594 162.914062 66.269531 162.933594 67.746094 C 162.796875 75.175781 156.515625 78.832031 151.953125 77.964844 C 144.914062 76.628906 142.667969 69.644531 142.738281 65.53125 C 142.945312 52.832031 155.722656 43.472656 167.257812 27.195312 C 175.707031 41.886719 189.652344 53.425781 190.480469 64.78125 C 191.578125 79.878906 172.472656 85.511719 169.742188 67.914062 C 169.566406 66.671875 168.101562 66.113281 168.21875 67.847656 C 168.632812 72.671875 168.042969 74.679688 173.484375 86.570312 L 159.261719 86.570312 C 162.410156 81.011719 164.285156 74.195312 164.5 68.332031 Z M 164.5 68.332031 "/>
<path style=" stroke:none;fill-rule:nonzero;fill:rgb(0%,0%,0%);fill-opacity:1;" d="M 109.152344 118.457031 C 109.167969 116.429688 107.5625 116.390625 107.582031 117.871094 C 107.449219 125.300781 101.164062 128.957031 96.601562 128.089844 C 89.566406 126.753906 87.320312 119.769531 87.386719 115.65625 C 87.59375 102.957031 100.375 93.597656 111.90625 77.320312 C 120.359375 92.011719 134.304688 103.550781 135.128906 114.90625 C 136.226562 130.003906 117.121094 135.636719 114.394531 118.039062 C 114.21875 116.796875 112.753906 116.238281 112.867188 117.972656 C 113.28125 122.796875 112.691406 124.804688 118.132812 136.691406 L 103.910156 136.691406 C 107.0625 131.136719 108.9375 124.316406 109.152344 118.457031 Z M 109.152344 118.457031 "/>
<path style=" stroke:none;fill-rule:nonzero;fill:rgb(0%,0%,0%);fill-opacity:1;" d="M 52.96875 168.582031 C 52.984375 166.554688 51.382812 166.515625 51.398438 167.996094 C 51.265625 175.425781 44.984375 179.082031 40.417969 178.214844 C 33.382812 176.875 31.136719 169.890625 31.203125 165.777344 C 31.410156 153.082031 44.191406 143.71875 55.722656 127.445312 C 64.175781 142.132812 78.121094 153.671875 78.945312 165.03125 C 80.042969 180.128906 60.9375 185.757812 58.210938 168.164062 C 58.035156 166.917969 56.570312 166.363281 56.683594 168.097656 C 57.097656 172.921875 56.507812 174.929688 61.949219 186.816406 L 47.726562 186.816406 C 50.878906 181.261719 52.753906 174.441406 52.96875 168.582031 Z M 52.96875 168.582031 "/>
<path style=" stroke:none;fill-rule:nonzero;fill:rgb(0%,0%,0%);fill-opacity:1;" d="M 164.5 168.582031 C 164.515625 166.554688 162.914062 166.515625 162.933594 167.996094 C 162.796875 175.425781 156.515625 179.082031 151.953125 178.214844 C 144.914062 176.875 142.667969 169.890625 142.738281 165.777344 C 142.945312 153.082031 155.722656 143.71875 167.257812 127.445312 C 175.707031 142.132812 189.652344 153.671875 190.480469 165.03125 C 191.578125 180.128906 172.472656 185.757812 169.742188 168.164062 C 169.566406 166.917969 168.101562 166.363281 168.21875 168.097656 C 168.632812 172.921875 168.042969 174.929688 173.484375 186.816406 L 159.261719 186.816406 C 162.410156 181.261719 164.285156 174.441406 164.5 168.582031 Z M 164.5 168.582031 "/>
<path style=" stroke:none;fill-rule:nonzero;fill:rgb(0%,0%,0%);fill-opacity:1;" d="M 164.511719 244.304688 C 164.527344 246.328125 162.925781 246.367188 162.941406 244.890625 C 162.808594 237.460938 156.527344 233.804688 151.960938 234.671875 C 144.925781 236.007812 142.679688 242.992188 142.746094 247.105469 C 142.953125 259.800781 155.734375 269.164062 167.269531 285.441406 C 175.71875 270.75 189.664062 259.210938 190.492188 247.855469 C 191.589844 232.757812 172.480469 227.125 169.753906 244.722656 C 169.578125 245.964844 168.113281 246.523438 168.226562 244.789062 C 168.640625 239.964844 168.054688 237.957031 173.492188 226.066406 L 159.273438 226.066406 C 162.421875 231.621094 164.296875 238.441406 164.511719 244.304688 Z M 164.511719 244.304688 "/>
<path style=" stroke:none;fill-rule:nonzero;fill:rgb(0%,0%,0%);fill-opacity:1;" d="M 109.160156 195.003906 C 109.175781 197.03125 107.574219 197.070312 107.59375 195.589844 C 107.457031 188.160156 101.175781 184.503906 96.613281 185.371094 C 89.578125 186.710938 87.332031 193.695312 87.398438 197.808594 C 87.605469 210.503906 100.386719 219.867188 111.917969 236.140625 C 120.367188 221.449219 134.316406 209.910156 135.140625 198.554688 C 136.238281 183.457031 117.132812 177.828125 114.402344 195.421875 C 114.226562 196.667969 112.765625 197.222656 112.878906 195.488281 C 113.292969 190.664062 112.703125 188.65625 118.144531 176.769531 L 103.921875 176.769531 C 107.070312 182.324219 108.949219 189.144531 109.160156 195.003906 Z M 109.160156 195.003906 "/>
<path style=" stroke:none;fill-rule:nonzero;fill:rgb(0%,0%,0%);fill-opacity:1;" d="M 52.980469 244.304688 C 52.992188 246.328125 51.390625 246.367188 51.410156 244.890625 C 51.277344 237.460938 44.992188 233.804688 40.429688 234.671875 C 33.394531 236.007812 31.148438 242.992188 31.214844 247.105469 C 31.421875 259.800781 44.203125 269.164062 55.734375 285.441406 C 64.183594 270.75 78.132812 259.210938 78.957031 247.855469 C 80.054688 232.757812 60.949219 227.125 58.222656 244.722656 C 58.046875 245.964844 56.582031 246.523438 56.695312 244.789062 C 57.109375 239.964844 56.519531 237.957031 61.960938 226.066406 L 47.738281 226.066406 C 50.886719 231.621094 52.765625 238.441406 52.980469 244.304688 Z M 52.980469 244.304688 "/>
<path style=" stroke:none;fill-rule:nonzero;fill:rgb(0%,0%,0%);fill-opacity:1;" d="M 18.324219 72.464844 C 18.335938 71.59375 17.429688 72 17.308594 72.273438 C 16.144531 74.261719 14.441406 74.722656 12.761719 74.007812 C 11.09375 73.296875 10.15625 71.726562 10.304688 69.484375 C 10.617188 66.046875 13.339844 62.285156 14.660156 60.15625 C 15.914062 58.226562 17.289062 55.933594 18.738281 53.003906 C 20.433594 56.367188 21.296875 57.324219 23.144531 60.394531 C 24.769531 63.097656 27.035156 65.746094 27.210938 69.015625 C 27.210938 71.503906 26.164062 73.847656 23.8125 74.277344 C 22.480469 74.519531 21.230469 73.835938 20.308594 72.238281 C 20.023438 71.832031 19.457031 72.046875 19.46875 72.601562 C 19.632812 74.695312 20.421875 76.585938 22.296875 78.8125 L 15.410156 78.8125 C 16.820312 77.238281 18.257812 75.109375 18.324219 72.464844 Z M 18.324219 72.464844 "/>
<path style=" stroke:none;fill-rule:nonzero;fill:rgb(0%,0%,0%);fill-opacity:1;" d="M 207.140625 245.210938 C 207.152344 246.082031 206.246094 245.675781 206.121094 245.398438 C 204.960938 243.414062 203.257812 242.953125 201.574219 243.667969 C 199.90625 244.378906 198.972656 245.949219 199.121094 248.191406 C 199.429688 251.628906 202.15625 255.390625 203.476562 257.515625 C 204.726562 259.445312 206.105469 261.738281 207.554688 264.671875 C 209.25 261.308594 210.113281 260.351562 211.957031 257.28125 C 213.582031 254.574219 215.851562 251.925781 216.027344 248.65625 C 216.027344 246.171875 214.980469 243.824219 212.625 243.398438 C 211.292969 243.15625 210.046875 243.839844 209.121094 245.433594 C 208.839844 245.839844 208.273438 245.628906 208.28125 245.074219 C 208.449219 242.980469 209.238281 241.089844 211.113281 238.859375 L 204.226562 238.859375 C 205.636719 240.4375 207.074219 242.566406 207.140625 245.210938 Z M 207.140625 245.210938 "/>
</g>
</svg>
