<?xml version="1.0" encoding="UTF-8"?>
<svg xmlns="http://www.w3.org/2000/svg" xmlns:xlink="http://www.w3.org/1999/xlink" width="224.22508pt" height="312.80777pt" viewBox="0 0 224.22508 312.80777" version="1.1">
<g id="surface1">
<path style="fill-rule:nonzero;fill:rgb(100%,100%,100%);fill-opacity:1;stroke-width:0.996733;stroke-linecap:butt;stroke-linejoin:miter;stroke:rgb(0%,0%,0%);stroke-opacity:1;stroke-miterlimit:4;" d="M 6491.788256 -2434.99837 L 6693.757006 -2434.99837 C 6699.6281 -2434.99837 6704.385912 -2430.240558 6704.385912 -2424.369464 L 6704.385912 -2133.818683 C 6704.385912 -2127.947589 6699.6281 -2123.189776 6693.757006 -2123.189776 L 6491.788256 -2123.189776 C 6485.917162 -2123.189776 6481.15935 -2127.947589 6481.15935 -2133.818683 L 6481.15935 -2424.369464 C 6481.15935 -2430.240558 6485.917162 -2434.99837 6491.788256 -2434.99837 Z M 6491.788256 -2434.99837 " transform="matrix(1,0,0,1,-6480.65935,2435.49837)"/>
<path style=" stroke:none;fill-rule:nonzero;fill:rgb(0%,0%,0%);fill-opacity:1;" d="M 8.773438 39.847656 L 11.800781 38.90625 C 12.941406 41.902344 15.25 42.785156 17.691406 42.597656 C 22.074219 42.253906 23.527344 37.449219 23.859375 33.195312 C 22.148438 34.96875 19.582031 35.871094 17.398438 35.785156 C 10.414062 35.414062 8.628906 29.929688 8.5625 24.183594 C 8.371094 19.335938 10.410156 15.828125 13.910156 14.21875 C 15.765625 13.402344 20.007812 13.402344 21.871094 14.367188 C 26.152344 16.585938 27.738281 20.417969 27.449219 29.558594 C 27.453125 37.082031 25.824219 45.847656 17.613281 46.035156 C 12.867188 46.679688 9.261719 43.054688 8.773438 39.847656 Z M 20.660156 31.605469 C 22.085938 30.71875 22.890625 29.890625 23.527344 28.644531 C 24.054688 27.621094 24.230469 27.089844 24.082031 24.972656 C 23.695312 19.515625 20.78125 16.425781 16.558594 17.039062 C 14.199219 17.382812 12.914062 18.679688 12.175781 21.085938 C 10.808594 25.535156 12.539062 30.746094 15.78125 31.945312 C 17.246094 32.484375 19.496094 32.328125 20.660156 31.605469 Z M 20.660156 31.605469 "/>
<path style=" stroke:none;fill-rule:nonzero;fill:rgb(0%,0%,0%);fill-opacity:1;" d="M 214.808594 272.957031 L 211.785156 273.902344 C 210.640625 270.90625 208.332031 270.023438 205.890625 270.210938 C 201.507812 270.550781 200.054688 275.359375 199.726562 279.609375 C 201.433594 277.835938 204 276.9375 206.1875 277.023438 C 213.167969 277.394531 214.957031 282.878906 215.019531 288.625 C 215.214844 293.472656 213.171875 296.980469 209.671875 298.589844 C 207.820312 299.40625 203.578125 299.40625 201.714844 298.441406 C 197.429688 296.222656 195.847656 292.390625 196.132812 283.25 C 196.128906 275.726562 197.757812 266.960938 205.972656 266.773438 C 210.71875 266.128906 214.324219 269.753906 214.808594 272.957031 Z M 202.921875 281.203125 C 201.496094 282.089844 200.695312 282.917969 200.054688 284.164062 C 199.53125 285.1875 199.351562 285.71875 199.503906 287.835938 C 199.886719 293.289062 202.800781 296.382812 207.027344 295.769531 C 209.382812 295.425781 210.671875 294.128906 211.410156 291.71875 C 212.777344 287.269531 211.042969 282.0625 207.800781 280.863281 C 206.339844 280.324219 204.085938 280.480469 202.921875 281.203125 Z M 202.921875 281.203125 "/>
<path style=" stroke:none;fill-rule:nonzero;fill:rgb(0%,0%,0%);fill-opacity:1;" d="M 53.257812 69.371094 C 53.273438 67.34375 51.671875 67.308594 51.691406 68.785156 C 51.554688 76.214844 45.273438 79.871094 40.710938 79.003906 C 33.675781 77.667969 31.429688 70.683594 31.496094 66.570312 C 31.703125 53.871094 44.484375 44.511719 56.015625 28.234375 C 64.464844 42.925781 78.414062 54.464844 79.238281 65.820312 C 80.335938 80.917969 61.230469 86.550781 58.5 68.953125 C 58.324219 67.710938 56.863281 67.152344 56.976562 68.886719 C 57.390625 73.710938 56.800781 75.71875 62.242188 87.605469 L 48.019531 87.605469 C 51.167969 82.050781 53.046875 75.230469 53.257812 69.371094 Z M 53.257812 69.371094 "/>
<path style=" stroke:none;fill-rule:nonzero;fill:rgb(0%,0%,0%);fill-opacity:1;" d="M 164.792969 69.371094 C 164.808594 67.34375 163.207031 67.308594 163.222656 68.785156 C 163.089844 76.214844 156.808594 79.871094 152.242188 79.003906 C 145.207031 77.667969 142.960938 70.683594 143.027344 66.570312 C 143.234375 53.871094 156.015625 44.511719 167.546875 28.234375 C 176 42.925781 189.945312 54.464844 190.769531 65.820312 C 191.867188 80.917969 172.761719 86.550781 170.035156 68.953125 C 169.859375 67.710938 168.394531 67.152344 168.507812 68.886719 C 168.921875 73.710938 168.332031 75.71875 173.773438 87.605469 L 159.550781 87.605469 C 162.703125 82.050781 164.578125 75.230469 164.792969 69.371094 Z M 164.792969 69.371094 "/>
<path style=" stroke:none;fill-rule:nonzero;fill:rgb(0%,0%,0%);fill-opacity:1;" d="M 164.792969 134.703125 C 164.808594 132.675781 163.207031 132.636719 163.222656 134.117188 C 163.089844 141.542969 156.808594 145.203125 152.242188 144.335938 C 145.207031 142.996094 142.960938 136.011719 143.027344 131.898438 C 143.234375 119.203125 156.015625 109.839844 167.546875 93.566406 C 176 108.253906 189.945312 119.792969 190.769531 131.152344 C 191.867188 146.25 172.761719 151.878906 170.035156 134.28125 C 169.859375 133.039062 168.394531 132.480469 168.507812 134.21875 C 168.921875 139.039062 168.332031 141.050781 173.773438 152.9375 L 159.550781 152.9375 C 162.703125 147.382812 164.578125 140.5625 164.792969 134.703125 Z M 164.792969 134.703125 "/>
<path style=" stroke:none;fill-rule:nonzero;fill:rgb(0%,0%,0%);fill-opacity:1;" d="M 53.257812 134.703125 C 53.273438 132.675781 51.671875 132.636719 51.691406 134.117188 C 51.554688 141.542969 45.273438 145.203125 40.710938 144.335938 C 33.675781 142.996094 31.429688 136.011719 31.496094 131.898438 C 31.703125 119.203125 44.484375 109.839844 56.015625 93.566406 C 64.464844 108.253906 78.414062 119.792969 79.238281 131.152344 C 80.335938 146.25 61.230469 151.878906 58.5 134.28125 C 58.324219 133.039062 56.863281 132.480469 56.976562 134.21875 C 57.390625 139.039062 56.800781 141.050781 62.242188 152.9375 L 48.019531 152.9375 C 51.167969 147.382812 53.046875 140.5625 53.257812 134.703125 Z M 53.257812 134.703125 "/>
<path style=" stroke:none;fill-rule:nonzero;fill:rgb(0%,0%,0%);fill-opacity:1;" d="M 164.804688 243.828125 C 164.816406 245.855469 163.214844 245.894531 163.234375 244.414062 C 163.101562 236.984375 156.816406 233.328125 152.253906 234.195312 C 145.21875 235.53125 142.972656 242.515625 143.039062 246.628906 C 143.246094 259.328125 156.027344 268.6875 167.558594 284.964844 C 176.007812 270.273438 189.957031 258.734375 190.78125 247.378906 C 191.878906 232.28125 172.773438 226.648438 170.046875 244.246094 C 169.871094 245.488281 168.40625 246.046875 168.519531 244.3125 C 168.933594 239.488281 168.34375 237.480469 173.785156 225.59375 L 159.5625 225.59375 C 162.710938 231.148438 164.589844 237.96875 164.804688 243.828125 Z M 164.804688 243.828125 "/>
<path style=" stroke:none;fill-rule:nonzero;fill:rgb(0%,0%,0%);fill-opacity:1;" d="M 164.804688 178.722656 C 164.816406 180.75 163.214844 180.789062 163.234375 179.308594 C 163.101562 171.878906 156.816406 168.222656 152.253906 169.089844 C 145.21875 170.425781 142.972656 177.410156 143.039062 181.523438 C 143.246094 194.222656 156.027344 203.582031 167.558594 219.859375 C 176.007812 205.167969 189.957031 193.628906 190.78125 182.273438 C 191.878906 167.175781 172.773438 161.542969 170.046875 179.140625 C 169.871094 180.382812 168.40625 180.941406 168.519531 179.207031 C 168.933594 174.382812 168.34375 172.375 173.785156 160.488281 L 159.5625 160.488281 C 162.710938 166.042969 164.589844 172.863281 164.804688 178.722656 Z M 164.804688 178.722656 "/>
<path style=" stroke:none;fill-rule:nonzero;fill:rgb(0%,0%,0%);fill-opacity:1;" d="M 109.714844 144.964844 C 109.730469 146.988281 108.128906 147.027344 108.144531 145.550781 C 108.011719 138.121094 101.730469 134.460938 97.164062 135.332031 C 90.128906 136.667969 87.882812 143.652344 87.949219 147.765625 C 88.15625 160.460938 100.9375 169.824219 112.472656 186.101562 C 120.921875 171.410156 134.867188 159.871094 135.695312 148.515625 C 136.792969 133.417969 117.683594 127.785156 114.957031 145.382812 C 114.78125 146.625 113.316406 147.183594 113.429688 145.445312 C 113.84375 140.625 113.253906 138.617188 118.695312 126.726562 L 104.476562 126.726562 C 107.625 132.28125 109.5 139.101562 109.714844 144.964844 Z M 109.714844 144.964844 "/>
<path style=" stroke:none;fill-rule:nonzero;fill:rgb(0%,0%,0%);fill-opacity:1;" d="M 53.269531 178.722656 C 53.285156 180.75 51.683594 180.789062 51.703125 179.308594 C 51.566406 171.878906 45.285156 168.222656 40.722656 169.089844 C 33.683594 170.425781 31.4375 177.410156 31.507812 181.523438 C 31.714844 194.222656 44.492188 203.582031 56.027344 219.859375 C 64.476562 205.167969 78.421875 193.628906 79.25 182.273438 C 80.347656 167.175781 61.242188 161.542969 58.511719 179.140625 C 58.335938 180.382812 56.871094 180.941406 56.988281 179.207031 C 57.402344 174.382812 56.8125 172.375 62.253906 160.488281 L 48.03125 160.488281 C 51.179688 166.042969 53.054688 172.863281 53.269531 178.722656 Z M 53.269531 178.722656 "/>
<path style=" stroke:none;fill-rule:nonzero;fill:rgb(0%,0%,0%);fill-opacity:1;" d="M 53.269531 243.828125 C 53.285156 245.855469 51.683594 245.894531 51.703125 244.414062 C 51.566406 236.984375 45.285156 233.328125 40.722656 234.195312 C 33.683594 235.53125 31.4375 242.515625 31.507812 246.628906 C 31.714844 259.328125 44.492188 268.6875 56.027344 284.964844 C 64.476562 270.273438 78.421875 258.734375 79.25 247.378906 C 80.347656 232.28125 61.242188 226.648438 58.511719 244.246094 C 58.335938 245.488281 56.871094 246.046875 56.988281 244.3125 C 57.402344 239.488281 56.8125 237.480469 62.253906 225.59375 L 48.03125 225.59375 C 51.179688 231.148438 53.054688 237.96875 53.269531 243.828125 Z M 53.269531 243.828125 "/>
<path style=" stroke:none;fill-rule:nonzero;fill:rgb(0%,0%,0%);fill-opacity:1;" d="M 17.328125 67.878906 C 17.335938 67.007812 16.433594 67.414062 16.308594 67.6875 C 15.144531 69.675781 13.445312 70.136719 11.761719 69.421875 C 10.09375 68.710938 9.15625 67.140625 9.308594 64.898438 C 9.617188 61.460938 12.34375 57.699219 13.664062 55.574219 C 14.914062 53.644531 16.289062 51.351562 17.738281 48.417969 C 19.4375 51.78125 20.296875 52.738281 22.144531 55.808594 C 23.769531 58.515625 26.035156 61.164062 26.210938 64.433594 C 26.210938 66.917969 25.164062 69.265625 22.8125 69.691406 C 21.480469 69.933594 20.234375 69.25 19.308594 67.65625 C 19.027344 67.25 18.460938 67.460938 18.46875 68.015625 C 18.632812 70.109375 19.425781 72 21.296875 74.226562 L 14.410156 74.226562 C 15.820312 72.652344 17.261719 70.523438 17.328125 67.878906 Z M 17.328125 67.878906 "/>
<path style=" stroke:none;fill-rule:nonzero;fill:rgb(0%,0%,0%);fill-opacity:1;" d="M 206.140625 240.625 C 206.152344 241.496094 205.246094 241.089844 205.125 240.816406 C 203.960938 238.828125 202.257812 238.367188 200.578125 239.082031 C 198.910156 239.792969 197.972656 241.363281 198.121094 243.605469 C 198.433594 247.042969 201.15625 250.804688 202.476562 252.933594 C 203.730469 254.863281 205.105469 257.152344 206.554688 260.085938 C 208.25 256.722656 209.113281 255.765625 210.960938 252.695312 C 212.585938 249.988281 214.851562 247.339844 215.027344 244.070312 C 215.027344 241.585938 213.980469 239.242188 211.628906 238.8125 C 210.296875 238.570312 209.050781 239.253906 208.125 240.847656 C 207.84375 241.257812 207.273438 241.042969 207.285156 240.488281 C 207.449219 238.394531 208.238281 236.503906 210.113281 234.277344 L 203.226562 234.277344 C 204.636719 235.851562 206.074219 237.980469 206.140625 240.625 Z M 206.140625 240.625 "/>
</g>
</svg>
