<?xml version="1.0" encoding="UTF-8"?>
<svg xmlns="http://www.w3.org/2000/svg" xmlns:xlink="http://www.w3.org/1999/xlink" width="224.22508pt" height="312.80777pt" viewBox="0 0 224.22508 312.80777" version="1.1">
<g id="surface1">
<path style="fill-rule:nonzero;fill:rgb(100%,100%,100%);fill-opacity:1;stroke-width:0.996733;stroke-linecap:butt;stroke-linejoin:miter;stroke:rgb(0%,0%,0%);stroke-opacity:1;stroke-miterlimit:4;" d="M 6045.331222 -2746.809399 L 6247.299972 -2746.809399 C 6253.171066 -2746.809399 6257.928878 -2742.051587 6257.928878 -2736.180493 L 6257.928878 -2445.629712 C 6257.928878 -2439.758618 6253.171066 -2435.000805 6247.299972 -2435.000805 L 6045.331222 -2435.000805 C 6039.460128 -2435.000805 6034.702316 -2439.758618 6034.702316 -2445.629712 L 6034.702316 -2736.180493 C 6034.702316 -2742.051587 6039.460128 -2746.809399 6045.331222 -2746.809399 Z M 6045.331222 -2746.809399 " transform="matrix(1,0,0,1,-6034.202316,2747.309399)"/>
<path style=" stroke:none;fill-rule:nonzero;fill:rgb(0%,0%,0%);fill-opacity:1;" d="M 7.734375 46.5625 L 7.734375 43.828125 L 10.394531 43.828125 L 16.058594 14.554688 L 19.28125 14.554688 L 25.523438 43.828125 L 27.671875 43.828125 L 27.671875 46.5625 L 20.355469 46.5625 L 20.355469 43.828125 L 22.332031 43.828125 L 21.542969 39.339844 L 14.15625 39.339844 L 13.585938 43.828125 L 15.566406 43.828125 L 15.566406 46.5625 Z M 20.910156 36.148438 L 17.703125 20.476562 L 14.695312 36.148438 Z M 20.910156 36.148438 "/>
<path style=" stroke:none;fill-rule:nonzero;fill:rgb(0%,0%,0%);fill-opacity:1;" d="M 216.492188 266.242188 L 216.492188 268.980469 L 213.832031 268.980469 L 208.167969 298.253906 L 204.941406 298.253906 L 198.699219 268.980469 L 196.550781 268.980469 L 196.550781 266.242188 L 203.871094 266.242188 L 203.871094 268.980469 L 201.894531 268.980469 L 202.679688 273.464844 L 210.066406 273.464844 L 210.636719 268.980469 L 208.660156 268.980469 L 208.660156 266.242188 Z M 203.3125 276.660156 L 206.523438 292.328125 L 209.527344 276.660156 Z M 203.3125 276.660156 "/>
<path style=" stroke:none;fill-rule:nonzero;fill:rgb(0%,0%,0%);fill-opacity:1;" d="M 110.824219 167.75 C 110.839844 165.722656 109.238281 165.6875 109.253906 167.164062 C 109.121094 174.59375 102.839844 178.25 98.273438 177.382812 C 91.238281 176.046875 88.992188 169.0625 89.058594 164.949219 C 89.265625 152.25 102.046875 142.890625 113.582031 126.613281 C 122.03125 141.304688 135.976562 152.84375 136.804688 164.199219 C 137.902344 179.296875 118.792969 184.929688 116.066406 167.332031 C 115.890625 166.089844 114.425781 165.53125 114.539062 167.265625 C 114.953125 172.089844 114.367188 174.097656 119.804688 185.984375 L 105.585938 185.984375 C 108.734375 180.429688 110.609375 173.609375 110.824219 167.75 Z M 110.824219 167.75 "/>
<path style=" stroke:none;fill-rule:nonzero;fill:rgb(0%,0%,0%);fill-opacity:1;" d="M 18.023438 70.308594 C 18.03125 69.4375 17.125 69.84375 17.003906 70.117188 C 15.839844 72.105469 14.140625 72.566406 12.457031 71.851562 C 10.789062 71.140625 9.851562 69.570312 10.003906 67.328125 C 10.3125 63.890625 13.039062 60.128906 14.355469 58 C 15.609375 56.070312 16.984375 53.78125 18.433594 50.847656 C 20.132812 54.210938 20.992188 55.167969 22.839844 58.238281 C 24.464844 60.945312 26.730469 63.59375 26.90625 66.863281 C 26.90625 69.347656 25.859375 71.695312 23.507812 72.121094 C 22.175781 72.363281 20.929688 71.679688 20.003906 70.085938 C 19.722656 69.675781 19.15625 69.890625 19.164062 70.445312 C 19.328125 72.539062 20.121094 74.429688 21.992188 76.65625 L 15.105469 76.65625 C 16.515625 75.082031 17.953125 72.953125 18.023438 70.308594 Z M 18.023438 70.308594 "/>
<path style=" stroke:none;fill-rule:nonzero;fill:rgb(0%,0%,0%);fill-opacity:1;" d="M 206.402344 242.882812 C 206.410156 243.753906 205.507812 243.347656 205.382812 243.074219 C 204.21875 241.089844 202.519531 240.625 200.835938 241.34375 C 199.167969 242.050781 198.230469 243.621094 198.382812 245.863281 C 198.691406 249.300781 201.417969 253.0625 202.738281 255.191406 C 203.988281 257.121094 205.363281 259.414062 206.8125 262.34375 C 208.511719 258.980469 209.371094 258.023438 211.21875 254.953125 C 212.84375 252.25 215.109375 249.601562 215.285156 246.332031 C 215.285156 243.847656 214.242188 241.5 211.886719 241.070312 C 210.554688 240.828125 209.308594 241.511719 208.382812 243.109375 C 208.101562 243.515625 207.535156 243.304688 207.542969 242.746094 C 207.707031 240.652344 208.5 238.761719 210.375 236.535156 L 203.484375 236.535156 C 204.894531 238.109375 206.335938 240.238281 206.402344 242.882812 Z M 206.402344 242.882812 "/>
</g>
</svg>
