<?xml version="1.0" encoding="UTF-8" standalone="no"?>
<!-- Generator: Adobe Illustrator 9.0, SVG Export Plug-In  -->

<!-- This set of SVG files is a complete cards game with figures, numbers	-->

<!--    and backs of cards completely designed in SVG.				-->

<!--    									-->

<!--    Copyright (C) 2004 David Bellot						-->

<!--										-->

<!--    This library is free software; you can redistribute it and/or		-->

<!--    modify it under the terms of the GNU Lesser General Public		-->

<!--    License as published by the Free Software Foundation; either		-->

<!--    version 2 of the License, or (at your option) any later version		-->

<!--										-->

<!--    This library is distributed in the hope that it will be useful,		-->

<!--    but WITHOUT ANY WARRANTY; without even the implied warranty of		-->

<!--    MERCHANTABILITY or FITNESS FOR A PARTICULAR PURPOSE.  See the GNU	-->

<!--    Lesser General Public License for more details.				-->

<!--										-->

<!--    You should have received a copy of the GNU Lesser General Public	-->

<!--    License along with this library; if not, write to the Free Software	-->

<!--    Foundation, Inc., 59 Temple Place, Suite 330, Boston, MA 02111-1307  USA-->

<!--										-->

<!--    Contact the author David Bellot at bellot@stat.berkeley.edu or 		-->

<!--    david.bellot@free.fr or yimyom@users.sourceforge.net			-->

<svg
   xmlns:dc="http://purl.org/dc/elements/1.1/"
   xmlns:cc="http://creativecommons.org/ns#"
   xmlns:rdf="http://www.w3.org/1999/02/22-rdf-syntax-ns#"
   xmlns:svg="http://www.w3.org/2000/svg"
   xmlns="http://www.w3.org/2000/svg"
   xmlns:sodipodi="http://sodipodi.sourceforge.net/DTD/sodipodi-0.dtd"
   xmlns:inkscape="http://www.inkscape.org/namespaces/inkscape"
   width="208"
   height="303"
   viewBox="0 0 167.08008 242.66699"
   xml:space="preserve"
   id="svg2"
   sodipodi:version="0.32"
   inkscape:version="0.47 r22583"
   sodipodi:docname="Card_back_red_stripe_right.svg"
   inkscape:output_extension="org.inkscape.output.svg.inkscape"
   version="1.0"><metadata
   id="metadata58"><rdf:RDF><cc:Work
       rdf:about=""><dc:format>image/svg+xml</dc:format><dc:type
         rdf:resource="http://purl.org/dc/dcmitype/StillImage" /><dc:title></dc:title></cc:Work></rdf:RDF></metadata><defs
   id="defs56"><inkscape:perspective
     sodipodi:type="inkscape:persp3d"
     inkscape:vp_x="0 : 151.5 : 1"
     inkscape:vp_y="0 : 1000 : 0"
     inkscape:vp_z="208 : 151.5 : 1"
     inkscape:persp3d-origin="104 : 101 : 1"
     id="perspective4442" /></defs><sodipodi:namedview
   inkscape:window-height="573"
   inkscape:window-width="791"
   inkscape:pageshadow="2"
   inkscape:pageopacity="0.0"
   guidetolerance="10.0"
   gridtolerance="10.0"
   objecttolerance="10.0"
   borderopacity="1.0"
   bordercolor="#666666"
   pagecolor="#ffffff"
   id="base"
   width="208px"
   height="303px"
   inkscape:showpageshadow="false"
   inkscape:zoom="0.87883155"
   inkscape:cx="104.42505"
   inkscape:cy="151.66687"
   inkscape:window-x="279"
   inkscape:window-y="167"
   inkscape:current-layer="svg2"
   showgrid="false"
   inkscape:window-maximized="0" />
	<g
   id="Layer_x0020_1"
   style="fill:#190c80;fill-rule:nonzero;stroke:#190c80;stroke-width:0.10381997;stroke-miterlimit:4"
   transform="matrix(-1,0,0,1.0029884,167.08008,-0.362593)">
		<path
   style="fill:#ffffff;stroke:#000000;stroke-width:0.49925458"
   d="m 166.83008,235.54785 c 0,3.77539 -3.08594,6.86914 -6.87012,6.86914 l -152.8486319,0 C 3.3364258,242.41699 0.25,239.32324 0.25,235.54785 L 0.25,7.1201172 C 0.25,3.3452148 3.3364258,0.25 7.1113281,0.25 l 152.8486319,0 c 3.78418,0 6.87012,3.0952148 6.87012,6.8701172 l 0,228.4277328 z"
   id="path5" />
		<path
   style="fill-rule:evenodd;stroke-width:0.10381997;stroke-miterlimit:10"
   d="m 137.48242,0.4995117 4.15039,0 24.90723,24.9985353 0,4.166016 -29.05762,-29.1645513 z"
   id="path7" />
		<path
   style="fill-rule:evenodd;stroke-width:0.10381997;stroke-miterlimit:10"
   d="m 155.12402,0.4995117 4.15137,0 7.26465,7.2915039 0,4.1660154 -11.41602,-11.4575193 z"
   id="path9" />
		<path
   style="fill-rule:evenodd;stroke-width:0.10381997;stroke-miterlimit:10"
   d="m 120.87695,0.4995117 4.15137,0 41.51172,41.6640623 0,4.166016 -45.66309,-45.8300783 z"
   id="path11" />
		<path
   style="fill-rule:evenodd;stroke-width:0.10381997;stroke-miterlimit:10"
   d="m 87.640625,0.4716797 4.150391,0 74.749024,75.0229493 0.16699,4.208008 L 87.640625,0.4716797 z"
   id="path13" />
		<path
   style="fill-rule:evenodd;stroke-width:0.10381997;stroke-miterlimit:10"
   d="m 71.021484,0.4580078 4.150879,0 91.367677,91.7021482 -0.042,4.09668 L 71.021484,0.4580078 z"
   id="path15" />
		<path
   style="fill-rule:evenodd;stroke-width:0.10381997;stroke-miterlimit:10"
   d="m 54.416504,0.4580078 4.151367,0 107.972169,108.3676722 0.0693,4.09668 L 54.416504,0.4580078 z"
   id="path17" />
		<path
   style="fill-rule:evenodd;stroke-width:0.10381997;stroke-miterlimit:10"
   d="m 37.812012,0.4580078 4.151367,0 124.576661,125.0332022 0,4.16602 L 37.812012,0.4580078 z"
   id="path19" />
		<path
   style="fill-rule:evenodd;stroke-width:0.10381997;stroke-miterlimit:10"
   d="m 21.20752,0.4580078 4.150878,0 141.181642,141.6982422 0,4.16699 L 21.20752,0.4580078 z"
   id="path21" />
		<path
   style="fill-rule:evenodd;stroke-width:0.10381997;stroke-miterlimit:10"
   d="M 5.612793,0.8881836 8.8642578,0.4301758 166.54004,158.82227 l 0,4.16699 L 4.9208984,0.9580078"
   id="path23" />
		<path
   style="fill-rule:evenodd;stroke-width:0.10381997;stroke-miterlimit:10"
   d="m 104.27246,0.4995117 4.15137,0 58.11621,58.3295903 0,4.166015 -62.26758,-62.4956053 z"
   id="path25" />
		<path
   style="fill-rule:evenodd;stroke-width:0.10381997;stroke-miterlimit:10"
   d="m 0.4931641,12.998535 0,-4.1665037 L 166.54004,175.4873 l 0,4.167 L 4.644043,17.165039"
   id="path27" />
		<path
   style="fill-rule:evenodd;stroke-width:0.10381997;stroke-miterlimit:10"
   d="m 0.4931641,29.664063 0,-4.166016 166.0468759,166.655273 0,4.16602 L 4.644043,33.830566"
   id="path29" />
		<path
   style="fill-rule:evenodd;stroke-width:0.10381997;stroke-miterlimit:10"
   d="m 0.4931641,46.32959 0,-4.166016 166.0468759,166.655766 0,4.16601 L 4.644043,50.496094"
   id="path31" />
		<path
   style="fill-rule:evenodd;stroke-width:0.10381997;stroke-miterlimit:10"
   d="m 0.4931641,62.995117 0,-4.166015 166.0468759,166.655278 0,4.16699 L 4.644043,67.161621"
   id="path33" />
		<path
   style="fill-rule:evenodd;stroke-width:0.10381997;stroke-miterlimit:10"
   d="m 0.4931641,96.32666 0,-4.166504 149.4423859,149.989254 -4.15137,0 L 4.644043,100.49268"
   id="path35" />
		<path
   style="fill-rule:evenodd;stroke-width:0.10381997;stroke-miterlimit:10"
   d="m 0.4931641,112.99219 0,-4.16651 132.8369159,133.32373 -4.15039,0 L 4.644043,117.1582"
   id="path37" />
		<path
   style="fill-rule:evenodd;stroke-width:0.10381997;stroke-miterlimit:10"
   d="m 0.4931641,79.660645 0,-4.166016 163.9716759,164.572751 -1.03906,1.04102 -2.07422,0 L 4.644043,83.827148"
   id="path39" />
		<path
   style="fill-rule:evenodd;stroke-width:0.10381997;stroke-miterlimit:10"
   d="m 0.4931641,129.65723 0,-4.16602 116.2333959,116.6582 -4.15234,0 L 0.4931641,129.65723 z"
   id="path41" />
		<path
   style="fill-rule:evenodd;stroke-width:0.10381997;stroke-miterlimit:10"
   d="m 0.4931641,146.32324 0,-4.16699 99.6279259,99.99316 -4.151363,0 -95.4765629,-95.82617 z"
   id="path43" />
		<path
   style="fill-rule:evenodd;stroke-width:0.10381997;stroke-miterlimit:10"
   d="m 0.4931641,162.98926 0,-4.16699 83.0234379,83.32714 -4.150879,0 -78.8725589,-79.16015 z"
   id="path45" />
		<path
   style="fill-rule:evenodd;stroke-width:0.10381997;stroke-miterlimit:10"
   d="m 0.4931641,179.6543 0,-4.167 66.4184569,66.66211 -4.150879,0 L 0.4931641,179.6543 z"
   id="path47" />
		<path
   style="fill-rule:evenodd;stroke-width:0.10381997;stroke-miterlimit:10"
   d="m 0.4931641,196.31934 0,-4.16602 49.8139649,49.99609 -4.150879,0 -45.6630859,-45.83007 z"
   id="path49" />
		<path
   style="fill-rule:evenodd;stroke-width:0.10381997;stroke-miterlimit:10"
   d="m 0.4931641,212.98535 0,-4.16601 33.2094729,33.33007 -4.151367,0 -29.0581059,-29.16406 z"
   id="path51" />
		<path
   style="fill-rule:evenodd;stroke-width:0.10381997;stroke-miterlimit:10"
   d="m 0.4931641,229.65137 0,-4.16699 16.6044919,16.66503 -4.150879,0 -12.4536129,-12.49804 z"
   id="path53" />
	</g>
</svg>