<?xml version="1.0" encoding="utf-8"?>
<!-- Generator: Adobe Illustrator 15.0.0, SVG Export Plug-In  -->
<!DOCTYPE svg PUBLIC "-//W3C//DTD SVG 1.1//EN" "http://www.w3.org/Graphics/SVG/1.1/DTD/svg11.dtd" [
	<!ENTITY ns_flows "http://ns.adobe.com/Flows/1.0/">
]>
<svg version="1.1"
	 xmlns="http://www.w3.org/2000/svg" xmlns:xlink="http://www.w3.org/1999/xlink" xmlns:a="http://ns.adobe.com/AdobeSVGViewerExtensions/3.0/"
	 x="0px" y="0px" width="235px" height="323px" viewBox="-3.354 -2.163 235 323" enable-background="new -3.354 -2.163 235 323"
	 xml:space="preserve">
<defs>
</defs>
<g>
	<path fill="#8CC63F" d="M215.597,0h-11v3h11V0L215.597,0z M193.597,0h-11v3h11V0L193.597,0z M171.597,0h-11v3h11V0L171.597,0z
		 M149.597,0h-11v3h11V0L149.597,0z M127.597,0h-11v3h11V0L127.597,0z M105.597,0h-11v3h11V0L105.597,0z M83.597,0h-11v3h11V0
		L83.597,0z M61.597,0h-11v3h11V0L61.597,0z M39.597,0h-11v3h11V0L39.597,0z M17.597,0h-3.968c-3.065,0-5.961,0.994-8.374,2.875
		l1.844,2.366c0.113-0.088,0.227-0.174,0.343-0.257l0,0C7.508,4.938,7.574,4.892,7.64,4.846l0,0c0.022-0.015,0.044-0.03,0.066-0.045
		c0,0,0.001,0,0.001,0c0.004-0.002,0.007-0.005,0.011-0.007l0,0c0.018-0.012,0.037-0.024,0.055-0.037c0,0,0.001,0,0.002-0.001
		c0.003-0.002,0.007-0.004,0.01-0.006c0,0,0.001-0.001,0.002-0.001C7.79,4.746,7.792,4.744,7.795,4.742
		c0.001,0,0.002-0.001,0.002-0.001c0.014-0.009,0.028-0.018,0.042-0.027c0.001,0,0.001-0.001,0.002-0.002
		c0.003-0.002,0.006-0.004,0.009-0.006c0.001,0,0.002-0.001,0.002-0.001C7.857,4.702,7.86,4.7,7.863,4.698
		c0.001,0,0.002-0.001,0.002-0.001c0.014-0.009,0.028-0.018,0.042-0.027c0,0,0.001-0.001,0.002-0.001
		c0.002-0.002,0.006-0.004,0.009-0.006c0.001,0,0.002-0.001,0.003-0.002C7.924,4.659,7.927,4.657,7.93,4.655
		c0.001-0.001,0.002-0.001,0.004-0.002C7.937,4.65,7.94,4.649,7.942,4.647c0,0,0.001,0,0.002-0.001
		c0.01-0.006,0.02-0.013,0.029-0.019c0.001-0.001,0.003-0.002,0.004-0.003C7.98,4.623,7.983,4.621,7.986,4.62
		C7.987,4.619,7.989,4.618,7.99,4.617c0.002-0.002,0.005-0.004,0.008-0.005C8,4.611,8,4.61,8.002,4.609
		c0.003-0.001,0.006-0.003,0.009-0.005c0.001,0,0.001-0.001,0.002-0.001c0.01-0.006,0.02-0.012,0.029-0.018
		c0.001-0.001,0.002-0.001,0.003-0.002c0.002-0.001,0.005-0.003,0.008-0.005c0.001-0.001,0.003-0.002,0.004-0.002
		C8.061,4.573,8.063,4.571,8.066,4.57c0.001-0.001,0.003-0.002,0.004-0.003c0.002-0.001,0.005-0.003,0.008-0.005
		C8.08,4.561,8.081,4.561,8.082,4.56c0.01-0.006,0.019-0.012,0.029-0.018C8.112,4.542,8.113,4.541,8.115,4.54
		C8.117,4.539,8.12,4.537,8.123,4.535c0.001-0.001,0.003-0.002,0.004-0.002c0.002-0.002,0.005-0.003,0.008-0.005
		C8.136,4.527,8.138,4.526,8.14,4.525c0.002-0.001,0.005-0.003,0.008-0.004C8.149,4.52,8.151,4.518,8.152,4.517
		C8.155,4.516,8.157,4.515,8.16,4.513C8.161,4.512,8.163,4.511,8.165,4.51c0.004-0.003,0.009-0.006,0.014-0.008
		C8.181,4.5,8.182,4.5,8.184,4.499c0.002-0.001,0.005-0.003,0.007-0.004s0.003-0.002,0.005-0.003
		c0.002-0.002,0.005-0.003,0.007-0.005c0.002-0.001,0.003-0.002,0.005-0.003C8.211,4.482,8.214,4.48,8.216,4.479
		C8.218,4.478,8.22,4.477,8.221,4.476c0.002-0.001,0.005-0.003,0.008-0.004C8.23,4.471,8.231,4.47,8.232,4.47
		c0.005-0.003,0.01-0.006,0.015-0.009c0.002-0.001,0.004-0.002,0.006-0.003C8.255,4.456,8.258,4.455,8.26,4.453
		C8.262,4.452,8.264,4.451,8.266,4.45c0.002-0.001,0.005-0.002,0.007-0.004c0.001-0.001,0.003-0.002,0.005-0.003
		C8.281,4.441,8.283,4.44,8.286,4.438C8.288,4.438,8.29,4.436,8.292,4.435c0.002-0.001,0.004-0.002,0.006-0.004
		s0.004-0.002,0.006-0.004C8.309,4.425,8.313,4.422,8.317,4.42c0.002-0.001,0.004-0.002,0.006-0.003
		c0.002-0.001,0.004-0.003,0.006-0.004C8.331,4.412,8.333,4.411,8.335,4.41C8.337,4.408,8.34,4.407,8.342,4.406
		c0.002-0.001,0.004-0.002,0.006-0.004c0.002-0.001,0.004-0.002,0.007-0.003c0.002-0.001,0.004-0.002,0.006-0.004
		c0.002-0.001,0.005-0.002,0.007-0.003C8.37,4.39,8.372,4.389,8.374,4.387c0.003-0.002,0.006-0.003,0.01-0.005
		C8.387,4.38,8.39,4.378,8.393,4.377c0.002-0.001,0.004-0.002,0.006-0.004C8.401,4.372,8.403,4.371,8.405,4.37
		C8.408,4.368,8.41,4.367,8.412,4.366c0.002-0.001,0.004-0.002,0.007-0.003C8.421,4.361,8.422,4.36,8.425,4.359
		C8.427,4.357,8.43,4.356,8.432,4.354c0.002-0.001,0.004-0.002,0.006-0.003C8.44,4.35,8.442,4.349,8.445,4.347
		c0.001-0.001,0.003-0.002,0.005-0.003c0.004-0.002,0.008-0.005,0.012-0.007c0.001-0.001,0.004-0.002,0.005-0.003
		C8.471,4.333,8.473,4.332,8.476,4.33c0.002-0.001,0.004-0.002,0.006-0.003c0.002-0.001,0.005-0.002,0.007-0.004
		c0.002-0.001,0.004-0.002,0.006-0.003C8.497,4.318,8.5,4.317,8.502,4.316c0.002-0.001,0.004-0.002,0.006-0.003
		C8.511,4.311,8.513,4.31,8.516,4.308C8.518,4.307,8.52,4.306,8.521,4.305c0.004-0.002,0.008-0.004,0.013-0.007
		c0.001,0,0.002-0.001,0.003-0.002C8.54,4.294,8.543,4.293,8.546,4.291C8.548,4.29,8.55,4.289,8.552,4.288
		c0.002-0.001,0.005-0.002,0.007-0.004c0.002-0.001,0.005-0.002,0.007-0.003C8.568,4.279,8.57,4.278,8.573,4.277
		c0.002-0.001,0.004-0.002,0.006-0.003C8.581,4.272,8.583,4.271,8.586,4.27C8.588,4.269,8.59,4.268,8.592,4.267
		c0.003-0.002,0.007-0.004,0.011-0.006C8.604,4.26,8.606,4.259,8.608,4.258c0.003-0.002,0.006-0.003,0.009-0.005
		C8.619,4.252,8.621,4.251,8.623,4.25c0.002-0.001,0.005-0.003,0.008-0.004c0.001-0.001,0.003-0.002,0.005-0.003
		C8.639,4.242,8.641,4.24,8.644,4.239C8.646,4.238,8.648,4.237,8.65,4.235c0.002-0.001,0.004-0.002,0.007-0.003
		c0.002-0.001,0.004-0.002,0.006-0.003C8.666,4.228,8.667,4.226,8.67,4.225C8.673,4.224,8.676,4.222,8.679,4.22
		c0.003-0.002,0.006-0.003,0.009-0.005C8.69,4.214,8.692,4.213,8.694,4.212c0.002-0.001,0.005-0.003,0.007-0.004
		c0.002-0.001,0.004-0.002,0.006-0.003C8.71,4.204,8.713,4.203,8.715,4.201C8.717,4.2,8.719,4.199,8.721,4.198
		c0.002-0.001,0.005-0.002,0.008-0.004C8.73,4.193,8.732,4.192,8.734,4.191C8.737,4.19,8.74,4.188,8.742,4.187
		c0.001-0.001,0.003-0.002,0.005-0.002C8.751,4.182,8.756,4.18,8.76,4.178c0.002-0.001,0.004-0.002,0.006-0.003
		c0.002-0.001,0.005-0.002,0.007-0.004C8.775,4.17,8.777,4.169,8.779,4.168c0.002-0.001,0.005-0.002,0.007-0.003
		c0.002-0.001,0.004-0.002,0.007-0.003C8.795,4.16,8.798,4.159,8.8,4.157c0.002-0.001,0.004-0.002,0.006-0.003
		C8.809,4.153,8.812,4.151,8.814,4.15c0.001,0,0.003-0.001,0.004-0.002c0.004-0.002,0.009-0.004,0.013-0.006
		C8.833,4.14,8.835,4.14,8.837,4.139C8.84,4.137,8.842,4.136,8.845,4.134c0.002-0.001,0.004-0.002,0.006-0.003
		C8.854,4.13,8.856,4.129,8.859,4.127C8.86,4.126,8.862,4.125,8.864,4.125C8.867,4.124,8.87,4.122,8.873,4.121
		C8.874,4.12,8.876,4.119,8.878,4.118c0.003-0.001,0.005-0.003,0.008-0.004C8.888,4.113,8.89,4.112,8.891,4.111
		C8.896,4.109,8.9,4.107,8.904,4.105c0.001-0.001,0.002-0.001,0.003-0.002C8.911,4.102,8.915,4.1,8.918,4.098
		c0.001-0.001,0.003-0.001,0.005-0.002c0.002-0.001,0.005-0.003,0.008-0.004C8.933,4.09,8.935,4.09,8.937,4.089
		c0.002-0.001,0.005-0.002,0.007-0.004C8.947,4.084,8.948,4.083,8.95,4.082C8.953,4.081,8.956,4.08,8.958,4.078
		C8.96,4.077,8.962,4.076,8.964,4.076c0.003-0.002,0.006-0.003,0.01-0.005C8.976,4.069,8.979,4.068,8.98,4.067
		c0.003-0.001,0.006-0.003,0.01-0.005c0.001,0,0.004-0.002,0.005-0.002c0.003-0.001,0.005-0.002,0.008-0.004
		C9.005,4.055,9.007,4.054,9.01,4.053S9.014,4.051,9.017,4.05s0.005-0.002,0.007-0.003S9.028,4.044,9.03,4.043
		C9.032,4.042,9.035,4.041,9.037,4.04c0.002-0.001,0.005-0.002,0.008-0.003C9.047,4.035,9.05,4.034,9.053,4.032
		c0.003-0.001,0.007-0.003,0.01-0.005c0.001,0,0.003-0.001,0.005-0.002c0.002-0.001,0.005-0.003,0.008-0.004S9.08,4.02,9.083,4.019
		C9.085,4.017,9.087,4.016,9.09,4.015c0.002-0.001,0.003-0.002,0.005-0.002c0.003-0.001,0.005-0.003,0.008-0.004
		c0.002-0.001,0.003-0.002,0.005-0.002c0.003-0.002,0.007-0.003,0.01-0.005C9.121,4,9.122,4,9.123,4
		c0.004-0.002,0.009-0.004,0.013-0.006C9.138,3.992,9.14,3.992,9.141,3.991C9.144,3.989,9.147,3.988,9.15,3.987
		c0.002-0.001,0.003-0.001,0.005-0.002C9.158,3.983,9.161,3.981,9.164,3.98c0.002-0.001,0.003-0.002,0.005-0.002
		c0.003-0.001,0.006-0.003,0.009-0.004c0.001-0.001,0.003-0.001,0.005-0.002C9.186,3.97,9.189,3.969,9.192,3.967
		c0.001-0.001,0.003-0.001,0.004-0.002C9.201,3.963,9.206,3.961,9.21,3.959c0,0,0.001,0,0.002-0.001
		c0.004-0.002,0.007-0.003,0.011-0.005c0.002-0.001,0.003-0.002,0.005-0.002c0.003-0.001,0.006-0.003,0.008-0.004
		c0.002-0.001,0.004-0.002,0.006-0.002C9.245,3.943,9.248,3.942,9.25,3.94c0.002-0.001,0.004-0.002,0.006-0.002
		c0.003-0.001,0.006-0.003,0.009-0.004c0.001,0,0.003-0.001,0.004-0.002C9.274,3.93,9.279,3.928,9.284,3.926
		c0,0,0.001-0.001,0.002-0.001C9.29,3.923,9.293,3.921,9.297,3.919c0.001,0,0.003-0.001,0.004-0.002
		c0.003-0.001,0.007-0.003,0.01-0.004c0.001,0,0.003-0.001,0.005-0.002C9.319,3.91,9.322,3.908,9.325,3.907
		C9.327,3.906,9.328,3.906,9.33,3.905c0.003-0.001,0.006-0.002,0.009-0.004C9.341,3.9,9.342,3.899,9.344,3.899
		c0.009-0.004,0.018-0.008,0.027-0.012c0.002-0.001,0.003-0.001,0.005-0.002c0.003-0.001,0.006-0.002,0.008-0.003
		s0.004-0.001,0.006-0.002c0.003-0.001,0.005-0.002,0.008-0.003c0.002-0.001,0.003-0.002,0.005-0.002
		C9.407,3.871,9.41,3.87,9.413,3.869c0.002-0.001,0.003-0.001,0.005-0.002c0.003-0.001,0.007-0.003,0.01-0.004
		c0.001,0,0.002-0.001,0.003-0.001c0.004-0.002,0.009-0.004,0.013-0.006c0.001,0,0.004-0.001,0.005-0.002
		C9.454,3.851,9.457,3.85,9.459,3.849c0.002,0,0.004-0.001,0.006-0.002c0.002-0.001,0.005-0.002,0.008-0.003
		c0.002,0,0.004-0.002,0.006-0.002c0.003-0.001,0.005-0.002,0.008-0.003s0.004-0.001,0.006-0.002C9.497,3.833,9.5,3.832,9.504,3.83
		c0.001,0,0.001-0.001,0.002-0.001c0.005-0.002,0.009-0.004,0.014-0.006c0.001,0,0.002-0.001,0.004-0.001
		c0.003-0.001,0.006-0.003,0.01-0.004c0.002,0,0.003-0.001,0.005-0.002c0.003-0.001,0.005-0.002,0.008-0.003
		C9.55,3.811,9.552,3.81,9.554,3.809C9.557,3.808,9.56,3.807,9.563,3.805c0.002,0,0.003-0.001,0.005-0.002
		C9.571,3.802,9.574,3.8,9.578,3.799C9.579,3.798,9.58,3.798,9.582,3.797c0.004-0.002,0.009-0.003,0.014-0.005
		c0.001,0,0.002-0.001,0.004-0.002c0.003-0.001,0.007-0.002,0.01-0.004c0.002-0.001,0.003-0.001,0.005-0.002
		C9.618,3.783,9.62,3.782,9.623,3.78c0.002,0,0.003-0.001,0.005-0.002c0.003-0.001,0.006-0.002,0.009-0.004
		c0.002,0,0.003-0.001,0.005-0.002C9.646,3.771,9.65,3.77,9.653,3.768c0.001,0,0.002,0,0.003-0.001
		c0.005-0.002,0.01-0.004,0.014-0.006c0.001,0,0.002-0.001,0.003-0.001c0.003-0.001,0.007-0.003,0.011-0.004
		c0.001,0,0.003-0.001,0.004-0.001c0.003-0.001,0.007-0.003,0.01-0.004c0.002,0,0.003-0.001,0.005-0.002
		c0.003-0.001,0.006-0.002,0.01-0.004c0.001,0,0.003-0.001,0.005-0.002C9.721,3.741,9.724,3.74,9.727,3.739
		c0.001,0,0.004-0.001,0.005-0.002c0.004-0.002,0.008-0.003,0.012-0.005c0.001,0,0.003-0.001,0.004-0.001
		C9.752,3.729,9.756,3.727,9.76,3.726c0.001,0,0.003-0.001,0.005-0.002C9.768,3.723,9.771,3.722,9.774,3.72
		c0.002,0,0.004-0.001,0.006-0.002c0.003-0.001,0.006-0.002,0.008-0.003s0.004-0.001,0.006-0.002C9.797,3.711,9.8,3.71,9.803,3.709
		c0.001,0,0.003-0.001,0.005-0.002C9.812,3.706,9.816,3.704,9.82,3.703c0.001,0,0.001,0,0.002-0.001
		C9.827,3.7,9.832,3.698,9.836,3.696c0.001,0,0.003-0.001,0.005-0.002C9.844,3.693,9.847,3.692,9.85,3.691
		C9.852,3.69,9.854,3.69,9.856,3.689c0.003-0.001,0.006-0.002,0.009-0.003c0.001,0,0.003-0.001,0.005-0.002
		c0.003-0.001,0.006-0.002,0.01-0.003c0.001,0,0.003-0.001,0.004-0.002c0.004-0.001,0.008-0.003,0.013-0.005c0,0,0.001,0,0.001,0
		c0.005-0.001,0.01-0.003,0.015-0.005c0.001,0,0.001,0,0.003-0.001c0.003-0.001,0.007-0.003,0.011-0.004
		c0.001,0,0.003-0.001,0.004-0.001c0.003-0.001,0.006-0.002,0.01-0.003c0.002-0.001,0.003-0.001,0.005-0.002
		c0.003-0.001,0.006-0.002,0.009-0.003C9.957,3.651,9.958,3.65,9.96,3.65c0.003-0.001,0.006-0.002,0.01-0.004
		c0.001,0,0.003-0.001,0.004-0.001C9.979,3.643,9.984,3.641,9.989,3.64c0,0,0.002-0.001,0.003-0.001
		c0.004-0.001,0.007-0.003,0.011-0.004c0.001,0,0.003-0.001,0.004-0.001c0.003-0.001,0.007-0.002,0.01-0.004
		c0.001,0,0.003-0.001,0.004-0.001c0.003-0.001,0.007-0.002,0.01-0.003c0.002-0.001,0.003-0.001,0.005-0.002
		c0.003-0.001,0.007-0.003,0.011-0.004c0,0,0.002-0.001,0.002-0.001c0.01-0.003,0.02-0.007,0.029-0.011c0.001,0,0.002,0,0.003-0.001
		c0.004-0.001,0.007-0.002,0.011-0.004c0.001,0,0.003-0.001,0.005-0.001c0.003-0.001,0.007-0.002,0.01-0.004
		c0.001,0,0.003-0.001,0.004-0.001c0.004-0.001,0.008-0.003,0.012-0.004c0.001,0,0.002,0,0.003-0.001
		c0.01-0.003,0.019-0.007,0.029-0.01c0.001,0,0.003,0,0.004-0.001c0.004-0.001,0.007-0.002,0.011-0.004
		c0.001,0,0.003-0.001,0.005-0.001c0.003-0.001,0.006-0.002,0.009-0.003c0.001,0,0.004-0.001,0.005-0.001
		c0.003-0.001,0.006-0.002,0.01-0.003c0.001,0,0.003-0.001,0.004-0.002c0.005-0.001,0.01-0.003,0.014-0.004h0
		c0.005-0.002,0.01-0.003,0.015-0.005c0.001,0,0.002,0,0.003-0.001c0.003-0.001,0.007-0.002,0.011-0.003
		c0.001-0.001,0.003-0.001,0.005-0.002c0.003-0.001,0.006-0.002,0.01-0.003c0.001-0.001,0.003-0.001,0.005-0.002
		c0.003-0.001,0.007-0.002,0.01-0.003c0.002-0.001,0.003-0.001,0.005-0.002c0.004-0.001,0.009-0.003,0.013-0.004
		c0,0,0.001,0,0.001,0c0.005-0.002,0.01-0.003,0.015-0.005c0,0,0.002-0.001,0.003-0.001c0.004-0.001,0.007-0.003,0.011-0.004
		c0.002,0,0.003-0.001,0.005-0.001c0.003-0.001,0.006-0.002,0.009-0.003c0.002,0,0.004-0.001,0.006-0.001
		c0.003-0.001,0.006-0.002,0.009-0.003c0.002-0.001,0.003-0.001,0.005-0.002c0.003-0.001,0.007-0.002,0.01-0.003
		c0.001,0,0.002-0.001,0.004-0.001c0.005-0.002,0.009-0.003,0.014-0.005c0.001,0,0.002,0,0.004-0.001
		C10.396,3.5,10.4,3.499,10.404,3.498c0.002-0.001,0.003-0.001,0.005-0.002c0.003-0.001,0.006-0.002,0.009-0.003
		c0.002,0,0.003-0.001,0.005-0.001c0.003-0.001,0.006-0.002,0.01-0.003c0.001-0.001,0.003-0.001,0.005-0.002
		c0.003-0.001,0.007-0.002,0.011-0.003c0.001,0,0.002-0.001,0.004-0.001c0.004-0.001,0.01-0.003,0.014-0.004
		c0.001,0,0.002-0.001,0.004-0.001c0.004-0.001,0.007-0.002,0.011-0.003c0.002,0,0.003-0.001,0.005-0.001
		c0.003-0.001,0.006-0.002,0.009-0.003c0.002,0,0.004-0.001,0.006-0.001c0.003-0.001,0.006-0.002,0.009-0.003
		c0.002,0,0.004-0.001,0.005-0.001c0.004-0.001,0.007-0.002,0.011-0.003c0.001,0,0.002-0.001,0.004-0.001
		c0.005-0.001,0.01-0.003,0.015-0.005c0,0,0,0,0.001,0c0.004-0.001,0.009-0.003,0.014-0.004c0.001,0,0.003-0.001,0.005-0.002
		c0.003-0.001,0.006-0.001,0.009-0.002c0.002,0,0.004-0.001,0.006-0.002c0.003-0.001,0.006-0.002,0.009-0.002
		c0.001,0,0.004-0.001,0.005-0.002c0.003-0.001,0.007-0.002,0.01-0.003c0.001,0,0.003-0.001,0.004-0.001
		c0.01-0.003,0.02-0.006,0.03-0.009c0.001,0,0.002,0,0.003,0c0.004-0.001,0.007-0.002,0.011-0.003c0.001,0,0.004-0.001,0.005-0.001
		c0.003-0.001,0.006-0.002,0.009-0.003c0.002,0,0.004-0.001,0.006-0.001c0.003-0.001,0.006-0.002,0.009-0.003
		c0.001,0,0.003-0.001,0.005-0.001c0.003-0.001,0.008-0.002,0.012-0.003c0.001,0,0.002,0,0.003,0
		c0.005-0.001,0.009-0.003,0.014-0.004c0.002,0,0.003-0.001,0.005-0.001c0.003-0.001,0.007-0.001,0.01-0.002
		c0.002,0,0.004-0.001,0.005-0.001c0.003-0.001,0.006-0.002,0.01-0.003c0.002,0,0.003-0.001,0.005-0.001
		c0.003-0.001,0.007-0.002,0.01-0.003c0.001,0,0.003-0.001,0.004-0.001c0.004-0.001,0.007-0.002,0.011-0.003
		c0.001,0,0.002,0,0.004-0.001c0.005-0.001,0.01-0.003,0.015-0.004c0,0,0.002,0,0.002-0.001c0.004-0.001,0.008-0.002,0.012-0.003
		c0.001,0,0.003,0,0.005-0.001c0.003-0.001,0.007-0.002,0.01-0.003c0.002,0,0.003-0.001,0.005-0.001
		c0.003-0.001,0.006-0.001,0.01-0.002c0.002,0,0.003-0.001,0.005-0.001c0.003-0.001,0.007-0.002,0.011-0.003
		c0.001,0,0.002-0.001,0.004-0.001c0.005-0.001,0.01-0.003,0.015-0.004c0.001,0,0.001,0,0.002-0.001
		c0.004-0.001,0.008-0.002,0.012-0.003c0.002,0,0.003-0.001,0.005-0.001c0.003-0.001,0.006-0.002,0.01-0.003
		c0.001,0,0.004-0.001,0.005-0.001c0.003-0.001,0.006-0.002,0.01-0.003c0.002,0,0.003,0,0.005-0.001
		c0.004-0.001,0.008-0.002,0.011-0.003c0.001,0,0.002-0.001,0.004-0.001c0.01-0.003,0.02-0.005,0.03-0.008
		c0.001,0,0.003-0.001,0.005-0.001c0.003-0.001,0.006-0.001,0.01-0.002c0.002,0,0.004-0.001,0.005-0.001
		c0.003-0.001,0.006-0.001,0.01-0.002c0.002,0,0.003-0.001,0.005-0.001c0.003,0,0.007-0.001,0.01-0.002
		c0.001,0,0.003-0.001,0.005-0.001c0.004-0.001,0.008-0.002,0.013-0.003c0,0,0.001,0,0.002,0c0.005-0.001,0.01-0.002,0.015-0.004
		c0.001,0,0.003,0,0.004-0.001c0.004-0.001,0.007-0.001,0.011-0.002c0.002,0,0.003-0.001,0.005-0.001
		c0.003,0,0.006-0.001,0.01-0.002c0.001,0,0.004-0.001,0.005-0.001c0.003,0,0.006-0.001,0.01-0.002c0.002,0,0.003-0.001,0.005-0.001
		c0.004-0.001,0.008-0.002,0.012-0.003c0.001,0,0.002,0,0.002,0c0.005-0.001,0.01-0.002,0.015-0.004c0.001,0,0.002,0,0.004-0.001
		c0.004-0.001,0.007-0.001,0.011-0.002c0.001,0,0.003-0.001,0.004-0.001c0.003,0,0.007-0.001,0.01-0.002
		c0.002,0,0.003,0,0.005-0.001c0.003-0.001,0.007-0.001,0.011-0.002c0.001,0,0.003-0.001,0.004-0.001
		c0.004-0.001,0.008-0.002,0.013-0.003c0,0,0.001,0,0.002-0.001c0.005-0.001,0.01-0.002,0.015-0.003c0.001,0,0.003,0,0.004-0.001
		c0.004,0,0.007-0.001,0.011-0.002c0.002,0,0.004-0.001,0.006-0.001c0.003,0,0.006-0.001,0.009-0.002
		c0.002,0,0.004-0.001,0.006-0.001c0.003,0,0.006-0.001,0.009-0.002c0.002,0,0.003-0.001,0.005-0.001
		c0.004,0,0.007-0.001,0.011-0.002c0.001,0,0.002,0,0.004-0.001c0.005-0.001,0.01-0.002,0.015-0.003
		c0.001,0,0.002-0.001,0.003-0.001c0.004-0.001,0.008-0.002,0.012-0.002c0.002,0,0.003-0.001,0.005-0.001
		c0.003,0,0.006-0.001,0.01-0.002c0.002,0,0.003-0.001,0.005-0.001c0.003,0,0.007-0.001,0.01-0.002c0.001,0,0.003-0.001,0.005-0.001
		c0.003,0,0.006-0.001,0.01-0.002c0.001,0,0.003-0.001,0.005-0.001c0.005-0.001,0.01-0.002,0.015-0.003h0
		c0.005-0.001,0.01-0.002,0.015-0.003c0.001,0,0.003,0,0.004,0c0.003-0.001,0.007-0.002,0.011-0.002
		c0.002,0,0.003-0.001,0.005-0.001c0.003-0.001,0.006-0.001,0.01-0.002c0.001,0,0.004-0.001,0.006-0.001
		c0.003-0.001,0.007-0.001,0.01-0.002c0.002,0,0.003,0,0.005-0.001c0.004,0,0.008-0.001,0.012-0.002c0.002,0,0.003,0,0.005-0.001
		c0.004-0.001,0.009-0.002,0.013-0.002c0.001,0,0.004-0.001,0.005-0.001c0.003,0,0.006-0.001,0.009-0.002
		c0.002,0,0.004,0,0.007-0.001c0.003-0.001,0.005-0.001,0.009-0.002c0.002,0,0.004-0.001,0.006-0.001
		c0.002,0,0.005-0.001,0.008-0.001c0.002,0,0.004-0.001,0.007-0.001c0.003-0.001,0.007-0.001,0.011-0.002c0.001,0,0.003,0,0.004,0
		c0.005-0.001,0.01-0.002,0.015-0.003c0.002,0,0.004-0.001,0.005-0.001c0.003-0.001,0.007-0.001,0.01-0.002
		c0.002,0,0.004-0.001,0.006-0.001c0.003,0,0.006-0.001,0.01-0.001c0.002,0,0.004-0.001,0.006-0.001c0.003,0,0.006-0.001,0.01-0.002
		c0.001,0,0.004,0,0.005-0.001c0.004,0,0.007-0.001,0.011-0.002c0.001,0,0.002,0,0.004-0.001c0.005-0.001,0.01-0.002,0.015-0.003
		c0.001,0,0.002,0,0.003,0c0.004-0.001,0.008-0.001,0.012-0.002c0.001,0,0.003,0,0.005-0.001c0.003,0,0.006-0.001,0.01-0.001
		c0.002,0,0.003-0.001,0.005-0.001c0.003,0,0.006-0.001,0.01-0.001c0.002,0,0.003-0.001,0.005-0.001
		c0.004-0.001,0.007-0.001,0.011-0.002c0.002,0,0.003,0,0.005,0c0.005-0.001,0.01-0.002,0.015-0.003c0,0,0.001,0,0.002,0
		c0.004,0,0.009-0.001,0.013-0.002c0.002,0,0.004-0.001,0.006-0.001c0.003-0.001,0.006-0.001,0.009-0.002
		c0.002,0,0.004-0.001,0.006-0.001c0.003,0,0.006-0.001,0.01-0.002c0.001,0,0.003,0,0.005-0.001c0.004,0,0.007-0.001,0.011-0.002
		c0.001,0,0.003,0,0.004,0c0.01-0.002,0.021-0.004,0.031-0.005c0.001,0,0.003,0,0.004-0.001c0.004,0,0.007-0.001,0.011-0.002
		c0.001,0,0.003,0,0.005,0c0.003-0.001,0.007-0.001,0.01-0.002c0.001,0,0.004,0,0.005-0.001c0.003,0,0.007-0.001,0.011-0.001
		c0.001,0,0.003-0.001,0.005-0.001c0.005-0.001,0.009-0.001,0.014-0.002c0,0,0.001,0,0.001,0c0.005-0.001,0.01-0.002,0.015-0.002
		c0.002,0,0.003-0.001,0.005-0.001c0.003,0,0.007-0.001,0.01-0.002c0.002,0,0.004,0,0.006-0.001c0.003,0,0.006-0.001,0.009-0.001
		c0.002,0,0.004,0,0.006-0.001c0.003,0,0.007-0.001,0.01-0.001c0.002,0,0.003,0,0.005-0.001c0.004,0,0.008-0.001,0.012-0.002
		c0.001,0,0.002,0,0.003,0c0.005,0,0.01-0.001,0.015-0.002c0.001,0,0.003-0.001,0.005-0.001c0.003,0,0.007-0.001,0.011-0.001
		c0.002,0,0.004-0.001,0.006-0.001c0.003,0,0.006-0.001,0.009-0.001c0.002,0,0.005-0.001,0.007-0.001
		c0.003,0,0.006-0.001,0.009-0.001c0.002,0,0.004,0,0.006-0.001c0.004,0,0.008-0.001,0.012-0.002c0.001,0,0.002,0,0.003,0
		c0.005,0,0.01-0.001,0.016-0.002c0.001,0,0.002,0,0.003,0c0.004-0.001,0.008-0.001,0.012-0.002c0.002,0,0.003,0,0.005-0.001
		c0.003,0,0.007,0,0.01-0.001c0.002,0,0.003-0.001,0.006-0.001c0.003,0,0.006-0.001,0.01-0.001c0.002,0,0.003,0,0.006-0.001
		c0.003,0,0.007-0.001,0.011-0.001c0.001,0,0.003,0,0.004,0c0.005-0.001,0.01-0.001,0.015-0.002c0.001,0,0.002,0,0.004,0
		c0.004,0,0.008-0.001,0.012-0.001c0.001,0,0.003,0,0.005,0c0.003,0,0.007-0.001,0.011-0.001c0.002,0,0.003-0.001,0.006-0.001
		c0.003,0,0.006-0.001,0.01-0.001c0.002,0,0.004,0,0.006,0c0.003,0,0.007-0.001,0.01-0.001c0.002,0,0.003,0,0.005-0.001
		c0.005,0,0.01-0.001,0.016-0.002c0,0,0.001,0,0.002,0c0.004-0.001,0.009-0.001,0.013-0.002c0.001,0,0.004,0,0.005,0
		c0.004,0,0.007-0.001,0.011-0.001c0.001,0,0.003,0,0.005-0.001c0.003,0,0.007,0,0.011-0.001c0.001,0,0.003,0,0.005-0.001
		c0.003,0,0.007-0.001,0.011-0.001c0.001,0,0.003,0,0.005,0c0.004,0,0.009-0.001,0.013-0.001c0.001,0,0.002,0,0.003,0
		c0.005,0,0.01-0.001,0.014-0.002c0.002,0,0.003,0,0.005,0c0.003,0,0.007-0.001,0.01-0.001c0.002,0,0.004,0,0.006-0.001
		c0.003,0,0.006-0.001,0.01-0.001c0.002,0,0.004,0,0.006-0.001c0.003,0,0.007,0,0.011-0.001c0.001,0,0.003,0,0.005,0
		c0.004-0.001,0.009-0.001,0.013-0.002c0.001,0,0.001,0,0.002,0c0.005,0,0.01-0.001,0.016-0.002c0.001,0,0.003,0,0.005,0
		c0.003,0,0.007-0.001,0.01-0.001c0.002,0,0.004,0,0.006-0.001c0.003,0,0.006,0,0.01-0.001c0.002,0,0.004,0,0.006,0
		c0.003,0,0.007-0.001,0.01-0.001c0.002,0,0.003,0,0.006,0c0.003,0,0.007-0.001,0.011-0.001c0.002,0,0.003,0,0.004,0
		c0.005-0.001,0.01-0.001,0.016-0.002c0.001,0,0.002,0,0.004,0c0.004,0,0.008,0,0.011-0.001c0.002,0,0.004,0,0.006,0
		c0.003,0,0.006-0.001,0.009-0.001c0.002,0,0.004,0,0.007-0.001c0.003,0,0.006,0,0.009-0.001c0.002,0,0.004,0,0.006,0
		c0.004,0,0.008-0.001,0.012-0.001c0.001,0,0.002,0,0.004,0c0.005,0,0.01-0.001,0.016-0.001c0,0,0.001,0,0.002,0
		c0.004,0,0.009-0.001,0.013-0.001c0.001,0,0.003,0,0.005,0c0.003,0,0.007-0.001,0.011-0.001c0.002,0,0.004,0,0.006,0
		c0.003,0,0.007,0,0.01-0.001c0.002,0,0.003,0,0.005,0c0.004,0,0.008,0,0.011-0.001c0.001,0,0.003,0,0.004,0
		c0.005,0,0.011-0.001,0.016-0.001l0,0c0.005,0,0.01-0.001,0.015-0.001c0.002,0,0.003,0,0.005,0c0.003,0,0.007-0.001,0.011-0.001
		c0.001,0,0.003,0,0.005,0c0.004,0,0.007-0.001,0.011-0.001c0.001,0,0.003,0,0.005,0c0.004,0,0.008-0.001,0.012-0.001
		c0.001,0,0.002,0,0.003,0c0.011-0.001,0.021-0.001,0.032-0.002c0.001,0,0.003,0,0.004,0c0.004,0,0.008,0,0.012-0.001
		c0.001,0,0.003,0,0.005,0c0.004,0,0.007,0,0.011,0c0.002,0,0.004,0,0.005,0c0.004,0,0.007,0,0.011-0.001c0.002,0,0.003,0,0.005,0
		c0.005,0,0.01,0,0.015-0.001h0c0.005,0,0.01-0.001,0.016-0.001c0.001,0,0.003,0,0.004,0c0.004,0,0.008,0,0.012-0.001
		c0.001,0,0.003,0,0.005,0c0.004,0,0.007,0,0.011,0c0.002,0,0.004,0,0.005,0c0.004,0,0.007,0,0.011,0c0.001,0,0.003,0,0.005,0
		c0.004,0,0.009,0,0.013-0.001c0,0,0.002,0,0.002,0c0.005,0,0.011-0.001,0.016-0.001c0.001,0,0.002,0,0.003,0
		c0.004,0,0.008,0,0.012-0.001c0.002,0,0.004,0,0.005,0c0.004,0,0.007,0,0.011-0.001c0.002,0,0.003,0,0.005,0
		c0.003,0,0.007,0,0.011-0.001c0.002,0,0.003,0,0.005,0c0.004,0,0.008,0,0.013-0.001c0.001,0,0.002,0,0.003,0
		c0.005,0,0.011,0,0.016-0.001c0.001,0,0.002,0,0.003,0c0.004,0,0.008,0,0.012,0c0.001,0,0.004,0,0.005,0c0.004,0,0.007,0,0.011,0
		c0.001,0,0.004,0,0.005,0c0.003,0,0.007,0,0.011-0.001c0.001,0,0.004,0,0.005,0c0.003,0,0.007,0,0.011,0c0.002,0,0.003,0,0.005,0
		c0.005,0,0.01,0,0.016,0c0,0,0.001,0,0.001,0c0.005,0,0.01,0,0.015,0c0.001,0,0.003,0,0.004,0c0.004,0,0.008,0,0.011,0
		c0.002,0,0.003,0,0.005,0c0.003,0,0.007,0,0.011,0c0.002,0,0.004,0,0.006,0c0.004,0,0.008,0,0.012-0.001c0.001,0,0.002,0,0.003,0
		c0.011,0,0.021-0.001,0.032-0.001c0.001,0,0.003,0,0.005,0c0.004,0,0.007,0,0.011,0c0.002,0,0.004,0,0.006,0
		c0.003,0,0.007,0,0.01,0c0.001,0,0.004,0,0.006,0c0.003,0,0.007,0,0.01,0c0.002,0,0.004,0,0.005,0c0.005,0,0.01,0,0.015,0h0
		c0.005,0,0.011,0,0.017,0c0.001,0,0.002,0,0.004,0c0.004,0,0.008,0,0.012,0c0.001,0,0.004,0,0.006,0c0.003,0,0.007,0,0.01,0
		c0.002,0,0.004,0,0.006,0c0.003,0,0.007,0,0.01,0c0.002,0,0.003,0,0.005,0c0.004,0,0.008,0,0.012,0c0.001,0,0.003,0,0.004,0
		c0.005,0,0.011,0,0.016,0c0.001,0,0.002,0,0.003,0c0.004,0,0.008,0,0.012,0c0.002,0,0.003,0,0.005,0c0.004,0,0.007,0,0.011,0
		c0.002,0,0.003,0,0.005,0c0.003,0,0.007,0,0.011,0c0.001,0,0.003,0,0.005,0c0.004,0,0.008,0,0.012,0c0.001,0,0.002,0,0.004,0
		c0.005,0,0.011,0,0.016,0c0,0,0.001,0,0.002,0c0.004,0,0.009,0,0.013,0c0.001,0,0.004,0,0.005,0c0.003,0,0.007,0,0.011,0
		c0.002,0,0.004,0,0.006,0c0.003,0,0.007,0,0.011,0c0.001,0,0.003,0,0.005,0c0.004,0,0.008,0,0.012,0c0.001,0,0.003,0,0.004,0
		c0.005,0,0.011,0,0.016,0c0,0,0.001,0,0.001,0c0.005,0,0.01,0,0.014,0c0.002,0,0.004,0,0.005,0c0.004,0,0.007,0,0.011,0
		c0.002,0,0.004,0,0.006,0c0.003,0,0.007,0,0.01,0c0.002,0,0.004,0,0.006,0c0.004,0,0.007,0,0.011,0c0.001,0,0.003,0,0.005,0
		c0.005,0,0.01,0,0.016,0h3.968V0L17.597,0z M3,14.962H0v11h3V14.962L3,14.962z M3,36.962H0v11h3V36.962L3,36.962z M3,58.962H0v11h3
		V58.962L3,58.962z M3,80.962H0v11h3V80.962L3,80.962z M3,102.962H0v11h3V102.962L3,102.962z M3,124.962H0v11h3V124.962L3,124.962z
		 M3,146.962H0v11h3V146.962L3,146.962z M3,168.962H0v11h3V168.962L3,168.962z M3,190.962H0v11h3V190.962L3,190.962z M3,212.962H0
		v11h3V212.962L3,212.962z M3,234.962H0v11h3V234.962L3,234.962z M3,256.962H0v11h3V256.962L3,256.962z M3,278.962H0v11h3V278.962
		L3,278.962z M3,300.962H0v3.217c0,3.372,1.24,6.607,3.493,9.112l2.231-2.006c-0.001-0.001-0.003-0.003-0.004-0.004
		c-0.001-0.001-0.002-0.002-0.003-0.003c-0.002-0.003-0.005-0.006-0.008-0.008c-0.001-0.001-0.001-0.002-0.002-0.003
		c-0.002-0.002-0.005-0.005-0.007-0.008c-0.001-0.001-0.002-0.002-0.003-0.003c-0.002-0.002-0.005-0.005-0.007-0.008
		c-0.001-0.001-0.002-0.002-0.003-0.004c-0.002-0.002-0.004-0.005-0.007-0.007c-0.001-0.001-0.002-0.003-0.004-0.004
		c-0.002-0.003-0.005-0.006-0.008-0.009c0,0-0.001-0.002-0.002-0.002c-0.003-0.003-0.006-0.007-0.009-0.01
		c0,0-0.001-0.001-0.002-0.002c-0.003-0.003-0.007-0.007-0.01-0.011c-0.001-0.001-0.002-0.002-0.003-0.004
		c-0.002-0.002-0.004-0.005-0.007-0.007c-0.001-0.002-0.003-0.004-0.005-0.006c-0.001-0.002-0.003-0.003-0.005-0.005
		c-0.002-0.002-0.004-0.004-0.006-0.007c-0.001-0.001-0.002-0.003-0.004-0.004c-0.002-0.002-0.004-0.005-0.006-0.007
		c-0.001-0.001-0.003-0.003-0.004-0.005c-0.002-0.002-0.004-0.005-0.006-0.007c-0.001-0.001-0.002-0.002-0.003-0.004
		c-0.002-0.002-0.005-0.005-0.007-0.008c-0.001-0.001-0.002-0.002-0.003-0.003c-0.002-0.002-0.004-0.005-0.007-0.008
		c-0.001-0.001-0.002-0.002-0.003-0.003c-0.002-0.003-0.004-0.006-0.007-0.008c-0.001-0.001-0.002-0.002-0.003-0.003
		c-0.002-0.003-0.005-0.006-0.007-0.008c0-0.001-0.001-0.002-0.002-0.002c-0.003-0.003-0.005-0.006-0.008-0.01c0,0,0,0,0,0
		c-1.186-1.387-2.021-3.083-2.368-4.952l0,0c0-0.005-0.001-0.01-0.002-0.015c0,0,0,0,0-0.001c0-0.005-0.001-0.01-0.002-0.014
		c0,0,0-0.001,0-0.001c-0.001-0.005-0.002-0.009-0.003-0.014c0,0,0-0.001,0-0.001c-0.001-0.005-0.002-0.01-0.002-0.014c0,0,0,0,0,0
		c0-0.005-0.001-0.01-0.002-0.015c0,0,0,0,0,0c-0.007-0.04-0.014-0.081-0.021-0.121c0,0,0,0,0,0
		c-0.001-0.005-0.001-0.01-0.002-0.015c0,0,0,0,0-0.001c-0.001-0.005-0.001-0.009-0.002-0.014c0,0,0-0.001,0-0.002
		c0-0.004-0.001-0.009-0.002-0.014c0,0,0-0.001,0-0.002c0-0.004-0.001-0.008-0.002-0.013c0-0.001,0-0.002,0-0.003
		c0-0.004-0.001-0.009-0.002-0.013c0-0.001,0-0.001,0-0.002c0-0.004-0.001-0.009-0.002-0.013c0-0.001,0-0.001,0-0.002
		c0-0.004-0.001-0.009-0.002-0.014c0,0,0,0,0-0.001c0-0.005-0.001-0.01-0.002-0.015l0,0c-0.005-0.03-0.009-0.061-0.014-0.091
		c0,0,0-0.001,0-0.001c-0.001-0.004-0.001-0.009-0.002-0.014c0,0,0-0.001,0-0.002c0-0.004-0.001-0.008-0.002-0.012
		c0-0.001,0-0.003,0-0.004c0-0.004-0.001-0.007-0.001-0.011c0-0.001,0-0.003,0-0.004c0-0.003-0.001-0.008-0.002-0.011
		c0-0.001,0-0.003,0-0.004c0-0.004-0.001-0.007-0.001-0.011c0-0.001,0-0.003,0-0.005c0-0.003-0.001-0.007-0.001-0.011
		c0-0.002,0-0.003-0.001-0.005c0-0.004-0.001-0.007-0.001-0.011c0-0.001,0-0.003,0-0.004c0-0.004-0.001-0.008-0.001-0.012
		c0-0.001,0-0.002,0-0.003c0-0.004-0.001-0.009-0.002-0.013c0-0.001,0-0.001,0-0.002c-0.003-0.025-0.006-0.049-0.009-0.074
		c0-0.001,0-0.001,0-0.002c0-0.004-0.001-0.008-0.001-0.012c0-0.001,0-0.002,0-0.004c0-0.004-0.001-0.007-0.001-0.011
		c0-0.001,0-0.003,0-0.005c0-0.004-0.001-0.007-0.001-0.011c0-0.001,0-0.003,0-0.005c0-0.003-0.001-0.007-0.001-0.01
		c0-0.002-0.001-0.004-0.001-0.006c0-0.003-0.001-0.006-0.001-0.01c0-0.002,0-0.004-0.001-0.006c0-0.003,0-0.007-0.001-0.01
		c0-0.002,0-0.003-0.001-0.005c0-0.004,0-0.007-0.001-0.011c0-0.002,0-0.004,0-0.005c0-0.003-0.001-0.007-0.001-0.01
		c0-0.002,0-0.004,0-0.006c0-0.003-0.001-0.007-0.001-0.011c0-0.001,0-0.003,0-0.004c0-0.004-0.001-0.008-0.001-0.012
		c0-0.001,0-0.002,0-0.003c-0.001-0.014-0.003-0.028-0.004-0.042c0,0,0-0.001,0-0.001c0-0.004-0.001-0.007-0.001-0.011
		c0-0.001,0-0.003,0-0.005c0-0.004,0-0.007-0.001-0.011c0-0.001,0-0.003,0-0.004c0-0.004-0.001-0.007-0.001-0.011
		c0-0.002,0-0.004,0-0.006c0-0.003-0.001-0.006-0.001-0.009c0-0.002,0-0.004-0.001-0.007c0-0.003,0-0.006-0.001-0.01
		c0-0.002,0-0.004,0-0.006c0-0.003,0-0.006-0.001-0.01c0-0.002,0-0.004,0-0.006c0-0.003,0-0.006-0.001-0.009
		c0-0.002,0-0.005,0-0.007c0-0.003-0.001-0.006-0.001-0.009c0-0.002,0-0.005,0-0.007c0-0.003-0.001-0.006-0.001-0.009
		c0-0.002,0-0.005,0-0.007c0-0.002-0.001-0.006-0.001-0.009c0-0.002,0-0.004,0-0.006c0-0.004,0-0.007-0.001-0.01
		c0-0.002,0-0.004,0-0.006c0-0.003,0-0.007-0.001-0.01c0-0.001,0-0.001,0-0.002c-0.001-0.013-0.002-0.027-0.003-0.04
		c0-0.002,0-0.004,0-0.006c0-0.003-0.001-0.007-0.001-0.01c0-0.002,0-0.004,0-0.006c0-0.003,0-0.006-0.001-0.01
		c0-0.002,0-0.004,0-0.006c0-0.003,0-0.006,0-0.01c0-0.002,0-0.004,0-0.006c0-0.003,0-0.006-0.001-0.009c0-0.002,0-0.005,0-0.007
		c0-0.003,0-0.006,0-0.009c0-0.002,0-0.005,0-0.007c0-0.003,0-0.006-0.001-0.009c0-0.002,0-0.004,0-0.007c0-0.003,0-0.006,0-0.009
		c0-0.002,0-0.005,0-0.007c0-0.003,0-0.006-0.001-0.009c0-0.002,0-0.005,0-0.008c0-0.003,0-0.006,0-0.008s0-0.005,0-0.008
		c0-0.003,0-0.005,0-0.009c0-0.002,0-0.005,0-0.007c0-0.002,0-0.006-0.001-0.009c0-0.002,0-0.005,0-0.007
		c0-0.003,0-0.006-0.001-0.01c0-0.001,0-0.002,0-0.003c0-0.007-0.001-0.014-0.001-0.021c0-0.002,0-0.005,0-0.008
		c0-0.002,0-0.004,0-0.007c0-0.003,0-0.006,0-0.009c0-0.002,0-0.005,0-0.008c0-0.003,0-0.006,0-0.009s0-0.005,0-0.008
		c0-0.002,0-0.005,0-0.008s0-0.006,0-0.008c0-0.003,0-0.005,0-0.008c0-0.002,0-0.005,0-0.008c0-0.002,0-0.005,0-0.008
		c0-0.003,0-0.005,0-0.008c0-0.002,0-0.005,0-0.008c0-0.003,0-0.005,0-0.008c0-0.002,0-0.005,0-0.007c0-0.003,0-0.006,0-0.009
		c0-0.002,0-0.005,0-0.008s0-0.006,0-0.008c0-0.003,0-0.006,0-0.009c0-0.002,0-0.005,0-0.007c0-0.003,0-0.007,0-0.01
		c0-0.002,0-0.004,0-0.007c0-0.003,0-0.006,0-0.009c0-0.002,0-0.005,0-0.007c0-0.004,0-0.009-0.001-0.013c0-0.001,0-0.002,0-0.003
		c0-0.005,0-0.011,0-0.017c0-0.001,0-0.003,0-0.005c0-0.004,0-0.007,0-0.011c0-0.002,0-0.005,0-0.007c0-0.003,0-0.006,0-0.009
		c0-0.002,0-0.005,0-0.008c0-0.003,0-0.006,0-0.009c0-0.002,0-0.004,0-0.007c0-0.003,0-0.006,0-0.01c0-0.002,0-0.005,0-0.007
		c0-0.003,0-0.006,0-0.009c0-0.002,0-0.004,0-0.007c0-0.003,0-0.006,0-0.009c0-0.002,0-0.005,0-0.008c0-0.003,0-0.006,0-0.009
		c0-0.002,0-0.005,0-0.007c0-0.003,0-0.006,0-0.009s0-0.005,0-0.008s0-0.006,0-0.009c0-0.002,0-0.005,0-0.007
		c0-0.003,0-0.006,0-0.01c0-0.002,0-0.005,0-0.007c0-0.004,0-0.007,0-0.011c0-0.001,0-0.003,0-0.005c0-0.004,0-0.009,0-0.013
		c0-0.001,0-0.003,0-0.004c0-0.005,0-0.011,0-0.017c0-0.001,0-0.002,0-0.003c0-0.004,0-0.009,0-0.014c0-0.002,0-0.003,0-0.006
		c0-0.003,0-0.007,0-0.011c0-0.002,0-0.004,0-0.006c0-0.003,0-0.007,0-0.01s0-0.004,0-0.007s0-0.006,0-0.01c0-0.002,0-0.004,0-0.007
		c0-0.003,0-0.006,0-0.009c0-0.002,0-0.005,0-0.007c0-0.003,0-0.006,0-0.01c0-0.002,0-0.005,0-0.007c0-0.003,0-0.007,0-0.01
		c0-0.002,0-0.004,0-0.007c0-0.003,0-0.007,0-0.01c0-0.002,0-0.005,0-0.007c0-0.003,0-0.006,0-0.009c0-0.002,0-0.005,0-0.007
		c0-0.003,0-0.006,0-0.009s0-0.005,0-0.007c0-0.003,0-0.006,0-0.01c0-0.002,0-0.004,0-0.007c0-0.003,0-0.007,0-0.01
		c0-0.002,0-0.004,0-0.006c0-0.005,0-0.011,0-0.017l0,0V300.962L3,300.962z M26.714,314.808h-11v3h11V314.808L26.714,314.808z
		 M48.714,314.808h-11v3h11V314.808L48.714,314.808z M70.714,314.808h-11v3h11V314.808L70.714,314.808z M92.714,314.808h-11v3h11
		V314.808L92.714,314.808z M114.714,314.808h-11v3h11V314.808L114.714,314.808z M136.714,314.808h-11v3h11V314.808L136.714,314.808z
		 M158.714,314.808h-11v3h11V314.808L158.714,314.808z M180.714,314.808h-11v3h11V314.808L180.714,314.808z M202.714,314.808h-11v3
		h11V314.808L202.714,314.808z M223.636,311.133c-1.406,1.624-3.296,2.817-5.446,3.356l0,0c-0.053,0.013-0.106,0.026-0.159,0.039
		c-0.001,0-0.001,0-0.001,0c-0.005,0.001-0.01,0.002-0.016,0.003c0,0,0,0-0.001,0c-0.005,0.001-0.01,0.002-0.015,0.003
		c-0.001,0-0.001,0-0.002,0c-0.042,0.01-0.084,0.02-0.127,0.028c0,0-0.001,0-0.001,0c-0.005,0.001-0.01,0.002-0.015,0.003
		c-0.001,0-0.001,0-0.002,0c-0.005,0.001-0.01,0.002-0.015,0.003c0,0-0.001,0-0.002,0c-0.005,0.001-0.01,0.002-0.014,0.003
		c-0.001,0-0.002,0-0.002,0c-0.005,0.001-0.01,0.002-0.015,0.003c-0.001,0-0.002,0-0.002,0c-0.005,0.001-0.011,0.002-0.015,0.003
		h-0.001c-0.026,0.006-0.054,0.011-0.08,0.017h-0.001c-0.004,0.001-0.01,0.002-0.015,0.003c0,0-0.001,0-0.002,0
		c-0.004,0.001-0.009,0.002-0.013,0.003c-0.001,0-0.003,0-0.004,0c-0.004,0.001-0.009,0.002-0.014,0.002
		c-0.001,0-0.002,0-0.003,0.001c-0.004,0-0.009,0.001-0.013,0.002c-0.002,0-0.002,0-0.004,0c-0.004,0.001-0.009,0.002-0.013,0.003
		c-0.001,0-0.003,0-0.004,0c-0.004,0.001-0.009,0.001-0.013,0.002c-0.001,0-0.003,0-0.004,0c-0.005,0.001-0.009,0.002-0.014,0.003
		c0,0,0,0-0.001,0c-0.026,0.005-0.054,0.01-0.081,0.015l0,0c-0.004,0.001-0.009,0.001-0.014,0.002c-0.001,0-0.002,0-0.003,0
		c-0.005,0.001-0.009,0.001-0.013,0.002c-0.002,0-0.003,0-0.005,0.001c-0.004,0-0.008,0.001-0.012,0.002
		c-0.002,0-0.003,0-0.005,0.001c-0.004,0-0.008,0.001-0.013,0.002c-0.001,0-0.003,0-0.004,0.001c-0.004,0-0.009,0.001-0.013,0.002
		c-0.001,0-0.003,0-0.004,0.001c-0.004,0-0.009,0.001-0.013,0.002c-0.002,0-0.003,0-0.004,0.001c-0.005,0-0.009,0.001-0.014,0.002
		c0,0-0.001,0-0.001,0c-0.025,0.004-0.052,0.009-0.078,0.013c-0.001,0-0.003,0-0.004,0.001c-0.004,0-0.008,0.001-0.013,0.002
		c-0.001,0-0.003,0-0.004,0c-0.004,0.001-0.008,0.001-0.013,0.002c-0.001,0-0.003,0-0.005,0.001c-0.004,0-0.008,0.001-0.012,0.002
		c-0.002,0-0.003,0-0.005,0c-0.004,0.001-0.008,0.001-0.012,0.002c-0.002,0-0.004,0-0.006,0.001c-0.004,0-0.008,0.001-0.012,0.001
		c-0.002,0-0.003,0.001-0.005,0.001c-0.004,0-0.008,0.001-0.012,0.002c-0.002,0-0.004,0-0.005,0.001
		c-0.005,0-0.009,0.001-0.013,0.001c-0.001,0-0.002,0-0.003,0c-0.021,0.003-0.04,0.006-0.06,0.009c-0.002,0-0.003,0-0.004,0.001
		c-0.005,0-0.009,0.001-0.013,0.001c-0.001,0-0.003,0-0.005,0.001c-0.004,0-0.008,0.001-0.012,0.001c-0.002,0-0.004,0-0.006,0.001
		c-0.003,0-0.007,0.001-0.011,0.001c-0.002,0-0.004,0-0.006,0.001c-0.004,0-0.008,0.001-0.012,0.001c-0.002,0-0.004,0-0.006,0
		c-0.004,0-0.007,0.001-0.011,0.001c-0.002,0-0.004,0.001-0.007,0.001c-0.003,0-0.007,0.001-0.011,0.001
		c-0.002,0-0.004,0-0.006,0.001c-0.004,0-0.007,0.001-0.011,0.001c-0.002,0-0.004,0-0.007,0.001s-0.007,0.001-0.011,0.001
		c-0.002,0-0.003,0-0.004,0c-0.015,0.002-0.027,0.003-0.042,0.005c-0.001,0-0.003,0-0.005,0c-0.004,0-0.008,0.001-0.012,0.001
		c-0.002,0-0.003,0-0.006,0.001s-0.007,0.001-0.011,0.001c-0.002,0-0.004,0-0.007,0.001s-0.007,0.001-0.01,0.001
		c-0.002,0-0.005,0-0.007,0c-0.004,0-0.007,0.001-0.011,0.001c-0.002,0-0.005,0-0.007,0.001c-0.004,0-0.007,0.001-0.011,0.001
		c-0.002,0-0.004,0-0.007,0.001s-0.007,0.001-0.011,0.001c-0.002,0-0.004,0-0.006,0c-0.004,0-0.008,0.001-0.011,0.001
		c-0.003,0-0.004,0-0.007,0c-0.004,0-0.007,0.001-0.011,0.001c-0.002,0-0.004,0-0.006,0c-0.004,0-0.008,0.001-0.012,0.001
		c0,0,0,0-0.001,0c-0.015,0.001-0.029,0.003-0.044,0.005c-0.002,0-0.004,0-0.006,0c-0.004,0-0.007,0.001-0.011,0.001
		c-0.002,0-0.005,0-0.007,0c-0.004,0-0.007,0.001-0.01,0.001c-0.003,0-0.006,0.001-0.008,0.001c-0.003,0-0.007,0-0.01,0.001
		s-0.006,0-0.008,0.001c-0.003,0-0.006,0-0.01,0.001c-0.003,0-0.005,0-0.008,0.001c-0.004,0-0.007,0-0.01,0
		c-0.002,0-0.005,0-0.008,0.001s-0.007,0-0.01,0.001c-0.002,0-0.005,0-0.008,0c-0.003,0-0.007,0.001-0.01,0.001
		c-0.002,0-0.005,0.001-0.007,0.001c-0.004,0-0.007,0-0.011,0.001c-0.002,0-0.005,0-0.007,0c-0.004,0-0.007,0.001-0.011,0.001
		c-0.001,0-0.003,0-0.004,0c-0.008,0.001-0.016,0.001-0.023,0.002c-0.002,0-0.004,0-0.007,0c-0.003,0-0.006,0-0.009,0.001
		c-0.003,0-0.006,0-0.009,0s-0.006,0-0.009,0.001c-0.003,0-0.006,0-0.009,0c-0.003,0-0.006,0-0.009,0.001c-0.003,0-0.006,0-0.009,0
		c-0.003,0-0.006,0-0.01,0.001c-0.002,0-0.005,0-0.008,0c-0.003,0-0.006,0-0.01,0.001c-0.002,0-0.005,0-0.008,0
		c-0.003,0-0.006,0-0.009,0.001c-0.003,0-0.006,0-0.009,0c-0.003,0-0.006,0-0.01,0.001c-0.002,0-0.005,0-0.008,0
		c-0.003,0-0.006,0-0.01,0.001c-0.003,0-0.005,0-0.009,0c-0.003,0-0.005,0-0.009,0c-0.003,0-0.006,0-0.01,0.001
		c-0.002,0-0.005,0-0.008,0c-0.005,0-0.011,0.001-0.017,0.001c-0.003,0-0.005,0-0.008,0c-0.003,0-0.007,0-0.01,0
		c-0.003,0-0.006,0-0.009,0c-0.003,0-0.006,0-0.009,0.001c-0.003,0-0.006,0-0.009,0c-0.003,0-0.007,0-0.01,0
		c-0.003,0-0.005,0-0.008,0.001c-0.003,0-0.007,0-0.01,0c-0.003,0-0.006,0-0.008,0c-0.004,0-0.007,0-0.01,0
		c-0.003,0-0.006,0-0.009,0c-0.003,0-0.006,0-0.009,0.001c-0.003,0-0.006,0-0.009,0c-0.003,0-0.006,0-0.009,0
		c-0.003,0-0.006,0-0.009,0c-0.003,0-0.006,0-0.01,0c-0.003,0-0.006,0-0.009,0s-0.006,0-0.009,0s-0.006,0-0.009,0
		c-0.003,0-0.006,0-0.01,0c-0.005,0-0.01,0-0.015,0.001c-0.003,0-0.007,0-0.011,0c-0.002,0-0.005,0-0.008,0s-0.006,0-0.01,0
		c-0.003,0-0.005,0-0.008,0s-0.007,0-0.01,0s-0.006,0-0.008,0c-0.004,0-0.007,0-0.01,0c-0.003,0-0.006,0-0.009,0
		c-0.003,0-0.006,0-0.009,0c-0.003,0-0.007,0-0.01,0c-0.002,0-0.006,0-0.009,0s-0.006,0-0.009,0s-0.006,0-0.009,0s-0.006,0-0.009,0
		c-0.003,0-0.006,0-0.009,0c-0.003,0-0.006,0-0.009,0c-0.004,0-0.006,0-0.01,0c-0.003,0-0.006,0-0.009,0c-0.003,0-0.007,0-0.011,0
		c-0.002,0-0.004,0-0.007,0c-0.006,0-0.012,0-0.018,0c-0.002,0-0.003,0-0.005,0c-0.004,0-0.009,0-0.013,0c-0.003,0-0.005,0-0.008,0
		c-0.004,0-0.007,0-0.01,0s-0.006,0-0.009,0c-0.003,0-0.006,0-0.01,0c-0.003,0-0.005,0-0.008,0c-0.003,0-0.007,0-0.01,0
		s-0.006,0-0.009,0s-0.006,0-0.009,0s-0.006,0-0.009,0s-0.007,0-0.01,0s-0.005,0-0.008,0c-0.004,0-0.007,0-0.011,0
		c-0.002,0-0.005,0-0.008,0c-0.003,0-0.006,0-0.01,0c-0.003,0-0.006,0-0.008,0c-0.004,0-0.008,0-0.011,0s-0.005,0-0.008,0
		c-0.005,0-0.01,0-0.015,0c-0.001,0-0.002,0-0.003,0c-0.005,0-0.012,0-0.018,0c-0.002,0-0.004,0-0.006,0c-0.004,0-0.008,0-0.013,0
		c-0.002,0-0.004,0-0.007,0c-0.003,0-0.007,0-0.011,0c-0.003,0-0.005,0-0.008,0c-0.004,0-0.007,0-0.011,0c-0.002,0-0.005,0-0.007,0
		c-0.004,0-0.007,0-0.011,0c-0.003,0-0.005,0-0.008,0c-0.004,0-0.007,0-0.01,0s-0.006,0-0.009,0s-0.007,0-0.01,0s-0.005,0-0.008,0
		c-0.004,0-0.007,0-0.011,0c-0.002,0-0.005,0-0.008,0s-0.007,0-0.01,0s-0.006,0-0.008,0c-0.004,0-0.008,0-0.012,0
		c-0.002,0-0.004,0-0.006,0c-0.007,0-0.013,0-0.019,0h-1.883v3h1.883c3.958,0,7.715-1.717,10.307-4.711L223.636,311.133
		L223.636,311.133z M229.226,289.761h-3v11h3V289.761L229.226,289.761z M229.226,267.761h-3v11h3V267.761L229.226,267.761z
		 M229.226,245.761h-3v11h3V245.761L229.226,245.761z M229.226,223.761h-3v11h3V223.761L229.226,223.761z M229.226,201.761h-3v11h3
		V201.761L229.226,201.761z M229.226,179.761h-3v11h3V179.761L229.226,179.761z M229.226,157.761h-3v11h3V157.761L229.226,157.761z
		 M229.226,135.761h-3v11h3V135.761L229.226,135.761z M229.226,113.761h-3v11h3V113.761L229.226,113.761z M229.226,91.761h-3v11h3
		V91.761L229.226,91.761z M229.226,69.761h-3v11h3V69.761L229.226,69.761z M229.226,47.761h-3v11h3V47.761L229.226,47.761z
		 M229.226,25.761h-3v11h3V25.761L229.226,25.761z M223.766,2.718l-1.8,2.4c1.813,1.359,3.178,3.285,3.832,5.514v0
		c0.009,0.031,0.018,0.062,0.026,0.093c0,0,0,0,0,0.001c0.009,0.031,0.018,0.062,0.026,0.093c0,0,0,0,0,0.001
		c0.002,0.006,0.003,0.012,0.005,0.018c0,0,0,0,0,0.001c0.007,0.025,0.014,0.05,0.021,0.075v0c0.001,0.006,0.003,0.012,0.005,0.018
		c0,0,0,0.001,0,0.001c0.002,0.006,0.003,0.012,0.005,0.018c0,0,0,0.001,0,0.001c0.005,0.019,0.01,0.038,0.015,0.057l0,0
		c0.001,0.006,0.003,0.012,0.004,0.018c0.001,0,0.001,0.001,0.001,0.002c0.001,0.005,0.003,0.011,0.004,0.017
		c0,0,0.001,0.001,0.001,0.002c0.006,0.024,0.012,0.049,0.018,0.074c0.001,0.001,0.001,0.001,0.001,0.002
		c0.001,0.005,0.003,0.011,0.004,0.016c0,0,0,0.001,0.001,0.002c0.001,0.005,0.002,0.011,0.004,0.017c0,0,0,0,0,0.001
		c0.005,0.019,0.009,0.038,0.014,0.056c0,0,0,0.001,0,0.002c0.001,0.006,0.003,0.011,0.004,0.017c0,0.001,0,0.001,0.001,0.002
		c0.001,0.005,0.002,0.011,0.003,0.016c0,0.001,0.001,0.001,0.001,0.003c0.004,0.018,0.009,0.037,0.013,0.056c0,0,0,0.001,0,0.001
		c0.001,0.006,0.003,0.011,0.004,0.017c0,0.001,0,0.002,0.001,0.003c0.001,0.005,0.002,0.011,0.003,0.016
		c0,0.001,0.001,0.001,0.001,0.002c0.001,0.006,0.002,0.012,0.004,0.018c0,0,0,0,0,0.001c0.003,0.013,0.005,0.025,0.008,0.038
		c0,0,0,0,0,0c0.002,0.006,0.003,0.012,0.004,0.018c0,0,0,0.001,0.001,0.002c0.001,0.005,0.002,0.011,0.003,0.016
		c0,0.001,0.001,0.002,0.001,0.003c0.001,0.006,0.002,0.011,0.003,0.017c0,0,0.001,0.001,0.001,0.002
		c0.004,0.019,0.008,0.038,0.011,0.057c0.001,0,0.001,0.001,0.001,0.001c0.001,0.005,0.002,0.011,0.003,0.017
		c0,0.001,0.001,0.002,0.001,0.003c0.001,0.005,0.002,0.01,0.003,0.016c0,0.001,0,0.002,0.001,0.003
		c0.001,0.006,0.002,0.011,0.003,0.017c0,0,0,0,0,0.001c0.003,0.013,0.005,0.025,0.008,0.038c0,0,0,0.001,0,0.001
		c0.001,0.005,0.002,0.011,0.003,0.017c0.001,0.001,0.001,0.002,0.001,0.004c0.001,0.005,0.002,0.01,0.003,0.015
		c0,0.001,0.001,0.003,0.001,0.004c0.001,0.005,0.002,0.011,0.003,0.016c0,0.001,0,0.002,0,0.003
		c0.003,0.013,0.005,0.025,0.007,0.038c0,0.001,0.001,0.001,0.001,0.002c0.001,0.005,0.002,0.011,0.003,0.017
		c0,0.001,0,0.002,0,0.004c0.001,0.004,0.002,0.01,0.003,0.015c0,0.001,0.001,0.002,0.001,0.004c0.001,0.005,0.002,0.01,0.003,0.015
		c0,0.001,0,0.002,0,0.004c0.001,0.005,0.002,0.011,0.003,0.017c0,0,0,0.001,0.001,0.001c0.002,0.013,0.004,0.025,0.006,0.038
		c0,0.001,0.001,0.002,0.001,0.003c0.001,0.005,0.002,0.01,0.002,0.015c0.001,0.001,0.001,0.003,0.001,0.004
		c0.001,0.005,0.002,0.01,0.003,0.014c0,0.002,0,0.003,0,0.005c0.001,0.005,0.002,0.011,0.003,0.016c0,0.001,0,0.002,0.001,0.002
		c0.002,0.013,0.004,0.026,0.006,0.038c0,0,0,0.001,0,0.002c0.001,0.005,0.002,0.011,0.003,0.016c0,0.002,0,0.003,0.001,0.005
		c0,0.004,0.001,0.01,0.002,0.014c0,0.001,0,0.003,0.001,0.004c0,0.005,0.001,0.01,0.002,0.015c0,0.001,0,0.003,0.001,0.004
		c0.002,0.013,0.004,0.025,0.005,0.038c0.001,0.001,0.001,0.002,0.001,0.002c0.001,0.005,0.001,0.011,0.002,0.016
		c0,0.001,0.001,0.003,0.001,0.005c0.001,0.004,0.001,0.009,0.002,0.014c0,0.002,0.001,0.003,0.001,0.005
		c0.001,0.005,0.001,0.009,0.002,0.014c0,0.001,0,0.003,0.001,0.004c0,0.005,0.001,0.01,0.002,0.016c0,0,0,0.001,0,0.002
		c0.002,0.013,0.004,0.025,0.006,0.038c0,0.001,0,0.003,0,0.004c0.001,0.004,0.002,0.009,0.002,0.014
		c0.001,0.002,0.001,0.004,0.001,0.006c0.001,0.004,0.001,0.009,0.002,0.013c0,0.002,0.001,0.004,0.001,0.006
		c0.001,0.004,0.001,0.009,0.002,0.013c0,0.002,0,0.003,0,0.005c0.002,0.013,0.004,0.025,0.005,0.038
		c0.001,0.001,0.001,0.002,0.001,0.003c0.001,0.005,0.001,0.01,0.002,0.015c0,0.001,0,0.003,0.001,0.005
		c0,0.004,0.001,0.009,0.001,0.013c0.001,0.002,0.001,0.004,0.001,0.006c0.001,0.004,0.001,0.009,0.002,0.013
		c0,0.002,0,0.004,0,0.005c0.001,0.005,0.002,0.01,0.002,0.016c0.001,0.001,0.001,0.002,0.001,0.003
		c0.001,0.006,0.001,0.013,0.002,0.019c0,0.001,0,0.003,0.001,0.004c0,0.005,0.001,0.009,0.001,0.014
		c0.001,0.002,0.001,0.004,0.001,0.006c0.001,0.004,0.001,0.008,0.002,0.012c0,0.002,0,0.004,0,0.007
		c0.001,0.004,0.001,0.008,0.002,0.012c0,0.002,0,0.004,0.001,0.006c0,0.005,0.001,0.009,0.001,0.014
		c0,0.001,0.001,0.003,0.001,0.005c0.001,0.013,0.003,0.025,0.004,0.037c0,0.002,0,0.003,0.001,0.005
		c0,0.004,0.001,0.009,0.001,0.014c0,0.002,0.001,0.004,0.001,0.006c0,0.004,0.001,0.008,0.001,0.012
		c0,0.002,0.001,0.005,0.001,0.007c0,0.004,0.001,0.009,0.001,0.013c0,0.002,0.001,0.003,0.001,0.005
		c0.001,0.013,0.002,0.025,0.004,0.038c0,0.001,0,0.002,0,0.003c0.001,0.005,0.001,0.01,0.002,0.015c0,0.002,0,0.004,0,0.006
		c0.001,0.004,0.001,0.008,0.001,0.013c0.001,0.002,0.001,0.004,0.001,0.006c0,0.004,0.001,0.008,0.001,0.013
		c0.001,0.001,0.001,0.004,0.001,0.005c0,0.005,0.001,0.01,0.001,0.015c0,0.001,0.001,0.003,0.001,0.004
		c0,0.006,0.001,0.012,0.001,0.019c0.001,0.001,0.001,0.002,0.001,0.003c0,0.005,0.001,0.01,0.001,0.016
		c0,0.001,0,0.003,0.001,0.005c0,0.004,0,0.009,0.001,0.013c0,0.002,0,0.004,0,0.006c0.001,0.004,0.001,0.008,0.001,0.013
		c0.001,0.002,0.001,0.004,0.001,0.006c0,0.004,0.001,0.009,0.001,0.013c0,0.002,0,0.003,0.001,0.005
		c0.001,0.013,0.002,0.025,0.003,0.038c0,0.001,0,0.003,0,0.005c0.001,0.004,0.001,0.009,0.001,0.013
		c0,0.002,0.001,0.004,0.001,0.006c0,0.004,0,0.009,0.001,0.013c0,0.002,0,0.004,0,0.007c0.001,0.004,0.001,0.008,0.001,0.012
		c0,0.002,0,0.004,0.001,0.006c0,0.005,0,0.01,0.001,0.015c0,0.001,0,0.002,0,0.003c0,0.006,0.001,0.013,0.001,0.019
		c0.001,0.001,0.001,0.002,0.001,0.004c0,0.005,0,0.01,0.001,0.015c0,0.002,0,0.004,0,0.006c0,0.004,0.001,0.008,0.001,0.013
		c0,0.002,0,0.004,0,0.006c0.001,0.004,0.001,0.009,0.001,0.013c0,0.002,0.001,0.004,0.001,0.006c0,0.004,0,0.009,0.001,0.014
		c0,0.002,0,0.003,0,0.005c0,0.006,0.001,0.012,0.001,0.019c0,0.001,0,0.003,0,0.004c0.001,0.005,0.001,0.009,0.001,0.014
		c0,0.002,0,0.004,0.001,0.006c0,0.004,0,0.008,0,0.013c0,0.002,0.001,0.004,0.001,0.007c0,0.004,0,0.008,0,0.012
		c0.001,0.002,0.001,0.004,0.001,0.007c0,0.004,0,0.009,0.001,0.013c0,0.001,0,0.004,0,0.006c0.001,0.012,0.001,0.025,0.002,0.038
		c0,0.002,0,0.003,0,0.005c0,0.004,0.001,0.009,0.001,0.013c0,0.002,0,0.005,0,0.007c0,0.004,0,0.007,0.001,0.011
		c0,0.003,0,0.005,0,0.008c0,0.004,0,0.008,0.001,0.012c0,0.002,0,0.004,0,0.006c0,0.005,0,0.01,0,0.014
		c0,0.001,0.001,0.003,0.001,0.005c0,0.006,0,0.012,0,0.019c0,0.001,0.001,0.003,0.001,0.004c0,0.005,0,0.01,0,0.015
		c0,0.002,0,0.004,0,0.006c0.001,0.004,0.001,0.009,0.001,0.013c0,0.002,0,0.004,0,0.007c0,0.004,0,0.008,0.001,0.012
		c0,0.002,0,0.005,0,0.007c0,0.004,0,0.008,0,0.013c0,0.002,0,0.004,0,0.006c0.001,0.006,0.001,0.013,0.001,0.019
		c0,0.001,0,0.002,0,0.003c0,0.005,0,0.01,0.001,0.016c0,0.002,0,0.004,0,0.006c0,0.004,0,0.008,0,0.013c0,0.002,0,0.004,0,0.007
		c0,0.004,0,0.008,0.001,0.012c0,0.002,0,0.005,0,0.007c0,0.004,0,0.008,0,0.012c0,0.002,0,0.004,0,0.007
		c0,0.005,0,0.01,0.001,0.015c0,0.001,0,0.002,0,0.003c0,0.006,0,0.013,0,0.019c0,0.002,0,0.004,0,0.006c0,0.004,0,0.008,0,0.013
		c0,0.002,0,0.005,0,0.008c0.001,0.004,0.001,0.007,0.001,0.011c0,0.002,0,0.005,0,0.008c0,0.004,0,0.008,0,0.012
		c0,0.002,0,0.005,0,0.007c0,0.005,0,0.01,0,0.014c0,0.001,0,0.003,0,0.005c0,0.007,0,0.013,0.001,0.019c0,0.001,0,0.003,0,0.004
		c0,0.005,0,0.01,0,0.015c0,0.002,0,0.004,0,0.007c0,0.004,0,0.008,0,0.012c0,0.002,0,0.005,0,0.007c0,0.004,0,0.008,0,0.012
		c0,0.002,0,0.005,0,0.007c0,0.004,0,0.009,0,0.013c0,0.002,0,0.004,0,0.006c0,0.006,0,0.013,0,0.019l0,0v1.132h3v-1.132
		C229.226,9.359,227.185,5.28,223.766,2.718L223.766,2.718z"/>
</g>
</svg>
