<?xml version="1.0" encoding="UTF-8"?>
<svg xmlns="http://www.w3.org/2000/svg" xmlns:xlink="http://www.w3.org/1999/xlink" width="224.22508pt" height="312.80777pt" viewBox="0 0 224.22508 312.80777" version="1.1">
<g id="surface1">
<path style="fill-rule:nonzero;fill:rgb(100%,100%,100%);fill-opacity:1;stroke-width:0.996733;stroke-linecap:butt;stroke-linejoin:miter;stroke:rgb(0%,0%,0%);stroke-opacity:1;stroke-miterlimit:4;" d="M 6715.014804 -2434.999194 L 6916.983554 -2434.999194 C 6922.854648 -2434.999194 6927.61246 -2430.241381 6927.61246 -2424.370287 L 6927.61246 -2133.819506 C 6927.61246 -2127.948412 6922.854648 -2123.1906 6916.983554 -2123.1906 L 6715.014804 -2123.1906 C 6709.14371 -2123.1906 6704.385898 -2127.948412 6704.385898 -2133.819506 L 6704.385898 -2424.370287 C 6704.385898 -2430.241381 6709.14371 -2434.999194 6715.014804 -2434.999194 Z M 6715.014804 -2434.999194 " transform="matrix(-1,0,0,-1,6928.11246,-2122.6906)"/>
<path style=" stroke:none;fill-rule:nonzero;fill:rgb(0%,0%,0%);fill-opacity:1;" d="M 216.097656 266.964844 L 216.097656 298.472656 L 212.988281 298.472656 L 212.988281 266.964844 Z M 216.097656 266.964844 "/>
<path style=" stroke:none;fill-rule:nonzero;fill:rgb(0%,0%,0%);fill-opacity:1;" d="M 203.769531 298.472656 C 206.761719 298.472656 209.171875 295.785156 209.171875 292.449219 L 209.171875 272.988281 C 209.171875 269.652344 206.761719 266.964844 203.769531 266.964844 L 202.023438 266.964844 C 199.03125 266.964844 196.617188 269.652344 196.617188 272.988281 L 196.617188 292.449219 C 196.617188 295.785156 199.03125 298.472656 202.023438 298.472656 Z M 202.867188 295.492188 C 201.097656 295.492188 199.675781 294.15625 199.675781 292.492188 L 199.675781 272.769531 C 199.675781 271.105469 201.097656 269.761719 202.867188 269.761719 C 204.636719 269.761719 206.058594 271.105469 206.058594 272.769531 L 206.058594 292.492188 C 206.058594 294.15625 204.636719 295.492188 202.867188 295.492188 Z M 202.867188 295.492188 "/>
<path style=" stroke:none;fill-rule:nonzero;fill:rgb(0%,0%,0%);fill-opacity:1;" d="M 8.125 45.84375 L 8.125 14.335938 L 11.238281 14.335938 L 11.238281 45.84375 Z M 8.125 45.84375 "/>
<path style=" stroke:none;fill-rule:nonzero;fill:rgb(0%,0%,0%);fill-opacity:1;" d="M 20.457031 14.335938 C 17.460938 14.335938 15.054688 17.023438 15.054688 20.359375 L 15.054688 39.820312 C 15.054688 43.15625 17.460938 45.84375 20.457031 45.84375 L 22.203125 45.84375 C 25.195312 45.84375 27.605469 43.15625 27.605469 39.820312 L 27.605469 20.359375 C 27.605469 17.023438 25.195312 14.335938 22.203125 14.335938 Z M 21.355469 17.3125 C 23.125 17.3125 24.546875 18.652344 24.546875 20.316406 L 24.546875 40.039062 C 24.546875 41.703125 23.125 43.042969 21.355469 43.042969 C 19.589844 43.042969 18.164062 41.703125 18.164062 40.039062 L 18.164062 20.316406 C 18.164062 18.652344 19.589844 17.3125 21.355469 17.3125 Z M 21.355469 17.3125 "/>
<path style=" stroke:none;fill-rule:nonzero;fill:rgb(0%,0%,0%);fill-opacity:1;" d="M 155.757812 151.46875 C 158.636719 145.695312 160.734375 139.769531 161.105469 133.433594 C 161.445312 131.101562 160.03125 131.0625 159.816406 132.703125 C 155.738281 148.296875 134.054688 144.074219 134.800781 129.40625 C 135.40625 117.511719 147.21875 114.953125 153.382812 118.84375 C 155.816406 120.273438 155.679688 119.417969 154.351562 117.929688 C 145.195312 107.71875 150.738281 94.570312 163.109375 94.328125 C 176.492188 95.121094 179.960938 109.199219 171.753906 117.476562 C 170.734375 118.472656 168.472656 121.667969 171.878906 119.433594 C 180.164062 113.542969 191.664062 119.875 191.429688 128.953125 C 191 145.691406 170.589844 146.941406 166.226562 132.960938 C 165.808594 131.410156 164.597656 130.628906 164.933594 133.261719 C 165.539062 138.03125 166.789062 145.21875 170.371094 151.46875 Z M 155.757812 151.46875 "/>
<path style=" stroke:none;fill-rule:nonzero;fill:rgb(0%,0%,0%);fill-opacity:1;" d="M 52.222656 151.46875 C 55.101562 145.695312 57.199219 139.769531 57.570312 133.433594 C 57.914062 131.101562 56.496094 131.0625 56.285156 132.703125 C 52.207031 148.296875 30.519531 144.074219 31.265625 129.40625 C 31.871094 117.511719 43.6875 114.953125 49.847656 118.84375 C 52.28125 120.273438 52.144531 119.417969 50.816406 117.929688 C 41.660156 107.71875 47.207031 94.570312 59.578125 94.328125 C 72.957031 95.121094 76.429688 109.199219 68.222656 117.476562 C 67.203125 118.472656 64.9375 121.667969 68.34375 119.433594 C 76.632812 113.542969 88.132812 119.875 87.898438 128.953125 C 87.464844 145.691406 67.058594 146.941406 62.695312 132.960938 C 62.273438 131.410156 61.066406 130.628906 61.398438 133.261719 C 62.003906 138.03125 63.257812 145.21875 66.835938 151.46875 Z M 52.222656 151.46875 "/>
<path style=" stroke:none;fill-rule:nonzero;fill:rgb(0%,0%,0%);fill-opacity:1;" d="M 103.9375 118.804688 C 106.820312 113.027344 108.914062 107.101562 109.289062 100.765625 C 109.628906 98.433594 108.210938 98.394531 108 100.039062 C 103.921875 115.628906 82.238281 111.410156 82.980469 96.742188 C 83.585938 84.847656 95.402344 82.289062 101.566406 86.175781 C 104 87.609375 103.859375 86.75 102.53125 85.265625 C 93.378906 75.054688 98.921875 61.902344 111.292969 61.664062 C 124.671875 62.457031 128.144531 76.53125 119.9375 84.8125 C 118.917969 85.804688 116.65625 89.003906 120.0625 86.765625 C 128.347656 80.878906 139.847656 87.210938 139.613281 96.289062 C 139.179688 113.027344 118.773438 114.277344 114.410156 100.292969 C 113.992188 98.742188 112.78125 97.964844 113.117188 100.597656 C 113.71875 105.363281 114.972656 112.550781 118.554688 118.804688 Z M 103.9375 118.804688 "/>
<path style=" stroke:none;fill-rule:nonzero;fill:rgb(0%,0%,0%);fill-opacity:1;" d="M 155.757812 86.136719 C 158.636719 80.363281 160.734375 74.4375 161.105469 68.101562 C 161.445312 65.769531 160.03125 65.730469 159.816406 67.371094 C 155.738281 82.964844 134.054688 78.742188 134.800781 64.078125 C 135.40625 52.179688 147.21875 49.621094 153.382812 53.511719 C 155.816406 54.945312 155.679688 54.085938 154.351562 52.601562 C 145.195312 42.386719 150.738281 29.238281 163.109375 28.996094 C 176.492188 29.789062 179.960938 43.867188 171.753906 52.144531 C 170.734375 53.140625 168.472656 56.335938 171.878906 54.101562 C 180.164062 48.214844 191.664062 54.542969 191.429688 63.621094 C 191 80.363281 170.589844 81.609375 166.226562 67.628906 C 165.808594 66.078125 164.597656 65.300781 164.933594 67.933594 C 165.539062 72.699219 166.789062 79.886719 170.371094 86.136719 Z M 155.757812 86.136719 "/>
<path style=" stroke:none;fill-rule:nonzero;fill:rgb(0%,0%,0%);fill-opacity:1;" d="M 52.222656 86.136719 C 55.101562 80.363281 57.199219 74.4375 57.570312 68.101562 C 57.914062 65.769531 56.496094 65.730469 56.285156 67.371094 C 52.207031 82.964844 30.519531 78.742188 31.265625 64.078125 C 31.871094 52.179688 43.6875 49.621094 49.847656 53.511719 C 52.28125 54.945312 52.144531 54.085938 50.816406 52.601562 C 41.660156 42.386719 47.207031 29.238281 59.578125 28.996094 C 72.957031 29.789062 76.429688 43.867188 68.222656 52.144531 C 67.203125 53.140625 64.9375 56.335938 68.34375 54.101562 C 76.632812 48.214844 88.132812 54.542969 87.898438 63.621094 C 87.464844 80.363281 67.058594 81.609375 62.695312 67.628906 C 62.273438 66.078125 61.066406 65.300781 61.398438 67.933594 C 62.003906 72.699219 63.257812 79.886719 66.835938 86.136719 Z M 52.222656 86.136719 "/>
<path style=" stroke:none;fill-rule:nonzero;fill:rgb(0%,0%,0%);fill-opacity:1;" d="M 66.925781 161.339844 C 64.046875 167.113281 61.949219 173.039062 61.578125 179.375 C 61.234375 181.707031 62.652344 181.746094 62.867188 180.105469 C 66.941406 164.511719 88.628906 168.734375 87.882812 183.402344 C 87.277344 195.296875 75.464844 197.855469 69.300781 193.964844 C 66.867188 192.53125 67.003906 193.390625 68.332031 194.875 C 77.488281 205.089844 71.941406 218.238281 59.570312 218.480469 C 46.191406 217.6875 42.71875 203.609375 50.925781 195.332031 C 51.949219 194.335938 54.210938 191.140625 50.804688 193.375 C 42.515625 199.261719 31.015625 192.933594 31.25 183.855469 C 31.683594 167.113281 52.089844 165.867188 56.453125 179.847656 C 56.875 181.398438 58.082031 182.175781 57.75 179.542969 C 57.144531 174.777344 55.894531 167.589844 52.3125 161.339844 Z M 66.925781 161.339844 "/>
<path style=" stroke:none;fill-rule:nonzero;fill:rgb(0%,0%,0%);fill-opacity:1;" d="M 66.925781 226.667969 C 64.046875 232.445312 61.949219 238.371094 61.578125 244.707031 C 61.234375 247.039062 62.652344 247.078125 62.867188 245.433594 C 66.941406 229.84375 88.628906 234.0625 87.882812 248.730469 C 87.277344 260.625 75.464844 263.183594 69.300781 259.296875 C 66.867188 257.863281 67.003906 258.722656 68.332031 260.207031 C 77.488281 270.417969 71.941406 283.570312 59.570312 283.808594 C 46.191406 283.015625 42.71875 268.941406 50.925781 260.660156 C 51.949219 259.667969 54.210938 256.46875 50.804688 258.707031 C 42.515625 264.59375 31.015625 258.261719 31.25 249.183594 C 31.683594 232.445312 52.089844 231.199219 56.453125 245.179688 C 56.875 246.730469 58.082031 247.507812 57.75 244.875 C 57.144531 240.109375 55.894531 232.921875 52.3125 226.667969 Z M 66.925781 226.667969 "/>
<path style=" stroke:none;fill-rule:nonzero;fill:rgb(0%,0%,0%);fill-opacity:1;" d="M 170.457031 161.339844 C 167.578125 167.113281 165.484375 173.039062 165.109375 179.375 C 164.769531 181.707031 166.183594 181.746094 166.398438 180.105469 C 170.476562 164.511719 192.160156 168.734375 191.414062 183.402344 C 190.8125 195.296875 178.996094 197.855469 172.832031 193.964844 C 170.398438 192.53125 170.539062 193.390625 171.867188 194.875 C 181.019531 205.089844 175.476562 218.238281 163.105469 218.480469 C 149.726562 217.6875 146.253906 203.609375 154.460938 195.332031 C 155.480469 194.335938 157.742188 191.140625 154.335938 193.375 C 146.050781 199.261719 134.550781 192.933594 134.785156 183.855469 C 135.21875 167.113281 155.625 165.867188 159.988281 179.847656 C 160.40625 181.398438 161.617188 182.175781 161.28125 179.542969 C 160.675781 174.777344 159.425781 167.589844 155.84375 161.339844 Z M 170.457031 161.339844 "/>
<path style=" stroke:none;fill-rule:nonzero;fill:rgb(0%,0%,0%);fill-opacity:1;" d="M 170.457031 226.667969 C 167.578125 232.445312 165.484375 238.371094 165.109375 244.707031 C 164.769531 247.039062 166.183594 247.078125 166.398438 245.433594 C 170.476562 229.84375 192.160156 234.0625 191.414062 248.730469 C 190.8125 260.625 178.996094 263.183594 172.832031 259.296875 C 170.398438 257.863281 170.539062 258.722656 171.867188 260.207031 C 181.019531 270.417969 175.476562 283.570312 163.105469 283.808594 C 149.726562 283.015625 146.253906 268.941406 154.460938 260.660156 C 155.480469 259.667969 157.742188 256.46875 154.335938 258.707031 C 146.050781 264.59375 134.550781 258.261719 134.785156 249.183594 C 135.21875 232.445312 155.625 231.199219 159.988281 245.179688 C 160.40625 246.730469 161.617188 247.507812 161.28125 244.875 C 160.675781 240.109375 159.425781 232.921875 155.84375 226.667969 Z M 170.457031 226.667969 "/>
<path style=" stroke:none;fill-rule:nonzero;fill:rgb(0%,0%,0%);fill-opacity:1;" d="M 119.109375 194.003906 C 116.230469 199.777344 114.132812 205.703125 113.761719 212.039062 C 113.417969 214.371094 114.835938 214.410156 115.050781 212.769531 C 119.125 197.175781 140.8125 201.398438 140.066406 216.066406 C 139.460938 227.960938 127.648438 230.519531 121.484375 226.628906 C 119.050781 225.199219 119.1875 226.054688 120.515625 227.542969 C 129.671875 237.753906 124.125 250.902344 111.753906 251.144531 C 98.375 250.351562 94.902344 236.273438 103.109375 227.996094 C 104.132812 227 106.394531 223.804688 102.988281 226.039062 C 94.699219 231.929688 83.199219 225.597656 83.433594 216.519531 C 83.867188 199.78125 104.273438 198.53125 108.636719 212.511719 C 109.058594 214.0625 110.265625 214.84375 109.933594 212.210938 C 109.328125 207.441406 108.078125 200.253906 104.496094 194.003906 Z M 119.109375 194.003906 "/>
<path style=" stroke:none;fill-rule:nonzero;fill:rgb(0%,0%,0%);fill-opacity:1;" d="M 13.671875 75.738281 C 14.863281 73.292969 16.023438 71.019531 16.65625 68.339844 C 17.074219 65.8125 16.214844 66.75 15.730469 68.40625 C 15.007812 70.703125 13.007812 71.75 11.148438 71.777344 C 7.777344 71.820312 6.097656 69.171875 6.203125 66.320312 C 5.832031 63.324219 8.871094 61.203125 11.164062 61.363281 C 12.886719 61.488281 14.386719 62.417969 15.296875 63.140625 C 15.890625 63.457031 16.53125 63.59375 15.640625 62.78125 C 13.964844 60.949219 12.5625 59.816406 12.59375 57.070312 C 12.625 54.492188 14.828125 51.800781 17.75 51.886719 C 21.402344 51.992188 23.0625 54.777344 23.054688 57.367188 C 23.042969 59.257812 22.101562 60.992188 20.640625 62.070312 C 19.699219 62.835938 19.960938 63.410156 21.039062 62.683594 C 22.074219 61.792969 23.308594 61.402344 24.585938 61.375 C 28.074219 61.320312 29.441406 64.335938 29.238281 67.140625 C 29.050781 69.765625 26.816406 72.46875 23.871094 72.160156 C 21.238281 71.859375 19.859375 69.652344 19.066406 67.382812 C 18.804688 66.691406 18.390625 66.5 18.402344 67.539062 C 19.007812 72.59375 20.894531 75.742188 20.90625 75.738281 Z M 13.671875 75.738281 "/>
<path style=" stroke:none;fill-rule:nonzero;fill:rgb(0%,0%,0%);fill-opacity:1;" d="M 210.574219 237.742188 C 209.382812 240.1875 208.222656 242.464844 207.589844 245.144531 C 207.171875 247.671875 208.027344 246.730469 208.515625 245.074219 C 209.238281 242.777344 211.238281 241.730469 213.09375 241.707031 C 216.464844 241.660156 218.148438 244.3125 218.042969 247.160156 C 218.410156 250.160156 215.371094 252.28125 213.082031 252.117188 C 211.359375 251.996094 209.859375 251.066406 208.949219 250.34375 C 208.351562 250.027344 207.714844 249.886719 208.605469 250.699219 C 210.28125 252.535156 211.679688 253.664062 211.648438 256.410156 C 211.621094 258.988281 209.417969 261.679688 206.496094 261.59375 C 202.84375 261.488281 201.183594 258.703125 201.191406 256.113281 C 201.203125 254.226562 202.144531 252.488281 203.601562 251.410156 C 204.546875 250.644531 204.28125 250.070312 203.203125 250.796875 C 202.171875 251.6875 200.9375 252.078125 199.660156 252.105469 C 196.167969 252.160156 194.804688 249.144531 195.003906 246.34375 C 195.191406 243.71875 197.429688 241.015625 200.375 241.320312 C 203.003906 241.621094 204.386719 243.832031 205.179688 246.097656 C 205.441406 246.792969 205.855469 246.980469 205.84375 245.945312 C 205.234375 240.886719 203.351562 237.738281 203.339844 237.742188 Z M 210.574219 237.742188 "/>
</g>
</svg>
