<?xml version="1.0" encoding="UTF-8"?>
<svg xmlns="http://www.w3.org/2000/svg" xmlns:xlink="http://www.w3.org/1999/xlink" width="224.22508pt" height="312.80777pt" viewBox="0 0 224.22508 312.80777" version="1.1">
<g id="surface1">
<path style="fill-rule:nonzero;fill:rgb(100%,100%,100%);fill-opacity:1;stroke-width:0.996733;stroke-linecap:butt;stroke-linejoin:miter;stroke:rgb(0%,0%,0%);stroke-opacity:1;stroke-miterlimit:4;" d="M 6268.559738 -2746.8094 L 6470.528488 -2746.8094 C 6476.399582 -2746.8094 6481.157395 -2742.051588 6481.157395 -2736.180494 L 6481.157395 -2445.629713 C 6481.157395 -2439.758619 6476.399582 -2435.000806 6470.528488 -2435.000806 L 6268.559738 -2435.000806 C 6262.688645 -2435.000806 6257.930832 -2439.758619 6257.930832 -2445.629713 L 6257.930832 -2736.180494 C 6257.930832 -2742.051588 6262.688645 -2746.8094 6268.559738 -2746.8094 Z M 6268.559738 -2746.8094 " transform="matrix(1,0,0,1,-6257.430832,2747.3094)"/>
<path style=" stroke:none;fill-rule:nonzero;fill:rgb(0%,0%,0%);fill-opacity:1;" d="M 8.671875 47.136719 L 8.835938 45.117188 C 9.347656 38.878906 10.710938 36.769531 18.457031 30.261719 C 22.21875 27.101562 23.453125 25.542969 23.625 23.734375 C 24.117188 19.476562 20.277344 18.144531 17.773438 18.121094 C 14.53125 18.089844 10.863281 20.03125 12.609375 24.535156 L 8.972656 25.601562 C 8.238281 21.402344 8.992188 17.460938 12.398438 15.710938 C 16.945312 13.429688 22.78125 14.324219 25.722656 17.917969 C 27.699219 20.332031 28.152344 23.664062 27.089844 26.273438 C 23.988281 32.945312 13.46875 35.878906 12.601562 43.59375 L 24.230469 43.59375 L 24.230469 39.296875 L 27.65625 39.296875 L 27.65625 47.203125 Z M 8.671875 47.136719 "/>
<path style=" stroke:none;fill-rule:nonzero;fill:rgb(0%,0%,0%);fill-opacity:1;" d="M 215.28125 265.671875 L 215.117188 267.691406 C 214.605469 273.929688 213.242188 276.039062 205.492188 282.546875 C 201.734375 285.707031 200.5 287.265625 200.324219 289.074219 C 199.835938 293.332031 203.675781 294.664062 206.179688 294.6875 C 209.421875 294.714844 213.089844 292.773438 211.34375 288.273438 L 214.976562 287.203125 C 215.710938 291.40625 214.960938 295.347656 211.554688 297.097656 C 207.007812 299.375 201.171875 298.480469 198.230469 294.890625 C 196.25 292.476562 195.800781 289.144531 196.863281 286.535156 C 199.960938 279.863281 210.484375 276.929688 211.351562 269.214844 L 199.722656 269.214844 L 199.722656 273.511719 L 196.296875 273.511719 L 196.296875 265.601562 Z M 215.28125 265.671875 "/>
<path style=" stroke:none;fill-rule:nonzero;fill:rgb(0%,0%,0%);fill-opacity:1;" d="M 104.726562 85.78125 C 107.605469 80.003906 109.703125 74.082031 110.074219 67.742188 C 110.414062 65.414062 109 65.375 108.785156 67.015625 C 104.710938 82.609375 83.023438 78.386719 83.769531 63.71875 C 84.375 51.824219 96.1875 49.265625 102.351562 53.15625 C 104.785156 54.585938 104.648438 53.730469 103.320312 52.242188 C 94.164062 42.03125 99.710938 28.878906 112.082031 28.640625 C 125.460938 29.433594 128.933594 43.511719 120.726562 51.789062 C 119.703125 52.78125 117.441406 55.980469 120.847656 53.746094 C 129.132812 47.855469 140.636719 54.1875 140.402344 63.265625 C 139.96875 80.003906 119.5625 81.253906 115.195312 67.269531 C 114.777344 65.722656 113.566406 64.941406 113.902344 67.574219 C 114.507812 72.34375 115.757812 79.527344 119.339844 85.78125 Z M 104.726562 85.78125 "/>
<path style=" stroke:none;fill-rule:nonzero;fill:rgb(0%,0%,0%);fill-opacity:1;" d="M 119.429688 227.449219 C 116.550781 233.222656 114.453125 239.148438 114.082031 245.484375 C 113.738281 247.816406 115.15625 247.855469 115.367188 246.214844 C 119.445312 230.621094 141.132812 234.84375 140.386719 249.511719 C 139.78125 261.40625 127.964844 263.964844 121.804688 260.074219 C 119.371094 258.640625 119.507812 259.5 120.835938 260.988281 C 129.988281 271.199219 124.445312 284.347656 112.074219 284.589844 C 98.695312 283.796875 95.222656 269.71875 103.429688 261.441406 C 104.449219 260.445312 106.714844 257.25 103.308594 259.484375 C 95.019531 265.371094 83.519531 259.042969 83.753906 249.964844 C 84.1875 233.226562 104.59375 231.976562 108.957031 245.957031 C 109.378906 247.507812 110.585938 248.285156 110.253906 245.652344 C 109.648438 240.886719 108.394531 233.699219 104.816406 227.449219 Z M 119.429688 227.449219 "/>
<path style=" stroke:none;fill-rule:nonzero;fill:rgb(0%,0%,0%);fill-opacity:1;" d="M 14.207031 75.15625 C 15.398438 72.710938 16.558594 70.4375 17.191406 67.757812 C 17.609375 65.230469 16.75 66.167969 16.265625 67.824219 C 15.542969 70.121094 13.542969 71.167969 11.683594 71.191406 C 8.3125 71.238281 6.632812 68.589844 6.738281 65.738281 C 6.367188 62.742188 9.40625 60.621094 11.699219 60.78125 C 13.421875 60.90625 14.921875 61.835938 15.832031 62.558594 C 16.429688 62.875 17.066406 63.011719 16.175781 62.199219 C 14.5 60.367188 13.101562 59.234375 13.128906 56.488281 C 13.160156 53.910156 15.363281 51.21875 18.285156 51.304688 C 21.9375 51.410156 23.597656 54.195312 23.589844 56.785156 C 23.578125 58.671875 22.636719 60.410156 21.179688 61.488281 C 20.234375 62.253906 20.5 62.828125 21.574219 62.101562 C 22.609375 61.210938 23.84375 60.820312 25.121094 60.792969 C 28.609375 60.738281 29.976562 63.753906 29.777344 66.558594 C 29.589844 69.183594 27.351562 71.886719 24.40625 71.578125 C 21.777344 71.277344 20.394531 69.070312 19.601562 66.800781 C 19.339844 66.105469 18.925781 65.917969 18.9375 66.957031 C 19.542969 72.011719 21.429688 75.160156 21.441406 75.15625 Z M 14.207031 75.15625 "/>
<path style=" stroke:none;fill-rule:nonzero;fill:rgb(0%,0%,0%);fill-opacity:1;" d="M 210.019531 237.574219 C 208.828125 240.019531 207.667969 242.296875 207.035156 244.976562 C 206.617188 247.503906 207.472656 246.5625 207.960938 244.90625 C 208.679688 242.609375 210.683594 241.5625 212.539062 241.539062 C 215.910156 241.492188 217.59375 244.140625 217.488281 246.992188 C 217.855469 249.992188 214.816406 252.113281 212.527344 251.949219 C 210.804688 251.824219 209.300781 250.898438 208.394531 250.171875 C 207.796875 249.859375 207.160156 249.71875 208.046875 250.53125 C 209.726562 252.363281 211.125 253.496094 211.09375 256.242188 C 211.066406 258.820312 208.859375 261.511719 205.9375 261.425781 C 202.289062 261.320312 200.628906 258.535156 200.636719 255.945312 C 200.644531 254.058594 201.589844 252.320312 203.046875 251.242188 C 203.992188 250.476562 203.726562 249.902344 202.648438 250.628906 C 201.613281 251.519531 200.382812 251.910156 199.105469 251.9375 C 195.613281 251.992188 194.25 248.976562 194.449219 246.175781 C 194.636719 243.546875 196.871094 240.847656 199.820312 241.152344 C 202.449219 241.453125 203.832031 243.660156 204.625 245.929688 C 204.886719 246.625 205.300781 246.8125 205.289062 245.777344 C 204.679688 240.71875 202.796875 237.570312 202.78125 237.574219 Z M 210.019531 237.574219 "/>
</g>
</svg>
