<?xml version="1.0" encoding="UTF-8"?>
<svg xmlns="http://www.w3.org/2000/svg" xmlns:xlink="http://www.w3.org/1999/xlink" width="224.22508pt" height="312.80777pt" viewBox="0 0 224.22508 312.80777" version="1.1">
<g id="surface1">
<path style="fill-rule:nonzero;fill:rgb(100%,100%,100%);fill-opacity:1;stroke-width:0.996733;stroke-linecap:butt;stroke-linejoin:miter;stroke:rgb(0%,0%,0%);stroke-opacity:1;stroke-miterlimit:4;" d="M 6491.788256 -2746.809399 L 6693.757006 -2746.809399 C 6699.6281 -2746.809399 6704.385912 -2742.051587 6704.385912 -2736.180493 L 6704.385912 -2445.629712 C 6704.385912 -2439.758618 6699.6281 -2435.000805 6693.757006 -2435.000805 L 6491.788256 -2435.000805 C 6485.917162 -2435.000805 6481.15935 -2439.758618 6481.15935 -2445.629712 L 6481.15935 -2736.180493 C 6481.15935 -2742.051587 6485.917162 -2746.809399 6491.788256 -2746.809399 Z M 6491.788256 -2746.809399 " transform="matrix(1,0,0,1,-6480.65935,2747.309399)"/>
<path style=" stroke:none;fill-rule:nonzero;fill:rgb(0%,0%,0%);fill-opacity:1;" d="M 7.410156 38.308594 L 9.988281 36.449219 C 12.226562 40.023438 14.730469 42.382812 18.554688 41.976562 C 24.296875 41.589844 26.675781 35.679688 25.472656 31.226562 C 24.3125 27.234375 19.554688 25.285156 15.777344 27.417969 C 14.886719 27.921875 13.859375 28.539062 13.859375 28.539062 L 12.511719 26.347656 L 21.382812 16.03125 L 11.757812 16.03125 L 11.757812 20.300781 L 8.0625 20.300781 L 8.0625 12.644531 L 26.875 12.644531 L 26.875 15.246094 C 26.875 15.246094 21.835938 20.375 20.167969 23.1875 C 24.273438 23.335938 27.582031 25.886719 28.765625 29.925781 C 29.457031 32.046875 29.148438 36.910156 28.242188 39 C 26.730469 42.492188 22.589844 45.324219 18.808594 45.488281 C 12.460938 45.90625 9.089844 41.539062 7.410156 38.308594 Z M 7.410156 38.308594 "/>
<path style=" stroke:none;fill-rule:nonzero;fill:rgb(0%,0%,0%);fill-opacity:1;" d="M 216.21875 274.496094 L 213.640625 276.359375 C 211.402344 272.785156 208.898438 270.425781 205.074219 270.832031 C 199.332031 271.21875 196.953125 277.125 198.15625 281.582031 C 199.316406 285.574219 204.074219 287.523438 207.851562 285.390625 C 208.742188 284.886719 209.769531 284.363281 209.769531 284.363281 L 211.363281 286.421875 L 202.246094 296.777344 L 211.871094 296.777344 L 211.871094 292.503906 L 215.566406 292.503906 L 215.566406 300.160156 L 196.753906 300.160156 L 196.753906 297.5625 C 196.753906 297.5625 201.792969 292.433594 203.460938 289.621094 C 199.355469 289.472656 196.046875 286.921875 194.863281 282.882812 C 194.171875 280.757812 194.484375 275.898438 195.386719 273.808594 C 196.898438 270.316406 201.039062 267.484375 204.820312 267.320312 C 211.167969 266.898438 214.539062 271.269531 216.21875 274.496094 Z M 216.21875 274.496094 "/>
<path style=" stroke:none;fill-rule:nonzero;fill:rgb(0%,0%,0%);fill-opacity:1;" d="M 104.375 185.316406 C 107.289062 179.472656 109.410156 173.476562 109.789062 167.0625 C 110.132812 164.703125 108.699219 164.664062 108.484375 166.328125 C 104.359375 182.105469 82.410156 177.832031 83.167969 162.992188 C 83.777344 150.953125 95.734375 148.363281 101.972656 152.296875 C 104.433594 153.75 104.296875 152.878906 102.953125 151.375 C 93.6875 141.042969 99.296875 127.734375 111.816406 127.488281 C 125.359375 128.292969 128.871094 142.539062 120.566406 150.917969 C 119.53125 151.921875 117.242188 155.160156 120.691406 152.894531 C 129.078125 146.9375 140.714844 153.34375 140.476562 162.53125 C 140.039062 179.472656 119.386719 180.734375 114.972656 166.585938 C 114.546875 165.015625 113.324219 164.230469 113.660156 166.894531 C 114.273438 171.71875 115.539062 178.992188 119.164062 185.316406 Z M 104.375 185.316406 "/>
<path style=" stroke:none;fill-rule:nonzero;fill:rgb(0%,0%,0%);fill-opacity:1;" d="M 104.3125 85.714844 C 107.226562 79.867188 109.347656 73.871094 109.722656 67.460938 C 110.070312 65.101562 108.636719 65.058594 108.417969 66.722656 C 104.292969 82.503906 82.347656 78.230469 83.101562 63.386719 C 83.714844 51.347656 95.671875 48.757812 101.90625 52.695312 C 104.371094 54.144531 104.230469 53.277344 102.886719 51.773438 C 93.621094 41.4375 99.234375 28.128906 111.753906 27.886719 C 125.292969 28.6875 128.808594 42.933594 120.5 51.3125 C 119.46875 52.320312 117.179688 55.554688 120.625 53.292969 C 129.011719 47.332031 140.652344 53.742188 140.414062 62.925781 C 139.976562 79.867188 119.324219 81.128906 114.90625 66.980469 C 114.484375 65.414062 113.257812 64.625 113.597656 67.289062 C 114.210938 72.113281 115.476562 79.386719 119.101562 85.714844 Z M 104.3125 85.714844 "/>
<path style=" stroke:none;fill-rule:nonzero;fill:rgb(0%,0%,0%);fill-opacity:1;" d="M 119.191406 227.355469 C 116.277344 233.203125 114.152344 239.199219 113.777344 245.609375 C 113.433594 247.96875 114.863281 248.011719 115.082031 246.347656 C 119.207031 230.566406 141.152344 234.839844 140.398438 249.683594 C 139.785156 261.722656 127.828125 264.3125 121.59375 260.375 C 119.128906 258.925781 119.269531 259.792969 120.613281 261.296875 C 129.878906 271.632812 124.265625 284.941406 111.746094 285.183594 C 98.207031 284.382812 94.695312 270.136719 103 261.757812 C 104.03125 260.75 106.320312 257.515625 102.875 259.777344 C 94.488281 265.738281 82.847656 259.328125 83.085938 250.144531 C 83.523438 233.203125 104.175781 231.941406 108.59375 246.089844 C 109.019531 247.65625 110.242188 248.445312 109.902344 245.78125 C 109.292969 240.957031 108.023438 233.683594 104.402344 227.355469 Z M 119.191406 227.355469 "/>
<path style=" stroke:none;fill-rule:nonzero;fill:rgb(0%,0%,0%);fill-opacity:1;" d="M 13.402344 74.621094 C 14.609375 72.144531 15.78125 69.839844 16.421875 67.128906 C 16.847656 64.570312 15.980469 65.523438 15.488281 67.199219 C 14.757812 69.523438 12.730469 70.582031 10.851562 70.609375 C 7.441406 70.652344 5.738281 67.972656 5.84375 65.089844 C 5.472656 62.054688 8.546875 59.90625 10.867188 60.070312 C 12.609375 60.195312 14.128906 61.136719 15.046875 61.867188 C 15.652344 62.1875 16.296875 62.328125 15.398438 61.503906 C 13.699219 59.652344 12.285156 58.507812 12.316406 55.726562 C 12.34375 53.117188 14.574219 50.394531 17.53125 50.480469 C 21.226562 50.585938 22.90625 53.40625 22.898438 56.027344 C 22.890625 57.9375 21.933594 59.695312 20.457031 60.785156 C 19.503906 61.5625 19.769531 62.140625 20.859375 61.40625 C 21.910156 60.503906 23.15625 60.109375 24.449219 60.082031 C 27.980469 60.027344 29.363281 63.078125 29.160156 65.914062 C 28.96875 68.574219 26.707031 71.308594 23.726562 71 C 21.0625 70.691406 19.664062 68.457031 18.863281 66.164062 C 18.597656 65.460938 18.179688 65.269531 18.191406 66.320312 C 18.804688 71.4375 20.710938 74.621094 20.726562 74.621094 Z M 13.402344 74.621094 "/>
<path style=" stroke:none;fill-rule:nonzero;fill:rgb(0%,0%,0%);fill-opacity:1;" d="M 210.824219 238.925781 C 209.617188 241.402344 208.441406 243.703125 207.800781 246.417969 C 207.378906 248.976562 208.246094 248.023438 208.738281 246.347656 C 209.46875 244.023438 211.492188 242.964844 213.375 242.9375 C 216.785156 242.890625 218.488281 245.574219 218.382812 248.457031 C 218.753906 251.492188 215.679688 253.640625 213.359375 253.472656 C 211.617188 253.351562 210.097656 252.410156 209.175781 251.679688 C 208.574219 251.359375 207.929688 251.21875 208.828125 252.039062 C 210.527344 253.894531 211.941406 255.039062 211.910156 257.820312 C 211.882812 260.429688 209.648438 263.152344 206.691406 263.066406 C 202.996094 262.960938 201.316406 260.140625 201.328125 257.519531 C 201.335938 255.609375 202.292969 253.851562 203.765625 252.761719 C 204.722656 251.984375 204.453125 251.40625 203.363281 252.136719 C 202.316406 253.042969 201.070312 253.4375 199.777344 253.464844 C 196.246094 253.519531 194.863281 250.46875 195.066406 247.628906 C 195.253906 244.972656 197.519531 242.238281 200.5 242.546875 C 203.160156 242.851562 204.558594 245.089844 205.363281 247.382812 C 205.628906 248.085938 206.046875 248.277344 206.035156 247.226562 C 205.417969 242.109375 203.511719 238.925781 203.5 238.925781 Z M 210.824219 238.925781 "/>
</g>
</svg>
