<?xml version="1.0" encoding="UTF-8"?>
<svg xmlns="http://www.w3.org/2000/svg" xmlns:xlink="http://www.w3.org/1999/xlink" width="224.22508pt" height="312.80777pt" viewBox="0 0 224.22508 312.80777" version="1.1">
<g id="surface1">
<path style="fill-rule:nonzero;fill:rgb(100%,100%,100%);fill-opacity:1;stroke-width:0.996733;stroke-linecap:butt;stroke-linejoin:miter;stroke:rgb(0%,0%,0%);stroke-opacity:1;stroke-miterlimit:4;" d="M 6715.016286 -2746.809399 L 6916.985036 -2746.809399 C 6922.85613 -2746.809399 6927.613943 -2742.051587 6927.613943 -2736.180493 L 6927.613943 -2445.629712 C 6927.613943 -2439.758618 6922.85613 -2435.000805 6916.985036 -2435.000805 L 6715.016286 -2435.000805 C 6709.145193 -2435.000805 6704.38738 -2439.758618 6704.38738 -2445.629712 L 6704.38738 -2736.180493 C 6704.38738 -2742.051587 6709.145193 -2746.809399 6715.016286 -2746.809399 Z M 6715.016286 -2746.809399 " transform="matrix(1,0,0,1,-6703.88738,2747.309399)"/>
<path style=" stroke:none;fill-rule:nonzero;fill:rgb(0%,0%,0%);fill-opacity:1;" d="M 18.910156 46.871094 L 18.910156 44.058594 L 21.496094 44.058594 L 21.496094 39.421875 L 8.570312 39.421875 L 8.570312 36.152344 L 22.554688 15.054688 L 24.839844 15.0625 L 24.839844 36.152344 L 28.792969 36.152344 L 28.792969 39.421875 L 24.839844 39.421875 L 24.765625 44.058594 L 26.929688 44.058594 L 26.929688 46.871094 Z M 21.496094 22.773438 L 12.617188 36.152344 L 21.496094 36.152344 Z M 21.496094 22.773438 "/>
<path style=" stroke:none;fill-rule:nonzero;fill:rgb(0%,0%,0%);fill-opacity:1;" d="M 206.46875 265.9375 L 206.46875 268.75 L 203.882812 268.75 L 203.882812 273.386719 L 216.808594 273.386719 L 216.808594 276.65625 L 202.824219 297.753906 L 200.535156 297.746094 L 200.535156 276.65625 L 196.582031 276.65625 L 196.582031 273.386719 L 200.535156 273.386719 L 200.613281 268.75 L 198.445312 268.75 L 198.445312 265.9375 Z M 203.882812 290.03125 L 212.761719 276.65625 L 203.882812 276.65625 Z M 203.882812 290.03125 "/>
<path style=" stroke:none;fill-rule:nonzero;fill:rgb(0%,0%,0%);fill-opacity:1;" d="M 154.304688 83.878906 C 157.183594 78.105469 159.28125 72.179688 159.652344 65.84375 C 159.992188 63.511719 158.578125 63.472656 158.363281 65.113281 C 154.285156 80.707031 132.601562 76.484375 133.347656 61.816406 C 133.953125 49.921875 145.765625 47.363281 151.929688 51.253906 C 154.363281 52.6875 154.226562 51.828125 152.898438 50.339844 C 143.742188 40.128906 149.285156 26.980469 161.65625 26.738281 C 175.039062 27.53125 178.507812 41.609375 170.300781 49.886719 C 169.28125 50.882812 167.019531 54.078125 170.425781 51.84375 C 178.710938 45.957031 190.210938 52.285156 189.976562 61.363281 C 189.546875 78.101562 169.136719 79.351562 164.773438 65.371094 C 164.355469 63.820312 163.144531 63.042969 163.480469 65.675781 C 164.085938 70.441406 165.335938 77.628906 168.917969 83.878906 Z M 154.304688 83.878906 "/>
<path style=" stroke:none;fill-rule:nonzero;fill:rgb(0%,0%,0%);fill-opacity:1;" d="M 54.769531 83.878906 C 57.648438 78.105469 59.746094 72.179688 60.117188 65.84375 C 60.460938 63.511719 59.042969 63.472656 58.832031 65.113281 C 54.753906 80.707031 33.066406 76.484375 33.8125 61.816406 C 34.417969 49.921875 46.234375 47.363281 52.394531 51.253906 C 54.828125 52.6875 54.691406 51.828125 53.363281 50.339844 C 44.210938 40.128906 49.753906 26.980469 62.125 26.738281 C 75.503906 27.53125 78.976562 41.609375 70.769531 49.886719 C 69.75 50.882812 67.484375 54.078125 70.890625 51.84375 C 79.179688 45.957031 90.679688 52.285156 90.445312 61.363281 C 90.011719 78.101562 69.605469 79.351562 65.242188 65.371094 C 64.820312 63.820312 63.613281 63.042969 63.945312 65.675781 C 64.550781 70.441406 65.804688 77.628906 69.382812 83.878906 Z M 54.769531 83.878906 "/>
<path style=" stroke:none;fill-rule:nonzero;fill:rgb(0%,0%,0%);fill-opacity:1;" d="M 169.003906 225.585938 C 166.125 231.359375 164.03125 237.285156 163.65625 243.625 C 163.316406 245.953125 164.730469 245.992188 164.945312 244.351562 C 169.023438 228.757812 190.707031 232.980469 189.960938 247.648438 C 189.359375 259.542969 177.542969 262.101562 171.378906 258.210938 C 168.945312 256.78125 169.085938 257.636719 170.414062 259.125 C 179.566406 269.335938 174.023438 282.484375 161.652344 282.726562 C 148.273438 281.933594 144.800781 267.855469 153.007812 259.578125 C 154.027344 258.582031 156.289062 255.386719 152.882812 257.621094 C 144.597656 263.511719 133.097656 257.179688 133.332031 248.101562 C 133.765625 231.363281 154.171875 230.113281 158.535156 244.097656 C 158.953125 245.644531 160.164062 246.425781 159.828125 243.792969 C 159.222656 239.023438 157.972656 231.839844 154.390625 225.585938 Z M 169.003906 225.585938 "/>
<path style=" stroke:none;fill-rule:nonzero;fill:rgb(0%,0%,0%);fill-opacity:1;" d="M 69.472656 225.585938 C 66.59375 231.359375 64.496094 237.285156 64.125 243.625 C 63.78125 245.953125 65.199219 245.992188 65.414062 244.351562 C 69.488281 228.757812 91.175781 232.980469 90.429688 247.648438 C 89.824219 259.542969 78.011719 262.101562 71.847656 258.210938 C 69.414062 256.78125 69.550781 257.636719 70.878906 259.125 C 80.035156 269.335938 74.488281 282.484375 62.117188 282.726562 C 48.738281 281.933594 45.265625 267.855469 53.472656 259.578125 C 54.496094 258.582031 56.757812 255.386719 53.351562 257.621094 C 45.0625 263.511719 33.5625 257.179688 33.796875 248.101562 C 34.230469 231.363281 54.636719 230.113281 59 244.097656 C 59.421875 245.644531 60.628906 246.425781 60.296875 243.792969 C 59.691406 239.023438 58.441406 231.839844 54.859375 225.585938 Z M 69.472656 225.585938 "/>
<path style=" stroke:none;fill-rule:nonzero;fill:rgb(0%,0%,0%);fill-opacity:1;" d="M 14.457031 75.921875 C 15.652344 73.476562 16.8125 71.199219 17.441406 68.519531 C 17.863281 65.992188 17.003906 66.929688 16.519531 68.585938 C 15.796875 70.886719 13.796875 71.929688 11.9375 71.957031 C 8.566406 72.003906 6.886719 69.351562 6.988281 66.503906 C 6.621094 63.503906 9.660156 61.382812 11.953125 61.546875 C 13.671875 61.667969 15.175781 62.597656 16.085938 63.320312 C 16.679688 63.636719 17.320312 63.777344 16.429688 62.960938 C 14.75 61.128906 13.351562 60 13.382812 57.25 C 13.414062 54.671875 15.617188 51.984375 18.539062 52.066406 C 22.191406 52.171875 23.851562 54.957031 23.84375 57.546875 C 23.832031 59.4375 22.886719 61.175781 21.429688 62.25 C 20.488281 63.015625 20.75 63.589844 21.828125 62.867188 C 22.863281 61.972656 24.09375 61.582031 25.375 61.554688 C 28.863281 61.5 30.226562 64.515625 30.027344 67.320312 C 29.839844 69.945312 27.605469 72.648438 24.660156 72.34375 C 22.027344 72.042969 20.644531 69.832031 19.855469 67.566406 C 19.589844 66.871094 19.179688 66.683594 19.191406 67.71875 C 19.796875 72.777344 21.679688 75.921875 21.695312 75.921875 Z M 14.457031 75.921875 "/>
<path style=" stroke:none;fill-rule:nonzero;fill:rgb(0%,0%,0%);fill-opacity:1;" d="M 209.765625 237.179688 C 208.574219 239.625 207.414062 241.898438 206.78125 244.578125 C 206.363281 247.105469 207.21875 246.167969 207.707031 244.511719 C 208.429688 242.214844 210.429688 241.167969 212.289062 241.140625 C 215.660156 241.097656 217.339844 243.746094 217.234375 246.597656 C 217.601562 249.59375 214.5625 251.714844 212.273438 251.554688 C 210.550781 251.429688 209.050781 250.5 208.140625 249.777344 C 207.542969 249.460938 206.90625 249.324219 207.796875 250.136719 C 209.472656 251.96875 210.871094 253.101562 210.839844 255.847656 C 210.8125 258.425781 208.609375 261.117188 205.6875 261.03125 C 202.035156 260.925781 200.375 258.140625 200.382812 255.550781 C 200.394531 253.660156 201.335938 251.925781 202.792969 250.847656 C 203.738281 250.082031 203.472656 249.507812 202.398438 250.234375 C 201.363281 251.125 200.128906 251.515625 198.851562 251.542969 C 195.363281 251.597656 193.996094 248.582031 194.195312 245.777344 C 194.382812 243.152344 196.621094 240.449219 199.566406 240.757812 C 202.195312 241.058594 203.578125 243.265625 204.371094 245.535156 C 204.632812 246.226562 205.046875 246.417969 205.035156 245.378906 C 204.429688 240.324219 202.542969 237.175781 202.53125 237.179688 Z M 209.765625 237.179688 "/>
</g>
</svg>
