<?xml version="1.0" encoding="UTF-8"?>
<svg xmlns="http://www.w3.org/2000/svg" xmlns:xlink="http://www.w3.org/1999/xlink" width="224.22508pt" height="312.80777pt" viewBox="0 0 224.22508 312.80777" version="1.1">
<g id="surface1">
<path style="fill-rule:nonzero;fill:rgb(100%,100%,100%);fill-opacity:1;stroke-width:0.996733;stroke-linecap:butt;stroke-linejoin:miter;stroke:rgb(0%,0%,0%);stroke-opacity:1;stroke-miterlimit:4;" d="M 6938.244796 -2746.8094 L 7140.213546 -2746.8094 C 7146.08464 -2746.8094 7150.842453 -2742.051588 7150.842453 -2736.180494 L 7150.842453 -2445.629713 C 7150.842453 -2439.758619 7146.08464 -2435.000806 7140.213546 -2435.000806 L 6938.244796 -2435.000806 C 6932.373703 -2435.000806 6927.61589 -2439.758619 6927.61589 -2445.629713 L 6927.61589 -2736.180494 C 6927.61589 -2742.051588 6932.373703 -2746.8094 6938.244796 -2746.8094 Z M 6938.244796 -2746.8094 " transform="matrix(1,0,0,1,-6927.11589,2747.3094)"/>
<path style=" stroke:none;fill-rule:nonzero;fill:rgb(0%,0%,0%);fill-opacity:1;" d="M 8.753906 38.035156 L 11.972656 38.007812 C 12.585938 39.953125 13.945312 41.933594 15.789062 42.480469 C 21.003906 43.707031 24.359375 40.792969 25.464844 37.433594 C 26.804688 33.359375 25.433594 27.640625 21.847656 25.605469 C 18.871094 23.921875 14.449219 25.34375 12.421875 28.945312 L 10.167969 27.566406 L 11.378906 14.144531 L 26.109375 14.144531 L 26.109375 17.316406 L 14.171875 17.316406 L 13.984375 22.90625 C 16.546875 21.105469 20.5 21.121094 23.070312 22.386719 C 27.933594 24.707031 30.191406 29.980469 29.246094 36.199219 C 27.9375 42.378906 25.046875 45.882812 18.527344 46.386719 C 11.285156 46.449219 8.726562 41.46875 8.753906 38.035156 Z M 8.753906 38.035156 "/>
<path style=" stroke:none;fill-rule:nonzero;fill:rgb(0%,0%,0%);fill-opacity:1;" d="M 215.625 274.773438 L 212.402344 274.800781 C 211.792969 272.855469 210.429688 270.875 208.585938 270.328125 C 203.375 269.101562 200.019531 272.015625 198.914062 275.371094 C 197.574219 279.445312 198.945312 285.167969 202.53125 287.199219 C 205.507812 288.886719 209.925781 287.464844 211.953125 283.863281 L 214.210938 285.242188 L 213 298.664062 L 198.269531 298.664062 L 198.269531 295.492188 L 210.207031 295.492188 L 210.394531 289.902344 C 207.828125 291.703125 203.875 291.683594 201.308594 290.421875 C 196.445312 288.101562 194.183594 282.828125 195.132812 276.609375 C 196.441406 270.425781 199.328125 266.921875 205.847656 266.421875 C 213.09375 266.359375 215.652344 271.339844 215.625 274.769531 Z M 215.625 274.773438 "/>
<path style=" stroke:none;fill-rule:nonzero;fill:rgb(0%,0%,0%);fill-opacity:1;" d="M 104.765625 185 C 107.644531 179.222656 109.742188 173.300781 110.113281 166.960938 C 110.457031 164.632812 109.039062 164.59375 108.828125 166.234375 C 104.75 181.828125 83.0625 177.605469 83.808594 162.9375 C 84.414062 151.042969 96.230469 148.484375 102.390625 152.371094 C 104.824219 153.804688 104.6875 152.949219 103.359375 151.460938 C 94.207031 141.25 99.75 128.097656 112.121094 127.859375 C 125.5 128.652344 128.972656 142.730469 120.765625 151.007812 C 119.746094 152 117.480469 155.199219 120.886719 152.964844 C 129.175781 147.074219 140.675781 153.40625 140.441406 162.484375 C 140.007812 179.222656 119.601562 180.472656 115.238281 166.488281 C 114.816406 164.941406 113.609375 164.160156 113.941406 166.792969 C 114.546875 171.5625 115.800781 178.746094 119.378906 185 Z M 104.765625 185 "/>
<path style=" stroke:none;fill-rule:nonzero;fill:rgb(0%,0%,0%);fill-opacity:1;" d="M 154.011719 85.738281 C 156.890625 79.960938 158.984375 74.035156 159.359375 67.699219 C 159.699219 65.367188 158.285156 65.328125 158.070312 66.972656 C 153.992188 82.566406 132.308594 78.34375 133.054688 63.675781 C 133.65625 51.78125 145.472656 49.222656 151.636719 53.109375 C 154.070312 54.542969 153.929688 53.683594 152.601562 52.199219 C 143.449219 41.988281 148.992188 28.835938 161.363281 28.597656 C 174.742188 29.390625 178.214844 43.464844 170.007812 51.746094 C 168.988281 52.738281 166.726562 55.9375 170.132812 53.699219 C 178.417969 47.8125 189.917969 54.144531 189.683594 63.222656 C 189.25 79.960938 168.84375 81.210938 164.480469 67.226562 C 164.0625 65.675781 162.851562 64.898438 163.1875 67.53125 C 163.789062 72.296875 165.042969 79.484375 168.625 85.738281 Z M 154.011719 85.738281 "/>
<path style=" stroke:none;fill-rule:nonzero;fill:rgb(0%,0%,0%);fill-opacity:1;" d="M 55.328125 85.738281 C 58.207031 79.960938 60.304688 74.035156 60.675781 67.699219 C 61.019531 65.367188 59.601562 65.328125 59.386719 66.972656 C 55.3125 82.566406 33.625 78.34375 34.371094 63.675781 C 34.976562 51.78125 46.789062 49.222656 52.953125 53.109375 C 55.386719 54.542969 55.25 53.683594 53.921875 52.199219 C 44.765625 41.988281 50.3125 28.835938 62.683594 28.597656 C 76.0625 29.390625 79.535156 43.464844 71.328125 51.746094 C 70.304688 52.738281 68.042969 55.9375 71.449219 53.699219 C 79.738281 47.8125 91.238281 54.144531 91.003906 63.222656 C 90.570312 79.960938 70.164062 81.210938 65.800781 67.226562 C 65.378906 65.675781 64.171875 64.898438 64.503906 67.53125 C 65.109375 72.296875 66.359375 79.484375 69.941406 85.738281 Z M 55.328125 85.738281 "/>
<path style=" stroke:none;fill-rule:nonzero;fill:rgb(0%,0%,0%);fill-opacity:1;" d="M 168.710938 225.246094 C 165.832031 231.023438 163.734375 236.949219 163.363281 243.285156 C 163.023438 245.617188 164.4375 245.65625 164.652344 244.015625 C 168.726562 228.421875 190.414062 232.644531 189.667969 247.308594 C 189.0625 259.207031 177.25 261.765625 171.085938 257.875 C 168.652344 256.441406 168.789062 257.300781 170.117188 258.785156 C 179.273438 268.996094 173.730469 282.148438 161.359375 282.390625 C 147.976562 281.59375 144.507812 267.519531 152.714844 259.242188 C 153.734375 258.246094 155.996094 255.050781 152.589844 257.285156 C 144.304688 263.171875 132.804688 256.839844 133.039062 247.765625 C 133.46875 231.023438 153.875 229.777344 158.242188 243.757812 C 158.660156 245.308594 159.871094 246.085938 159.535156 243.453125 C 158.929688 238.6875 157.679688 231.5 154.097656 225.246094 Z M 168.710938 225.246094 "/>
<path style=" stroke:none;fill-rule:nonzero;fill:rgb(0%,0%,0%);fill-opacity:1;" d="M 70.03125 225.246094 C 67.152344 231.023438 65.054688 236.949219 64.683594 243.285156 C 64.339844 245.617188 65.757812 245.65625 65.96875 244.015625 C 70.046875 228.421875 91.734375 232.644531 90.988281 247.308594 C 90.382812 259.207031 78.566406 261.765625 72.40625 257.875 C 69.972656 256.441406 70.109375 257.300781 71.4375 258.785156 C 80.59375 268.996094 75.046875 282.148438 62.675781 282.390625 C 49.296875 281.59375 45.824219 267.519531 54.03125 259.242188 C 55.050781 258.246094 57.316406 255.050781 53.910156 257.285156 C 45.621094 263.171875 34.121094 256.839844 34.355469 247.765625 C 34.789062 231.023438 55.195312 229.777344 59.558594 243.757812 C 59.980469 245.308594 61.1875 246.085938 60.855469 243.453125 C 60.25 238.6875 59 231.5 55.417969 225.246094 Z M 70.03125 225.246094 "/>
<path style=" stroke:none;fill-rule:nonzero;fill:rgb(0%,0%,0%);fill-opacity:1;" d="M 14.714844 75.523438 C 15.90625 73.078125 17.066406 70.800781 17.699219 68.121094 C 18.117188 65.59375 17.261719 66.535156 16.773438 68.191406 C 16.050781 70.488281 14.050781 71.535156 12.191406 71.558594 C 8.820312 71.605469 7.140625 68.953125 7.246094 66.105469 C 6.878906 63.105469 9.917969 60.984375 12.207031 61.148438 C 13.929688 61.269531 15.429688 62.199219 16.339844 62.921875 C 16.9375 63.238281 17.574219 63.378906 16.683594 62.566406 C 15.007812 60.730469 13.609375 59.601562 13.640625 56.855469 C 13.667969 54.273438 15.871094 51.585938 18.792969 51.671875 C 22.445312 51.777344 24.105469 54.558594 24.097656 57.152344 C 24.085938 59.039062 23.144531 60.777344 21.6875 61.851562 C 20.742188 62.621094 21.007812 63.191406 22.082031 62.46875 C 23.117188 61.578125 24.351562 61.1875 25.628906 61.160156 C 29.117188 61.105469 30.484375 64.121094 30.285156 66.921875 C 30.097656 69.546875 27.859375 72.25 24.914062 71.945312 C 22.285156 71.644531 20.902344 69.433594 20.109375 67.167969 C 19.847656 66.472656 19.433594 66.285156 19.445312 67.320312 C 20.050781 72.378906 21.9375 75.527344 21.949219 75.523438 Z M 14.714844 75.523438 "/>
<path style=" stroke:none;fill-rule:nonzero;fill:rgb(0%,0%,0%);fill-opacity:1;" d="M 209.511719 237.527344 C 208.320312 239.972656 207.160156 242.246094 206.527344 244.925781 C 206.109375 247.453125 206.964844 246.515625 207.453125 244.859375 C 208.171875 242.5625 210.175781 241.515625 212.03125 241.488281 C 215.402344 241.445312 217.085938 244.09375 216.980469 246.945312 C 217.347656 249.941406 214.308594 252.0625 212.019531 251.902344 C 210.296875 251.777344 208.792969 250.847656 207.886719 250.125 C 207.289062 249.808594 206.652344 249.671875 207.539062 250.484375 C 209.21875 252.316406 210.617188 253.449219 210.585938 256.195312 C 210.558594 258.773438 208.351562 261.460938 205.429688 261.378906 C 201.78125 261.273438 200.117188 258.488281 200.128906 255.898438 C 200.136719 254.007812 201.082031 252.273438 202.539062 251.195312 C 203.484375 250.429688 203.21875 249.855469 202.140625 250.582031 C 201.105469 251.472656 199.875 251.863281 198.597656 251.890625 C 195.105469 251.945312 193.742188 248.929688 193.941406 246.125 C 194.128906 243.5 196.363281 240.796875 199.308594 241.105469 C 201.941406 241.40625 203.324219 243.613281 204.117188 245.878906 C 204.378906 246.574219 204.792969 246.761719 204.78125 245.726562 C 204.171875 240.671875 202.289062 237.523438 202.273438 237.527344 Z M 209.511719 237.527344 "/>
</g>
</svg>
