<?xml version="1.0" encoding="UTF-8"?>
<svg xmlns="http://www.w3.org/2000/svg" xmlns:xlink="http://www.w3.org/1999/xlink" width="224.22508pt" height="312.80777pt" viewBox="0 0 224.22508 312.80777" version="1.1">
<g id="surface1">
<path style="fill-rule:nonzero;fill:rgb(100%,100%,100%);fill-opacity:1;stroke-width:0.996733;stroke-linecap:butt;stroke-linejoin:miter;stroke:rgb(0%,0%,0%);stroke-opacity:1;stroke-miterlimit:4;" d="M 7161.473316 -2746.809399 L 7363.442066 -2746.809399 C 7369.31316 -2746.809399 7374.070973 -2742.051587 7374.070973 -2736.180493 L 7374.070973 -2445.629712 C 7374.070973 -2439.758618 7369.31316 -2435.000805 7363.442066 -2435.000805 L 7161.473316 -2435.000805 C 7155.602223 -2435.000805 7150.84441 -2439.758618 7150.84441 -2445.629712 L 7150.84441 -2736.180493 C 7150.84441 -2742.051587 7155.602223 -2746.809399 7161.473316 -2746.809399 Z M 7161.473316 -2746.809399 " transform="matrix(1,0,0,1,-7150.34441,2747.309399)"/>
<path style=" stroke:none;fill-rule:nonzero;fill:rgb(0%,0%,0%);fill-opacity:1;" d="M 8.621094 36.5 C 8.214844 33.75 8.21875 26.652344 8.554688 24.554688 C 9.585938 18.128906 12.089844 15.1875 16.277344 14.222656 C 20.347656 13.289062 26.066406 14.328125 27.324219 19.707031 L 23.917969 19.769531 C 22.078125 16.136719 17.421875 17.105469 14.800781 18.6875 C 12.707031 19.949219 11.761719 25.207031 12.167969 25.53125 C 12.164062 25.53125 16.125 22.652344 19.242188 22.863281 C 25.910156 23.546875 28.660156 29.222656 28.425781 34.582031 C 28.214844 41.035156 26.132812 46.1875 19.066406 46.53125 C 12.347656 46.277344 9.265625 42.679688 8.621094 36.5 Z M 25.191406 34.792969 C 25.230469 30.320312 23.160156 26.972656 19.242188 26.601562 C 15.328125 26.230469 11.378906 29.984375 11.652344 34.542969 C 11.925781 39.121094 13.730469 42.976562 18.480469 42.953125 C 23.585938 42.929688 25.167969 37.976562 25.191406 34.792969 Z M 25.191406 34.792969 "/>
<path style=" stroke:none;fill-rule:nonzero;fill:rgb(0%,0%,0%);fill-opacity:1;" d="M 215.371094 276.308594 C 215.777344 279.054688 215.773438 286.152344 215.4375 288.25 C 214.40625 294.679688 211.90625 297.621094 207.714844 298.582031 C 203.644531 299.519531 197.925781 298.476562 196.671875 293.101562 L 200.078125 293.039062 C 201.917969 296.671875 206.570312 295.703125 209.191406 294.121094 C 211.285156 292.859375 212.230469 287.601562 211.828125 287.277344 C 211.828125 287.277344 207.871094 290.15625 204.75 289.941406 C 198.082031 289.261719 195.332031 283.585938 195.566406 278.222656 C 195.777344 271.773438 197.859375 266.621094 204.925781 266.277344 C 211.644531 266.53125 214.726562 270.128906 215.371094 276.308594 Z M 198.800781 278.015625 C 198.761719 282.488281 200.832031 285.835938 204.75 286.207031 C 208.664062 286.574219 212.613281 282.824219 212.339844 278.265625 C 212.066406 273.6875 210.261719 269.832031 205.511719 269.851562 C 200.40625 269.875 198.828125 274.828125 198.800781 278.015625 Z M 198.800781 278.015625 "/>
<path style=" stroke:none;fill-rule:nonzero;fill:rgb(0%,0%,0%);fill-opacity:1;" d="M 154.550781 185.070312 C 157.429688 179.296875 159.527344 173.371094 159.898438 167.035156 C 160.242188 164.703125 158.824219 164.664062 158.613281 166.304688 C 154.535156 181.898438 132.847656 177.675781 133.59375 163.007812 C 134.199219 151.113281 146.015625 148.554688 152.175781 152.445312 C 154.609375 153.878906 154.472656 153.019531 153.144531 151.535156 C 143.992188 141.320312 149.535156 128.171875 161.90625 127.929688 C 175.285156 128.722656 178.757812 142.800781 170.550781 151.078125 C 169.53125 152.074219 167.265625 155.269531 170.671875 153.035156 C 178.960938 147.148438 190.460938 153.476562 190.226562 162.554688 C 189.792969 179.296875 169.386719 180.542969 165.023438 166.5625 C 164.601562 165.011719 163.394531 164.234375 163.726562 166.867188 C 164.332031 171.632812 165.585938 178.820312 169.164062 185.070312 Z M 154.550781 185.070312 "/>
<path style=" stroke:none;fill-rule:nonzero;fill:rgb(0%,0%,0%);fill-opacity:1;" d="M 55.019531 185.070312 C 57.898438 179.296875 59.996094 173.371094 60.367188 167.035156 C 60.707031 164.703125 59.292969 164.664062 59.078125 166.304688 C 55.003906 181.898438 33.316406 177.675781 34.0625 163.007812 C 34.667969 151.113281 46.480469 148.554688 52.644531 152.445312 C 55.078125 153.878906 54.941406 153.019531 53.613281 151.535156 C 44.457031 141.320312 50.003906 128.171875 62.375 127.929688 C 75.753906 128.722656 79.226562 142.800781 71.019531 151.078125 C 69.996094 152.074219 67.734375 155.269531 71.140625 153.035156 C 79.425781 147.148438 90.929688 153.476562 90.695312 162.554688 C 90.261719 179.296875 69.855469 180.542969 65.488281 166.5625 C 65.070312 165.011719 63.859375 164.234375 64.195312 166.867188 C 64.800781 171.632812 66.050781 178.820312 69.632812 185.070312 Z M 55.019531 185.070312 "/>
<path style=" stroke:none;fill-rule:nonzero;fill:rgb(0%,0%,0%);fill-opacity:1;" d="M 154.550781 86.179688 C 157.429688 80.402344 159.527344 74.476562 159.898438 68.140625 C 160.242188 65.808594 158.824219 65.769531 158.613281 67.414062 C 154.535156 83.003906 132.847656 78.78125 133.59375 64.117188 C 134.199219 52.222656 146.015625 49.664062 152.175781 53.550781 C 154.609375 54.984375 154.472656 54.125 153.144531 52.640625 C 143.992188 42.429688 149.535156 29.277344 161.90625 29.039062 C 175.285156 29.832031 178.757812 43.90625 170.550781 52.1875 C 169.53125 53.179688 167.265625 56.378906 170.671875 54.140625 C 178.960938 48.253906 190.460938 54.585938 190.226562 63.664062 C 189.792969 80.402344 169.386719 81.648438 165.023438 67.667969 C 164.601562 66.117188 163.394531 65.339844 163.726562 67.972656 C 164.332031 72.738281 165.585938 79.925781 169.164062 86.179688 Z M 154.550781 86.179688 "/>
<path style=" stroke:none;fill-rule:nonzero;fill:rgb(0%,0%,0%);fill-opacity:1;" d="M 55.019531 86.179688 C 57.898438 80.402344 59.996094 74.476562 60.367188 68.140625 C 60.707031 65.808594 59.292969 65.769531 59.078125 67.414062 C 55.003906 83.003906 33.316406 78.78125 34.0625 64.117188 C 34.667969 52.222656 46.480469 49.664062 52.644531 53.550781 C 55.078125 54.984375 54.941406 54.125 53.613281 52.640625 C 44.457031 42.429688 50.003906 29.277344 62.375 29.039062 C 75.753906 29.832031 79.226562 43.90625 71.019531 52.1875 C 69.996094 53.179688 67.734375 56.378906 71.140625 54.140625 C 79.425781 48.253906 90.929688 54.585938 90.695312 63.664062 C 90.261719 80.402344 69.855469 81.648438 65.488281 67.667969 C 65.070312 66.117188 63.859375 65.339844 64.195312 67.972656 C 64.800781 72.738281 66.050781 79.925781 69.632812 86.179688 Z M 55.019531 86.179688 "/>
<path style=" stroke:none;fill-rule:nonzero;fill:rgb(0%,0%,0%);fill-opacity:1;" d="M 169.253906 226.53125 C 166.375 232.304688 164.277344 238.230469 163.90625 244.566406 C 163.5625 246.898438 164.980469 246.9375 165.195312 245.296875 C 169.269531 229.703125 190.957031 233.925781 190.210938 248.59375 C 189.605469 260.488281 177.792969 263.046875 171.628906 259.15625 C 169.195312 257.722656 169.332031 258.582031 170.660156 260.066406 C 179.816406 270.28125 174.269531 283.429688 161.898438 283.671875 C 148.519531 282.878906 145.046875 268.800781 153.253906 260.523438 C 154.277344 259.527344 156.539062 256.332031 153.132812 258.566406 C 144.84375 264.453125 133.34375 258.125 133.578125 249.046875 C 134.011719 232.304688 154.417969 231.058594 158.78125 245.039062 C 159.203125 246.589844 160.410156 247.367188 160.078125 244.734375 C 159.472656 239.96875 158.222656 232.78125 154.640625 226.53125 Z M 169.253906 226.53125 "/>
<path style=" stroke:none;fill-rule:nonzero;fill:rgb(0%,0%,0%);fill-opacity:1;" d="M 69.722656 226.53125 C 66.84375 232.304688 64.746094 238.230469 64.375 244.566406 C 64.03125 246.898438 65.449219 246.9375 65.660156 245.296875 C 69.738281 229.703125 91.425781 233.925781 90.679688 248.59375 C 90.074219 260.488281 78.257812 263.046875 72.097656 259.15625 C 69.664062 257.722656 69.800781 258.582031 71.128906 260.066406 C 80.28125 270.28125 74.738281 283.429688 62.367188 283.671875 C 48.988281 282.878906 45.515625 268.800781 53.722656 260.523438 C 54.742188 259.527344 57.007812 256.332031 53.601562 258.566406 C 45.3125 264.453125 33.8125 258.125 34.046875 249.046875 C 34.480469 232.304688 54.886719 231.058594 59.25 245.039062 C 59.671875 246.589844 60.878906 247.367188 60.546875 244.734375 C 59.941406 239.96875 58.6875 232.78125 55.109375 226.53125 Z M 69.722656 226.53125 "/>
<path style=" stroke:none;fill-rule:nonzero;fill:rgb(0%,0%,0%);fill-opacity:1;" d="M 13.660156 74.300781 C 14.851562 71.855469 16.011719 69.578125 16.644531 66.898438 C 17.0625 64.371094 16.207031 65.308594 15.71875 66.964844 C 15 69.265625 12.996094 70.308594 11.140625 70.335938 C 7.769531 70.382812 6.085938 67.730469 6.191406 64.882812 C 5.824219 61.882812 8.863281 59.761719 11.152344 59.925781 C 12.875 60.046875 14.378906 60.976562 15.285156 61.699219 C 15.882812 62.015625 16.519531 62.15625 15.632812 61.339844 C 13.953125 59.507812 12.554688 58.378906 12.585938 55.628906 C 12.613281 53.050781 14.820312 50.363281 17.742188 50.445312 C 21.390625 50.550781 23.050781 53.335938 23.042969 55.925781 C 23.035156 57.816406 22.089844 59.554688 20.632812 60.628906 C 19.6875 61.394531 19.953125 61.96875 21.03125 61.246094 C 22.066406 60.351562 23.296875 59.960938 24.574219 59.933594 C 28.066406 59.878906 29.429688 62.898438 29.230469 65.699219 C 29.042969 68.324219 26.808594 71.027344 23.859375 70.722656 C 21.230469 70.421875 19.847656 68.210938 19.054688 65.945312 C 18.792969 65.25 18.378906 65.0625 18.390625 66.097656 C 19 71.15625 20.882812 74.300781 20.898438 74.300781 Z M 13.660156 74.300781 "/>
<path style=" stroke:none;fill-rule:nonzero;fill:rgb(0%,0%,0%);fill-opacity:1;" d="M 210.566406 236.300781 C 209.371094 238.746094 208.210938 241.023438 207.582031 243.703125 C 207.160156 246.230469 208.019531 245.292969 208.503906 243.636719 C 209.226562 241.339844 211.226562 240.292969 213.085938 240.265625 C 216.457031 240.222656 218.136719 242.871094 218.035156 245.71875 C 218.402344 248.71875 215.363281 250.839844 213.070312 250.675781 C 211.347656 250.554688 209.847656 249.625 208.9375 248.902344 C 208.34375 248.585938 207.703125 248.449219 208.59375 249.261719 C 210.273438 251.09375 211.671875 252.226562 211.640625 254.972656 C 211.609375 257.550781 209.40625 260.238281 206.484375 260.15625 C 202.832031 260.050781 201.171875 257.265625 201.179688 254.675781 C 201.191406 252.785156 202.136719 251.046875 203.59375 249.972656 C 204.535156 249.207031 204.273438 248.632812 203.195312 249.355469 C 202.160156 250.25 200.929688 250.640625 199.648438 250.667969 C 196.160156 250.722656 194.796875 247.707031 194.996094 244.902344 C 195.183594 242.277344 197.417969 239.574219 200.363281 239.878906 C 202.996094 240.183594 204.378906 242.390625 205.167969 244.65625 C 205.429688 245.351562 205.84375 245.539062 205.832031 244.503906 C 205.226562 239.445312 203.34375 236.300781 203.328125 236.304688 Z M 210.566406 236.300781 "/>
</g>
</svg>
