<?xml version="1.0" encoding="UTF-8"?>
<svg xmlns="http://www.w3.org/2000/svg" xmlns:xlink="http://www.w3.org/1999/xlink" width="224.21835pt" height="312.80104pt" viewBox="0 0 224.21835 312.80104" version="1.1">
<g id="surface1">
<path style="fill-rule:nonzero;fill:rgb(100%,100%,100%);fill-opacity:1;stroke-width:0.99;stroke-linecap:butt;stroke-linejoin:miter;stroke:rgb(0%,0%,0%);stroke-opacity:1;stroke-miterlimit:3.8;" d="M 6045.33068 -2434.998906 L 6247.29943 -2434.998906 C 6253.170524 -2434.998906 6257.928336 -2430.241094 6257.928336 -2424.37 L 6257.928336 -2133.819219 C 6257.928336 -2127.948125 6253.170524 -2123.190312 6247.29943 -2123.190312 L 6045.33068 -2123.190312 C 6039.459586 -2123.190312 6034.701774 -2127.948125 6034.701774 -2133.819219 L 6034.701774 -2424.37 C 6034.701774 -2430.241094 6039.459586 -2434.998906 6045.33068 -2434.998906 Z M 6045.33068 -2434.998906 " transform="matrix(1,0,0,1,-6034.20568,2435.495)"/>
<path style=" stroke:none;fill-rule:nonzero;fill:rgb(0%,0%,0%);fill-opacity:1;" d="M 12.542969 47.003906 C 14.675781 35.914062 16.953125 27.59375 22.921875 18.558594 L 10.789062 18.558594 L 10.789062 22.449219 L 7.5625 22.449219 L 7.5625 15.117188 L 25.316406 15.117188 L 27.507812 18.558594 C 21.164062 25.355469 15.359375 47.324219 16.386719 47.003906 Z M 12.542969 47.003906 "/>
<path style=" stroke:none;fill-rule:nonzero;fill:rgb(0%,0%,0%);fill-opacity:1;" d="M 211.085938 265.796875 C 208.953125 276.886719 206.679688 285.207031 200.707031 294.242188 L 212.839844 294.242188 L 212.839844 290.351562 L 216.066406 290.351562 L 216.066406 297.683594 L 198.3125 297.683594 L 196.125 294.242188 C 202.464844 287.445312 208.273438 265.476562 207.242188 265.796875 Z M 211.085938 265.796875 "/>
<path style=" stroke:none;fill-rule:nonzero;fill:rgb(0%,0%,0%);fill-opacity:1;" d="M 155.621094 87.621094 C 158.5 81.84375 160.59375 75.917969 160.96875 69.582031 C 161.308594 67.25 159.894531 67.210938 159.679688 68.855469 C 155.601562 84.445312 133.917969 80.222656 134.664062 65.558594 C 135.265625 53.664062 147.082031 51.101562 153.246094 54.992188 C 155.679688 56.425781 155.539062 55.566406 154.210938 54.082031 C 145.058594 43.871094 150.601562 30.71875 162.972656 30.476562 C 176.355469 31.273438 179.824219 45.347656 171.617188 53.625 C 170.597656 54.621094 168.335938 57.816406 171.742188 55.582031 C 180.027344 49.695312 191.527344 56.027344 191.292969 65.105469 C 190.859375 81.84375 170.453125 83.089844 166.089844 69.109375 C 165.671875 67.558594 164.460938 66.78125 164.796875 69.414062 C 165.402344 74.179688 166.652344 81.367188 170.234375 87.621094 Z M 155.621094 87.621094 "/>
<path style=" stroke:none;fill-rule:nonzero;fill:rgb(0%,0%,0%);fill-opacity:1;" d="M 155.621094 187.867188 C 158.5 182.09375 160.59375 176.167969 160.96875 169.832031 C 161.308594 167.5 159.894531 167.460938 159.679688 169.101562 C 155.601562 184.695312 133.917969 180.472656 134.664062 165.804688 C 135.265625 153.910156 147.082031 151.351562 153.246094 155.242188 C 155.679688 156.671875 155.539062 155.816406 154.210938 154.328125 C 145.058594 144.117188 150.601562 130.96875 162.972656 130.726562 C 176.355469 131.519531 179.824219 145.597656 171.617188 153.875 C 170.597656 154.871094 168.335938 158.066406 171.742188 155.832031 C 180.027344 149.945312 191.527344 156.273438 191.292969 165.351562 C 190.859375 182.089844 170.453125 183.339844 166.089844 169.359375 C 165.671875 167.808594 164.460938 167.027344 164.796875 169.664062 C 165.402344 174.429688 166.652344 181.617188 170.234375 187.867188 Z M 155.621094 187.867188 "/>
<path style=" stroke:none;fill-rule:nonzero;fill:rgb(0%,0%,0%);fill-opacity:1;" d="M 54.085938 187.867188 C 56.964844 182.09375 59.0625 176.167969 59.433594 169.832031 C 59.777344 167.5 58.359375 167.460938 58.148438 169.101562 C 54.070312 184.695312 32.382812 180.472656 33.128906 165.804688 C 33.734375 153.910156 45.550781 151.351562 51.710938 155.242188 C 54.144531 156.671875 54.007812 155.816406 52.679688 154.328125 C 43.523438 144.117188 49.070312 130.96875 61.441406 130.726562 C 74.820312 131.519531 78.292969 145.597656 70.085938 153.875 C 69.066406 154.871094 66.800781 158.066406 70.207031 155.832031 C 78.496094 149.945312 89.996094 156.273438 89.761719 165.351562 C 89.328125 182.089844 68.921875 183.339844 64.558594 169.359375 C 64.136719 167.808594 62.929688 167.027344 63.261719 169.664062 C 63.867188 174.429688 65.121094 181.617188 68.699219 187.867188 Z M 54.085938 187.867188 "/>
<path style=" stroke:none;fill-rule:nonzero;fill:rgb(0%,0%,0%);fill-opacity:1;" d="M 104.519531 137.742188 C 107.398438 131.96875 109.496094 126.042969 109.867188 119.707031 C 110.210938 117.375 108.792969 117.335938 108.582031 118.976562 C 104.503906 134.570312 82.816406 130.347656 83.5625 115.679688 C 84.167969 103.785156 95.984375 101.226562 102.144531 105.117188 C 104.578125 106.550781 104.441406 105.691406 103.113281 104.203125 C 93.960938 93.992188 99.503906 80.84375 111.875 80.601562 C 125.253906 81.394531 128.726562 95.472656 120.519531 103.75 C 119.5 104.746094 117.234375 107.941406 120.640625 105.707031 C 128.929688 99.820312 140.429688 106.148438 140.195312 115.226562 C 139.761719 131.964844 119.355469 133.214844 114.992188 119.234375 C 114.570312 117.683594 113.363281 116.90625 113.695312 119.539062 C 114.300781 124.304688 115.554688 131.492188 119.132812 137.742188 Z M 104.519531 137.742188 "/>
<path style=" stroke:none;fill-rule:nonzero;fill:rgb(0%,0%,0%);fill-opacity:1;" d="M 54.085938 87.621094 C 56.964844 81.84375 59.0625 75.917969 59.433594 69.582031 C 59.777344 67.25 58.359375 67.210938 58.148438 68.855469 C 54.070312 84.445312 32.382812 80.222656 33.128906 65.558594 C 33.734375 53.664062 45.550781 51.101562 51.710938 54.992188 C 54.144531 56.425781 54.007812 55.566406 52.679688 54.082031 C 43.523438 43.871094 49.070312 30.71875 61.441406 30.476562 C 74.820312 31.273438 78.292969 45.347656 70.085938 53.625 C 69.066406 54.621094 66.800781 57.816406 70.207031 55.582031 C 78.496094 49.695312 89.996094 56.027344 89.761719 65.105469 C 89.328125 81.84375 68.921875 83.089844 64.558594 69.109375 C 64.136719 67.558594 62.929688 66.78125 63.261719 69.414062 C 63.867188 74.179688 65.121094 81.367188 68.699219 87.621094 Z M 54.085938 87.621094 "/>
<path style=" stroke:none;fill-rule:nonzero;fill:rgb(0%,0%,0%);fill-opacity:1;" d="M 170.320312 229.324219 C 167.441406 235.101562 165.347656 241.027344 164.972656 247.363281 C 164.632812 249.695312 166.046875 249.734375 166.261719 248.089844 C 170.339844 232.5 192.023438 236.722656 191.277344 251.386719 C 190.671875 263.28125 178.859375 265.839844 172.695312 261.953125 C 170.261719 260.519531 170.398438 261.378906 171.730469 262.863281 C 180.882812 273.074219 175.339844 286.226562 162.96875 286.464844 C 149.585938 285.671875 146.117188 271.597656 154.324219 263.316406 C 155.34375 262.324219 157.605469 259.125 154.199219 261.363281 C 145.914062 267.25 134.414062 260.917969 134.648438 251.839844 C 135.082031 235.101562 155.488281 233.855469 159.851562 247.835938 C 160.269531 249.386719 161.480469 250.164062 161.144531 247.53125 C 160.539062 242.765625 159.289062 235.578125 155.707031 229.324219 Z M 170.320312 229.324219 "/>
<path style=" stroke:none;fill-rule:nonzero;fill:rgb(0%,0%,0%);fill-opacity:1;" d="M 68.789062 229.324219 C 65.910156 235.101562 63.8125 241.027344 63.441406 247.363281 C 63.097656 249.695312 64.515625 249.734375 64.730469 248.089844 C 68.804688 232.5 90.492188 236.722656 89.746094 251.386719 C 89.140625 263.28125 77.328125 265.839844 71.164062 261.953125 C 68.730469 260.519531 68.867188 261.378906 70.195312 262.863281 C 79.351562 273.074219 73.804688 286.226562 61.433594 286.464844 C 48.054688 285.671875 44.582031 271.597656 52.789062 263.316406 C 53.8125 262.324219 56.074219 259.125 52.667969 261.363281 C 44.378906 267.25 32.878906 260.917969 33.113281 251.839844 C 33.546875 235.101562 53.953125 233.855469 58.316406 247.835938 C 58.738281 249.386719 59.945312 250.164062 59.613281 247.53125 C 59.007812 242.765625 57.757812 235.578125 54.175781 229.324219 Z M 68.789062 229.324219 "/>
<path style=" stroke:none;fill-rule:nonzero;fill:rgb(0%,0%,0%);fill-opacity:1;" d="M 13.65625 76.882812 C 14.847656 74.4375 16.007812 72.160156 16.640625 69.480469 C 17.058594 66.953125 16.203125 67.894531 15.714844 69.550781 C 14.996094 71.847656 12.992188 72.894531 11.136719 72.917969 C 7.765625 72.964844 6.082031 70.3125 6.1875 67.464844 C 5.820312 64.464844 8.859375 62.34375 11.148438 62.507812 C 12.871094 62.628906 14.375 63.558594 15.28125 64.28125 C 15.878906 64.597656 16.515625 64.738281 15.628906 63.925781 C 13.949219 62.089844 12.550781 60.960938 12.582031 58.214844 C 12.609375 55.636719 14.816406 52.945312 17.738281 53.03125 C 21.386719 53.136719 23.050781 55.921875 23.039062 58.511719 C 23.03125 60.398438 22.085938 62.136719 20.628906 63.214844 C 19.683594 63.980469 19.949219 64.554688 21.027344 63.828125 C 22.0625 62.9375 23.292969 62.546875 24.570312 62.519531 C 28.0625 62.464844 29.425781 65.480469 29.226562 68.28125 C 29.039062 70.90625 26.804688 73.609375 23.859375 73.304688 C 21.226562 73.003906 19.84375 70.792969 19.050781 68.527344 C 18.789062 67.832031 18.375 67.644531 18.386719 68.679688 C 18.996094 73.738281 20.878906 76.886719 20.894531 76.882812 Z M 13.65625 76.882812 "/>
<path style=" stroke:none;fill-rule:nonzero;fill:rgb(0%,0%,0%);fill-opacity:1;" d="M 210.5625 238.886719 C 209.371094 241.332031 208.210938 243.605469 207.578125 246.285156 C 207.15625 248.8125 208.015625 247.875 208.503906 246.21875 C 209.222656 243.921875 211.226562 242.875 213.082031 242.847656 C 216.453125 242.804688 218.136719 245.453125 218.03125 248.304688 C 218.398438 251.300781 215.359375 253.421875 213.070312 253.261719 C 211.347656 253.136719 209.84375 252.207031 208.9375 251.484375 C 208.339844 251.167969 207.703125 251.03125 208.589844 251.84375 C 210.269531 253.675781 211.667969 254.808594 211.636719 257.554688 C 211.609375 260.132812 209.402344 262.824219 206.480469 262.738281 C 202.828125 262.632812 201.167969 259.847656 201.179688 257.257812 C 201.1875 255.367188 202.132812 253.632812 203.589844 252.554688 C 204.535156 251.789062 204.269531 251.214844 203.191406 251.941406 C 202.15625 252.832031 200.925781 253.222656 199.648438 253.25 C 196.15625 253.304688 194.792969 250.289062 194.992188 247.484375 C 195.179688 244.859375 197.414062 242.15625 200.359375 242.464844 C 202.992188 242.765625 204.375 244.972656 205.164062 247.242188 C 205.429688 247.933594 205.84375 248.125 205.832031 247.085938 C 205.222656 242.03125 203.339844 238.882812 203.324219 238.886719 Z M 210.5625 238.886719 "/>
</g>
</svg>
