<?xml version="1.0" encoding="UTF-8"?>
<svg xmlns="http://www.w3.org/2000/svg" xmlns:xlink="http://www.w3.org/1999/xlink" width="224.22508pt" height="312.80777pt" viewBox="0 0 224.22508 312.80777" version="1.1">
<g id="surface1">
<path style="fill-rule:nonzero;fill:rgb(100%,100%,100%);fill-opacity:1;stroke-width:0.996733;stroke-linecap:butt;stroke-linejoin:miter;stroke:rgb(0%,0%,0%);stroke-opacity:1;stroke-miterlimit:4;" d="M 6268.559736 -2434.99837 L 6470.528486 -2434.99837 C 6476.39958 -2434.99837 6481.157393 -2430.240558 6481.157393 -2424.369464 L 6481.157393 -2133.818683 C 6481.157393 -2127.947589 6476.39958 -2123.189776 6470.528486 -2123.189776 L 6268.559736 -2123.189776 C 6262.688643 -2123.189776 6257.93083 -2127.947589 6257.93083 -2133.818683 L 6257.93083 -2424.369464 C 6257.93083 -2430.240558 6262.688643 -2434.99837 6268.559736 -2434.99837 Z M 6268.559736 -2434.99837 " transform="matrix(1,0,0,1,-6257.43083,2435.49837)"/>
<path style=" stroke:none;fill-rule:nonzero;fill:rgb(0%,0%,0%);fill-opacity:1;" d="M 6.589844 38.046875 C 6.75 33.671875 8.359375 32.03125 11.535156 29.738281 C 9.003906 27.945312 7.9375 25.304688 8.152344 23.050781 C 8.671875 17.605469 12.960938 14.878906 17.636719 15 C 22.3125 15.117188 26.339844 18.761719 26.65625 22.71875 C 26.929688 26.164062 25.886719 27.824219 23.398438 29.636719 C 26.351562 32.078125 28.238281 33.6875 28.167969 37.996094 C 28.09375 42.304688 24.359375 47.4375 17.851562 47.59375 C 11.34375 47.75 6.429688 42.425781 6.589844 38.046875 Z M 24.761719 38.0625 C 25.042969 34.101562 21.472656 31.429688 17.449219 31.386719 C 13.527344 31.347656 10.019531 34.632812 10.019531 38.191406 C 10.019531 42.011719 14.582031 44.085938 17.527344 44.097656 C 21.109375 44.109375 24.523438 41.476562 24.761719 38.0625 Z M 23.476562 23.890625 C 23.550781 20.550781 20.417969 18.160156 17.1875 18.257812 C 14.3125 18.34375 11.265625 20.496094 11.261719 23.289062 C 11.261719 26.777344 14.726562 28.519531 17.679688 28.585938 C 20.359375 28.644531 23.414062 26.410156 23.476562 23.890625 Z M 23.476562 23.890625 "/>
<path style=" stroke:none;fill-rule:nonzero;fill:rgb(0%,0%,0%);fill-opacity:1;" d="M 216.132812 274.757812 C 215.972656 279.132812 214.359375 280.777344 211.1875 283.070312 C 213.71875 284.863281 214.785156 287.503906 214.570312 289.753906 C 214.046875 295.203125 209.757812 297.925781 205.085938 297.808594 C 200.410156 297.691406 196.378906 294.046875 196.066406 290.085938 C 195.792969 286.644531 196.835938 284.984375 199.324219 283.171875 C 196.371094 280.730469 194.484375 279.121094 194.554688 274.8125 C 194.625 270.5 198.359375 265.371094 204.867188 265.214844 C 211.378906 265.058594 216.292969 270.382812 216.132812 274.757812 Z M 197.957031 274.746094 C 197.679688 278.707031 201.246094 281.378906 205.273438 281.421875 C 209.195312 281.460938 212.703125 278.175781 212.703125 274.617188 C 212.703125 270.796875 208.140625 268.722656 205.191406 268.710938 C 201.609375 268.695312 198.199219 271.332031 197.957031 274.746094 Z M 199.246094 288.917969 C 199.167969 292.253906 202.304688 294.648438 205.535156 294.550781 C 208.410156 294.464844 211.457031 292.308594 211.457031 289.519531 C 211.460938 286.03125 207.996094 284.289062 205.039062 284.222656 C 202.359375 284.164062 199.304688 286.398438 199.246094 288.917969 Z M 199.246094 288.917969 "/>
<path style=" stroke:none;fill-rule:nonzero;fill:rgb(0%,0%,0%);fill-opacity:1;" d="M 156.539062 85.453125 C 159.417969 79.675781 161.515625 73.75 161.886719 67.414062 C 162.226562 65.082031 160.8125 65.042969 160.597656 66.6875 C 156.523438 82.28125 134.835938 78.058594 135.582031 63.390625 C 136.1875 51.496094 148 48.9375 154.164062 52.824219 C 156.597656 54.257812 156.460938 53.398438 155.132812 51.914062 C 145.976562 41.703125 151.519531 28.550781 163.890625 28.3125 C 177.273438 29.105469 180.742188 43.179688 172.535156 51.460938 C 171.515625 52.453125 169.253906 55.652344 172.660156 53.417969 C 180.945312 47.527344 192.445312 53.859375 192.210938 62.9375 C 191.78125 79.675781 171.375 80.925781 167.007812 66.941406 C 166.589844 65.390625 165.378906 64.613281 165.714844 67.246094 C 166.320312 72.011719 167.570312 79.199219 171.152344 85.453125 Z M 156.539062 85.453125 "/>
<path style=" stroke:none;fill-rule:nonzero;fill:rgb(0%,0%,0%);fill-opacity:1;" d="M 156.539062 185.699219 C 159.417969 179.925781 161.515625 174 161.886719 167.664062 C 162.226562 165.332031 160.8125 165.292969 160.597656 166.933594 C 156.523438 182.527344 134.835938 178.304688 135.582031 163.636719 C 136.1875 151.742188 148 149.183594 154.164062 153.074219 C 156.597656 154.507812 156.460938 153.648438 155.132812 152.164062 C 145.976562 141.949219 151.519531 128.800781 163.890625 128.558594 C 177.273438 129.351562 180.742188 143.429688 172.535156 151.707031 C 171.515625 152.703125 169.253906 155.898438 172.660156 153.664062 C 180.945312 147.777344 192.445312 154.105469 192.210938 163.183594 C 191.78125 179.925781 171.375 181.171875 167.007812 167.191406 C 166.589844 165.640625 165.378906 164.863281 165.714844 167.496094 C 166.320312 172.261719 167.570312 179.449219 171.152344 185.699219 Z M 156.539062 185.699219 "/>
<path style=" stroke:none;fill-rule:nonzero;fill:rgb(0%,0%,0%);fill-opacity:1;" d="M 53.003906 185.699219 C 55.882812 179.925781 57.980469 174 58.355469 167.664062 C 58.695312 165.332031 57.277344 165.292969 57.066406 166.933594 C 52.988281 182.527344 31.304688 178.304688 32.046875 163.636719 C 32.652344 151.742188 44.46875 149.183594 50.628906 153.074219 C 53.0625 154.507812 52.925781 153.648438 51.597656 152.164062 C 42.445312 141.949219 47.988281 128.800781 60.359375 128.558594 C 73.738281 129.351562 77.210938 143.429688 69.003906 151.707031 C 67.984375 152.703125 65.71875 155.898438 69.128906 153.664062 C 77.414062 147.777344 88.914062 154.105469 88.679688 163.183594 C 88.246094 179.925781 67.839844 181.171875 63.476562 167.191406 C 63.058594 165.640625 61.847656 164.863281 62.179688 167.496094 C 62.785156 172.261719 64.039062 179.449219 67.617188 185.699219 Z M 53.003906 185.699219 "/>
<path style=" stroke:none;fill-rule:nonzero;fill:rgb(0%,0%,0%);fill-opacity:1;" d="M 103.1875 135.578125 C 106.066406 129.800781 108.164062 123.875 108.535156 117.539062 C 108.878906 115.207031 107.460938 115.167969 107.25 116.8125 C 103.171875 132.402344 81.484375 128.179688 82.230469 113.515625 C 82.835938 101.621094 94.652344 99.0625 100.8125 102.949219 C 103.246094 104.382812 103.109375 103.523438 101.78125 102.039062 C 92.625 91.828125 98.171875 78.675781 110.542969 78.4375 C 123.921875 79.230469 127.394531 93.304688 119.1875 101.585938 C 118.167969 102.578125 115.902344 105.773438 119.308594 103.539062 C 127.597656 97.652344 139.097656 103.984375 138.863281 113.0625 C 138.429688 129.800781 118.023438 131.046875 113.660156 117.066406 C 113.238281 115.515625 112.03125 114.738281 112.363281 117.371094 C 112.96875 122.136719 114.222656 129.324219 117.800781 135.578125 Z M 103.1875 135.578125 "/>
<path style=" stroke:none;fill-rule:nonzero;fill:rgb(0%,0%,0%);fill-opacity:1;" d="M 53.003906 85.453125 C 55.882812 79.675781 57.980469 73.75 58.355469 67.414062 C 58.695312 65.082031 57.277344 65.042969 57.066406 66.6875 C 52.988281 82.28125 31.304688 78.058594 32.046875 63.390625 C 32.652344 51.496094 44.46875 48.9375 50.628906 52.824219 C 53.0625 54.257812 52.925781 53.398438 51.597656 51.914062 C 42.445312 41.703125 47.988281 28.550781 60.359375 28.3125 C 73.738281 29.105469 77.210938 43.179688 69.003906 51.460938 C 67.984375 52.453125 65.71875 55.652344 69.128906 53.417969 C 77.414062 47.527344 88.914062 53.859375 88.679688 62.9375 C 88.246094 79.675781 67.839844 80.925781 63.476562 66.941406 C 63.058594 65.390625 61.847656 64.613281 62.179688 67.246094 C 62.785156 72.011719 64.039062 79.199219 67.617188 85.453125 Z M 53.003906 85.453125 "/>
<path style=" stroke:none;fill-rule:nonzero;fill:rgb(0%,0%,0%);fill-opacity:1;" d="M 171.242188 227.160156 C 168.359375 232.933594 166.265625 238.859375 165.890625 245.195312 C 165.550781 247.527344 166.964844 247.566406 167.179688 245.925781 C 171.257812 230.332031 192.941406 234.554688 192.199219 249.222656 C 191.59375 261.117188 179.777344 263.675781 173.613281 259.785156 C 171.179688 258.351562 171.320312 259.210938 172.648438 260.695312 C 181.800781 270.910156 176.257812 284.058594 163.886719 284.300781 C 150.507812 283.507812 147.035156 269.429688 155.242188 261.152344 C 156.261719 260.15625 158.523438 256.960938 155.117188 259.195312 C 146.832031 265.082031 135.332031 258.753906 135.566406 249.675781 C 136 232.933594 156.40625 231.6875 160.769531 245.667969 C 161.1875 247.21875 162.398438 247.996094 162.0625 245.363281 C 161.460938 240.597656 160.207031 233.410156 156.625 227.160156 Z M 171.242188 227.160156 "/>
<path style=" stroke:none;fill-rule:nonzero;fill:rgb(0%,0%,0%);fill-opacity:1;" d="M 117.890625 177.859375 C 115.011719 183.632812 112.914062 189.558594 112.542969 195.894531 C 112.199219 198.226562 113.617188 198.265625 113.832031 196.625 C 117.90625 181.03125 139.59375 185.253906 138.847656 199.921875 C 138.242188 211.816406 126.429688 214.375 120.265625 210.484375 C 117.832031 209.054688 117.96875 209.910156 119.296875 211.398438 C 128.453125 221.609375 122.90625 234.757812 110.535156 235 C 97.15625 234.207031 93.683594 220.128906 101.890625 211.851562 C 102.914062 210.855469 105.175781 207.660156 101.769531 209.894531 C 93.480469 215.785156 81.980469 209.453125 82.214844 200.375 C 82.648438 183.636719 103.054688 182.386719 107.417969 196.371094 C 107.839844 197.917969 109.046875 198.699219 108.714844 196.066406 C 108.109375 191.296875 106.859375 184.113281 103.277344 177.859375 Z M 117.890625 177.859375 "/>
<path style=" stroke:none;fill-rule:nonzero;fill:rgb(0%,0%,0%);fill-opacity:1;" d="M 67.707031 227.160156 C 64.828125 232.933594 62.730469 238.859375 62.359375 245.195312 C 62.019531 247.527344 63.433594 247.566406 63.648438 245.925781 C 67.722656 230.332031 89.410156 234.554688 88.664062 249.222656 C 88.058594 261.117188 76.246094 263.675781 70.082031 259.785156 C 67.648438 258.351562 67.785156 259.210938 69.113281 260.695312 C 78.269531 270.910156 72.722656 284.058594 60.351562 284.300781 C 46.972656 283.507812 43.503906 269.429688 51.710938 261.152344 C 52.730469 260.15625 54.992188 256.960938 51.585938 259.195312 C 43.300781 265.082031 31.796875 258.753906 32.035156 249.675781 C 32.464844 232.933594 52.871094 231.6875 57.238281 245.667969 C 57.65625 247.21875 58.867188 247.996094 58.53125 245.363281 C 57.925781 240.597656 56.675781 233.410156 53.09375 227.160156 Z M 67.707031 227.160156 "/>
<path style=" stroke:none;fill-rule:nonzero;fill:rgb(0%,0%,0%);fill-opacity:1;" d="M 13.957031 77.835938 C 15.148438 75.390625 16.308594 73.113281 16.941406 70.433594 C 17.359375 67.90625 16.503906 68.847656 16.015625 70.503906 C 15.292969 72.800781 13.292969 73.847656 11.433594 73.871094 C 8.0625 73.917969 6.382812 71.269531 6.488281 68.417969 C 6.121094 65.417969 9.160156 63.296875 11.449219 63.460938 C 13.171875 63.585938 14.671875 64.511719 15.582031 65.238281 C 16.179688 65.550781 16.816406 65.691406 15.925781 64.878906 C 14.25 63.046875 12.851562 61.914062 12.878906 59.167969 C 12.910156 56.589844 15.113281 53.898438 18.035156 53.984375 C 21.6875 54.089844 23.347656 56.875 23.339844 59.464844 C 23.328125 61.351562 22.386719 63.089844 20.929688 64.167969 C 19.984375 64.933594 20.25 65.507812 21.324219 64.78125 C 22.359375 63.890625 23.59375 63.5 24.871094 63.472656 C 28.359375 63.417969 29.726562 66.433594 29.527344 69.234375 C 29.339844 71.859375 27.101562 74.5625 24.15625 74.257812 C 21.527344 73.957031 20.144531 71.746094 19.351562 69.480469 C 19.089844 68.785156 18.675781 68.597656 18.6875 69.632812 C 19.292969 74.691406 21.179688 77.839844 21.191406 77.835938 Z M 13.957031 77.835938 "/>
<path style=" stroke:none;fill-rule:nonzero;fill:rgb(0%,0%,0%);fill-opacity:1;" d="M 210.269531 238.890625 C 209.078125 241.335938 207.917969 243.609375 207.285156 246.289062 C 206.867188 248.816406 207.722656 247.878906 208.210938 246.222656 C 208.929688 243.925781 210.933594 242.878906 212.789062 242.851562 C 216.160156 242.808594 217.84375 245.457031 217.738281 248.308594 C 218.105469 251.304688 215.066406 253.425781 212.777344 253.261719 C 211.054688 253.140625 209.550781 252.210938 208.644531 251.488281 C 208.046875 251.171875 207.410156 251.035156 208.296875 251.847656 C 209.976562 253.679688 211.375 254.8125 211.34375 257.558594 C 211.316406 260.136719 209.109375 262.824219 206.1875 262.742188 C 202.539062 262.636719 200.875 259.851562 200.886719 257.261719 C 200.894531 255.371094 201.839844 253.632812 203.296875 252.558594 C 204.242188 251.792969 203.976562 251.21875 202.898438 251.945312 C 201.863281 252.835938 200.632812 253.226562 199.355469 253.253906 C 195.863281 253.308594 194.5 250.292969 194.699219 247.488281 C 194.886719 244.863281 197.121094 242.160156 200.066406 242.46875 C 202.699219 242.769531 204.082031 244.976562 204.875 247.242188 C 205.136719 247.9375 205.550781 248.125 205.539062 247.089844 C 204.929688 242.035156 203.046875 238.886719 203.03125 238.890625 Z M 210.269531 238.890625 "/>
</g>
</svg>
