<?xml version="1.0" encoding="UTF-8"?>
<svg xmlns="http://www.w3.org/2000/svg" xmlns:xlink="http://www.w3.org/1999/xlink" width="224.22508pt" height="312.80777pt" viewBox="0 0 224.22508 312.80777" version="1.1">
<g id="surface1">
<path style="fill-rule:nonzero;fill:rgb(100%,100%,100%);fill-opacity:1;stroke-width:0.996733;stroke-linecap:butt;stroke-linejoin:miter;stroke:rgb(0%,0%,0%);stroke-opacity:1;stroke-miterlimit:4;" d="M 6491.788256 -2434.99837 L 6693.757006 -2434.99837 C 6699.6281 -2434.99837 6704.385912 -2430.240558 6704.385912 -2424.369464 L 6704.385912 -2133.818683 C 6704.385912 -2127.947589 6699.6281 -2123.189776 6693.757006 -2123.189776 L 6491.788256 -2123.189776 C 6485.917162 -2123.189776 6481.15935 -2127.947589 6481.15935 -2133.818683 L 6481.15935 -2424.369464 C 6481.15935 -2430.240558 6485.917162 -2434.99837 6491.788256 -2434.99837 Z M 6491.788256 -2434.99837 " transform="matrix(1,0,0,1,-6480.65935,2435.49837)"/>
<path style=" stroke:none;fill-rule:nonzero;fill:rgb(0%,0%,0%);fill-opacity:1;" d="M 8.726562 39.847656 L 11.75 38.90625 C 12.894531 41.902344 15.203125 42.785156 17.644531 42.597656 C 22.023438 42.253906 23.480469 37.449219 23.808594 33.195312 C 22.101562 34.96875 19.535156 35.871094 17.347656 35.785156 C 10.367188 35.414062 8.578125 29.929688 8.515625 24.183594 C 8.320312 19.335938 10.363281 15.828125 13.863281 14.21875 C 15.714844 13.402344 19.957031 13.402344 21.820312 14.367188 C 26.105469 16.585938 27.6875 20.417969 27.402344 29.558594 C 27.40625 37.082031 25.777344 45.847656 17.5625 46.035156 C 12.816406 46.679688 9.210938 43.054688 8.726562 39.847656 Z M 20.613281 31.605469 C 22.035156 30.71875 22.839844 29.890625 23.480469 28.644531 C 24.003906 27.621094 24.179688 27.089844 24.03125 24.972656 C 23.648438 19.515625 20.734375 16.425781 16.507812 17.039062 C 14.152344 17.382812 12.863281 18.679688 12.125 21.085938 C 10.757812 25.535156 12.488281 30.746094 15.734375 31.945312 C 17.195312 32.484375 19.449219 32.328125 20.613281 31.605469 Z M 20.613281 31.605469 "/>
<path style=" stroke:none;fill-rule:nonzero;fill:rgb(0%,0%,0%);fill-opacity:1;" d="M 214.761719 272.957031 L 211.734375 273.902344 C 210.59375 270.90625 208.285156 270.023438 205.84375 270.210938 C 201.460938 270.550781 200.007812 275.359375 199.675781 279.609375 C 201.386719 277.835938 203.953125 276.9375 206.136719 277.023438 C 213.121094 277.394531 214.90625 282.878906 214.972656 288.625 C 215.164062 293.472656 213.125 296.980469 209.625 298.589844 C 207.769531 299.40625 203.527344 299.40625 201.664062 298.441406 C 197.382812 296.222656 195.796875 292.390625 196.085938 283.25 C 196.078125 275.726562 197.707031 266.960938 205.921875 266.773438 C 210.667969 266.128906 214.273438 269.753906 214.761719 272.957031 Z M 202.875 281.203125 C 201.449219 282.089844 200.644531 282.917969 200.003906 284.164062 C 199.480469 285.1875 199.304688 285.71875 199.453125 287.835938 C 199.839844 293.289062 202.753906 296.382812 206.976562 295.769531 C 209.335938 295.425781 210.621094 294.128906 211.359375 291.71875 C 212.726562 287.269531 210.996094 282.0625 207.753906 280.863281 C 206.289062 280.324219 204.039062 280.480469 202.875 281.203125 Z M 202.875 281.203125 "/>
<path style=" stroke:none;fill-rule:nonzero;fill:rgb(0%,0%,0%);fill-opacity:1;" d="M 155.53125 151.820312 C 158.410156 146.046875 160.507812 140.121094 160.878906 133.785156 C 161.222656 131.453125 159.804688 131.414062 159.59375 133.054688 C 155.515625 148.648438 133.828125 144.425781 134.574219 129.757812 C 135.179688 117.863281 146.996094 115.304688 153.15625 119.195312 C 155.589844 120.628906 155.453125 119.769531 154.125 118.28125 C 144.96875 108.070312 150.515625 94.921875 162.886719 94.679688 C 176.265625 95.472656 179.738281 109.550781 171.53125 117.828125 C 170.511719 118.824219 168.246094 122.019531 171.652344 119.785156 C 179.941406 113.898438 191.441406 120.226562 191.207031 129.304688 C 190.773438 146.042969 170.367188 147.292969 166.003906 133.3125 C 165.582031 131.761719 164.375 130.984375 164.707031 133.617188 C 165.3125 138.382812 166.566406 145.570312 170.144531 151.820312 Z M 155.53125 151.820312 "/>
<path style=" stroke:none;fill-rule:nonzero;fill:rgb(0%,0%,0%);fill-opacity:1;" d="M 104.710938 178.972656 C 107.589844 173.199219 109.6875 167.273438 110.058594 160.9375 C 110.402344 158.605469 108.984375 158.566406 108.773438 160.207031 C 104.695312 175.800781 83.007812 171.578125 83.753906 156.910156 C 84.359375 145.015625 96.175781 142.457031 102.335938 146.347656 C 104.769531 147.78125 104.632812 146.921875 103.304688 145.4375 C 94.152344 135.222656 99.695312 122.074219 112.066406 121.832031 C 125.445312 122.625 128.917969 136.703125 120.710938 144.980469 C 119.691406 145.976562 117.425781 149.171875 120.832031 146.9375 C 129.121094 141.050781 140.621094 147.378906 140.386719 156.457031 C 139.953125 173.199219 119.546875 174.445312 115.183594 160.464844 C 114.761719 158.914062 113.554688 158.136719 113.886719 160.769531 C 114.492188 165.535156 115.746094 172.722656 119.324219 178.972656 Z M 104.710938 178.972656 "/>
<path style=" stroke:none;fill-rule:nonzero;fill:rgb(0%,0%,0%);fill-opacity:1;" d="M 54 151.820312 C 56.878906 146.046875 58.976562 140.121094 59.347656 133.785156 C 59.6875 131.453125 58.273438 131.414062 58.058594 133.054688 C 53.984375 148.648438 32.296875 144.425781 33.042969 129.757812 C 33.648438 117.863281 45.460938 115.304688 51.625 119.195312 C 54.058594 120.628906 53.921875 119.769531 52.59375 118.28125 C 43.4375 108.070312 48.984375 94.921875 61.355469 94.679688 C 74.734375 95.472656 78.207031 109.550781 70 117.828125 C 68.976562 118.824219 66.714844 122.019531 70.121094 119.785156 C 78.40625 113.898438 89.910156 120.226562 89.671875 129.304688 C 89.242188 146.042969 68.835938 147.292969 64.46875 133.3125 C 64.050781 131.761719 62.839844 130.984375 63.175781 133.617188 C 63.78125 138.382812 65.03125 145.570312 68.613281 151.820312 Z M 54 151.820312 "/>
<path style=" stroke:none;fill-rule:nonzero;fill:rgb(0%,0%,0%);fill-opacity:1;" d="M 155.53125 86.492188 C 158.410156 80.714844 160.507812 74.789062 160.878906 68.453125 C 161.222656 66.121094 159.804688 66.082031 159.59375 67.726562 C 155.515625 83.316406 133.828125 79.09375 134.574219 64.429688 C 135.179688 52.535156 146.996094 49.976562 153.15625 53.863281 C 155.589844 55.296875 155.453125 54.4375 154.125 52.953125 C 144.96875 42.742188 150.515625 29.589844 162.886719 29.351562 C 176.265625 30.144531 179.738281 44.21875 171.53125 52.5 C 170.511719 53.492188 168.246094 56.691406 171.652344 54.453125 C 179.941406 48.566406 191.441406 54.898438 191.207031 63.976562 C 190.773438 80.714844 170.367188 81.960938 166.003906 67.980469 C 165.582031 66.429688 164.375 65.652344 164.707031 68.285156 C 165.3125 73.050781 166.566406 80.238281 170.144531 86.492188 Z M 155.53125 86.492188 "/>
<path style=" stroke:none;fill-rule:nonzero;fill:rgb(0%,0%,0%);fill-opacity:1;" d="M 54 86.492188 C 56.878906 80.714844 58.976562 74.789062 59.347656 68.453125 C 59.6875 66.121094 58.273438 66.082031 58.058594 67.726562 C 53.984375 83.316406 32.296875 79.09375 33.042969 64.429688 C 33.648438 52.535156 45.460938 49.976562 51.625 53.863281 C 54.058594 55.296875 53.921875 54.4375 52.59375 52.953125 C 43.4375 42.742188 48.984375 29.589844 61.355469 29.351562 C 74.734375 30.144531 78.207031 44.21875 70 52.5 C 68.976562 53.492188 66.714844 56.691406 70.121094 54.453125 C 78.40625 48.566406 89.910156 54.898438 89.671875 63.976562 C 89.242188 80.714844 68.835938 81.960938 64.46875 67.980469 C 64.050781 66.429688 62.839844 65.652344 63.175781 68.285156 C 63.78125 73.050781 65.03125 80.238281 68.613281 86.492188 Z M 54 86.492188 "/>
<path style=" stroke:none;fill-rule:nonzero;fill:rgb(0%,0%,0%);fill-opacity:1;" d="M 68.703125 226.683594 C 65.824219 232.457031 63.726562 238.382812 63.351562 244.71875 C 63.011719 247.050781 64.429688 247.089844 64.640625 245.449219 C 68.71875 229.855469 90.402344 234.078125 89.660156 248.746094 C 89.054688 260.640625 77.238281 263.199219 71.078125 259.308594 C 68.644531 257.878906 68.78125 258.734375 70.109375 260.222656 C 79.261719 270.433594 73.71875 283.582031 61.347656 283.824219 C 47.96875 283.03125 44.496094 268.953125 52.703125 260.675781 C 53.722656 259.679688 55.988281 256.484375 52.582031 258.71875 C 44.292969 264.605469 32.792969 258.277344 33.027344 249.199219 C 33.460938 232.460938 53.867188 231.210938 58.230469 245.191406 C 58.648438 246.742188 59.859375 247.523438 59.527344 244.886719 C 58.921875 240.121094 57.667969 232.933594 54.089844 226.683594 Z M 68.703125 226.683594 "/>
<path style=" stroke:none;fill-rule:nonzero;fill:rgb(0%,0%,0%);fill-opacity:1;" d="M 170.234375 226.683594 C 167.355469 232.457031 165.257812 238.382812 164.886719 244.71875 C 164.542969 247.050781 165.960938 247.089844 166.175781 245.449219 C 170.25 229.855469 191.9375 234.078125 191.191406 248.746094 C 190.585938 260.640625 178.773438 263.199219 172.609375 259.308594 C 170.175781 257.878906 170.3125 258.734375 171.640625 260.222656 C 180.796875 270.433594 175.25 283.582031 162.878906 283.824219 C 149.5 283.03125 146.027344 268.953125 154.234375 260.675781 C 155.257812 259.679688 157.519531 256.484375 154.113281 258.71875 C 145.824219 264.605469 134.324219 258.277344 134.558594 249.199219 C 134.992188 232.460938 155.398438 231.210938 159.761719 245.191406 C 160.183594 246.742188 161.390625 247.523438 161.058594 244.886719 C 160.453125 240.121094 159.203125 232.933594 155.621094 226.683594 Z M 170.234375 226.683594 "/>
<path style=" stroke:none;fill-rule:nonzero;fill:rgb(0%,0%,0%);fill-opacity:1;" d="M 170.234375 161.578125 C 167.355469 167.351562 165.257812 173.277344 164.886719 179.613281 C 164.542969 181.945312 165.960938 181.984375 166.175781 180.34375 C 170.25 164.75 191.9375 168.972656 191.191406 183.640625 C 190.585938 195.535156 178.773438 198.09375 172.609375 194.203125 C 170.175781 192.773438 170.3125 193.628906 171.640625 195.117188 C 180.796875 205.328125 175.25 218.476562 162.878906 218.71875 C 149.5 217.925781 146.027344 203.847656 154.234375 195.570312 C 155.257812 194.574219 157.519531 191.378906 154.113281 193.613281 C 145.824219 199.503906 134.324219 193.171875 134.558594 184.09375 C 134.992188 167.355469 155.398438 166.105469 159.761719 180.085938 C 160.183594 181.636719 161.390625 182.417969 161.058594 179.78125 C 160.453125 175.015625 159.203125 167.828125 155.621094 161.578125 Z M 170.234375 161.578125 "/>
<path style=" stroke:none;fill-rule:nonzero;fill:rgb(0%,0%,0%);fill-opacity:1;" d="M 68.703125 161.578125 C 65.824219 167.351562 63.726562 173.277344 63.351562 179.613281 C 63.011719 181.945312 64.429688 181.984375 64.640625 180.34375 C 68.71875 164.75 90.402344 168.972656 89.660156 183.640625 C 89.054688 195.535156 77.238281 198.09375 71.078125 194.203125 C 68.644531 192.773438 68.78125 193.628906 70.109375 195.117188 C 79.261719 205.328125 73.71875 218.476562 61.347656 218.71875 C 47.96875 217.925781 44.496094 203.847656 52.703125 195.570312 C 53.722656 194.574219 55.988281 191.378906 52.582031 193.613281 C 44.292969 199.503906 32.792969 193.171875 33.027344 184.09375 C 33.460938 167.355469 53.867188 166.105469 58.230469 180.085938 C 58.648438 181.636719 59.859375 182.417969 59.527344 179.78125 C 58.921875 175.015625 57.667969 167.828125 54.089844 161.578125 Z M 68.703125 161.578125 "/>
<path style=" stroke:none;fill-rule:nonzero;fill:rgb(0%,0%,0%);fill-opacity:1;" d="M 13.660156 73.25 C 14.851562 70.804688 16.011719 68.53125 16.644531 65.851562 C 17.0625 63.320312 16.207031 64.261719 15.71875 65.917969 C 15 68.214844 12.996094 69.261719 11.140625 69.285156 C 7.769531 69.332031 6.085938 66.683594 6.191406 63.832031 C 5.824219 60.835938 8.863281 58.710938 11.152344 58.875 C 12.875 59 14.378906 59.929688 15.285156 60.652344 C 15.882812 60.964844 16.519531 61.105469 15.632812 60.292969 C 13.953125 58.460938 12.554688 57.328125 12.585938 54.582031 C 12.613281 52.003906 14.820312 49.3125 17.742188 49.398438 C 21.390625 49.503906 23.050781 52.289062 23.042969 54.878906 C 23.035156 56.765625 22.089844 58.503906 20.632812 59.582031 C 19.6875 60.347656 19.953125 60.921875 21.03125 60.195312 C 22.066406 59.304688 23.296875 58.914062 24.574219 58.886719 C 28.066406 58.832031 29.429688 61.847656 29.230469 64.652344 C 29.042969 67.277344 26.808594 69.980469 23.859375 69.671875 C 21.230469 69.371094 19.847656 67.164062 19.054688 64.894531 C 18.792969 64.199219 18.378906 64.011719 18.390625 65.050781 C 19 70.105469 20.882812 73.253906 20.898438 73.25 Z M 13.660156 73.25 "/>
<path style=" stroke:none;fill-rule:nonzero;fill:rgb(0%,0%,0%);fill-opacity:1;" d="M 210.566406 237.921875 C 209.371094 240.367188 208.210938 242.644531 207.582031 245.324219 C 207.160156 247.851562 208.019531 246.914062 208.503906 245.257812 C 209.226562 242.957031 211.226562 241.914062 213.085938 241.886719 C 216.457031 241.84375 218.136719 244.492188 218.035156 247.339844 C 218.402344 250.339844 215.363281 252.460938 213.070312 252.296875 C 211.347656 252.175781 209.847656 251.246094 208.9375 250.523438 C 208.34375 250.207031 207.703125 250.066406 208.59375 250.882812 C 210.273438 252.714844 211.671875 253.84375 211.640625 256.59375 C 211.609375 259.171875 209.40625 261.859375 206.484375 261.777344 C 202.832031 261.671875 201.171875 258.886719 201.179688 256.296875 C 201.191406 254.40625 202.136719 252.667969 203.59375 251.59375 C 204.535156 250.828125 204.273438 250.253906 203.195312 250.976562 C 202.160156 251.871094 200.929688 252.261719 199.648438 252.289062 C 196.160156 252.34375 194.796875 249.328125 194.996094 246.523438 C 195.183594 243.898438 197.417969 241.195312 200.363281 241.5 C 202.996094 241.804688 204.378906 244.011719 205.167969 246.277344 C 205.429688 246.972656 205.84375 247.160156 205.832031 246.125 C 205.226562 241.066406 203.34375 237.921875 203.328125 237.921875 Z M 210.566406 237.921875 "/>
</g>
</svg>
