<?xml version="1.0" encoding="UTF-8"?>
<svg xmlns="http://www.w3.org/2000/svg" xmlns:xlink="http://www.w3.org/1999/xlink" width="224.22508pt" height="312.80777pt" viewBox="0 0 224.22508 312.80777" version="1.1">
<g id="surface1">
<path style="fill-rule:nonzero;fill:rgb(100%,100%,100%);fill-opacity:1;stroke-width:0.996733;stroke-linecap:butt;stroke-linejoin:miter;stroke:rgb(0%,0%,0%);stroke-opacity:1;stroke-miterlimit:4;" d="M 6045.331222 -2746.809399 L 6247.299972 -2746.809399 C 6253.171066 -2746.809399 6257.928878 -2742.051587 6257.928878 -2736.180493 L 6257.928878 -2445.629712 C 6257.928878 -2439.758618 6253.171066 -2435.000805 6247.299972 -2435.000805 L 6045.331222 -2435.000805 C 6039.460128 -2435.000805 6034.702316 -2439.758618 6034.702316 -2445.629712 L 6034.702316 -2736.180493 C 6034.702316 -2742.051587 6039.460128 -2746.809399 6045.331222 -2746.809399 Z M 6045.331222 -2746.809399 " transform="matrix(1,0,0,1,-6034.202316,2747.309399)"/>
<path style=" stroke:none;fill-rule:nonzero;fill:rgb(0%,0%,0%);fill-opacity:1;" d="M 7.734375 46.5625 L 7.734375 43.828125 L 10.394531 43.828125 L 16.058594 14.554688 L 19.28125 14.554688 L 25.523438 43.828125 L 27.671875 43.828125 L 27.671875 46.5625 L 20.355469 46.5625 L 20.355469 43.828125 L 22.332031 43.828125 L 21.542969 39.339844 L 14.15625 39.339844 L 13.585938 43.828125 L 15.566406 43.828125 L 15.566406 46.5625 Z M 20.910156 36.148438 L 17.703125 20.476562 L 14.695312 36.148438 Z M 20.910156 36.148438 "/>
<path style=" stroke:none;fill-rule:nonzero;fill:rgb(0%,0%,0%);fill-opacity:1;" d="M 216.492188 266.242188 L 216.492188 268.980469 L 213.832031 268.980469 L 208.167969 298.253906 L 204.941406 298.253906 L 198.699219 268.980469 L 196.550781 268.980469 L 196.550781 266.242188 L 203.871094 266.242188 L 203.871094 268.980469 L 201.894531 268.980469 L 202.679688 273.464844 L 210.066406 273.464844 L 210.636719 268.980469 L 208.660156 268.980469 L 208.660156 266.242188 Z M 203.3125 276.660156 L 206.523438 292.328125 L 209.527344 276.660156 Z M 203.3125 276.660156 "/>
<path style=" stroke:none;fill-rule:nonzero;fill:rgb(0%,0%,0%);fill-opacity:1;" d="M 104.761719 184.972656 C 107.640625 179.199219 109.738281 173.273438 110.109375 166.9375 C 110.453125 164.605469 109.035156 164.566406 108.820312 166.207031 C 104.746094 181.800781 83.058594 177.578125 83.804688 162.910156 C 84.410156 151.015625 96.222656 148.457031 102.386719 152.347656 C 104.820312 153.78125 104.683594 152.921875 103.355469 151.4375 C 94.199219 141.222656 99.746094 128.074219 112.117188 127.832031 C 125.496094 128.625 128.96875 142.703125 120.761719 150.980469 C 119.738281 151.976562 117.476562 155.171875 120.882812 152.9375 C 129.171875 147.050781 140.671875 153.378906 140.4375 162.457031 C 140.003906 179.199219 119.597656 180.445312 115.234375 166.464844 C 114.8125 164.914062 113.605469 164.136719 113.9375 166.769531 C 114.542969 171.535156 115.792969 178.722656 119.375 184.972656 Z M 104.761719 184.972656 "/>
<path style=" stroke:none;fill-rule:nonzero;fill:rgb(0%,0%,0%);fill-opacity:1;" d="M 13.40625 75.679688 C 14.597656 73.234375 15.757812 70.960938 16.390625 68.277344 C 16.8125 65.75 15.953125 66.691406 15.464844 68.347656 C 14.746094 70.644531 12.742188 71.691406 10.886719 71.714844 C 7.515625 71.761719 5.832031 69.113281 5.9375 66.261719 C 5.570312 63.261719 8.609375 61.140625 10.898438 61.304688 C 12.621094 61.429688 14.125 62.355469 15.035156 63.082031 C 15.628906 63.394531 16.265625 63.535156 15.378906 62.722656 C 13.699219 60.890625 12.300781 59.757812 12.332031 57.011719 C 12.359375 54.433594 14.566406 51.742188 17.488281 51.828125 C 21.140625 51.933594 22.800781 54.71875 22.789062 57.308594 C 22.78125 59.195312 21.835938 60.933594 20.378906 62.011719 C 19.433594 62.777344 19.699219 63.351562 20.777344 62.625 C 21.8125 61.734375 23.042969 61.34375 24.320312 61.316406 C 27.8125 61.261719 29.175781 64.277344 28.976562 67.078125 C 28.789062 69.707031 26.554688 72.40625 23.609375 72.101562 C 20.976562 71.800781 19.59375 69.59375 18.804688 67.324219 C 18.539062 66.628906 18.128906 66.441406 18.136719 67.476562 C 18.746094 72.535156 20.628906 75.683594 20.644531 75.679688 Z M 13.40625 75.679688 "/>
<path style=" stroke:none;fill-rule:nonzero;fill:rgb(0%,0%,0%);fill-opacity:1;" d="M 209.875 237.511719 C 208.683594 239.957031 207.523438 242.234375 206.890625 244.914062 C 206.472656 247.441406 207.332031 246.503906 207.816406 244.84375 C 208.539062 242.546875 210.539062 241.5 212.398438 241.476562 C 215.769531 241.429688 217.449219 244.082031 217.34375 246.929688 C 217.714844 249.929688 214.675781 252.050781 212.382812 251.886719 C 210.660156 251.765625 209.160156 250.835938 208.25 250.113281 C 207.65625 249.796875 207.015625 249.65625 207.90625 250.46875 C 209.582031 252.304688 210.984375 253.433594 210.953125 256.179688 C 210.921875 258.761719 208.71875 261.449219 205.796875 261.363281 C 202.144531 261.257812 200.484375 258.476562 200.492188 255.882812 C 200.503906 253.996094 201.445312 252.257812 202.90625 251.183594 C 203.847656 250.414062 203.585938 249.84375 202.507812 250.566406 C 201.472656 251.460938 200.238281 251.847656 198.960938 251.875 C 195.472656 251.933594 194.105469 248.914062 194.308594 246.113281 C 194.496094 243.488281 196.730469 240.785156 199.675781 241.089844 C 202.308594 241.390625 203.6875 243.601562 204.480469 245.867188 C 204.742188 246.5625 205.15625 246.75 205.144531 245.714844 C 204.539062 240.65625 202.652344 237.511719 202.640625 237.511719 Z M 209.875 237.511719 "/>
</g>
</svg>
